<svg xmlns="http://www.w3.org/2000/svg" viewBox="0 0 600 894"><defs><style>.cls-1{fill:#757e50;}</style></defs><title>Layer 3</title><g id="Layer_2" data-name="Layer 2"><g id="Layer_3" data-name="Layer 3"><path class="cls-1" d="M0,0H.89C5.52,3.16-2.55,10.22,5,11.06c4.3-2.4,10.27-5,14.23-.18,4-.08,9.14-5.81,12.15-.24,3.68,5,10-2.18,14.41-2.64,2.17,2.54,5.34,5.5,7.94,1.73,9.63-4,20.66.72,30.73-.18,5.7-.69,13.77-1.33,17.29,4.3,2.9-8.3,15.23-.32,20.83-5.29,4.92-5.13,8.94,6.52,13.65.84,5.71,3.92,11.18-.12,17.16,1.93,1.88,8.62,13.3-3.85,17.05,3.13,1,1.38.34-2.78.76-3.55,2.64.28,3.3,3.44,5,5.05,3.92-6.15,12.24-9.11,18.33-4.56,5.57.83,14,3.59,17.86-2.13,3.7-.19,7.19,2.2,10.23,4.18,1.07-2.22,3.09.93,4.68,1.15,3.24.16,6.5.64,9.74.6,3.08,0,.22-4.22.85-6.16C244.34,7.32,249,0,256.4,2.63c3.45-.19,2.48,6.08,6.27,4.11,2.4-2.53,8-9.41,7.68-1.92C279,7.61,288.48,5,297,8.12c1.3-4.21-2.78-3.47-6.11-3.3,2.75-3.62,9.9-3.05,11.79.1-2.51,4.93,6,5.77,4.76.37,5-4,6.92,2.11,3.56,5.62,4.52,1.54,11.86-1.47,13.3,5.05,4.11.11,11.58-1.18,9.16-6.9,4.83,2,9.29-4.87,13,.48,6.77-.31,13.08,2.73,19.59,4.17,3.62-.67,6.44-3.17,9.25-5.36,3.6-.17,2.3,3.11,2,5.46,9.5,1.48,19.42,3.07,28.88.5C416.5,16.68,428,12,438,17.77c15.94-3.09,32.74,1.73,48.11-4.49,3.49,2.22,7.33,3.79,11,5.69,4.57-.84.91-9.54,8-6,4.41-.46,7.5,6.35,10.09-.47,9.6,2.69,24,9.25,30-3.21,4.93,3.36,11.58,1.92,16.09,6.5,6.24-.52,12.43-1.81,18.73-1.85,3.18-.16,1.16-7,4.85-5.75,2.7.62-1.38,6.33,1.64,4.19,4.27-4.84,9.75,2,9.19,6.63.85,3.32,2.81,6.33,3.38,9.77-5-.94-5.09,4.32-.09,3.61,0,9.21.79,18.57-.61,27.7-1.61,1.75-.69,3.42,1,4.72-1.7.9-.36,2.86,0,4.14q-.09,4.07,0,8.14a6.56,6.56,0,0,0,0,4.89c-.18,3.68-.3,7.38-.29,11.07,0,1.76-.09,5.28-.11,7l-1,.21h-.8c-3.36-3.15-2.15-8.66-4.93-12.31-3.33-3.11,6.2-13.69-1.1-9.13-2.83-3.71-2.69-8.54-3.17-12.94-2,2.27-1,8-4.79,8.1-4.31-.77-2.85-6.87-6.73-7.78-2.09,2.81-3,3.57-3.46-.29-5.32.33-5.5,6.73-9.48,9.13,1.7,3.24,6.83,4.51,10.62,6-1.24,6.69-8.21-4.14-7.12,3-.36,2.88-.59-3.37-2.78-2.12-1.81,3-1,6.89-1.75,10.26,1.65-.64,3.16-1.57,4.75-2.35a46.62,46.62,0,0,1-5.74,7c-1.07-6-7.92-3.57-10.42.15,3.2-6.54-5.25-3.93-3.26-10.87-1.48-.41-9.88-7.25-6.48-2.46,1.68,2.19-2.84,2.78-4.33,3.31,1.33-4.19.72-4.24,2.93-7.65-4.75,1-5.5-8.19-7.8-5.54,4.79,4.75-6.68,6-1.1-2-4.7,1.33-1.3,6.71-3.64,9.26-2.36-2.49-2.73-5.85-3.42-9-6.63-.82.71,9.84-5.15,6.13.21,1.68,1.9,1.69,3.2,2.1-1.45,1.85-3.52,3.36-4.1,5.75,1.54-.87,3-1.93,4.4-3,.8,5.05-6,4.55-8.81,7,1.77-4.15-6-3.19-1.53-7.37-5,5-3.81-3.13-8.63-2.68-1.15,5-5.16,8.18-7.9,12.29-.92,2.19-3.68.68-5.45.92.84,3.72,4,8.5.93,11.78-3.18-.42-5-3.69-7.92-4.83-6.84-.87,2.34-13.89-4.78-11.31,1.55-4.1-.89-2.81-3.12-.75.94,1.53,3.84,2.42,2.78,4.57-1.77,4-6.65.21-7.46-2.74,0-2.34,3.69-7.07-.25-7.15-6.59-2.47-1.48,8.25-8.72,8.46,1.56-4.78-3.23,0-5.46.49,1.62,1.69,5.89,2.14,2.45,4.58-3.73,4.92-10.8-9-12.82-.69-2.11,4,6.49-3.19,3.57.45-2.75,2.13-1.8,4.54,1,6-2.49,1.35-7.24-.73-8.05,2.94-.81,2.15,1.35,1.86,2.79,2.08-3.9,3.92.91,9.63,5.46,10.64-5.49,1.46-10.21,1.62-11.45-4.4-3.58,4.25-9.87-3.79-6.93,3.72-4-1.15-1.58-9.21-6.67-3.89,3.21-6.87-5.67.92-.31,1.51,4.69-1.35-1.76,3.77-1.37,6.21-2.48-1.86-9.8-6.34-4.27-8.61,3.95-.8,2.14-4.87,1.61-7.64a15.28,15.28,0,0,0-10.29-.05c-3.67,1.94-6.66-4.87-9.71-.86a14.08,14.08,0,0,0-8.89-3.47c-1.23,1.37-4.94,4-4.83.07,3.77-1.59,8.77-3.2,9.29-8,.2-4.2,4.95-1.3,7.71-1.57-2-4.33-7.14-5.63-10.66-2.29-4.5-5-7.37,4.73-12.47,3.69,2.35,1.63,4.13,3.2-.11,3,7.1,3.14-4,4.77.65,8.22,4.82,2.57-3.12,5.32-2.55,9.38,8.69,6.71,9.57,18.3,17.17,26,4.29,2.2-.64,6.82,3,9.93,1.71,3.26,5.17,7.31,1.37,10.4-1.56-3.95-3.11-7.91-4.72-11.84-2.22-5-4.16-10.28-8-14.23l-.85-1a39.45,39.45,0,0,0-3.15-6c-.62-2.3-1.33-4.78-3.88-5.58v-.68c.46-1.84-1.32-3-3-2.79-1.22-1-2.4-2-3.57-3-.09-.58-.27-1.74-.37-2.32a2.49,2.49,0,0,0-3-2.68,26.57,26.57,0,0,0-3.09-2.19,5.67,5.67,0,0,0-4-1.84l-1-1c-.18-.57-.53-1.71-.71-2.27,1.61-2.9-2.73-2.24-4.44-2.79l-2.05-.94c-.88-.45-1.77-.87-2.66-1.28A6.33,6.33,0,0,0,350,94.62a44.67,44.67,0,0,0-13-5.5l-1.33-.19c-1.81-2.15-5.28-2.25-7.91-1.9-6.78-1.42-13.54-3-20.5-3.3a30.67,30.67,0,0,0-10.47,0c-4.91.29-9.79.7-14.65,1.41-1.42-.54-3.17-.63-4.22.66A44.55,44.55,0,0,1,270,87.14c-1.77-.26-3.15.93-4.17,2.22-.94.46-1.86,1-2.83,1.33-.31-1.28-.65-2.55-1-3.81,4.79-3.13-2.59-4.23-4.52-1.39-4.49,3.39-7-3.48-10.4-5.48a31.79,31.79,0,0,0-5.64,10.6c-4.7,4.34-8-6.54-13.12-4.37-3.37,2.77-6.17,6-6.63,10.46-5.09,3.58-6-2.51-6.2-6.48-4.09-.08-11.91-3.32-13.45,2.46,2.85-.06,8.63,3.35,3.78,5.21-4.46,4-2.58-4.71-6.69-4.76-1.39,1.55-2.79,1.79-4.22.17-3.38,4-14.46-2.47-12.07,4.78-1.58-2.3-3.75-3.52-6.54-2.77-1.62-2.09-3.52-3.49-6.26-2.65-.78-2.64-.06-5.53-1.3-8.07-2.12-1.27-4.8-.28-6.82-1.68.34-2.69,4-2.4,4.1-5-2.95-.43-5.53,1.25-7.56,3.19.83,2.85.42,6.91-3.35,6.92-1.41-1.72.51-4.23-1.14-5.81a50.46,50.46,0,0,1-8.1,3.23c1.94,1.9,4.23.52,6.33-.27a24.2,24.2,0,0,1-4,6.84c.47-7.28-8.88-4.93-11.22-1,2.71,2.73-.2,5.65-2,8.16-1.05-4.62-.54-11.48-7.56-11.64-5.21-.9,1,7.31,4.35,4.6-1.05,2.28-2.65,7-5,3C125,91,117.57,96.21,122.15,99c-2.13-3.2-11.09-3.74-6.29,1.14-5,3.13-5.52-1.79-5-6.2-3-.57-2.73,3.3-3.31,5.21a53.47,53.47,0,0,1-1.87-5c-1.64,2.87-7.42,3.53-5.84,7.44-2.2-.73-4.07.38-5.9,1.5-.94-3.71,4-5.18,3-9,0-2.81-2.74-1.95-3.76-.24.71-4.54-5.2-3.11-7.33-1-2.44,4.64-8.34,5-12.78,3.22,2.53,4.89-1.26,8.46-5.66,9.67-2.19-5.2-8.11-2.88-7.61,2.36-1.2-3.79-6-3.18-7.35-5.91-.17-3.15,2.38-2.86,4.68-2.45-1.55-2.28-3.74-6.13.13-2.8,5.55-.6,1.65-5.24,3.3-8.61-3.73-2.12-4.94-7.05.46-7.63-1.8-3.86-5.66-2.73-6.17,1.23C49.9,79.8,47.74,85.24,43.91,87c-3.09.07-5.52-5.5-8.46-2.61-2.17,2-4.25,4-7.49,3.86.59,2,2.15,3.42,3.2,5.15-2,.16-4,1.28-5.75-.2-.44,3.87-3.89,5.2-7.31,5.61C18,93.72,21.27,89,20.19,83.94c-.12-3.65-4.21.22-6.21.2.35-4,5.23-8.89-1.07-9.26.79-3,6.08-2.95,5.19-6.93-3.4,1.25-6.74,2.86-7.79,6.62-5.91-1-.89,6.41-3.46,9.26C3,88.66,8.52,94.47,5.78,99.58c-.83,10-.61,19.87,2.38,29.49,2.15-1.58.15-7.06,3.6-6.74,2.23-.62,1.56,3.18-.56,2.31-2,5.68-5.5,10.65-8.42,15.89,3-1,2.42,5,3.63-.25,2.3,2-2.46,7.94-6.41,7.75Z"/><path class="cls-1" d="M236,0h1.82c0,.49.07,1.47.09,2l-.86.41Z"/><path class="cls-1" d="M600,15.28c-5.14-.38-4.65-8.59,0-7.45Z"/><path class="cls-1" d="M248.71,93.55c3.25-2.39,6.67-5,11-4.76l1.6,2.4-3.09.82c-3.08-.05-5,2.77-8,3.08Z"/><path class="cls-1" d="M462.13,93.42c.4.4,6.12,4.38,1.92,3.64-2.64-.5-2.35,3.63-5.05,3C460.87,98.19,461.17,95.45,462.13,93.42Z"/><path class="cls-1" d="M470.31,94.25c2.07,1.13-.05,3-1.73,2.59C465.61,97.08,468.9,94.06,470.31,94.25Z"/><path class="cls-1" d="M123,97c2.22,1,7.31-.3,7,3C127.24,99.74,121.46,101.7,123,97Z"/><path class="cls-1" d="M237.65,101.92c1.15-2.27,2.91-5.54,5.94-4.15,0,1.18,0,2.37,0,3.55-1.9,3.11-.71,6-4.45,4.54l-.88-2.25C238.13,103.19,237.81,102.34,237.65,101.92Z"/><path class="cls-1" d="M452.19,98.12c2.17.52,2.92,2.62,5.94.9C457.09,103.05,447.73,101.85,452.19,98.12Z"/><path class="cls-1" d="M29.18,99.4c2.05-.57,3.49.32,4.17,2.32,1.6-.58,2-3.69,4.7-2.84C36,101,33.44,103.43,35,107c3.91.14,5.26-5.44,7.07,1-8.78,3.44-6.68-3.35-10.94-7.08.47,2.17-1.26,4.61-1.19,1.07-.56-2.78-1.31.94-1,2C27.86,107.87,26.33,100.06,29.18,99.4Z"/><path class="cls-1" d="M458.33,101.27c1.71,1-1.46,3.06-2.41,3.68C454.19,104,456.8,101.28,458.33,101.27Z"/><path class="cls-1" d="M24.91,102.91c2.78,1.27,2.74,6.94.24,7.89C23.31,107.71,27.17,106.86,24.91,102.91Z"/><path class="cls-1" d="M599.22,104l.78.15v6.65l-.77.15C599.23,109.24,599.22,105.76,599.22,104Z"/><path class="cls-1" d="M46.49,108.42c.42-1.12.58,8.84-1.4,4.56.37-4.32-8-3-6.25,1.13-.49-2.47-5.72-3.48-4.83-.1-.57,5.48-1.76-2.5-1.95-4.88C36.63,108.67,42.83,110.87,46.49,108.42Z"/><path class="cls-1" d="M227.64,115.29A6.69,6.69,0,0,1,232,109a21.41,21.41,0,0,1-2.18,4.36Q228.74,114.3,227.64,115.29Z"/><path class="cls-1" d="M599.23,111l.77-.15v33.62l-1.42-.79C597.37,132.69,599.15,122.06,599.23,111Z"/><path class="cls-1" d="M20.08,112.2c1.89.59,2.25,4,3,5.91C20.86,114.43,16,117,20.08,112.2Z"/><path class="cls-1" d="M170.28,114.31c1.39.28,1.39,4.1,0,4.38A4.77,4.77,0,0,1,170.28,114.31Z"/><path class="cls-1" d="M29.46,121.45c2.25.38-2.56,3.88-1.71,6.43C24.57,128.69,27.5,122.44,29.46,121.45Z"/><path class="cls-1" d="M595.23,121.4c1.71.33,2.78,4.42,1.13,5.23C595.77,125,594.46,123.15,595.23,121.4Z"/><path class="cls-1" d="M15.08,123.86c3,0,2.92,4,3,6.2C16.23,128.84,16.3,125.78,15.08,123.86Z"/><path class="cls-1" d="M16.21,132c4.87-1.21.58,3.41.56,5.87C13.74,136.11,17.07,134,16.21,132Z"/><path class="cls-1" d="M534.43,132.27c2.42-1.2.85,4.49-1,3.6C533.09,134.67,533.79,133.28,534.43,132.27Z"/><path class="cls-1" d="M204.9,153.88c2-4.52,3.23-11,8.1-12.91a31.83,31.83,0,0,0-3,7.2c-.57,1.19-1.2,2.36-1.85,3.51a7.12,7.12,0,0,0-2.63,2.51Z"/><path class="cls-1" d="M22.3,142.37c1.5.76.89,3.81.41,5.27C21.34,146.7,20.74,143.7,22.3,142.37Z"/><path class="cls-1" d="M600,156.17c-2.72-.87-3.15-9.36,0-10.58Z"/><path class="cls-1" d="M0,151.59a54,54,0,0,1,6.63,7.77c.74,4.68-.17,10.49,4.82,13.06,3.74.79,5.95,4.16,9.31,5.65.89-1.81,2.61-7,4.73-4.45-.21,3.94,6,4,7,.69,3.78,5.83,11,2.58,15-1.36l.63-.31c3.06,7.6,3.15-11.6,5.22-4.44.37,4.53,3.69-1.17,3.06-3.32a97,97,0,0,1,6.73,15c4.32,2.88,6.51,12.19,12.62,8.8-4.28-9.64,6.17-2.34,1.46-.66,1.49,2,3.63-2.09,5.24-.47,2.4,3.41,3.69-2,5.42-3.56.92,2.41,1.5,4.79-2,4.52,3.12,1.13,6.47,1.58,9.35,3.34a32.35,32.35,0,0,0-3.32-9.69c2.73,1.7,5.72,2.17,8.18-.26-.18,2.44-.69,4.85-1,7.28,2-1.55,3.32-4.22,5.79-5,2.45,3.26,5.82.19,8.92.12,3.45.51,1.71,5.4,4.86,6.2,2.43,1.48,4.13-2.05,6.13-3.06,2.36,2.57,6.22,3.71,6.83,7.61.81-5,5-2.69,6.53.49,6.13-.63,5.15,7.7,5.89,11.53,2.94,5.29-2.22,5.2-4.84,6.79-1.59-2.32-4.63-1.25-7-1.49,0,5.1.22,10.41-2.84,14.76.3-4.61-3.42-7.65-8.29-6.3.9-2.89,2.2-5.67,2.72-8.68-2-2.77-11.18,1.4-7.94-4.24,2.85-3,3.1-7.07,3.15-11.08-3,1.76-1.25,7.68-4.24,2.4-5.2,2.87-14.64-1.62-15.89,5.69-.92,2.4-4.11,2.45-5.75,4.25.75,2.41,3.79,3,5.74,4.21-4.43,3.38-3.25,9.78-6.68,13.58-3-6.82-12.69-9.6-18.94-4.72-3.22,1.51-.74-2.84-.16-4.17-4.76-.55-4.16,7.54-9,8.1-2.29.23-6,3.14-6.77-.41-.41-4.48-6.75-1.76-6.9,1.33-2.9-.19-.19-4.7,0-6.63,1.75-.35,3.84-.46,3.47-2.77,1.92-8.48-15.83,5.89-6.87,3.5,1.32,4-8,11.1-5.22,4.53-2.06.76-1.59,4.3-4.48,3.25-1.19-2.9-3.82-6.77-.57-9.27,2.93-1.8,1-4.77.35-7.29,1.75.11,3.49.25,5.24.29-.46-3.15-6.4-2.54-3-5.34,3.14-1.73,3.66-12.68-.47-7.33-1.77-5.37,6-.09,5.06-4.77-1.83-2.93-4.49.75-6.76,1a16.21,16.21,0,0,1,2.71-6.51c-2.86-.35-7.8,1.47-5.12-3.05,2.55-3-1.4-4-1.58-.62C27.86,187,24,201.63,19.08,194c-4.33-2.16-11.61-.89-13.24-6.82-.5-3.15-3.71-2.06-5.84-1.38v-6.2a14.31,14.31,0,0,0,2.14-4.7c4-1.36-1-4.16-2.14-6.07v-17.2Z"/><path class="cls-1" d="M401,160.7c5.95,8.19,10.06-6.08,17.64-4.35,1.73,2.75,7.19,13.43,5.34,2.58.85,3.35,11.53,4.38,4.69,5.49,1.5,3.41,7.51,1.73,8.4-1.38,1.36-3.59,5.77-2.64,8.67-2a15.31,15.31,0,0,0-2.05,5.81,6.46,6.46,0,0,1,7.24-.9c-3.14,4.42-3.05,9.24-.6,14.12a22.34,22.34,0,0,0,10.2-4.51c1.32-3.77,1.65-8,3.64-11.48,4.29-1.47,2.45,3.54,1.83,5.92-2.2,4.87-5,9.6-5.07,15.13,3.26-2.59,8.81-10.57,8.63,0-4.56,2.33,5.34,9.77,1.69.41,1.16-5.68,1.15-12.34,5.66-16.56,3.47,5.07,2.43,11.69,3.81,17.39-.16,6.43,13.2.09,7.45,7.7,6.83,5.31,1.37,15.71,6.52,22.24-2.1,5.92,7.69,6.74,3.66,13.42,3.07,5.63,12.94,3.82,14.58,10.17-4.71,1-9.44,1.91-14.22,2.44,6.8,2.47,14.35,9.29,22.29,4.88,6.18,3.27,9.19-2.84,15-2.4-.09-5.2-4.8-.24-7.61-.58,1.33-3.18-1.87-.88-3-2.57-4.74-3.48,7.33-6.1,5.93-.54,2.28-6.46,11.62-2.76,17-2.93,2.37-1.89,10.31,1.83,5.73-2.18,12.8.84,25-4,34.79-12.26,0-3.81-.6-7.6-.28-11.41-4.72-4.08,2.47-9.69-.42-14.4-4.06-2.16-9.62,3.48-10.58,7.94-2.76-4.36-3.5,4.67-4.14,7,2.08,3.81,6.7,6.14,6.37,11.22-.31,4-4.58-.6-6.81.82-3.34,1.36-7.29,3.11-8.22,6.92-1.47,2.38-3.78.78-3.48-1.56-1.31-3.17,4.28-5.92.9-8.5-.85-3.22.41-6.56,1.55-9.57-2.62.62-5.9-2.55-1.58-1.48,5.75.67,4.65-6.16,3.85-9.76,2.86-.6,3.57,2.19,4.74,4.13.86-6.71,5.69-11.77,7-18.38,3.14-4,5.65,7,7.47,1.51.56-6.23,7.12-6.12,11.67-8,.32,1.41,1,4.23,1.3,5.64,1,3.39-2.21,9.1,1.83,10.7v4.74l-1.65-.44-1.4-.74c-.42,7.24.41,14.73-1.52,21.81a17.26,17.26,0,0,0,2.29,2.23c-.12-6.35.19-12.71.29-19.05l2,.9v37.47c-.5-2.61-.48-5.29-1.57-7.7.64,7.44-7,8.83-11.72,12-.89,2.52-3.58,2.07-5.7,2-5.55-.6-11.12,1.26-15.85,4-4.93-2.61-8.85-9.2-15.16-7-6.18-2.16-6.82,7-10.41,10.08,3.55,5.76-3.56,3.95-6.37,7.21-1.89-6.36,5.3-7.58,4.5-14-3.5-1.87-1.16,3.65-3.15,1.58-3.17-7.22-7.18,6-8.69,7.35-2.59-7.61-11.16-6-16.69-2.7-4.95,2.94-12.51,1.84-14.22-4.25-9-.68-17.17-6.4-26.42-5.71-10.22,1.07-20.31-1.45-30.53-1.15a33,33,0,0,1-3.95-1c-1.06-1-2.13-2-3.22-3,.29-1.29.61-2.56,1-3.82,8.84-2.8,17.42,2.76,26.18-.19,1,1.53,9.35-2.55,7.34,2,10.32-2.81,21.6.78,32.7-.16.17-4.31-4.6-2-7.15-2.73-4.93-1.07.77-1,3.9-1.19-.05-3.67-2.17-6.13-5.59-7.2.44-5.41.29-11.17-3.94-15,1.5-3.26-1.89-6.29-4.14-2.92-.4-2.55-.38-6.74-4-5.32-1.81-3.32.75-7.17-1.31-10.34-2.81-.91-2.33,3.32-4.17,4.48a45.15,45.15,0,0,1-8.58,2.75c.75,3.3,2.52,6.76-.18,9.77-2.22-1.59-4.29-3.29-7-3.92-1.54-3.24-1.38-6.83-.88-10.28-6.12-.73,1.79,11.4-6.28,6.18-2.52-1.1-6.42-.17-7.51-3.24-1.69-4.38-6.5-9.47-11.32-6.12-6.89.56,4.45-7.08-3.82-4.78,4.11-2.77-1.92-2-4-3a22.91,22.91,0,0,0-1-3.76c2.64-1,7.1-1.32,6.1-5.26-4.7,5.33-10-.65-10.37-6-2.65,2.13-4,6.58-7.49,7-3.14-1.86-1-11.54-6.65-10.11A36.82,36.82,0,0,1,401,160.7Z"/><path class="cls-1" d="M600,166.25c-1.73-3.07-2.4-6.57,0-9.5Z"/><path class="cls-1" d="M598.07,183.87c1.6-5.23-1.69-13.74,1.93-17.05v18.51Z"/><path class="cls-1" d="M47.44,173c-4.88-1.4-.34-4.67.63-.31Z"/><path class="cls-1" d="M189.91,183.08c3.14-7.22,3.74,3.34-1,4.07C189.19,185.79,189.53,184.43,189.91,183.08Z"/><path class="cls-1" d="M566.37,180.31c2.86-2.06-.5,7.6,2.64,4.69,2-4.91,4.54,3.05,1.5,4.51-1.77,4.21-5.92,2.41-9.45,3.49-5.11-1,2.26-6,0-8.73C564.19,186.11,564.83,182.28,566.37,180.31Z"/><path class="cls-1" d="M188,190.59c2,.64,2.64,2.68,3.38,4.4-1.42,1.44-3.12,2.69-3.84,4.67l-.9,1.66C184.17,197.89,187.47,194.15,188,190.59Z"/><path class="cls-1" d="M184.93,207c-.07-2.07-.57-5,2.31-3.34,1,3,2.45,5.78,3.7,8.67-.7,1-1.37,2.06-2.08,3.09C185.22,213.3,189.3,201.33,184.93,207Z"/><path class="cls-1" d="M103.25,208.23c3-1.13.83,4.23,3.87,4.83C103.94,214.22,98.64,210.46,103.25,208.23Z"/><path class="cls-1" d="M29.05,208.89c7.76,2.66,0,10.55,1.76,15.24C25.85,222.9,30.71,212.82,29.05,208.89Z"/><path class="cls-1" d="M160.86,210.29c1.94,1.66,5.71.18,6.78,2.43-6.31,4.47,3,11.75-1.36,17.54-1.33.67-2.7,1.49-4.24,1,.73-4.44-.55-16.43-5.06-8.47-1,1.65-.88,4.31-2.74,5.24a27.82,27.82,0,0,0-3.62-5.31,6.56,6.56,0,0,1,7.77-5A16.9,16.9,0,0,1,160.86,210.29Z"/><path class="cls-1" d="M168,213.66c2.16.17,4.3.51,4.43,3.1,2.41.61,1.11-4.21,4.4-2.72.47,3.05.72,6.14,1.1,9.21C174.24,220.09,169.07,219.55,168,213.66Z"/><path class="cls-1" d="M140.93,222.09c0-1.94-.17-5.74,2.84-5,1.82,2.61,2.24,7.23,6.22,7.23q-.48,1.46-1,2.91c-.23.23-.68.71-.9.95C146.38,225.45,145.19,219.4,140.93,222.09Z"/><path class="cls-1" d="M178,224.29c2.5-2.12,2.1-5.46,6.5-2.79a2.24,2.24,0,0,0,.46,2.76l2.25,2.2c-1.88.07-2.18,1.95-.1,2-1.29.32-2.61.55-3.91.81,2.6-8.13-3.23-.27-2.27,3.81,0,.78,0,2.34,0,3.13-3.14-.43-5.26-7.56-.79-5.49A7.76,7.76,0,0,1,178,224.29Z"/><path class="cls-1" d="M186.74,223.32a4.94,4.94,0,0,1,1-3.31C188.41,221,188.78,224.9,186.74,223.32Z"/><path class="cls-1" d="M139,224.12l1.9-1.08C142,226.88,137.73,229.65,139,224.12Z"/><path class="cls-1" d="M77.31,226.26c1.81.69-.69,3.84-2.1,3.36C74.55,228.19,76.13,226.79,77.31,226.26Z"/><path class="cls-1" d="M58,230c3.21-1.37,3.29,1.94,1.9,3.85C57.9,234,57.88,231.46,58,230Z"/><path class="cls-1" d="M35.2,234.39c.73.34,1.76,2.05,3.92.63C38.29,238.09,31.77,237.88,35.2,234.39Z"/><path class="cls-1" d="M40,234.17l2.81-.29c4.84,3.16,14-2.95,15.84,2.86-2.05,5.7-3.05-.45-6.83-.16-2.55.43-5.07-.78-7.58,0C44.26,233,38.83,238.28,40,234.17Z"/><path class="cls-1" d="M3.9,238c6-1.54,12.07-2.94,18.31-2.65-.57,4.62-7.26.95-8.5,4.92-.87,2.31-3.42,3.61-5.78,3.85a27.2,27.2,0,0,0,2.26-5c-1.82.26-3.7,1.58-5.44.34L3,238.7Z"/><path class="cls-1" d="M83.29,235.27c2,.47.07,4.83-1.65,3.12C80.5,237.21,82.24,235.73,83.29,235.27Z"/><path class="cls-1" d="M23,236,33.08,236C31.61,238.19,23.92,238,23,236Z"/><path class="cls-1" d="M413.19,236.15l2.16-.64,2.79,1.34c.21.36.64,1.06.85,1.41,0,.43.05,1.29.07,1.72l-.12.84c-1.17,0-5.5,2.1-3.36-.23,3.17-3.42-2.25-.7-3.77.37l-.2-.82A15.24,15.24,0,0,0,413.19,236.15Z"/><path class="cls-1" d="M425.18,238.1c2.34-.69,4.12.54,5,2.69-3.4-2.88-4.43-.46-5.37,2.89-2-.89-3.9-1.89-5.84-2.86l.12-.84A4.92,4.92,0,0,0,425.18,238.1Z"/><path class="cls-1" d="M53.89,248.79c-2.2.37-1-5.39.31-2.72C54.13,246.75,54,248.11,53.89,248.79Z"/><path class="cls-1" d="M597.11,261l2.89-.1v.75c-2.15,1.26-3.29,5.36,0,5.87v4.78c-2.09-4.58-1.67,1.36-4.8,1.68-1.41-3.46-2.85-12,.61-4.66q3.21,1.68.4-4.06c-2.63-1.37,2.28-1.17-.35-2.25Z"/><path class="cls-1" d="M575.38,267l2.19,0C578.08,270.56,571,270,575.38,267Z"/><path class="cls-1" d="M528.31,272.45c.9-.91.53,3.62,3,3.18,5.12,1.6-4.61,5.6-2.47.41C524.64,280,526.45,275.12,528.31,272.45Z"/><path class="cls-1" d="M37.72,279.37c1,.82,3,1.17,3.1,2.68C38.49,283.68,37.37,281.6,37.72,279.37Z"/><path class="cls-1" d="M594.45,281.38c2.52-2.26.78,3.72,2.14,2.16,3.64-4.77-.07,5.65-1,7.52-1.88-1.32-1.82-3.85-2.85-5.72-1.75-1.61.33,3.66-1.87,2.64C590,284.81,592.9,283.51,594.45,281.38Z"/><path class="cls-1" d="M37.8,299.84c-.69-1.66.55-3.61,2.2-2.09l-1.38,2.49Z"/><path class="cls-1" d="M559.13,297.07c1.73.56.64,4.23,1.63,6C556.41,304.3,559.59,299.44,559.13,297.07Z"/><path class="cls-1" d="M169.46,304.73c1.42-3,7.17-2,11.87-3,3.62,4.37-9.15,1.22-4.26,3.26,7.14-3.35,4.83.84,4.18,3.17C177,307,172.7,308.43,169.46,304.73Z"/><path class="cls-1" d="M600,316c-3.06.71-1.47-3,0-3.88Z"/><path class="cls-1" d="M172.52,315.81c.48-4.14,7.47-1.6,10.69-3l.77.16.2.7c-2,2.07,2.33,6.14-1.08,6.45-3,1.14,1.93.94,3,1.1l.14,1-.53.66a1.84,1.84,0,0,0,1.09,3.3c.58,1.24,1.18,2.49,1.75,3.75-1.46,1.53-2.8-.38-4.18-1,.82,5.2-7.54.35-2.41,5-3.59-.47-4.72.57-1.37,2.46a70.67,70.67,0,0,0,8.7-4.65c.51,1.11.08,2.31-.16,3.42-3-.87-4.64.86-5.52,3.54-3.65-.91-8.18,1.21-1.92,1.51-1.45,6.7,6.57,1.3,10.29,1.53-1.88,1.12-1.15,2.64-.25,4.15-2,1.35-3,.65-3-1.71-3,.49-8-.87-8.87,2.47,2.7.08,6.1-1.88,8.08.42-.19,2.47-1.59,3.18-3.69,1.85-3.45-1,2.29-.23,1.85-2.15-2.21-.14-8.35,1.12-4,3.35-1.77-.1-6.67-2.54-3.87.68,2.22,2.19-1.39,1.53-2.51,2.87l-2.79.09C176,348.93,168.23,345,171,352c-3.13-2.56-5.26-3.94-10-3,0,2.28,5-.33,4,2.93-1.75-.91-15.21.87-3.38,1.56,3.74,2.83,4.51.55,4.33-3.33,1.11,1.76,8,4.53,3,4.88-4.8,0,1.25,2.12,3.05,1.1l.71-.17c.11,1.4.23,2.8.34,4.21-3.39.28-6.63-1.35-10-1.17-.84,4.16,5.44-1.06,7.18,2.47l-1.56,2.35-1.62,1.29c-1.7-2.4-5-2.39-7.14-4.22.71-1.12,3.5-3.8.48-2.45-4.82,2.21-9.63-1.05-14.57-.45,1.45,1,2.95,1.85,4.41,2.81l-3.1-.27c-4.49-.9-8.47,1.66-12.68,2.71l-.74-.13c-1.25-2-1.88-4.75-4-6l-1.65-.26-1-.06c-1-2.19-2-4.34-3-6.49,7.77-2.6-5.34-3.61-7.64-.9-3.44,4.54-8.2.42-7.5-4.2,6.43,0,12.55,1.28,18.94,1.95-2.56-1.78-1-4.23-.06-6.48-3,2.6-4.56,6.85-9.82,3.31-4.87-3.83-13.73,4.3-16.05-2.66,7.38.49,14.56-4.29,21.84-1.17,2.44,1.34,4.71-4,6.57-.69,1.95-2.78,5.46-2.88,8.48-3.61-5.16-4.89,8.69.7,9.16-4.69-4.29-.08-9,1.56-12.83-.39-3.11,2.58-4.3-3.7,0-2l1.9.27c3.48,1.64,11.83-.27,4.67-1.41,4.18-3.73,9.59,1.81,14-.73,3.75-2,8.61.32,12.23-2-1.66-2.4-4.68-4.18-4.2-7.52C167.81,319.56,168.76,314.05,172.52,315.81Z"/><path class="cls-1" d="M586.31,313.93c2.9-.56,1.37,3.31,1.62,5C585,319.87,587.14,315.62,586.31,313.93Z"/><path class="cls-1" d="M68.85,319.14c-1.07-4.38,2.64-2.16,1.82.77Z"/><path class="cls-1" d="M148,316.62l1.92-.08C158.17,315.88,149,321.43,148,316.62Z"/><path class="cls-1" d="M556.32,316.61c1.85,0,6.23-1.41,4.1,1.74-.81,2.71-8.79,2.24-8.56-1.15C553.44,318.09,554.92,317.59,556.32,316.61Z"/><path class="cls-1" d="M560.91,318.9c4-.47,4.42,3.31,5.1,6.13-4.08,1-5.5-4.78-9.9-3.26C554.77,317.58,567.1,323.74,560.91,318.9Z"/><path class="cls-1" d="M509.3,320c1.35-.15,2,.5,1.94,2l-.39.78-.89.4-.7-.19a2.86,2.86,0,0,0-.1-2.41Z"/><path class="cls-1" d="M135.22,328.77c-2.86-.66-6.42-3.51-1.15-2.85l2,.12,1.05,3Z"/><path class="cls-1" d="M584.93,331.88c4.9,2.05-.23,5.22.05,8.15,3.12-.14,2.91-4.87,6.21-5.57,2.6.17,3.65,4.54.7,5.73-3.46.46-2.8,4.8.16,1.58-.81,5.93.43,15.84-7,17.22-3.16-2-3.58-6.42-1.47-10.3.43-1.3-1.72-6.69.41-3.55.19,2.48,3.16-2.81,1-2.09-4.64.85,1-8.54-6.79-4.3C574.9,334.55,589.73,339.14,584.93,331.88Z"/><path class="cls-1" d="M459.15,342.35c2.29.12,4.6.34,6.91.67-1.62,1-2.2,2-1.35,3.93-4.28,2.1-9.35,2.52-13.9,3.91C452.09,346.86,455.91,344.63,459.15,342.35Z"/><path class="cls-1" d="M534.55,345.56A13.12,13.12,0,0,0,546.92,342c-3.63,8.88,8.22,4.2,10.89,7-2.74,4.54,3.59,2.81,2.36,7.88,1.44-2.1,2.18-1.71,2.29.86-1.23.73-2.55,1.7-2.44,3.31-2.55,5.25.55,8.28,5.8,5.79-2.78,3.76-1.36,9.88-5.79,12.25-5.11,3.59-3.15,10.61-3.64,15.94,6.14-3.85,15.19-.89,19.31-7.21,2.53-.6,5.58-.7,6-3.88-.65,4.81,6.37.34,2.26,8-2.7.79-1.76-2.44-2.29-4-2.28-.21-3.87,1.78-5.24,3.31.4,6.1-2.65,11.55-4,17.33,1.32,1.08,2.39,3.06,4.35,2.79.95,0,1.48-.5,1.58-1.6.56,3.9-.63,6.68,3.14,5.08l-1.81,2.48-.88-.27c-4-2.08-8.29.19-12.46.29L560,415.85c-.25-2.31-3.78-2.62-3.08.15v1c-3.49-1.8-7.26.76-10.49,2.07l-6.19.12-.23-1c3.3-1.76,7.75-2.68,8.11-7.15,1.43-1.91,2.8-4.58,5.64-3.93,2,1,4,2.17,6.07,3.07.1-1.81.31-5.41.42-7.22a27.39,27.39,0,0,0,3.93-2.66c-2.8,1.11-3.62-1-4.33-3.26a31.15,31.15,0,0,0-5.56,3.5c-1.49-2.38-4.94-3.63-3.52.91l.31.85c-.53,2.86-4.8.23-6.87.6l-.16-.73c0-.52-.13-1.56-.18-2.08,0-.75,0-2.23,0-3q.6-1.5,1.23-3l.93-.12c2.06.68,8.85-3.11,7.3,1.21,3.42-1.84,0-8.29,2.28-12-1.65-.12-3-.4-1.87-2.2,3.63-2.92-1.95-4-1.75-.19-1.57,1-1.51,2.69-1.36,4.35-3.71-2.54-1.33-6.75-.84-10.2a39,39,0,0,1,1.33-5.85c1.21.11,3.05,1.21,3.16-.78.77-4.64,8.21-10.18,1.9-13.78l-.11-.88c1.21-5.76-5.23-2.72-8.83-2.79-.25-3.14-4.69-4.32-5.75-1.1-1.22.36-2.42.74-3.61,1.13-1.45-.13-3.1-.2-4.17.95-7.67.8-15.3,1.95-23,2.82a13.71,13.71,0,0,0,2.5-8.55c3.54.09,7.92,2,10.51-1.29,2.41-2.64,0,3.85,2.32,3.15C530.64,349.22,528.07,341,534.55,345.56Z"/><path class="cls-1" d="M479,343.06c2.49-.53,7.32,0,2.91,1.89C479.66,346.17,478.16,346,479,343.06Z"/><path class="cls-1" d="M102.23,346.16c3.14-1.27,1.09,2.26.58,3.71C100.08,351.22,100.55,347,102.23,346.16Z"/><path class="cls-1" d="M567.79,346.23c3.68,1.28,7.47-.39,11.25-.24-.86,3.7-4,2.81-1,6.08C575.09,348.85,569.41,350.74,567.79,346.23Z"/><path class="cls-1" d="M79.34,347.27c1.25-.79,5-1,4.55,1.23C82.55,348.48,80,348.52,79.34,347.27Z"/><path class="cls-1" d="M92.85,351c-1.5-4.16-12.38-1.17-4.69-4.16l2.59.05,6.18.94C94.48,347.77,92.26,348,92.85,351Z"/><path class="cls-1" d="M481.31,347c4.85,4.79-4.11,2.79-7.39,3C475.25,346.58,481,350.35,481.31,347Z"/><path class="cls-1" d="M488.26,350.41c5.39,1,9.69-5.07,14.74-1.24,1,6.14-7.1,5.16-9.25,9.52l-.48.62-.7-.33c-1.37-.5-3.69-3.16-3.93-.3l-.78,0c-.41-4.31-2.35,2.73-3.66,4.14l-.8-.42C475.42,358.68,487.34,355.32,488.26,350.41Z"/><path class="cls-1" d="M61.66,349.09c1.14-.52,2.27-1,3.4-1.58C67.52,351.74,64.42,351.19,61.66,349.09Z"/><path class="cls-1" d="M594.25,349.21c2,.45-1,5.6.69,7.93C591.45,355.8,593.56,351.76,594.25,349.21Z"/><path class="cls-1" d="M15,351.53c.42-.24,1.27-.72,1.7-.95l.86.37c.06.45.19,1.36.26,1.82l-.49.33Z"/><path class="cls-1" d="M103.44,351.37c2,0-1,4.47-2.24,5.75.28-2.71-.75-3.55-3.14-2.39C95,350.65,103.16,354.57,103.44,351.37Z"/><path class="cls-1" d="M81,359.07c-14.15-1,1.51-.06,5.29-2.91.62,3.42-3.58,2.89-4.36,5.59a52.11,52.11,0,0,1-2.32,4.75c.65-5.83-9.76-1.32-11.6-3.54C71,360.11,78.3,362.45,81,359.07Z"/><path class="cls-1" d="M176,359.22c-6.81-1.86,9.55-6.05,4.09.24A5.11,5.11,0,0,0,176,359.22Z"/><path class="cls-1" d="M535.93,358c.31-1.32,1.65-2.65,3.08-1.88C538.55,357.37,537.35,358.58,535.93,358Z"/><path class="cls-1" d="M524,358.11c5.63-2.86,8.06,7.6,14.95,3a34.4,34.4,0,0,0-.78,3.79l-.25,1C531.71,366.18,527.42,362.84,524,358.11Z"/><path class="cls-1" d="M506.05,358.79a32.15,32.15,0,0,1,4.13,4.12C506.65,363.69,501.89,362.31,506.05,358.79Z"/><path class="cls-1" d="M544.27,366.15c2.59-2,4.54-4.66,6.78-7l0,.94a37.39,37.39,0,0,1-.65,5.87c-.72,4.35-7.83,4.44-6.68,9a6.58,6.58,0,0,0-1.82,3.46c-2.28,1.34-1.19,3.22,0,4.93-1.31,2.37.69,3.71,2.53,4.9-3.68.49-7.53.21-11,1.75-1.24-.92-2.5-1.82-3.75-2.72,4.13.41.53-1.72-.77-3.06,3.25,0,8.11.2,9.85-3,.24-.48.72-1.45,1-1.93C541.82,374.75,538.42,369.16,544.27,366.15Z"/><path class="cls-1" d="M594.33,359.34c3.29-1.15-1.29,5.28-.51,7.58C589.67,366.8,590.54,359.76,594.33,359.34Z"/><path class="cls-1" d="M111.09,362.17q-.48-2.57,2.1-2.25Q113.35,362.23,111.09,362.17Z"/><path class="cls-1" d="M175.13,360.81l.83-1a12.58,12.58,0,0,0,3.92.22,5.15,5.15,0,0,1-1.93,2.31A16.8,16.8,0,0,1,175.13,360.81Z"/><path class="cls-1" d="M585.24,365.37c1.18.49,1.79,3,1.49,4.3C584.75,369.89,584.35,366.67,585.24,365.37Z"/><path class="cls-1" d="M588.24,369.08c7.89-2.53,4.28,9.84,1.46,13.73-1.49-1.65-3.33-3-4.62-4.79C587.53,375.91,587.3,372.16,588.24,369.08Z"/><path class="cls-1" d="M59.27,369.87c5.13-.32,1,5.08,5.65,4.26-2.1,1.05-5.79,3.28-9,2.83C54.7,373.36,60.78,373.17,59.27,369.87Z"/><path class="cls-1" d="M527.17,374.14c1.33-3.39,1.69.52,3.53-1.36l.8,1.35c.09.5.27,1.5.37,2-3.87-4-1.35,7.84-4.47,3.37-2.2-1.77.58,5.87,1.45,7.28-.65,5.13-3.2,1.85-3.28-1.53a3.65,3.65,0,0,0-.63-3.64c.46-1.16.93-2.31,1.34-3.48A24.85,24.85,0,0,0,527.17,374.14Z"/><path class="cls-1" d="M583.23,373.24c2.9-1.81.17,6,.76,7.83C581.67,379.5,582.19,375.64,583.23,373.24Z"/><path class="cls-1" d="M61.82,376.35c1.62.14,5.83-2.63,5,.55L66,378.19A45,45,0,0,1,61.82,376.35Z"/><path class="cls-1" d="M483.69,378.64c.95-3.76,5.67-2.82,8.65-3.93l1.93.57c-8.56,2.63,8.08,3.87,10.87,1.82l2.18,1.12-.63,1.23-1.69,1c-5.36,2.82-11.61,2.85-17.07,5.45l-2.82.11c-2.38-.53-3.59,1-4.17,3.08-.8-1.65-2.35-2.16-4.09-2.1l-1.6-.17c-1.46-.32-2.93-.61-4.38-.89,0-2.35,1.15-3.93-2.18-5.25,1.06-.22,2.12-.43,3.2-.63,4.6-1,9.29-.73,13.94-.15C487,377.78,485.08,378.43,483.69,378.64Z"/><path class="cls-1" d="M455.05,380l.75.06L457,381.7l-3.07.61-2-1.17A3.66,3.66,0,0,0,455.05,380Z"/><path class="cls-1" d="M463.07,380.05a8.28,8.28,0,0,1,3.8.17l-.85,1.87-3.27-.53Z"/><path class="cls-1" d="M462.7,385.27a7.88,7.88,0,0,1,.05-3.71l3.27.53c-.26,1.23-.52,2.46-.81,3.7Z"/><path class="cls-1" d="M594.47,384.48c1.33-1.38,0,2.23.13,3,.08,11.2-.44.84-3.69,3.34C590.22,387.8,592.34,386.05,594.47,384.48Z"/><path class="cls-1" d="M545.16,388.17c2-3.21.61,3.69.91,5.81l-.93.12-2.07-.22C541.64,391.07,543.26,389.86,545.16,388.17Z"/><path class="cls-1" d="M510.85,391.11c3.75-2.75,7.23.57,2.32,1.85C512.41,392.31,511.64,391.69,510.85,391.11Z"/><path class="cls-1" d="M519.87,393.24c3.78,1.56,5.74-6.25,7-.57a3.24,3.24,0,0,0-2.14,1.86C523.94,397.27,521,394.56,519.87,393.24Z"/><path class="cls-1" d="M536.74,393.76c.27-1.17,1.14-4.8,2.71-2.94A3.35,3.35,0,0,1,536.74,393.76Z"/><path class="cls-1" d="M590.29,392.27c3.06-1.24,1.24,6.6-1.65,4.08C586.94,394.81,589.06,393.15,590.29,392.27Z"/><path class="cls-1" d="M486.13,395.88c3.45.66,10.15-3.42,11.2,2.08-4.09,4.66,6.89.83,9.68,1.69,1.11-.25,2.21-.53,3.31-.84,1.9.31,3.78.73,5.67,1.17l.43.88c-3.19,1.74-9.58-.82-10.66,3.26-3.28-.41-6.52-1.23-9.82-.77-1.65.21-3.28.55-4.91.82l-1.69-.46-2.19-.44c-1.79-.19-4.17-.14-2-2C487.18,400.05,486.53,397.76,486.13,395.88Z"/><path class="cls-1" d="M582.22,397.79c2.63,3,1.16,7.19,1.74,10.81a44.81,44.81,0,0,0-6.11-.5h-.72C577.74,404,584.44,402.85,582.22,397.79Z"/><path class="cls-1" d="M594.86,406.24c3.6-.69,4.9-1.32,4.39,3.76a7.06,7.06,0,0,0-.86,3.21l-1.34.19a5.49,5.49,0,0,0-1.93-3.37C593.52,409.1,594.41,407.56,594.86,406.24Z"/><path class="cls-1" d="M586.93,410c-.4-1.77,1.42-2.57,2.88-2.27C590.64,409.6,588.5,410.77,586.93,410Z"/><path class="cls-1" d="M504.7,412.87c4.28-3.09,3.8-1.95,2.19,2.27,3.47-4.15,4,2.26,7.2,3.2-1.68.47-3.28,1.17-3.42,3.13-.2.63-.6,1.89-.81,2.51-1.76.46-1.39-1.45-1.77-2.52a40.73,40.73,0,0,1-5.19-.23l.63-.8c1.05-1.67,3.7-5.85-.24-4.33l0-2Z"/><path class="cls-1" d="M582.82,414.71c0-2.06.2-4.17,2.79-4l1.22,1.14c-.2.59-.62,1.76-.82,2.34Z"/><path class="cls-1" d="M517.2,418.4c-3.18-5.41,1.79-2.52,4,0A36.52,36.52,0,0,1,517.2,418.4Z"/><path class="cls-1" d="M499.81,417.61a3.18,3.18,0,0,1,3.72,2.82l-.63.8a27.52,27.52,0,0,1-4.23-.94C499,419.62,499.52,418.28,499.81,417.61Z"/><path class="cls-1" d="M528.77,418c1.11.57,2.16,1.27,3.24,1.94C535.35,424.09,526.77,420.61,528.77,418Z"/><path class="cls-1" d="M519.64,423.88c5.67-2,8.41-.33,2,.89l-1.64.1Z"/><path class="cls-1" d="M525.74,426.88c-.34-4.6,8.16-6.47,7.36-1-2.7-3.21-6.88-2.36-2.63,1.35-1.13.27-2.26.5-3.39.72Z"/><path class="cls-1" d="M595.16,428.19c-1.9-.55-6.55.84-4.44-2.38a16.19,16.19,0,0,0,4.28,1.24c1.81.33,4,.21,5,2.07V461.4c-1.37-.52-2.72-1-4-1.62-.89-2.77-4-1.22-3.87,1.2-1.16.41-2.34.76-3.51,1.11-2.45.21-4.5-.89-6.37-2.33-1.26-.81-2.85-.74-4.25-1l0-1.51a9.45,9.45,0,0,0,6.06-2.2c3-1.06,6.22-1.62,9-3.16-.33-2.73-3.74-4-6.11-3-.53-4.15,7.28-5.54,6.4-.79,1.07-1.11,2.66-2.63,1.88-4.3,1.71-1.06,1.74-3.08,1.8-4.88,2.74,1.27,2.61-3.19,0-1.75a5,5,0,0,0-5-.67l-.77.1c-3.11-.69-6.27-1.36-8.4,1.27,0-1.55,2-4.58-.94-4,2-5.17,11.58,2.53,15-2.14C597.25,430.31,597.06,428.21,595.16,428.19Z"/><path class="cls-1" d="M551.07,428.9c4,0,7.62-2.7,11.17,1-.09,1.71-.14,3.43-.19,5.15-3.34-2.38-6.72.54-9.88,1.71-1-1.63-2.75-1.15-4.32-.76-.74-1.6.61-2.69,1.52-3.82l1-.26c-1.29,4,5,1.77.88-.31a9.31,9.31,0,0,0-3-1.79c-.16-.35-.47-1.06-.63-1.42A11.78,11.78,0,0,0,551.07,428.9Z"/><path class="cls-1" d="M538,431.05c2.43-1.06,1.84-3.71,4.91-1.31l1.07.32c-1.11,2.78-4.48,2.39-6.14,3.83Z"/><path class="cls-1" d="M572.16,430.11c1.21-.34,2.43-.71,3.62-1.14,1.16,1.07,2.3,2.16,3.42,3.29l-.26.71c-1.27,2.18-1.15,4.59,1,6.16-1.56-.05-4.47-2-4,.94l-2.94.85c-.14-2.81-6.25-8.23-2.72.66l1.94.83c-.71,4.26-6.76.86-8.31,3.62,4,2,10.34-2.15,13.2,2l-1.16,0c-2.2-.12-4.6-.19-6.15,1.65l-.61.28c.19-2.33-2.27-2.22-3.37-.79l-1.49-.5c-1.41-4.86-6.38-3.29-10.3-2.74,0-.51.11-1.51.14-2l2.56.31a8.27,8.27,0,0,0,6.68-3.14c4.19,2.91.7-5.57,2.82-8,1.11-.68,2.18-1.44,3.24-2.22Q570.78,430.5,572.16,430.11Z"/><path class="cls-1" d="M584.53,442.87c2.45-1.56,5.14-.13,7.64.47C590.28,445.59,585.06,446.6,584.53,442.87Z"/><path class="cls-1" d="M554.77,447.71c2.4-.09,7.65-2.1,5.33,2.08l-.82,0A47.93,47.93,0,0,0,554.77,447.71Z"/><path class="cls-1" d="M582.9,447.74c1-1.39,3.42-1.19,3.25.86l-.81.2Z"/><path class="cls-1" d="M582.14,504.76c-.49-1.19-.62-4.11,1.42-2.86.07.5.2,1.5.27,2l-1,.91Z"/><path class="cls-1" d="M589.1,521.4l2-1.14.09.43c-.77,2.06-1.81,7.57-2.67,2.4C588.69,522.66,589,521.82,589.1,521.4Z"/><path class="cls-1" d="M596.06,526a8.59,8.59,0,0,1,1.9-2c1,1.22.48,2.69-.34,3.86h-.74Z"/><path class="cls-1" d="M0,557.83c1.23,1.64,3.13,2.41,4.9,3.31.08.43.22,1.31.29,1.75-1.73.44-3.45.91-5.19,1.33Z"/><path class="cls-1" d="M597,619.76c.19-1,.4-1.92.62-2.86,1.73,2.06,1.7,4.78,2.36,7.35v.69c-1.21,1.57-2.52,2.93-2.37-.16.07-.44.22-1.31.29-1.75A3.09,3.09,0,0,0,597,619.76Z"/><path class="cls-1" d="M587.73,627.28l1.31-.92c3,.73,3.09,8.1,0,7.91l-.65,0A27.86,27.86,0,0,0,587.73,627.28Z"/><path class="cls-1" d="M597.1,639.92l.7,0c.74,1.41,1.46,2.84,2.2,4.28v.62c-.94.73-1.83,1.52-2.74,2.28Z"/><path class="cls-1" d="M501,704l2.76.07c.2.72.61,2.17.81,2.9-1.75,1.85-2.55-1.16-3.62-2.19Z"/><path class="cls-1" d="M505.68,723.46c-1.58-1.5-1.44-3.25,1.06-2.29.09.44.25,1.32.33,1.76l-.77.91Z"/><path class="cls-1" d="M599,889l1,.08V894h-2c0-.65,0-2,0-2.61Z"/></g></g></svg>