<svg xmlns="http://www.w3.org/2000/svg" viewBox="0 0 600 795.07"><defs><style>.cls-1{fill:#160d1e;}</style></defs><title>Layer 5</title><g id="Layer_2" data-name="Layer 2"><g id="Layer_5" data-name="Layer 5"><path class="cls-1" d="M349.9,0c2.84-.21,4.66,2.38,7.22,3.15l.81.37a6,6,0,0,0,4,1.65l1,1c.22,2.34,2.06,3.42,4,1.84a2.73,2.73,0,0,0,2.11,3.18,2.75,2.75,0,0,0,1.81,2.76l1.85,1.43a15.38,15.38,0,0,0,4.2,5L378,22.19c.91,2,2,4,4.17,4.77l.67.4A10.09,10.09,0,0,0,387,33.15l.85,1c2.1,4.48,2.17,14.09,8,14.23,1.61,3.93,3.16,7.89,4.72,11.84.1.39.28,1.17.37,1.56A36.82,36.82,0,0,0,402.58,69c1.56,6.54,2.08,13.3,3.75,19.82-.09,2.87-.78,5.89.52,8.58l.25.73c-.47,1.69-.61,3.64.63,5.06l.47,1.58c-.05,1.45-.08,2.9-.11,4.36-1.47,1.86-.12,4.11.71,5.93a4.46,4.46,0,0,0,1.07,4.15c0,.77.13,2.32.17,3.09a99.49,99.49,0,0,0,1,11v.87c-.06,1.31-.12,2.63-.17,4a5,5,0,0,0,.7,3.13l.2.82c.34,1.68.76,3.35,1.19,5,.32,2,.83,4-.09,5.93-2.78.11-2.1-4.12-4.64-4.94-4.1,6.19,2.56,12.64,2,19.58.05,5.42-.3,10.86.61,16.26-2.53,2.09-1.38,7.21-5.23,3.22a6.22,6.22,0,0,0,.13-4c0-1.74.05-5.21.06-6.94-.86-2.59,1.6-7.69-.86-9.2-.11,3,0,6.14.08,9.19,0,1.74.07,5.21.1,6.94a6.63,6.63,0,0,0-.11,3.82c-4.89-2-5.14,7.71-.54,8.05-.31-3.75,5.3-5.74,4.81-1.22-2.22,2.5.15,3.13,2.55,3.57L412,204c-5.07.68-.37,6.91-.24,9.36,1.22,3.77,0,7.9,2.35,11.39-5.67.86,2,1.07,4.46-.56,2.19,6.47.78-1.14.62-4.35,1.44,1.94,4.92,4.38,2.58,6.83,3.09,3.84-1.74,9.43-.07,3.17-6.72.26-4,9.23-.58,12.1,5.5,5.78,8.63,13.5,12.77,20.21-2.23,4.54,2.24,8.26,6.1,4.81,0,3.83-1.72,8.73,1.93,11.58.13.65.4,1.95.54,2.61-2.17.47-4.13-1.07-6.29-1.08-1.6,2.33.09,4.68.16,7.08,4.38,7.49-5.56,2.4-3.77,7.13-2-.81-2.72-2.61-2.2-5.42-.52-3.57-.29-11.77,2.48-4.53-2.85-9.35.5-4.75,2.36-3.29-.1-4.29-4-5.67-5.42-9.39,1.84-3.73-2.15-4-.85,0-1.63,4.65.53,9.68.06,14.48-4.59-1.39-7.26-6.48-4.69-10.76,2.9-3.78-6.05-.35-3.77-3.93,2.82-3.61-1.88-4.61-4.38-6.16a32.5,32.5,0,0,0-1,7.4c3.53-.48,4.07,5,.16,3.22a37.23,37.23,0,0,1-2.47-23.5c-1.66-2.54-4.67-4.31-5.53-7.27.91-3.18,1.7-6.44,1.31-9.76s-5.3-1.57-5.11-5.37c-2,9.45-1.88,21.31-7.53,28.9a22.43,22.43,0,0,0,.32-3.56c1-4.61-3.75-3.22-6.17-1.09-2.83,1.89-11.14,2.9-10.11-2.24,2.27,1.57,6.3,1.66,3.75-1.21-9-3.92-3.54-20.79-14.36-20.16-3.11,3.25-5.78-1.11-6.1-4.14,3.12-.78,5.89-3.84,5.64-7.13a25.57,25.57,0,0,0-9-1.59c-6.36.32-5.43-7.75-3-11.55-1.61-1.76-5.2-2.1-3-5.58-5.31-.76-.86-2.23,1-4.51-.43,8.82,3.86-9,2.31,4.82,3.71.24,0-6.27,1.95-9,2.19,1.68,2,6.6,5.49,5.64,4.9-.44,1.62-5.59,1.19-8.5,2.8,3.31,3.79,3.28,2-1,.67-4,4.46-1.17,3.36,1.95,1.34-3.06,3.94-10.36,1.93-13.91-.67,2.44-12.85,7.51-6.14,11.88-3.48-.77-7.2,3.92-8.86-.93,1.22,4.86-2.21,4.05-4,.91-1.1-4.81,5.76-.2,5.84-3.74-2.18-2.48-5.49-4.59-5.94-8.1a15.29,15.29,0,0,1,6.1-8.8c-1.57-1.86-6.53-1.83-6-4.91,2.79-.72,3.87-3.74,6.64-4.49.25-5.9-5.87-3.91-5.1,1.11-6.44-.56-.39-3.24-.32-6.66,8,.87-8.12-4.67-2.88-8.77,2.95-1.78,2.68-4.7,1.66-7.61,1.46,4.84,8.9,0,6.11,7.15,2-2.68,1.17-9.24-2.53-11.67-1.73-1.64,1.42,3.7-.78,2.75-8.08-.52-.1-9.66.76-14.29.21-4.62,4.79-2.79,3.48,1.2,1.28-3.08,4.18-3.42,7.06-2.35-3.82-2.12-1.06-7.76,1.92-3.7-.12-3.8-1.18-7.68-.06-11.41,1.62.26,2.46-.33,2-2a26.76,26.76,0,0,1-11.82-1.93c-1.1-3.21.52-4.79,1.1-.75,3.64-2.42,1.1-10.77-4.17-9.48-3.75-2.64-.34-8.37-4.05-11.44-4.42-4.61.74-9.59-.73-14.68,2.18-2.52,5.18-4.32,6.8-7.32-3.6-5-10.42-7.29-13.44-12.6,0-5.84-6.25-11.06-3.36-16.82,4-6.57-8.43-6.14-3.65-13.28-5.35-.25-8.88-3.11-9.81-8.3,4.75.92,10.67,2,13.59,6.24,4.6.78,8.64,3.4,12.58,5.77,2.66,3.47,6.38,11.76,10.84,5.9-1.92-4.59-7.24-5.42-10.9-8.11-.56-2.44,3.4-4.83,1-6.76C354.06,5.34,350.58,3.44,349.9,0Z"/><path class="cls-1" d="M412.16,175.73c1.87,1.22,1.93,3.42,2.13,5.42,0,1.92-.3,3.5-2.27,1.94C412.06,181.25,412.13,177.57,412.16,175.73Z"/><path class="cls-1" d="M414.92,180.71a2.87,2.87,0,0,1,2.95-.69c-.05.49-.15,1.47-.19,2A16.85,16.85,0,0,1,414.92,180.71Z"/><path class="cls-1" d="M352.16,190.5c3.27.13,3.52,6.14-1,4.48C350,193.19,350,191.43,352.16,190.5Z"/><path class="cls-1" d="M345.2,204a7.15,7.15,0,0,1,1.08,2.85C344.86,209.79,342.47,204.65,345.2,204Z"/><path class="cls-1" d="M234.28,214.18c3.63-.93.25,3.84.7,5.75,2.31,3.81,7.62,6.12,4.79,11.17-5.62-1.39-10.72-6.07-11.71-11.85C230,217.09,234.56,218,234.28,214.18Z"/><path class="cls-1" d="M372.47,233.54c1.34-1.26.58,4.25-1.55,3.48C366.78,237.86,371.31,234.67,372.47,233.54Z"/><path class="cls-1" d="M238.21,239.33c3.64.16.54,5.54-2.24,4.79A4.56,4.56,0,0,1,238.21,239.33Z"/><path class="cls-1" d="M195.25,263.83c2.57,0,2.5,4.79-.21,4.47A37,37,0,0,1,195.25,263.83Z"/><path class="cls-1" d="M218.7,271.9c-2.83.42-1.41-4.83.35-1.49C219,270.78,218.79,271.52,218.7,271.9Z"/><path class="cls-1" d="M195.05,270c.82.71,1.64,1.43,2.45,2.16.11.41.33,1.24.43,1.65h-2.81C195.08,272.49,195.06,271.22,195.05,270Z"/><path class="cls-1" d="M199,270.53l1.35.13a20.35,20.35,0,0,0,.68,3.15l-1.91-.46Z"/><path class="cls-1" d="M195.94,277.05c2.74-1.22,6,2.6,2.48,3.88C197.47,279.71,196,278.73,195.94,277.05Z"/><path class="cls-1" d="M186.21,281.75c2.36,6,5.7-.39,9.82-.75.54,3-2,5-2.76,7.66,1.43,1,3.28,1.55,4.1,3.2a9,9,0,0,0-1.57,3l-.4,1.18a5.44,5.44,0,0,0-.57,4.24c-3.14-6.51-4.56.37-2.47,4.52-3,3.27-3.43,7.79-2.55,12-6.91,3.21-11.36,11-19,14.19.64-1.43,1.38-2.8,2-4.21-4.26.05-4.82,6.16-8.89,6.35-.52-6.1,3.77-10.93,8.28-14.41l1-1.07a7,7,0,0,0,2.61-2.63l2-1.12c3.38,3,4.67-4.29,7,0a6.6,6.6,0,0,1,3.21-5.95c-1.69-.54-3.44-.89-5.15-1.3,6.53-5.17,5.88-14.66,3.52-21.71C186.36,284.17,186.26,282.55,186.21,281.75Z"/><path class="cls-1" d="M444,288.11c3.42-.81,2.92.61,1.12,2.66C449.75,293.17,441.22,292.4,444,288.11Z"/><path class="cls-1" d="M409.17,296.2c5-1.94,3,11.75-.22,10.87-3.34,5.37,6.1.6,4,6.1-2.72-.37-8-6.26-4.36,2.49,1.09,2.59-2.63,6-3.42,2.45-.7,8.53-6.31-1.13-1.36-4.22,4.09-3.25-1.05-14.75,5.15-13C408.48,299.28,408.2,297.67,409.17,296.2Z"/><path class="cls-1" d="M463.12,322.76c-.29-3.08,3.76-4.1,5.05-6.7,7.12-1.2-.62,9.3,5.81,9.14,7.63-1.27,13.38,8.05,13.91,12.68-3.53-7.13,6.41-7.76,9.4-3.83l1,1.21a15.31,15.31,0,0,0,5.58,5.05c0,.46.1,1.38.13,1.83-.51,2.43,2.47,2.27,4,3.09l.43.74c-1.83,5.36-4.41-.61-6.81-1,.07,6.24-6-.53-7.11-3.3-4.31-1.61-8.34,1.73-8.35,6.16,4.34-1.54,4.18,2.33,3.93,6.29,1.48-1.42.68-4.21,2.79-5.33a20.06,20.06,0,0,0,.17,13.33c-1.92.06-3.44-1.1-5-1.94.62,4.41-2.91,10,1.37,13.43,1.7,1.55-.25.88-1.4.72,1,3.93.63,7.92.07,11.91-.58-3.25,4.86-11.36,3.06-4,3.32-5.76,2.34.82,5.72,2.11-1.54-3-3.56-8.3,1.81-7.95-.69,3.27,8.13,7.49,2.21,7-2.72-1.72-4.35,7.46-1.31,3.21,1.54.15,2,12.21,5.51,7.5,2.12.39-1.8,8.24,1.91,6.9-.2-1.68-.59-3.31-.87-5,3,.48,7.14,6.5,2,6.54-1.92,1.39,3.32,9-1.43,6.91,1,1.27,2.63,2.13,3.22,3.69-.61,3.66-3.93-.53-5.83-1.06.26,2.06.59,4.12.72,6.2-2.16-3.43-3.79-7.18-6.87-10,1.84,1.83,10.41-3,4.73-3.9-2.66-.12.29-4-2.7-3.33-3.74.41-1.33-3.47,1.16-2.55-3.23-3.85-4.56-8.53-5-13.33-1.85,2.08-8.15,3.35-5,6.76,1.91,1.56,1.82,3.73,1.08,5.89-1,.86-1.67,2.44-.39,3.44a6,6,0,0,0-1.2,6c-4.65-1-9.08-2.39-13.19.09l-.16-.76c.57-1.13.21-1.76-1.06-1.88a4.85,4.85,0,0,0-1.36-2.8,25,25,0,0,0-2.65-1.88c-.94-1.22-2.8-.64-2.23,1v.84c-1.28-.67-2.18-.46-2.26,1.16-2.66-2.34-8.35.8-8-4-.89,1-1.74,2.07-2.58,3.13-1.46.19-2.92.28-4.36.56a25.88,25.88,0,0,0-5.64,1.48,3.86,3.86,0,0,0-2.15,2l-.73-1.16c-1.43-5.19,3.58-9.78.67-15.5-3.93.86-1.34-3.9-1.43-6.33.56-3.5-1.91-6.5-3.3-9.51a61.83,61.83,0,0,0-.5,12.61c-3-2.66-2-7-3.79-10.35-.77-2.15,1.66.81,2.34,1,0-3.74-5.7-3.25-4.44-7.85-1.95,3-1.33.36-2.7-1.2-.54,2.68-.46,5.73-1.66,8.3-.16-4.63-3.4-3.16-2.62.72-4,.87-4.44-7.37-6.69-2.67-1.76,1.36-4.41-1-6.54-1.09a11.77,11.77,0,0,0-1.51,6.49c-2.64-1.23-3.56.92-4.46,3-3.78.56,2.46-4.91-1.25-3.28-2.6,1.37-3.86-1.73-5.24-3.37,3.25-10.11,15.64-12.34,24.93-12.28,3.35-.85,3.64,3,6.67.27,4-.53,2.39-5.54,3.09-8.36-2.36-.08-4-1.11-3.86-3.65l1.72,0c.74.72,1.4,2.44,2.52,1.16,5.67-4.66,13.26-1.43,19.68-3.49l1.28-.4c2.85.81,7,1.8,8.67-1.36-.79,3.13,1.55,5.31,1.54.92,2.76,7.17,7.46-8.67,7.17-.19-1.29,4.44,2.64,1.5,1.55-1.57,4.22,5.25,1-6.06-3.68-2.56-4.27.13-5.31-6.38-9.57-2.47,2.28-4.53,6.29-3.17,9.72-2.58,3.61-3.46,4.88,1.63,3.59,4.57,2.72-.44,2.37-2.66,2-4.81,4.23.26,5-3.43,5.45-6.82C476.65,329.57,470.57,324.79,463.12,322.76Z"/><path class="cls-1" d="M484.21,323.11l.54-.33c-.12,2.1,0,3.88,2.29,2.24a4,4,0,0,1-.74,5.16C486.46,327.19,480,324.67,484.21,323.11Z"/><path class="cls-1" d="M161.17,331.17c3.92-.95,1.65,6.79-2.08,5C159.66,334.46,160,332.59,161.17,331.17Z"/><path class="cls-1" d="M157,339.29c2.75-.31-.28,5.82-3,4.78C149.26,345.05,155.32,339.64,157,339.29Z"/><path class="cls-1" d="M507,351.18c2.8.32,5.1,1.92,5.11,5C510.5,353.18,505.87,354.83,507,351.18Z"/><path class="cls-1" d="M148.29,352.46c2.79-.16,6.17-1,6.91,2.6,1.29-1.48,6.42-5.06,3.77-1.05-3.3,1.57,1.32,7.07-3.66,7.22,1.47-7.17-6.72-5.18-10.07-2C145.72,356.8,145,352.88,148.29,352.46Z"/><path class="cls-1" d="M427.33,354.42c4.53-.2-1.22,2.81-3.49,2.44C423.61,354.75,425.92,355,427.33,354.42Z"/><path class="cls-1" d="M497.29,357.38c.57.63-.16,6.12,2.49,7.83-.31-6.67,4.19.89.16,2.76-1.64,5-4-4.81-5.26,1.11-4.2-2.93-.05-5.2,3.4-3C496.06,363.75,493,358.94,497.29,357.38Z"/><path class="cls-1" d="M500.08,357.11c4.42-2.6,6.51,1.92,7,5C502.89,360.8,500.7,359.3,500.08,357.11Z"/><path class="cls-1" d="M511.2,357.18c3-.71,2.37,3.7,3,5.57,3.23-1,4.7,5.31,1,6.25.41-3.54-6.73-12.39-4.16-1.93C510,372.42,507.71,358.17,511.2,357.18Z"/><path class="cls-1" d="M145.25,360c1.2,1,4.38,3.29.9,3.24,2.32.9.65,3,2,4.78,3.94-.22,4.3-5.77,7.71-5.88,5.26,6.29-4.68,12.3-3,19.07-1.47-.94-2-2.73-3.05-4.06-3.13,1-2.94,4.15-1.89,6.68-2.75-.24-3.43,2.12-4.21,4.24-6.23-3.51,2.38-10.05-1-14.67-1.51-1.77.55-3.57,1.83-4.68C143.67,365.76,144.78,362.87,145.25,360Z"/><path class="cls-1" d="M489,363.12c5.38-2.95,3,5.42,1.78,1.06C489.05,366.48,488.6,366.09,489,363.12Z"/><path class="cls-1" d="M433.4,375.08c3.82.22.27,6.73-.09.81Z"/><path class="cls-1" d="M413,379.85c-.62-1-.11-5,1.21-2.93-.13.76-.39,2.29-.53,3.06Z"/><path class="cls-1" d="M393.71,382.6c-1.25-5.68,7.47-8,6.47-1.43,1.05-5.9,3.35,0,1.76,2.82-1.9-.85-3.83-4.48-5.46-1.46-3.71,2.3-1.84,7.05-3.65,10.37-2.45,3.65-7.05-3.42-9,1-2.34,4.56-2.19-1.78-3.09-3.89-4,1.68.77,4.8.4,7.54-3.41-1-1.34,3.93-4,4.63-.64-1.37-1.15-2.79-1.7-4.18-1.77,2.9-2.39,11.61.72,5,.4,4.72-4.74,7.31-8.86,7.39a46.39,46.39,0,0,0-6.17,9.69c-.07.68-.23,2-.31,2.72-2.43,3.16-4.39,6.65-7.12,9.58.16,7.29-6,12.84-7,20-3.19-.21-4.05,8.84,0,6.48,3.15-7.24,7.41-14,9.59-21.62,3.67-2.19,3.6,5.65,1.16.94-3.56,3.09.83,8.28,4.48,5.76-.45-2.05-2-3.75-2-5.9,3.7-.73,4,3.68,5.53,6,2.51-3.27,2.91-7.73,4.66-11.12,1.06,3.74-3.19,7.79-.59,11.11-1.27,3.22-2.61,6.55-1.47,10-3.72-4.89-6.25,4.84-6.81,8,2.39,3.59,7.34,5.75,5.27,11.41,1.62-2.7-.46-6.58,2.41-8.47,1.89-1.3,1.46-6-.13-2-3.65,6.52-7.85-9.24-1.82-2.92-2.88-4.42,2.54-3.48,2.43-7.26-.42-3.67,4.72-4.64,3.28-8.68.43-1.13.86-2.25,1.31-3.36,3.74.53,3.25-4.51,7-.78a21,21,0,0,1,0-9.75c2.56,3.83,2.14-2.55,4.71-3.44,3.47-2.63,4.18,2.85,5.51,5,3.89-.28,4.13-4.87,7.38-6.08,4.92-.63.19,6.69-.52,9.29,1.87-.69,3.61-.65,4.17,1.58a13.79,13.79,0,0,0-7.76,1.67c2.11,5.05-2.93,7.59-6.46,9.9,3.19-6.1-4.18-3.27-.87,1.33l0,.91-.41.66c-.62,1-1.23,1.95-1.79,3,1.53,7.59-3.77,15.09-3.68,23,3.71,3.21,2.87-5.46,6.77-1.87a15.06,15.06,0,0,0-.19,3.68c-3.77,1.48-.6,6.56.37,9.23-5.28-5.12,2,10.49-5.15,10.7.35,2.24.09,6.46,3.51,5.2.93-1.65.65-6,3.37-3.84,5.24,3.15,5.44-5.66,9.26-7.66,2.44-8.88,14.08-8.9,18.7-15.37-2.41-2.36-.82-4.34,1.81-6.08-.62,5.43,2.25-.64,4.69,2.68,5.24,1.77,2.5-9.78,5.66-6.68,3.93,5.28,11.75-7.14,5.56-6.3,1.2-3.09,3.66-4.53,4.71-.46.58-7.49,8.6-10.27,13.06-15.49,5-2.49,11.91-4,12.86-10.5l.6-1.09c4.75,3.47.35-3.6,3.89-.93,9.9,1.93,13.95-14.6,23.85-11.2-1.08-2.93.1-7.23,2.41-8.7,4.37,1.91,1.19,6.7-.65,9.47,2.79,2.25,5.3,9.13.79,10.49-1-2.18,2-5.95-1-7.28a31.62,31.62,0,0,0-1.08,7.86c5.76,4.42,6.87-7.95,12.76-3.64-.39,2.47-2.49,3.58-4.62,4.38-1.74,4.18,2.83,1.81,4.76.69,1.86,4,1.19,8.78,2.93,12.92-3.45-1.83-4.33-6.57-4.08,0-.34-6.69-6.49,1.37-1.89,2.86,3,.74,1.08,5.33-.89,6-1.53-2-1.57-5-3.75-6.32,1.43,3.67.28,5.55-3.54,5.81,3.73.85,9.47,2.51,8.22,7.49-3.46-.35-6-2.6-8.87-3.91-.91,2.82-3.1,8.21-1.51,9.52,7.23-1-5.18,4.2-.86,5.23,3-3.53,12.42-.2,7.22-6.65,4.84-4,5.35,4.82,7.17,7.8-3.76-.3-7.31-1.49-11-2.15,1.8,1.33-.07,4.95,3.08,3.65-1.26,2.37-8.93,5-2.12,3.87,1.21,4.5-6.35,3.55-2.43,7.82A111.65,111.65,0,0,0,505.1,479c2.15,3.33,5.64,4.47,9.16,5.84-.23.6-.67,1.79-.9,2.39-.82,3.06-2.9,5.55-3.82,8.58-3.67.91-1.28-6-2.38-8.71,2.38.24,4.63.06,4-2.93-2.22,4-6.77-3.16-4,2.93-1.36.43-6-1.29-4.46,1.27.41,3.8,6.42,1.83.28,4.12,5.57,2.22,1.65,7.77,5.6,11.07,1.53,4.2-4.91,8.21-2.4,12.37,4.24,1.43,2.1-1.86,1-4.09,2.4.71,8,3.37,4.78,6.14-5.84,2.8,6.62,6.46,0,9.9-6.73.36-1.47,7.22-2.41,11.09,5.6,3.11,6.53-2,6.48-6.39,2.54.68,4.47.18,4.81-2.72l.77.2c.21,4.09-1.43,14.32,4.65,9.2,2.6,5.33-1.59,4.42-4,5.09-.13,2,1.14,3.48,2.49,4.79.27-2,.15-4.43,2.69-4.73,2.47-1.14-3.1,3.65-.42,2.81,3.63.54,1.23-3.65,1.12-5.66,2.43,1,2.6-5.16,2.92-.49-.66,3.05,2.37,1.4,4.05,1.19l1.08,1c1,2.1,5.3.72,4.42,3.52-.74,3.45,3.46-.59,2-2.56,2.86-3.38,1.31,5.88,4.43,4.26,1.58.44,6.73,6,3.13,5.65-1.59-3.85-4.25-2.91-4.71,1-.63-2.13-1.85-3.84-4.3-3.91-.63,3.27-3.94,5.61-6.91,2.85,2.12-2.67,1.38-5.91.67-9-2.13,3.34-1.36-.36-3.41-1.33,1.17,4.27-4.13,6-7.4,6.66-.08,5.72,2.25,2.61,6.1,4.58a14.17,14.17,0,0,0-2.11,2.27c-8,1.06.86,1.7,0,6.52-5.32-.77-3.29,2.12-1.28,5-4.27,2.4-10.38,4-8.31,10.78-.85,2.33-.12,9.22,3.87,7.66l.64,0a5.31,5.31,0,0,0-.33,5.1l.14.54c-3.16,5.63,4.66-.13,5.91,4.45,1.82,4,2.81.91,5.24-.5-2.71,6.23,1.76,1.28,5.36,4-3.36-3.93-.37-8.76,2.57-12,.16,2.38-1.26,5.33,1.08,7.06l1.13,1.24c-4.27.14-2.31,6.71-6.06,6.44,1.56,3.65,1.7,8.94,6.56,9.65a8.69,8.69,0,0,0,3.69.64c1.67,3.58-4.88,3.28-3.93,7-3.85,2.19-5,6.74-9.61,2.18.19-3,5.9-6.08.28-4.18,2.28-6.1-6.47,1.39-8.86,2.93,2.19,3.13,4.86,0,8,1.2-.92,1.84-2.7,5-5,3-3.21-1.81.62,2.28,1.77,3-4.83-.78-1.54,4-.39,6.27.38-4.19,3.53-12.14,7.16-5.27,0-4.72,3.94-4.07,7.19-2.62.74,2.67-.7,6.33-3,2.87-2.42,3.35,2.88,2.83,4.94,2.43,1.25,1.64,3.4,6.2-.5,5.16-2.49-3.41-4.83.23-7.62-2.57,0,4.72,8.83.72,5,7.42-.4.85-2.68,1.54-1.85,2.52,3.35,3.36-3.44.5-5.19.21,1.72,2.9,5.6,3.85,6.62,7.34-3.63-1.53-2.2,5.7-.75,7.34,1.46-2.88,2.46-6.71,6.48-6.24-6.4-4.55,7.32-15.08-.11-19.59,3.88,2.09,6.92-1.26,5.23-5.11,4.19-1.9,2.72,8,4.11,1,3.32,2.18,3.72,10.75,1.49,3.92-7.26,4.84,9,6.26,3,12.77-5.87.09-1.85,1.68,1.08,3.44-.16,4.05-5.94,4-1.88,7-1.55,1.37-3.37-.62-5-.94.86,1.91,1.49,4.6,4.15,3.26.74,2.52-.86,2.34-2.74,1.72.19,2.71,1.59,6.28-1.75,7.58-.91-1.17-2.6-2.61-3.86-1-3.31,2.59.3,6.42,1.68,9,2-1.63,5.38-4.59,7.37-1.44,0,3.81,0,7.62-.25,11.43-4.66,0,2.64,5-3.64,2.12-.16-1.91-.26-3.81-.45-5.7-3.33-2.15-6.09,2.55-8.62,4.26,1.44.81,4.81.2,4.24,2.63.29,5.5-8.73,2.16-7.49,8.11,2.88,3.13,3.55,7.85,8.16,9.69,2.09-7.79,6.6-1,6.55,3.78,3.27-.37,6.35.88,9.48,1.63-2.84,3.1-.05,7.05,1.24,10.3-6.11-.12-2.29,5,1.75,5.32,1.62-4.74,4.48-10.2.26-14.43,1.79-.14,4.61-1.11,3.42,1.77,3.11.17.65-3-.06-4.42,0-2.51.59-5,.45-7.5-1.26-2.48-5.29-1.12-6.1-3.87,4.28,2.75,8.16-3.7,4.08-6.24.22-1.92-1.41-6-2.26-2l-.55-.29-.28-.7.11-.79c.12-.56.36-1.67.47-2.23,2.93,1.27,7,4.94,10,2,2,4.55-5.55,7.74-2,11.69,2.47,3,.16,7.29,2.77,10.24,2.35,2.73-3.39,5.85-.3,8.24,5.51,5.42-3.74,14.89,3.78,19.16,6.22,1.35-2.08,7.56,1.36,10.83-2.83,3-.26,15.45,3.72,8.68-2.94-2.83,1.42-7,.47-9.95-6.4-4.79,6.53-8.71,3.26-14.76,3.52-3.28-.26-10,4.76-11.77v4.07c-3.91.6-.75,4.84,0,7v8.69c-2.66-3-4,2.39,0,.67v17.19c-3.76-2.82-1,3.86,0,5.43v12.52c-5.17-1.39-1.69,5.77,0,.62v9.56c-1.78-3.65-3-1.18-3,1.79l1,2.4c0,.66,0,2,0,2.61H276.52c-4.62-2.3-10.94-4.53-14.9,0H258.4c-3.63-.61-6.82-5.11-10.42-2.32-2.68-2.25-4-.88-4.39,2.32h-7.13c1.83-2,6.09-2.42,5.55-5.8-2.72-1.75-6.83-3.52-9.32-.48-1.4,2-3.06.31-4.62-.48-1.73,1.73-3.82,4.26-2.22,6.76H143.14c2.86-4.76-5.95-5.28-5.19,0H70.78c2.89-2.33-1.72-2.9-1.7,0H6.94A8.46,8.46,0,0,0,4,792.62L2,791.72c3.11-3.69.59-8-2-11.06V769.5c4.46-2-1.64-12.71,4.14-9.66-1.27-1.45-1.6-5.4-4.14-3.93v-2.43c3-3.34,5.27-8.82,2.54-12.89C.65,736.42,6.51,728,0,727.78v-5.4c6.1.21,8.76-9.45,15.25-8.85-2.84-3,1-4.65-3.22-6.54-2.53-3.28-5.17,4-6.76.82a95.23,95.23,0,0,0-3-26.59c1.28-4.61,7.46-2.79,8.77-7.11,1.31-2.82,7.66-5.25,2.37-7.58,3.56-1.57-1.18-9.41,3.45-7.82-1.43-3.44-.06-7.79,3.8-8.71-1.28-3.59-4.19-6.78-4.41-10.65-.74-5.58,5.84-6.71,5.81-12.34-3,2.25-6.56,1-4.84-3.14.5-4.67,6.81-6.07,5-10,1.21.7,5.74,4.08,4,.86-2.46-2.85,1.3-5.52,3.73-3.1-3.82,2.81.13,5.78,3.6,5.22.87-2.43,1.48-5.3,4.43-5.87.49,2.34.5,4.87,1.92,6.92,2.83-3.94,6.42,1.34,10,1.12,1.93-1,3.11-3.05,4.7-4.49-.2-2.51-4.56-4.27-2-6.61-1.38-6.34,2.62,1.51,4.42,3.25-3.33-7.56.91-14.5,3.21-22.14,5.7-.27,4.76,8.22,8.65,11.21C66.18,607.64,75,610.83,77,617c.74,4.11,8.55,2.66,6.18,7.81a10.59,10.59,0,0,1,11.78,1.25c2.38-2.07,5.62-4.64,8.13-1.18,2-3.22,6.19-2.23,8.92-4.63,1.48,1.4,1.88,3.43,2.55,5.28,5.85.7,7.12,8.16,13.33,8.37-1.17-8,9.57,0,10.68,4.16,1.8-2.31,2.64-5.18,3.87-7.8,2-.31,2.56,2.48,4.6,2.39-4.29,3.11.89,5.23,1.24,8.66l-.08.74c-3.3,1.3-6.68,3.13-7.4,7-.69,3.52-1.24,7.13-2,10.67-2,3-2.38,6.73-6.59,7.6-3.27,1.82,2.38,8.77-3.35,6,4.85,5.64-.93,11.72-6,14.76.52-5.29-3,.15-6-2.82a18.32,18.32,0,0,1,.06,9.88c2.38-1.62,5.06-4.51,8-2.21,3.94,8-5.55,17.2.09,26.17,3.59-2.28.59-11.2,8.73-6.7,7,3.22,2.25-10.24,10.28-4.55-4.92.46,2.53,4.33,0,0,3-.6,6.27-1.33,4.42,2.86-2.41,6,7.68,10.22,3.87,15.73-1.63,3.6-9.7,1.62-7.24,7.34,2.34,4.49,6.22.65,7.07-2.68,8.05,0,7.06,9.37,10.31,14.55,6-2,7.38,3.14,11.36,5.44,4-4.28-5.65-11.13-.18-14.61,9.08,3.78,10.77-9.4,18.91-7.93,1.53,1.88,2.57,5.83,5.72,4,4.16-.16,1.6-5.22,3.77-7.53,3,.16,2.43,4.83,5.31,5.5,6.83-.59,7.93,9.22,15.6,4.65,10.94,3,22.67-3.06,33.27,1.36,7.08-1.89,15-2.64,21.23-6.88,5.39-1.14,12.62-.51,16.69-4.95-9.14-2.06,7.14-1.25,4.88-6.85-1.62-2.37.68-4.85,1.25-7.21,3.11.09,6.18,0,8.49-2.37,3,2.57,7.19.92,10.63,1.33,1.1,3,3.26-1.63.9-2,1.73-4.59,13.27-1.45,12.44-8.2-3.75-2.14-9.33-2.22-9.62-7.48,1.24,7.33-6.33,2.14-10,1.16,1.31-3.14,2.68-7.22,6.86-5.15l.73.26c3.14,5.94,14.24,5.22,15.36-2,1.16-4.64,4.91-.36,6.92,1,4.72-2.47,7.26-7.19,9.28-11.9,4.7,4.51,5.26,13.74,12.71,14.75,5.15-1.95,8.37-8.19,8.37-13.59,4.61-1.77,10.43,4.58,12.88-2.09,2.05-3.39.8,1.07.79,2.73,1.17,3.47,6.12,5.9,9.36,3.62,7.45-5.05,22.22-8.87,26.23,1.45.31-3.72,4.85-3.35,7.06-5.64,2,4.18,8.13,4.27,8.65-.91,7.89,4.23,4.37-5.39,3.79-10.14,5.72-3.77,11.11,0,16.8,1.65,5.55-1-5.3-7.29,1.1-8.86,3.71-1.62,7.28-5.65,6.7-9.89-2.48-7.35-2.17-16.85-9.75-21.18-4.59-1.87-.87-10.19-5.81-10.6-.33-1.18-.18-5.34-1-2.17-.61,3.73-4.12-1-6.13-1.44-3.7-1.89-3.59-4.39-6.92-4.23a65.43,65.43,0,0,0-8.82-5c-2.68,6-9.64-3.23-13.28,1.58.23,3.12,4.76,3,6.2,5.48l-.8.48c-1.49.16-3.62,1.23-3.75-1.1a9.79,9.79,0,0,0-5.6-2l-.6-.19a13,13,0,0,0-5.42-.71c-1.32-1.43-3.29-1.41-5-1.06l-.83,0a31.9,31.9,0,0,0-12.42,1.6c-1.34.38-2.67.81-4,1.24l-.83.06-2.91.09a3.29,3.29,0,0,0-2.14,1.76l-.6-.13a3.21,3.21,0,0,0-4.16,2.57c-.73,2.38-4.5-1.2-6.53,1.51l-.72-.08c-.95-1.35-1.74-4.32-3.88-2.93l-2.19,1-3.73.32c-1.13-1-2.54-.71-3.83-.32a39.76,39.76,0,0,0-8.38.51c-1,.14-1.95.32-2.9.53a5.38,5.38,0,0,0-4,2l-2.89.34c-1.05-1.14-2.46-2.49-4.05-1.42l-2.43,1h-.76c-1.13-1.61-2.63-3.13-4.63-1.79l-.9-.92c.25-1.43.56-2.85.75-4.27.68-4.54-4.77-5.78-8.26-5.19l-3.51-.84c-1.92-1.06-3.88-2.05-5.88-2.92-1.41-2.14-3.91-4-6.58-3.23l-1.1-.38a24.64,24.64,0,0,0-1.89-3.6c-5.71.63-10.21-5.64-15.94-4.06l-1.08-.4c-.48-10.08-13.72-9.42-15.25-18.94-5.16.63-9.23,0-12.66-4.19.26,1.85,1.83,5.82-1.09,3.15-4.95-3.38,4.16-4.77,4.17-8-4.93.32-3.69-5.87-8.95-5.61,1.93-3.76,7.59-3.56,6.2,1.58.59-4.09,2.67-2.54,5.15-.8,2.65-2.84.85,2,2.68,2.89.64-3.21-5.27-11.31,1.91-10.3-.95,3.14-.85,12.67,3.86,9.8-.56-4.71-1.9-10.29,3.82-12.15,4.82-6.08,9.12,13.09,8.5,2.3.76,3.47,5.55,6.69,6,1.49-8,2.87-1.67-9.16,2.37-10.55-2.93-6.89,11.55-3.9,7.81-11.31a53,53,0,0,1-2.63-7.9c-4.43-.71,1.09-2.5,1-4.94.58-3.52,9.2-6.67,5.33,1.37,0-4.7,9.31-9.41,4.07-14,1.4,5.41-.28,6.37-4,4.26,2.07-4.4-4.56-11.54,3.39-8.31-2-3.36,5.88-9.74,2.45-.06l1.72-5.28c3.77-2.78,1.71,3.55,1.68,6.15,3.35,4.52.25-7.79,1.91-7.24,1.44,1.6,1.53,5.65,4.24,3.27,1.43-6-4-8.83-4.75-13.83,1.72,2.1,2.7,1.87,2.77-1q2.35-6-1.22-4.07c2-3.92,5.21-11.4,11.48-12.13,3.82-7.62,4.35-21.3,13.28-23.93,1.39-3.9,1.84-8.11,3.63-11.87-3.7,1.58-4.37-1.32-5.83-3.2.28,2.8.93,5.56,1.06,8.39-1.28-4.23-7.27-6.15-4-11,3,3.54,6.53-1.25,1.79-.63.43-5.31,8.49-3.63,11.95-2.08.36-3.31,5.67-2.92,5.29-6.47-1.07-2.51-3.63-6.65-.06-8.08s1.33-6.87,5.65-7.76c.93,3.54,2.47-1.82,3.82-2.77.69-1.81,2.22,2.76,2.52.57,1.59-8.92,15.86-1.32,17.32-10.34,2.75-2.77,5.76.21,5.31,3.48,1.91-.81,1.13-4.55,3.09-1.41C384.67,382.59,390.19,382,393.71,382.6Z"/><path class="cls-1" d="M116.2,385.16c2.54-1.9,5.92,4,2.13,2.51-3.47-1.09,1,3.2,1.77,4.44C116.53,393,114.35,387.83,116.2,385.16Z"/><path class="cls-1" d="M437,388.09c4.4-1.56-.27,7.14,4.21,4.13C439.54,398.69,436.08,391.5,437,388.09Z"/><path class="cls-1" d="M436.51,403.06c.65-1.74-.37-5,2.18-5.22-.76,1.82-.57,3.16,1.58,3.38-.18.63-.55,1.88-.74,2.51a9.52,9.52,0,0,0-1.66,4.7A21.39,21.39,0,0,0,436.51,403.06Z"/><path class="cls-1" d="M509,403.08c3-.87,4.79.85,5.16,3.76C511.78,406.16,507.81,406.74,509,403.08Z"/><path class="cls-1" d="M470.05,405.06c1.47-.73,4,.41,2.31,2.07C471.21,407,469.57,406.64,470.05,405.06Z"/><path class="cls-1" d="M412,412.77q-3.58-1.78-.21-5.5A11.36,11.36,0,0,1,412,412.77Z"/><path class="cls-1" d="M518.29,408.39c.38-.68,1.68,7.07-1.25,5.66C517.2,412.17,516.09,409.35,518.29,408.39Z"/><path class="cls-1" d="M340,411.09c4-2.77,3.52,6.15,2.06,3C341.15,406.92,339.7,426,340,411.09Z"/><path class="cls-1" d="M500,417.93c1.72,2,6.38,7.83,1.27,8.12C500.75,423.35,500,420.69,500,417.93Z"/><path class="cls-1" d="M403.27,419.3c2.89-1.51.59,2.26.49,3.64C401.09,424.26,401.5,420,403.27,419.3Z"/><path class="cls-1" d="M133.3,421.32c1.69-.9,3.09,2.06,2.48,3.39C134.32,425,132.39,422.74,133.3,421.32Z"/><path class="cls-1" d="M321.16,426.3c3.44-.23,1.32,6.34,0,1.53C321.14,427.45,321.15,426.68,321.16,426.3Z"/><path class="cls-1" d="M360.12,427c1.45.86,2.92,2.08,3.07,3.9-4.16-2.6-1.83,3.64-2.26,6.29C357.51,435.32,360.11,430.3,360.12,427Z"/><path class="cls-1" d="M366.37,429.51c1.16-.06,1.12,4.83,1.66,6.69C364.89,433.9,362.26,430.47,366.37,429.51Z"/><path class="cls-1" d="M132.93,430.53c2.48-.35,3.8,4.33.29,2.31C133.15,432.26,133,431.1,132.93,430.53Z"/><path class="cls-1" d="M371.94,440.26c-.54-2.29-3.3-8.71.91-7a10,10,0,0,1-.1,6.71Z"/><path class="cls-1" d="M314.86,436c-2.4,1.72-2.54-3.54-.09-1.86C314.79,434.6,314.83,435.54,314.86,436Z"/><path class="cls-1" d="M148.06,443.14c2.09-.93,2.5,6.33,0,7.13C148,448.49,148.06,444.92,148.06,443.14Z"/><path class="cls-1" d="M215,443.08c2.92-1,1.86,2.25,2,4C214.05,448.07,215.11,444.8,215,443.08Z"/><path class="cls-1" d="M387.2,450.34l.75.1.35.65c.35,3.2-2.11,3-1.51-.09Z"/><path class="cls-1" d="M200.13,481.29c2.67,1.61,7.17,5.64,3.18,8.76-3-5.39.11,7.74-4.28,7.37,1.31,3.44,3.53-.47,4.32-2.16,1.79,1.52,4.32,2.52,5.14,4.89-2.41,1.38-3.33,5.94.31,5.88.34-2.1,1.17-4.26.55-6.38-.52-2.64-2.72-6.45,1.52-6.79,3-2.57,3.1,4,0,1.35,1.22,5.07,1.65,12.71,8,13.18.06,3.46-2.66,6.32-3,9.8a5.31,5.31,0,0,0,3.22-5c.39-3.77,5.09-2,7.71-1.36.26-3.11,2-5.68,1.87-8.85-.55-3.83,8.35-1.85,3.37,3-5.5-1-.8,7.72-1.29,10.81-3.82.29-3.18,4.89-6.91,4.61,1.41,2.17,5.64,3.06,3.79,6.37-3.52,3.62-5.84,8.17-9,12.11-2.58.56-5.24.6-7.78,1.37.87,2.87,4.06.11,5.89,2.07.24,1.82.91,4.59-1.74,3.09-1.29,1.76-2.09,4.71-4.89,3.61-2.93-2.27.45-6-.2-8.91-4.27-1.71-12.61,8.11-10.05-2,1.45-4.82-7.08,2.62-2.34,3.45,2.48.5-.5,5.18-1.37,5.1-5.48-5.69,1.8,11.25-3,4.66-2.31,4.87.22-3.47-3.33-2.26-2.56,0,2.18-5.4-1.65-3.73-.42,3.62-2.17-.26-3.38-1.32-.22,1.51,1.85,4.16-.58,4.49-3.75-.06-1.29,7.63-5.72,5-6.93-2.37-1.51-10.25-3.57-15.23,3.9.38,2-4,4.94-6.15-3.48-4.19-3.86-9.63-3.2-14.68-3.66-.54,1.09-9.21,4-6.21,2.16,2.76,5.91-.57,7.28,2.94,1.08-3.38-2.34-4.34-3.33-6.89-5.12-4.68-4.52-12.45-5.48-18.87-.68-5.67,9.34-4.9,8.49.56-2,3.25,4.61,4.05,2.36,7.19-1.78,3.7-.21,9.33,2.86,3.79-1.57,4,1.86,7,1.89,10.94-1.38,1.26-6.13,3.49-2.06,4.55,1,4.48-2,7.9-2.86,11.59,3-2,5.19,1.83,2,3.17,3.15-1.81,8.6-.46,6.28,3.95,5.45,2,4.87-6-.1-5.36-1.19-3.23,1.64-3.29,2.68-.69-.17-3.11,2.41-5.09,5.1-6,2.81,3.39-4.91,7.91.87,11.17-1.75-5.23,6.61-13.65.31-16.45,1.17-3.44-2.51-7.26,1.9-9.56A127.23,127.23,0,0,0,196.29,502c2.56-5.21-3.78-7.69-6.07-11.21-1.07-3.87,7.28-4,3.78.38C197.22,488.44,199.62,484.9,200.13,481.29Z"/><path class="cls-1" d="M209.38,484.51c1.81-1.49,2.08,3.62,3-.23,5,1.29-4,5.13-6.49,6.83C209.33,487,203.57,485.76,209.38,484.51Z"/><path class="cls-1" d="M305,487.08c2.92-1,1.86,2.25,2,4C304.05,492.07,305.11,488.79,305,487.08Z"/><path class="cls-1" d="M44.76,502.43q2.1-1.74,4-3.65C51.8,502.07,47.32,502.47,44.76,502.43Z"/><path class="cls-1" d="M290,504.14c2.81-.48.62,4.18,4-.19C296.53,509.05,288.5,508.92,290,504.14Z"/><path class="cls-1" d="M241,510.4c1.93-.15,1.93,4.47,0,4.34Z"/><path class="cls-1" d="M439.28,513.38c2.05-1.28,1.6,1.07,1.81,2.42,2.84-2,6.19,3.14,3.84,5.17-2.5-2.16-5.87-1.66-8.94-2C436.6,516.81,436.59,513.84,439.28,513.38Z"/><path class="cls-1" d="M539.27,518.38c1.36-.82,1.5,5.43-1.06,3.53C537.11,520.19,536.78,518.59,539.27,518.38Z"/><path class="cls-1" d="M94.34,524.6c6.4,1.1,11.4-3.69,17.48-4.48,1.88,2.39-.23,4.2-1.94,5.84L108,526c.46-3.81-2.73,0-4.21.73l-2.46,1.61c-1.73-.26-4.2-2.32-5.56-.38-.89,1-1.7,2.75-3.09,1.28C92.74,527.76,91.78,524.07,94.34,524.6Z"/><path class="cls-1" d="M139.24,522.39c3-.66,1.31,6.8-1.27,3.73C134.54,525.16,137.08,522.93,139.24,522.39Z"/><path class="cls-1" d="M523.8,524.83c-.13-7.7,3.14,4.17-2.17,5.21l-.77-.2C519.69,526.75,519.76,524.23,523.8,524.83Z"/><path class="cls-1" d="M142.21,525.24c2.76-1.31,1.59,2.25,1.82,3.82C141.93,528.81,139.58,526.79,142.21,525.24Z"/><path class="cls-1" d="M146,528c3.13.57,7.44,2,8.13,5.07C149.55,535.27,147.3,531.12,146,528Z"/><path class="cls-1" d="M79.13,530.08c7.27-1.19-2.3,5.9-3.41,2.85A40.2,40.2,0,0,1,79.13,530.08Z"/><path class="cls-1" d="M153,534.13c2,.07,6.62-1.18,4.16,2C156.1,538.37,152.21,536.55,153,534.13Z"/><path class="cls-1" d="M531.63,535.31c1.07.74,2.22,1.59,3.13.17.06,2.46,4.18,4.55,2.4,6.67-.17-1.18-1.74-2.55-2.33-.79C533.74,539.35,532.51,537.41,531.63,535.31Z"/><path class="cls-1" d="M159.16,538.32c1.62-.25,2.48,2.15,1.64,3.35C159.26,542.13,157.05,539.15,159.16,538.32Z"/><path class="cls-1" d="M222.05,539.07c2.31-.64,3.43.86,3.92,2.9C223.79,541.68,220.78,542.37,222.05,539.07Z"/><path class="cls-1" d="M236.33,540.44c5-.21,4.75,9.18-.19,10.66-.88-2.52-2.95-4.38-3.41-7a3.18,3.18,0,0,1-3.8,2C228.8,541.84,233.25,541.46,236.33,540.44Z"/><path class="cls-1" d="M552.83,544.37c3.21-.91,4.39,2,4.28,4.78C555.81,547.43,553.68,546.38,552.83,544.37Z"/><path class="cls-1" d="M157,550.76c-.19-3.27,4.8-1.55,1.63.54l-1,0Z"/><path class="cls-1" d="M170.22,549.28c2.77-2.33,2.44,6.06.5,3C169.53,551.58,168.21,550,170.22,549.28Z"/><path class="cls-1" d="M567.22,549.45c1.44.07,2.77,3.73,1.13,4.29C567.35,552.64,566.41,550.89,567.22,549.45Z"/><path class="cls-1" d="M553.86,554.69a4.19,4.19,0,0,1,2.1-1.32C557.47,555.05,554.55,557.1,553.86,554.69Z"/><path class="cls-1" d="M548.39,557.88c-.68-1.34-.43-4.31,1.75-3.76C550.25,555.36,550.52,558.79,548.39,557.88Z"/><path class="cls-1" d="M531,555.18c2.42-.26,3.36,2.17,4,4-2.37.37-3.3-1.28-3.76-3.3Z"/><path class="cls-1" d="M539.22,557.27c1.38.72,3.13,2.83,3-.13,2.7-.15,5.14,6.21,1.83,2.94-5.93-3.27-8.92,6-7.09,10.9-2.81-.32-7.64-3.46-1.94-3.05-1.29-2.52-5.1-4.74-2.84-7.8C535.31,561.48,537.39,559.7,539.22,557.27Z"/><path class="cls-1" d="M55.25,559.29c5.9,1.87,5.44,9.8,3,13.45C53.53,572,48.7,561.92,55.25,559.29Z"/><path class="cls-1" d="M244.17,561c3.64,1.12-.29,6.33-3.14,5.15C241.11,562.25,245.05,565,244.17,561Z"/><path class="cls-1" d="M567.94,564.36c3.16-.88,4.26,2.08,4.18,4.78C570.89,567,567.08,567.53,567.94,564.36Z"/><path class="cls-1" d="M573.78,566.18c1.07-2.51,4.92,4.21,1.15,2.79C574.58,568,574.19,567.08,573.78,566.18Z"/><path class="cls-1" d="M545.25,568.65c1.94-.38,4.74-1.32,2.89,1.6,4.46-5,4,1.86,7.65,4.16,5.28,6.89-5.36,6.89-3.06,2C550.66,574.19,539,571.55,545.25,568.65Z"/><path class="cls-1" d="M521.08,573.22c5.84-1.7,5.06,7.27,2,9.78l-1.12-.12C522.81,579.59,522.08,576.36,521.08,573.22Z"/><path class="cls-1" d="M522.11,586.79c-1.73-1.15-2.48-2.95-.16-3.91l1.12.12,1.14.15A7,7,0,0,1,522.11,586.79Z"/><path class="cls-1" d="M531.27,585.39c-1-4.85,6.55-.93,6.48,1.89h-.66C534.63,586.37,529.64,590,531.27,585.39Z"/><path class="cls-1" d="M52.3,585.38c3,.26-1.88,8.94-3.21,3.53C46.58,586.57,50.57,586.09,52.3,585.38Z"/><path class="cls-1" d="M553.23,593.39c3,.27,9.66,15.59,2.71,9.64-.08,4.51,3.81,7.25,3.15,12.12-2.35-4.59-4.65,3-6,5.12.48-4.95-.66-9.75-2.07-14.42A10.76,10.76,0,0,0,549.9,603c1.66-2.45,1-5.52,3-7.74C550.09,595.32,551.4,593.73,553.23,593.39Z"/><path class="cls-1" d="M52.19,594.22c5.07-1.49-.14,2.23,1.72,4.89C51.18,599.56,50.84,595.87,52.19,594.22Z"/><path class="cls-1" d="M498.9,612.19c.75.79,1.07,3.57,2.39,1.89l.84.91c-.8.91-1.59,1.84-2.32,2.82C496.43,618.55,499.22,614,498.9,612.19Z"/><path class="cls-1" d="M574.07,622.15c1.88-.67,5.52-5.07,6.16-.21,2.29,3.39-2.77,4.55-5.36,4.47-.52,2.64,6.48,2.14,2.58,4.17-2.42.34-4.14,3.74-5.34.35,1.47,6.1-3.74,3.36-3.21-.91l0-.82c4.32,2.47,2.25-1.88-.26-3C566.45,619.3,577.46,635.52,574.07,622.15Z"/><path class="cls-1" d="M545.33,622.21c1.07-2.08,2.21-.15,2.79,1.18v.66C548.53,631.22,545.06,626.37,545.33,622.21Z"/><path class="cls-1" d="M552.92,622.12c2.27,1.48,5.41,2,6.19,5C553.4,630.14,554,624.92,552.92,622.12Z"/><path class="cls-1" d="M566.05,627.35c-4.74.31,2-6,2-1,.25.93.53,1.86.83,2.8l0,.82c-2.24,1.59-5.32,1.8-7,4.18C558.13,627.46,564.7,630.54,566.05,627.35Z"/><path class="cls-1" d="M564.22,633.93c5.62-.91.79,6.21,4.63,4.35-1,3.42,3.35,1.88,3.27,4.54-2.7-1.77-2.25,3-4.78,2.13-.56-2.43-2.07-4.4-3.22-6.55,3.22-1,1-1.61-1.23-1.46C564.18,636.17,565.12,635.51,564.22,633.93Z"/><path class="cls-1" d="M544.89,639c1.39,4.29,3.63-2.42,3.15,2.07C548.7,645.43,543.47,641.72,544.89,639Z"/><path class="cls-1" d="M574.86,657c2.65.54,4.11,3.11,6.28,4.53.33.81.63,1.63.91,2.48-1.65-.47-3.32-.79-5-1.1C580.85,661.21,574.69,659.55,574.86,657Z"/><path class="cls-1" d="M382,666.09c.06,3.17-.59,8.29-4.8,7.86C373.3,670.63,379.83,667.91,382,666.09Z"/><path class="cls-1" d="M576.24,671.17c4.13-1.28,2.86,4.51,3.8,7C577.41,674.59,573.3,676.81,576.24,671.17Z"/><path class="cls-1" d="M567.91,686.59c-1.29-4.85,6.39-1.87,4.35,1.6-.11.56-.35,1.67-.47,2.23C569.23,689.93,571,685.55,567.91,686.59Z"/><path class="cls-1" d="M559.67,695.32c.76-2.69-6-6-1.81-6.43a12.06,12.06,0,0,1,3.65,9.25c3.06-4.54,6.71,1.93,7.3,4.76-3.43,3.17,2.62,8.1-3.74,5.12,4.3,5.12-2.38,2.2-4.2-.65,1.68-.31,4.57-.42,1.85-1.85C557.48,705.9,557.48,698.63,559.67,695.32Z"/><path class="cls-1" d="M569.09,695c1-.64,1.94-1.41,2.91-2.12C573.31,695.09,570,698,569.09,695Z"/><path class="cls-1" d="M552.21,698c1.42,3.24,5.81.89,4.81,5-1.56-.35-4-3.15-4.42-.26C549.81,704.29,552.52,699.43,552.21,698Z"/><path class="cls-1" d="M312.86,703.12c1.92.43,6.51-1.5,6.2,1.59C316.82,704.52,313.79,706,312.86,703.12Z"/></g></g></svg>