<svg xmlns="http://www.w3.org/2000/svg" viewBox="0 0 600 894"><defs><style>.cls-1{fill:#535843;}</style></defs><title>Layer 4</title><g id="Layer_2" data-name="Layer 2"><g id="Layer_4" data-name="Layer 4"><path class="cls-1" d="M.89,0H138c-1.1,3,4,3,2.92,0h95l1,2.37q0,6.42,0,12.83c-3.24,0-6.5-.44-9.74-.6-1.59-.22-3.61-3.37-4.68-1.15-3-2-6.53-4.37-10.23-4.18-3.89,5.72-12.29,3-17.86,2.13-6.09-4.55-14.41-1.59-18.33,4.56-1.74-1.61-2.4-4.77-5-5.05-.42.77.26,4.93-.76,3.55-3.75-7-15.17,5.49-17.05-3.13-6-2.05-11.45,2-17.16-1.93-4.71,5.68-8.73-6-13.65-.84-5.6,5-17.93-3-20.83,5.29-3.52-5.63-11.59-5-17.29-4.3-10.07.9-21.1-3.81-30.73.18C51.13,13.5,48,10.54,45.79,8c-4.44.46-10.73,7.6-14.41,2.64-3-5.57-8.11.16-12.15.24C15.27,6,9.3,8.66,5,11.06-2.55,10.22,5.52,3.16.89,0Z"/><path class="cls-1" d="M237.81,0H362c-3.85,4.9,8.25,1.3.66,0h29.8a9.73,9.73,0,0,0,10,0h.67A2,2,0,0,0,407,0H546.91q4.33,4,6,0h.7c2,2.17,7,5,4.26,0H600V7.83c-4.65-1.14-5.14,7.07,0,7.45V65.19l-.74-.42c-1.67-1.3-2.59-3-1-4.72,1.4-9.13.62-18.49.61-27.7-5,.71-4.92-4.55.09-3.61-.57-3.44-2.53-6.45-3.38-9.77.56-4.61-4.92-11.47-9.19-6.63-3,2.14,1.06-3.57-1.64-4.19-3.69-1.27-1.67,5.59-4.85,5.75-6.3,0-12.49,1.33-18.73,1.85-4.51-4.58-11.16-3.14-16.09-6.5-5.94,12.46-20.35,5.9-30,3.21-2.59,6.82-5.68,0-10.09.47-7.09-3.5-3.43,5.2-8,6-3.67-1.9-7.51-3.47-11-5.69-15.37,6.22-32.17,1.4-48.11,4.49-10-5.75-21.45-1.09-31.83-3.46-9.46,2.57-19.38,1-28.88-.5.33-2.35,1.63-5.63-2-5.46-2.81,2.19-5.63,4.69-9.25,5.36-6.51-1.44-12.82-4.48-19.59-4.17-3.72-5.35-8.18,1.56-13-.48,2.42,5.72-5.05,7-9.16,6.9-1.44-6.52-8.78-3.51-13.3-5.05,3.36-3.51,1.4-9.62-3.56-5.62,1.25,5.4-7.27,4.56-4.76-.37-1.89-3.15-9-3.72-11.79-.1,3.33-.17,7.41-.91,6.11,3.3C288.48,5,279,7.61,270.35,4.82c.34-7.49-5.28-.61-7.68,1.92-3.79,2-2.82-4.3-6.27-4.11C249,0,244.34,7.32,237.93,9c0-1.77,0-5.31,0-7.08C237.88,1.47,237.83.49,237.81,0Z"/><path class="cls-1" d="M276.22,9.18c4.88.45-.31,5.29-3.39,5.77A10.61,10.61,0,0,1,276.22,9.18Z"/><path class="cls-1" d="M93.24,12.1c4.1-.57,3.66,12.17,1.46,4.17C91.36,16.7,92.49,14.21,93.24,12.1Z"/><path class="cls-1" d="M40.4,17.22c1.68-.64,4,1.7,3.38,3.38A4.05,4.05,0,0,1,40.4,17.22Z"/><path class="cls-1" d="M148.29,17.24c1.64.5.27,6.85-2.32,7.89C146.59,22.46,147.46,19.85,148.29,17.24Z"/><path class="cls-1" d="M420.19,17.15c4.55-1.64-1.72,9.48,6.89,4,.38,4.84-6,1.24-6.91.88C422.58,19,417.49,19.23,420.19,17.15Z"/><path class="cls-1" d="M165.4,18.25c2.42-.89.52,3.28.27,4.41C164.24,22.19,164.64,19.34,165.4,18.25Z"/><path class="cls-1" d="M409.19,18.31c1.1-.67,2.52,3.18.58,3.48C407.17,23.35,407.45,19,409.19,18.31Z"/><path class="cls-1" d="M173.34,19.38c1.39.77.9,3.8.37,5.24C171.55,24,172.47,20.88,173.34,19.38Z"/><path class="cls-1" d="M159.25,21.41c2,.15,2.09,4.23-1.27,2.62C153.94,24.59,157.86,22.36,159.25,21.41Z"/><path class="cls-1" d="M37.87,24c4.42-.81,6.86,10.61,3.46,4.69C40.85,26.55,38,26.27,37.87,24Z"/><path class="cls-1" d="M92.28,25.31c1.39.28,1.39,4.1,0,4.38A4.77,4.77,0,0,1,92.28,25.31Z"/><path class="cls-1" d="M532.31,28.24c1.85.89-1.09,2.51-1.71,3.39C528.73,30.91,530.69,28.1,532.31,28.24Z"/><path class="cls-1" d="M131.27,29.29c5.27-1.92-2.1,10.92-.83,5.07C132.72,31.14,126.72,30.55,131.27,29.29Z"/><path class="cls-1" d="M177.91,29c1.58,1.2,1.52,4.86,4.91,4.3C181.58,36,176.07,32.6,177.91,29Z"/><path class="cls-1" d="M86.16,30.43c1.29-.31,3.7.8,3.49,2.33C88.35,33.37,85.59,32.07,86.16,30.43Z"/><path class="cls-1" d="M52.38,32.43c2.37.8-1,5.48-2.23,2.3C49.35,32.81,52,33.84,52.38,32.43Z"/><path class="cls-1" d="M40.26,33.29c2.38-.79-1.67,7.26-.39,7.63C36.52,41.61,39.24,35,40.26,33.29Z"/><path class="cls-1" d="M150,34.18c2.26.62,6.57-.67,6.19,2.63C153.77,34.67,148.65,38.84,150,34.18Z"/><path class="cls-1" d="M54.05,36c3.52-1.14,1.72,4.23,0,5.11A43.56,43.56,0,0,1,54.05,36Z"/><path class="cls-1" d="M160.9,42.91c3.43.93,5.47,6.3,1.29,7.25C164,47.43,161.64,45.45,160.9,42.91Z"/><path class="cls-1" d="M169.26,52.25c1.62-2,4.42,1.7,2.14,2.36C171,53.29,168.11,54.09,169.26,52.25Z"/><path class="cls-1" d="M599.29,68.91c-.39-1.28-1.73-3.24,0-4.14l.74.42v3.56Z"/><path class="cls-1" d="M448.22,75.4c1.38.47,2.39,2.95,2.34,4.42C448.59,80.27,447.38,76.91,448.22,75.4Z"/><path class="cls-1" d="M599.25,77.05l.75.14v4.59l-.72.16A6.56,6.56,0,0,1,599.25,77.05Z"/><path class="cls-1" d="M599,93l1,0v11.19l-.78-.15c-.13-1.33-.24-2.65-.34-4C598.9,98.29,599,94.77,599,93Z"/><path class="cls-1" d="M597.06,100.27h.8C599.34,103.89,594.4,103.43,597.06,100.27Z"/><path class="cls-1" d="M0,158.87v0Z"/><path class="cls-1" d="M416.35,163.35c1.54-.63-.52,4.52-2.39,4.77A4.23,4.23,0,0,1,416.35,163.35Z"/><path class="cls-1" d="M402.58,167.88c5.61-1.43,3.51,8.25,6.65,10.11,3.52-.45,4.84-4.9,7.49-7,.33,5.32,5.67,11.3,10.37,6,1,3.94-3.46,4.26-6.1,5.26-2.33.52-1,3.81,1,3.76,2.11,1,8.14.26,4,3,8.27-2.3-3.07,5.34,3.82,4.78,4.82-3.35,9.63,1.74,11.32,6.12,1.09,3.07,5,2.14,7.51,3.24,8.07,5.22.16-6.91,6.28-6.18-.5,3.45-.66,7,.88,10.28,2.73.63,4.8,2.33,7,3.92,2.7-3,.93-6.47.18-9.77a45.15,45.15,0,0,0,8.58-2.75c1.84-1.16,1.36-5.39,4.17-4.48,2.06,3.17-.5,7,1.31,10.34,3.66-1.42,3.64,2.77,4,5.32,2.25-3.37,5.64-.34,4.14,2.92,4.23,3.87,4.38,9.63,3.94,15,3.42,1.07,5.54,3.53,5.59,7.2-3.13.19-8.83.12-3.9,1.19,2.55.74,7.32-1.58,7.15,2.73-11.1.94-22.38-2.65-32.7.16,2-4.51-6.35-.43-7.34-2-8.76,2.95-17.34-2.61-26.18.19-4.58-.2-9.14-.24-13.7-.42l-2.79-1.34a37.05,37.05,0,0,0-4.27-2.45v-.87c3-1.68,6.07-4.06,9.57-2.28-1.19-2.56.55-3.13,2.87-3.33a18.46,18.46,0,0,1,3.41-6.58c-4.1-.88-9.7-5.1-12.3.21.56-5.07-3.93-2.22-4.59,1,0-.77-.13-2.32-.17-3.09.5-1.44.61-3.46-1.07-4.15.23-1.59.45-3.18.6-4.77a4.41,4.41,0,0,0-1.2-5.52l-.47-1.58c.65-1.67.93-3.8-.63-5.06l-.25-.73c-.12-2.88.23-5.78-.52-8.58C404.66,181.18,404.14,174.42,402.58,167.88Z"/><path class="cls-1" d="M0,168.79c1.12,1.91,6.15,4.71,2.14,6.07-.66-1.18-1.39-2.31-2.14-3.42Z"/><path class="cls-1" d="M429.16,178.45c2.14-.28,7.66-1,6.08,2.45,6.55.24-3.55,2.27-3.56,5.8a7.35,7.35,0,0,0-5.85-.84c1.22-1.85,4.29-2.18,4.35-4.71C427.06,182.89,428.1,180.37,429.16,178.45Z"/><path class="cls-1" d="M38.25,181.93c-1.16,5.4-3.2-3.38-.11-.85Z"/><path class="cls-1" d="M33.14,186.08c.18-3.36,4.13-2.39,1.58.62-2.68,4.52,2.26,2.7,5.12,3.05a16.21,16.21,0,0,0-2.71,6.51c2.27-.29,4.93-4,6.76-1,1,4.68-6.83-.6-5.06,4.77,4.13-5.35,3.61,5.6.47,7.33-3.44,2.8,2.5,2.19,3,5.34-1.75,0-3.49-.18-5.24-.29.65,2.52,2.58,5.49-.35,7.29-3.25,2.5-.62,6.37.57,9.27,2.89,1,2.42-2.49,4.48-3.25-2.83,6.57,6.54-.56,5.22-4.53-9,2.39,8.79-12,6.87-3.5.37,2.31-1.72,2.42-3.47,2.77-.14,1.93-2.85,6.44,0,6.63.15-3.09,6.49-5.81,6.9-1.33.75,3.55,4.48.64,6.77.41,4.81-.56,4.21-8.65,9-8.1-.58,1.33-3.06,5.68.16,4.17,6.25-4.88,16-2.1,18.94,4.72,3.43-3.8,2.25-10.2,6.68-13.58-2-1.23-5-1.8-5.74-4.21,1.64-1.8,4.83-1.85,5.75-4.25,1.25-7.31,10.69-2.82,15.89-5.69,3,5.28,1.27-.64,4.24-2.4,0,4-.3,8.06-3.15,11.08-3.24,5.64,6,1.47,7.94,4.24-.52,3-1.82,5.79-2.72,8.68,4.87-1.35,8.59,1.69,8.29,6.3,3.06-4.35,2.82-9.66,2.84-14.76,2.37.24,5.41-.83,7,1.49-.14,3.44-.14,6.85-.18,10.3-1.24,5.53,3,2.76,1.9-1.08l.06-.95c4.26-2.69,5.45,3.36,7.17,6,3.3,6.14,12.92.41,8.88-5.39,4.51-8,5.79,4,5.06,8.47.09,2.64.23,5.32.43,8,3.83-.9,2.69-5.95,3.81-8.94,4.31-5.79-4.95-13.07,1.36-17.54l.35.94c1.08,5.89,6.25,6.43,9.93,9.59l.12,1a7.76,7.76,0,0,0,2.13,6.41c-4.47-2.07-2.35,5.06.79,5.49,0,1.22,0,2.45-.05,3.68a29.18,29.18,0,0,0-3.31-1c.37,3.75-6.06,4.06-4.07,8.26-1.63-.76-5.82-2-3.41,1.09-5.09,1.58-2-4.52,1.58-3.65-.12-3.48-6.72.06-9.48,0-3.79-3-9.23,2.77-9.66-3.46-4,.1-4.49,6.36-6.64,8.92,2.57.05,4.25-4,6.78-1.88,2.82.68,3.24,4.68,6.17,4.83,1-1.52,1.06-3.36,1.5-5.06,3.2.58,4.95,3.89,5.34,6.89,2.58.05,6.73-2.21,7.55,1.6-2.85-.17-2.68,3.64-6.38,1.65-4.31-1.55-4.07,2.37.1.68,3,6.55-4.06,0-3.63,5.67-4.13,2-.12,7.11,2.64,8.59,2.75,2.36-3.06,1.95-4,3.89l-1.85.16c-1.6-1.9-.54-2.36,1.57-2.17-2.22-3.19-.56-8.9-5.8-5,2.76-3.43-5.85-1.73-.73.23,2,.75,4.59,1,3.9,3.84-5.24,2-7.11-3.5-10.88-5.29.55,2.48,3.19,6.24-1.31,5.65,2.73,1.59,14.48,4.31,3.25,3.69L150,279c9.05-2.68,2.73.92,3.28,3.87-3.11,1.62-6.74.82-10,.05-3.26-3.13,7.86,1.43,6.78-2.56-2-.37-6.75,2.21-5.59-1.42-7.3-.37-14.08,2.93-21.42,1.48a11.63,11.63,0,0,1-9.06,7.63c2.66-4.25-1.17-3.18-.21-7-4.15,1.32-6.56,5.1-11.13,5.28-2.91.71-6.83,0-7.78,3.5,5.76,0,11.48-.58,17.23-.78-1.25,3.61-5,.44-7.59,1.52-2.1,1.57-13.28,1.52-7.92,6-2,1.67-4.69,3.66-3-.32-3.28,0-7.15,1-10-.87,3.91,1.86,5.09-.85,6.19-3.11-2-.4-5.9-2.71-4.29,1-2.62-1.09-4.87-3.23-7.83-3.32.67,2.58,6.4,2.19,4.27,5.08-.66,1.47-2.89.74-4.18,1.28a54.79,54.79,0,0,1,6.88,4c-.26,2.54-2.59,2.79-4.69,3.08-.36,4.31,1.35,14.18,6.36,8.18,3.53,2.06,6.14,7,3.72,10.54,4.66-3,6,7.15,10.48,1.79-2.35,3.2,3.56,6.36,2,1.49-.57-4.68,2.67.49,4.38,1.61,3.4-1.45,8.31-1.57,9.48-5.65,4.19-2.24,2.59,5.19,7.43,3.94-3-1.53,1.71-7.25,4.2-5.55-3.61-2.29.8-5.21-1.7-7.83,1.15,2.58-4.83,4.79-2.42,2.13,2.93-2.83-4,.24-2.49-2.36.26-1.4,1.1-3.51-1.17-2.43,0,5-4.39,1.44-5.69-.92,4.74.73,2.18-3.34-.54-.48-2.15.69-5.79,2.74-2.06,4.32-7.52,3.33-3.21-4.47-2.28-7.8-2.17-.35-7.28-2.31-2.41-2.89,10.49-5.67-2.59,9.61,8.25,4.74-.13-2.1-2.12-6.17,1.59-4.52a38.47,38.47,0,0,1-3.84-5.08c2.13-2,4.47-4.05,7.4-4.62,2.87,6.35,13.16,1.85,19-.23-3.75-2.61,5.11-2.65,6.37-5.6,4.48,2.39,10-.33,14.09,2.64l.41.25c2.25-.61,6.26-1.43,9-3.36,4.17-.8,14.65-2,11.33,5.27a7.86,7.86,0,0,0,.12,4.14,31.46,31.46,0,0,1,.15,6.65c-4.7,1-10.45.06-11.87,3,3.24,3.7,7.57,2.24,11.79,3.42,1.5,1.1,1.73,2.94,2,4.67-3.22,1.39-10.21-1.15-10.69,3-3.76-1.76-4.71,3.75-8.69,1.59-.48,3.34,2.54,5.12,4.2,7.52-3.62,2.3-8.48-.05-12.23,2-4.42,2.54-9.83-3-14,.73,7.16,1.14-1.19,3.05-4.67,1.41l-1.05-3c3.47-4.15-5.46-4.43-2-.12-5.27-.66-1.71,2.19,1.15,2.85-4.34-1.68-3.15,4.6,0,2,3.8,1.95,8.54.31,12.83.39-.47,5.39-14.32-.2-9.16,4.69-3,.73-6.53.83-8.48,3.61-1.86-3.3-4.13,2-6.57.69-7.28-3.12-14.46,1.66-21.84,1.17,2.32,7,11.18-1.17,16.05,2.66,5.26,3.54,6.85-.71,9.82-3.31-.92,2.25-2.5,4.7.06,6.48-6.39-.67-12.51-2-18.94-1.95-.7,4.62,4.06,8.74,7.5,4.2,2.3-2.71,15.41-1.7,7.64.9,1,2.15,2.08,4.3,3,6.49-4.15-.93-7.38,10.67-6.26-.7-.74-3.51-5.4-.06-6.68-1.49-2.83,1.38-.25,3.05-1,5.3q-2.58-.32-2.1,2.25c-.31,3.27-7.3.88-4.53-2.52,2.38-3.13-3.66-4-3.42-1.1l-.52.53c-1-1.4-2.45-.33-2.83.91H97.16c.44-5.13-5.55-6.95-8.33-2.53,2-.5,2.59,1,3,2.63-1.92,4.1-2.4-3.09-5.12-.4-2.75.82-2.71,6.47-4.79,2.05.78-2.7,5-2.17,4.36-5.59C82.52,359,66.86,358,81,359.07c-2.71,3.38-10,1-13,3.89,1.84,2.22,12.25-2.29,11.6,3.54a45.72,45.72,0,0,1-4.87,6.85c-2.57.66-6.25,0-6.39,3.59l-1.54,0c.83-3.18-3.38-.41-5-.55A45,45,0,0,0,66,378.19c.17.95.31,1.92.43,2.89-.8,1.41-1.66,2.8-2.59,4.14-1.08-4.27-2.07-5.17-2.07,0-1.67-5.84-3.25-.23.22,1.79-7.4.9-1.86,9.63-7.88,12.33,1.15-7.46-.74-15.38-6.49-20.51-.39-4.16-2.8.06-.47,2,1.83,2.91-3.56,3.87-3.35,7,2.23-1.4,7.76.52,3,1.66-6.34-1-12.86,2.13-18.86-.56l-.73-1.14c-1.15-8-12.52-4.7-13.31-10.62-5.5.64-.75-4.52-1.52-7.49-1.29-4.38,9-11.95.49-10.85-.29-3.57,4.76-2.32,4.45-5.7l.49-.33c.32,2.54,7.72.38,10.86,3.37-1.81-5,3.83-4.31,7-4.63,4.74-1.21-3.68-7.55,2.83-6.07,1.75,2,1.83,5.54,4.26,6.69,6.81,3.34,12.35-2.75,18.85-3,2.76,2.1,5.86,2.65,3.4-1.58,5.59-3.24-.62-1.45-3.28-4.32,2.27.06,4.51.4,6.77.54-.21-2.42,3.55-6.51-.27-7.16-3.08-.2-.75-4.53-1.43-6.62a6.34,6.34,0,0,0-6.5,4.32l-1.77-1.19c1.92-4.9,9.86-4.9,8.23-11.8-3.27.52-5.91-2.12-7.88-4.38.29-3.23,1.8-6.22,2-9.46-3.44-.57-2.3-5.18-6.52-5.7,2.64,5.62-8.87-.86-2-.58,2-4.9-10,2-6.42-3.67,3.88-.45,14.66-4.85,5.66-5.59,1,6.11-6.94-.53-6.91,4.28l-.72-.33c-2.38-1.78-4.93-7.38.16-5-.87-6.12-7.1-.62-7.32,3,1.46.15,5.4-2,4,.89-2.31,1.53-6.41.4-6.34,4.38-.95-2.79-.34-5-3.66-5.8,8.75-.43-1.16-1.35.25-6.11,9.18,2.34,3.17-2,1.92-4.41,2.61.84,6.63,3.26,7.87-.76-.06-1.51-2.1-1.86-3.1-2.68,0-.48,0-1.43,0-1.91,4,.32,5.33,4.32,3.28-1.78-.12-1.9-.41-4.14,2.16-3.09-1.66-3.89-.17-10.12-6.13-9.23-2.74-7.72.51-3.59,2.24-2.41-1.79-1.85-.29-7-3.85-5.79-.44,1.4-.8,2.83-1.23,4.24L32,257.3c.47-5.67,1.88-11.43-.31-17.15-3.12-3.3-5.45,1.61-8.14-.62-4-2.75-6.8,10.32-2.42,4.41-.81,1.58,1.55,11.28-2.17,6.08,1.61,4.27-.59,8.3-1.16,12.49-2-.55-3.24-.1-3,2.22-.68,1-1.35,2-2.06,3-2.29.7-4.56,1.45-6.87,2.1,2.12-6.4-4-11.84.94-18-4.28.27-5,5.57-6.83,8.65v-7.87c2.1-2.66,3.91-6.15,3.15-9.62-.93-2.57,3.26-.36,1.6-3.45,1.74,1.24,3.62-.08,5.44-.34a27.2,27.2,0,0,1-2.26,5c2.36-.24,4.91-1.54,5.78-3.85,1.24-4,7.93-.3,8.5-4.92C16,235.07,9.89,236.47,3.9,238c2.81-5.42,4.25-11.21,8-16.15a70.13,70.13,0,0,1-1.81-11.93c-4.09-6,4.26-8.8,1.75-15.13-5.1-1-7-6.79-11.83-8.22v-.82c2.13-.68,5.34-1.77,5.84,1.38,1.63,5.93,8.91,4.66,13.24,6.82C24,201.63,27.86,187,33.14,186.08Z"/><path class="cls-1" d="M598.07,183.87l1.93,1.46v11.18c-4-1.6-.87-7.31-1.83-10.7C598.14,185.33,598.1,184.35,598.07,183.87Z"/><path class="cls-1" d="M445,195.88a19.85,19.85,0,0,1,5,3.92C447.18,199.75,441.34,203.52,445,195.88Z"/><path class="cls-1" d="M186.61,201.32l.9-1.66c2.05,2.62,5.1,4.41,7.7,1.39-1.73,3.39-.09,11.55-4.27,11.3-1.25-2.89-2.66-5.7-3.7-8.67Z"/><path class="cls-1" d="M122.3,201.32c1.35.66,1.35,4.69,0,5.36A6.92,6.92,0,0,1,122.3,201.32Z"/><path class="cls-1" d="M598.35,200.81l1.65.44v2.87C598,204.68,597.22,202.13,598.35,200.81Z"/><path class="cls-1" d="M54.33,203.12c2.86-.53.05,2.65-.71,3.52C52.07,206.25,53.06,203.51,54.33,203.12Z"/><path class="cls-1" d="M83.3,204.32c2.8,0,2.78,16.67-5.62,10-3.37-3.21.25-2.14,2.36-.35C84.66,212.38,75.81,205.29,83.3,204.32Z"/><path class="cls-1" d="M45.22,208.27c4.83-1.72,3.81,3.67,1.86,5.72,1.09-2.12-2.1-6.36-1.51-2.62C46.88,215.69,41.44,209.29,45.22,208.27Z"/><path class="cls-1" d="M67.45,213.24c2.57-.93,1.43,3.27-.59,2.89C63.89,216.36,66.54,214.08,67.45,213.24Z"/><path class="cls-1" d="M71.06,213.06c3-1.15,5.72,1.1,2.25,2.95C73.78,212.7,69.71,216.39,71.06,213.06Z"/><path class="cls-1" d="M6.88,221.85l1.18-.52c.07.37.19,1.1.26,1.47l-1.39,1.81C6.91,223.92,6.89,222.54,6.88,221.85Z"/><path class="cls-1" d="M414.21,225.36c5.28.24,1.2,4.66-2.21,3.68C411.69,227.17,412.06,225.51,414.21,225.36Z"/><path class="cls-1" d="M1.16,232c1.53,1.26,1.2,3.42.5,5L1.1,237A13.89,13.89,0,0,1,1.16,232Z"/><path class="cls-1" d="M410.91,237l2.28-.86a15.24,15.24,0,0,1-1.58,4A5,5,0,0,1,410.91,237Z"/><path class="cls-1" d="M598.43,235.73c1.09,2.41,1.07,5.09,1.57,7.7v17.44l-2.89.1c-2-2.26-4.51,2.26-1.25,2,2.63,1.08-2.28.88.35,2.25a5.66,5.66,0,0,0-.4,4.06c-3.46-7.37-2,1.2-.61,4.66,3.13-.32,2.71-6.26,4.8-1.68v39.81c-1.47.87-3.06,4.59,0,3.88v8l-.69.2c-7.36.68-3.34,10.64.69,5.43v70.47a2.08,2.08,0,0,0,0,3.93v6.23l-.75-.21c.51-5.08-.79-4.45-4.39-3.76a24,24,0,0,0-5.05,1.47c-1.46-.3-3.28.5-2.88,2.27l-1.32.76c-2.59-.2-2.76,1.91-2.79,4l-1.28.18c-3.77,1.6-2.58-1.18-3.14-5.08-.13-.43-.41-1.28-.55-1.71a44.81,44.81,0,0,1,6.11.5c-.58-3.62.89-7.8-1.74-10.81,2.22,5.06-4.48,6.22-5.09,10.3-.08.83-.24,2.49-.31,3.32-2,.27-3-1.71-4.35-2.79,1.35-5.78,4.4-11.23,4-17.33,1.37-1.53,3-3.52,5.24-3.31.53,1.57-.41,4.8,2.29,4,4.11-7.7-2.91-3.23-2.26-8-.46,3.18-3.51,3.28-6,3.88-4.12,6.32-13.17,3.36-19.31,7.21.49-5.33-1.47-12.35,3.64-15.94,4.43-2.37,3-8.49,5.79-12.25-5.25,2.49-8.35-.54-5.8-5.79,2,.43,3.83-1.51,2.44-3.31-.11-2.57-.85-3-2.29-.86,1.23-5.07-5.1-3.34-2.36-7.88-2.67-2.78-14.52,1.9-10.89-7a13.12,13.12,0,0,1-12.37,3.53c-6.48-4.59-3.91,3.66-8.43,2.45-2.37.7.09-5.79-2.32-3.15-2.59,3.27-7,1.38-10.51,1.29a13.71,13.71,0,0,1-2.5,8.55c-1.71,1.19-3.56,2.31-4.74,4.09-4.16,3.52.6,4.9,4.13,4.12,1.5,2.19,3.42,5.25,1.89,7.87l-1.31,1.16-.67.17c-3,.83-9.57,1.25-4.95,5-2.79,2-19.43.81-10.87-1.82,4.91-.49,8.86-3.33,13.7-4.35.17-3.06-4.05-1.48-2.4-4.28,1.05-2.68-2.5-4.38-4.37-5.63l-1.18-.57c2-2.05-1.93-2-3.06-1.25l-3.21-.51c2.15-4.36,10.22-3.38,9.25-9.52-5.05-3.83-9.35,2.25-14.74,1.24-.92,4.91-12.84,8.27-4.86,12a2.85,2.85,0,0,0-2.45,2.74A53.33,53.33,0,0,0,475.2,362c5.63-3.16-2.94-7.12-6.8-6.7-3.52-6.27-17.2,3.32-19.56-5.28-1.64,0-1.62,2.35-2.06,3.53-3,1.19-6.83,1.15-7.75-2.65-5.38.73-3.63-5.39-3.21-9.1-1.08,1.12-2.07,2.33-3,3.54,0-1.43.2-2.86.32-4.29-1-6.78,4.71,2.59,6.6-2.35,1-3.28-6.77-6.93-3.45-9.54,4.32.28,8.66.48,13,.39-.87-3.9-8.12-1.07-6.58-4.95.19-5.59,1.62,1.7,4.09-.48-.65-1.22-1.35-2.42-1.94-3.68l.68-.58a2.58,2.58,0,0,0,3.1,2.21c2,1.59,3.86,3.55,6.46,4.07-1.38-2.53-4.19-5.26-7-5.67l-2.18-1.27-1.08-1.33c-1.17-2.62-5.78-.07-1.62.54-.94.49-1.86,1-2.78,1.53-3.31.33,2.71,2.69,1.75,5.07-1,.77-2,2.26-3.33,1.12a58.62,58.62,0,0,0-6.9-1.85c-1.29-.42-2.57-.84-3.85-1.23-.74-3.41-1.09-1.28-1.39,1.06a17.9,17.9,0,0,1-2.75-2.89c2.81-1.37,2.78-5.34,5-7.53a30.93,30.93,0,0,0-4.09,2.48l-1-1.66c5-6.22-.95-12.65-1.37-19.6,1-1.56,3.81-4.26.36-4.71,1.87-.24,6.45-4.1,4.54-.14-1.54,6.19,3.34-4,5.77-6.13l1.95.72c-2.33,2.48.67,4.86,2,1.3-.42,4.32,6.72-2.31,1.22-1,2.75-3.44-6.43-4.27-5.16-1-4.58.73,1.65-4.09-.06-6-2.79-1.25,2.1-5.47,3.06-3.36.29,5.24,7.61,1.62,10.93,1.15-.81-3.78-8,2.53-6.5-1.31,3.71-6.72-7.87-1.48-10.25-4.62,1.52,4-2.92,1.73-.66-1,2.4.23,2.51-3.83,6.27-2.52,1.05.59,2.09,1.19,3.2,1.69l1,.17a9.4,9.4,0,0,0,5.25-1.15l1.9,1c-6.22,4.33.28,1.35,3.77,3.78,2.37-2.74,2.15-.32,2,2.2,3.79-4.62,1.34,1.78,4.47,3.74-4.69,3,7.11.27,1.84-1-4.44-.71.64-6.7-2.84-7.64-4.22.58-4.07-3-8.44-3l-2.71.15-.43-.72a3.41,3.41,0,0,0,2.86-2.73c2.42,1.05,6.83,5.73,9.11,1.12,2.16-4.95,1.21,3,4.78,3.7-6.5,4,4.51,1.08,6.6-1.13,6.21-1.38.18,5.2-2.27,6.67.49,6.94,8.66-.48,9.75,5.78,3.39.77,1.39-4.86,2.23-6.93-1.86-.05-7.8,3.62-5,0,1.49-1.86-1.46-5.72,1.84-5.75,6-1-2-12-1.86-4.49-1.07-.85-4.48-3.55-3.31-.44,1.71,6-7.68-1-5.8,4.7-1.88-3.94-6.19-5.48-9-8.6-1.79,2.34-4.05-.62-5.9-1.37.22,1.39.52,2.78.76,4.17-3.7,0-3.38-5.95-7.33-5.29.76,3-2,4.6-3.88,6.3,1.12-2.9-1.32-3.9-3.53-4.93,3.69.51,14.7-7.95,4.28-4.92-4.62,1.3-.83-3.09.87-4.42-3.37.8-5.62.83-2.08-1.92,10.22-.3,20.31,2.22,30.53,1.15,9.25-.69,17.44,5,26.42,5.71,1.71,6.09,9.27,7.19,14.22,4.25,5.53-3.33,14.1-4.91,16.69,2.7,1.51-1.32,5.52-14.57,8.69-7.35,2,2.07-.35-3.45,3.15-1.58.8,6.42-6.39,7.64-4.5,14,2.81-3.26,9.92-1.45,6.37-7.21,3.59-3.09,4.23-12.24,10.41-10.08,6.31-2.16,10.23,4.43,15.16,7,4.73-2.74,10.3-4.6,15.85-4,2.12.06,4.81.51,5.7-2C591.42,244.56,599.07,243.17,598.43,235.73Z"/><path class="cls-1" d="M419,238.26a55.69,55.69,0,0,0,6.19-.16,4.92,4.92,0,0,1-6.12,1.88C419,239.55,419,238.69,419,238.26Z"/><path class="cls-1" d="M424.78,243.68c.94-3.35,2-5.77,5.37-2.89l.7.3c1.09,1,2.16,2,3.22,3,1.09,2.12.23,3.36-2,3.71-1.46.09-2.92.2-4.38.31,2.87-2.25-1.09-2.87-1.73-.3l-2.84.29L421.9,245c-.36-1.72-2.3-.45-3.07.2-1.52-.44-4.22.7-4.92-1,5,2.64,4.48-1.07,5-3.37C420.88,241.79,422.8,242.79,424.78,243.68Z"/><path class="cls-1" d="M432.42,239.17c1.5-1.12,4.47.72,3.3,2.55C434.3,242.42,432.71,240.24,432.42,239.17Z"/><path class="cls-1" d="M178.77,245.89c-2.86,2.91-3.23-2.83.25-1.47C179,244.79,178.83,245.52,178.77,245.89Z"/><path class="cls-1" d="M181.76,247.13c.36-3.75,2.42-.25,1.21,1.62l-.66.12C182.17,248.44,181.9,247.57,181.76,247.13Z"/><path class="cls-1" d="M30.23,247.2c2.76,1.67-.87,7.49-.5,1.58C29.86,248.38,30.11,247.59,30.23,247.2Z"/><path class="cls-1" d="M423.09,248.1l2.84-.29.67.42c.85,3.36,4.46.73,6.42-.06,3.19,2.27,1.78,4.35-1.76,3.23-1.37-.12-2.74-.18-4.11-.17-.94-1.27-3.35-3.21-3.47-.32l-.82-.25C422.92,250,423,248.74,423.09,248.1Z"/><path class="cls-1" d="M174.21,256.11c-.58-1.68,1.21-2.74,2.66-2.68C179,255.2,175.85,256.62,174.21,256.11Z"/><path class="cls-1" d="M425.22,253.77l1.37.14c.29,1.34,2.11,4.06-.39,4.19-.46-1.19-.87-2.39-1.23-3.61Z"/><path class="cls-1" d="M184.31,255.33c1.49,1.16.92,4.53.38,6.34C183.19,260.51,183.77,257.13,184.31,255.33Z"/><path class="cls-1" d="M417.47,257l1.52-.93c0,1.72,0,5.18,0,6.91l-1-.06C417.88,261,417.65,259,417.47,257Z"/><path class="cls-1" d="M30.92,263.5c-2-1.13-5.15-6.79-1.23-6.31C31.47,259.28,33.79,261.05,30.92,263.5Z"/><path class="cls-1" d="M174.27,257c.26.52.77,1.56,1,2.08C173.86,264.32,172.11,259.82,174.27,257Z"/><path class="cls-1" d="M21.11,260.21c-3.77-1.21,2.25-4,.78-.35Z"/><path class="cls-1" d="M432.89,260.68c.75-1.57,2.13-4.31,2.12-.8-.74,2.74,4.32,1.48,2.14,4-1.26-.71-2.19.53-3.37.29,0-.44-.12-1.34-.15-1.79C433.44,262,433.08,261.1,432.89,260.68Z"/><path class="cls-1" d="M442.21,259.16c2.82-1.27,1.57,2.32,1.75,3.91C441.18,263.36,440.65,261,442.21,259.16Z"/><path class="cls-1" d="M426.9,260.13l1.28.83a20.51,20.51,0,0,1-1.71,3.07l-.6-.19A5.38,5.38,0,0,1,426.9,260.13Z"/><path class="cls-1" d="M600,267.49c-3.29-.51-2.15-4.61,0-5.87Z"/><path class="cls-1" d="M28.2,263.06c2.22,1.07-3.24,5-2.27,7.92-1.28,3.07-1.13-2.58-.81-3.79C26.1,265.77,27.14,264.4,28.2,263.06Z"/><path class="cls-1" d="M418,263l1,.06c0,1.75,0,5.26.05,7l-1.29.87C417.85,268.24,417.94,265.6,418,263Z"/><path class="cls-1" d="M439.45,263c3-.4,1,3.58.63,5.18l-1-.17C439.17,266.29,439.27,264.62,439.45,263Z"/><path class="cls-1" d="M177.89,267.5c-3.65,1.4-1.79-4.54,1-2A3,3,0,0,0,177.89,267.5Z"/><path class="cls-1" d="M405,265.87c2.46,1.51,0,6.61.86,9.2h-.78C405,272,404.91,268.89,405,265.87Z"/><path class="cls-1" d="M4.33,267a2.35,2.35,0,0,1-.93,4.18C3.05,269.74,4,268.35,4.33,267Z"/><path class="cls-1" d="M27.06,270.05c2.21,2.78,3.08,10.33-3.24,9.85C25.73,276.87,28.4,274.36,27.06,270.05Z"/><path class="cls-1" d="M168.62,270.08c-.87,4-7.54-1-1.42-.29Z"/><path class="cls-1" d="M419.92,272.59c2.32-1.75,4.9.12,6.25,2.13-1.27.46-2.5,1-3.79,1.36-.12-.48-.37-1.44-.5-1.92Z"/><path class="cls-1" d="M176.17,273.12c3.28-1.7,4,2.71,1.27,3.75C176.62,275.47,174,274.61,176.17,273.12Z"/><path class="cls-1" d="M405.1,275.06h.78c0,1.73,0,5.2-.06,6.94h-.62C405.17,280.27,405.12,276.8,405.1,275.06Z"/><path class="cls-1" d="M423,281.36c-3.9-3.55,1.37-4.15,4.11-5.49A28.2,28.2,0,0,1,423,281.36Z"/><path class="cls-1" d="M155.85,281c-.59-2.94,2.07-3.32,4.27-3.86L162,277A36.09,36.09,0,0,1,155.85,281Z"/><path class="cls-1" d="M125.08,287c6.18-.86,6.85-6.25,12.85-6,1.15,3-3,.3-3.71,3.23-3.86,3.06,5.15,1,4.48,3.61-2.79,2.7-5.62,6.27-8.55,3,3,3.77-6.52,2.55-1.08.32-4.78.19-2.35-2,1-1.33,5.3,1.73,5.28-2.35,0-.57-3.68-.49-7.38-1-11.07-1.31C121,286.5,122.69,284.22,125.08,287Z"/><path class="cls-1" d="M425.35,281.13c3-.3-.83,3-.72,4.49C423.09,285,423.72,281.7,425.35,281.13Z"/><path class="cls-1" d="M159.5,284.05c2.54-.34,1.49,3.5,1.18,5l-.41-.25C160,287.22,159.14,285.61,159.5,284.05Z"/><path class="cls-1" d="M102.22,292.15c3.23-1.07,5.27,1,.89,1.07.76,3.11,9.3-2.21,10.77,1.66-1.51.74-7.14,1.12-3,2.51.18,4.88-4.38.22-3.18-2.48-9.88-6.05-1.6,3.12-4.6,2.08C100.59,296.81,100.2,293.21,102.22,292.15Z"/><path class="cls-1" d="M436.4,293.19c1.46-1.09,4.29.58,3.42,2.4A4.12,4.12,0,0,1,436.4,293.19Z"/><path class="cls-1" d="M42,297.61l2-1.76.72.33.63.7c-1.53,2-3.88,4-2.46,6.79-2.91-1.45-3.08.9-3.13,3.36-4,.15-2.68-4.64-2-7.19l.82.4C39.9,303.77,41.45,299.09,42,297.61Z"/><path class="cls-1" d="M98.16,301.16c-4-4,3.56-3.6,3.84.06A5.3,5.3,0,0,0,98.16,301.16Z"/><path class="cls-1" d="M93.05,304.87c-4.42-.49.19-6,3-4.89.48,2.23-2,2.7-3.15,4.09,2.12.29,3.7-1.09,5.28-2.25a8.09,8.09,0,0,0,3.79.06c7.3.12-10.26,3.4,4,2.24C104.18,307,96.49,302.92,93.05,304.87Z"/><path class="cls-1" d="M6.33,304.13l.94.24c-.3,3.27-.27,6.5-.37,9.79C4.45,312.19,7.08,306.87,6.33,304.13Z"/><path class="cls-1" d="M52.93,305c1.86,1.47,5.16,2.19,5.21,5C56,308.21,51.83,309,52.93,305Z"/><path class="cls-1" d="M89.06,306.86c2,.91,2.18,3.34,2.83,5.18C88.18,313.25,89.59,309.06,89.06,306.86Z"/><path class="cls-1" d="M110.13,312.88c4-1,3,7.45-.12,7.46.51,2.74,4.23-.64,2.91,2.65-4.06,1.57-9-7.78-3.15-7.46C112.06,316.44,110.27,314,110.13,312.88Z"/><path class="cls-1" d="M186.72,317.17c-.59-4.6,2.81-5.67,1.59,1.57Z"/><path class="cls-1" d="M184.18,313.68a31.64,31.64,0,0,1,1.88,7.55c-1-.16-6,0-3-1.1C186.51,319.82,182.14,315.75,184.18,313.68Z"/><path class="cls-1" d="M31.28,316.31c1.39.28,1.39,4.1,0,4.38A4.77,4.77,0,0,1,31.28,316.31Z"/><path class="cls-1" d="M37.42,319.34c4.87-2.47,1.11,7.45-2.41,5.68C34.42,322.66,35.57,320.69,37.42,319.34Z"/><path class="cls-1" d="M509.26,322.91c-2.65.12-3.14-3.74-.1-2.41A2.86,2.86,0,0,1,509.26,322.91Z"/><path class="cls-1" d="M186.76,326.24a1.84,1.84,0,0,1-1.09-3.3C188,322.78,188.54,324.76,186.76,326.24Z"/><path class="cls-1" d="M529.79,323.25c-.71,3.18-7.66,1.27-2.55-.43Z"/><path class="cls-1" d="M430.88,327.57c1.28-1.56,3.46-1.26,5.25-1.47C435,329.25,433.32,330.65,430.88,327.57Z"/><path class="cls-1" d="M45.51,331.13c-.71-1.8,1.21-5.75,2-2A3,3,0,0,1,45.51,331.13Z"/><path class="cls-1" d="M55.94,338.15c-4.64-.88-7.83-6.33-4.46-10.2-.08,3.43,3.73,3.06,4,6.1,1.36-2,3-6.25,2.5-1.33C57.35,334.54,56.66,336.36,55.94,338.15Z"/><path class="cls-1" d="M184.33,329c1.38.6,2.72,2.51,4.18,1,.18.45.56,1.35.74,1.79a70.67,70.67,0,0,1-8.7,4.65c-3.35-1.89-2.22-2.93,1.37-2.46C176.79,329.36,185.15,334.21,184.33,329Z"/><path class="cls-1" d="M427.62,332.76l1.46-.56c-.76,2.37,1.79.9,3.05,1C432.23,337,426.55,336.94,427.62,332.76Z"/><path class="cls-1" d="M169.4,333.34c2.26,1.68-3.8,2.92-4.06,1C166.58,333.65,168.07,333.77,169.4,333.34Z"/><path class="cls-1" d="M183.57,338.74c.88-2.68,2.5-4.41,5.52-3.54,0,1.81,2.35,1.3,3.23,2.47,2.46,1.29-.3,5.38,3.51,4.44,1.73,4.77-.29,9.75,0,14.64-1.32,1.78-2.18,4.12-4.34,5.06-2.78-2.61-2.71-7.56-6.52-8.89-4.89,1.16-1,11.89-7,9.44a5.15,5.15,0,0,0,1.93-2.31l.22-.59c5.46-6.29-10.9-2.1-4.09-.24l0,.61-.83,1-2-.66c-.11-1.41-.23-2.81-.34-4.21,2.15-.55,5.72.92,2.91-2.23,1.12-1.34,4.73-.68,2.51-2.87-2.8-3.22,2.1-.78,3.87-.68-4.38-2.23,1.76-3.49,4-3.35.44,1.92-5.3,1.1-1.85,2.15,2.1,1.33,3.5.62,3.69-1.85-2-2.3-5.38-.34-8.08-.42.86-3.34,5.88-2,8.87-2.47,0,2.36,1.07,3.06,3,1.71-.9-1.51-1.63-3,.25-4.15-3.72-.23-11.74,5.17-10.29-1.53C175.39,340,179.92,337.83,183.57,338.74Z"/><path class="cls-1" d="M172.33,336.36c7.85-1.12-1.3,2.13-4.46,2.48C167.56,336.28,170.73,337.05,172.33,336.36Z"/><path class="cls-1" d="M48.63,342c1.44-1.3,1.83-6.28,4.22-3.9,4.55,1.89-2,2.18-3.1,4.62Z"/><path class="cls-1" d="M159.34,337.27c1.25-.79,5-1,4.55,1.23C162.55,338.48,159.94,338.52,159.34,337.27Z"/><path class="cls-1" d="M160.25,339.2a22,22,0,0,1,4.84,1c-2.19,2.06-5.32,2.46-8.19,2.68A21.52,21.52,0,0,1,160.25,339.2Z"/><path class="cls-1" d="M170.21,339.08c4.48-1.66,5,7.15.84,7.05,1.12-1.48,2.81-6.41-.43-5.54C168.31,341.56,169.12,340.33,170.21,339.08Z"/><path class="cls-1" d="M135.21,342.14c3.13-1.34,7.24-3.31,10.19-.6,2.94.09,7.85,3-1.37,1.58-.86,3.8,4,.49,6.05.79-.39,3-6.69.61-5.56,3.48.39,4.92,8.86,1.66,9.59,6.38-3.82,1.46-9.88-5.81-8.76.13,1.06.52,4-.8,3.62,1.06q-8.13-.94-3.22,1.3l.3.66c-2-.27-1.91.78-1.24,2.21-3.55.49-9-4.13-2.66-2.13-1.82-3.9-6.06-2.24-9.28-1.94,1.87-1.77,7.8-5.46-1.74-3.19,2.22,4.47-2.81,0-4.25-.93,2.9,1.66,10.63-2.89,11.42,2C145.23,349.28,138.35,346.25,135.21,342.14Z"/><path class="cls-1" d="M155,345c3.12,1.14,10.56-2.11,12,1C163.89,344.83,156.46,348.1,155,345Z"/><path class="cls-1" d="M135.4,347.22c1.34-.68,6.29,2.93,2.79,2.85C136.93,349.84,135.12,348.65,135.4,347.22Z"/><path class="cls-1" d="M17.26,350.21a11.69,11.69,0,0,0,6.61-2.3c.16,4-3.13,5.69-6.3,3l-.86-.37Z"/><path class="cls-1" d="M151.08,348.07c.64,2.09,7.78-2.09,7.92.83C158.13,345.62,149.54,352.61,151.08,348.07Z"/><path class="cls-1" d="M171,352c-2.79-7,5-3.09,1.86,1.78l-.83,2.31c-1.8,1-7.85-1.12-3.05-1.1,4.94-.35-1.91-3.12-3-4.88.18,3.88-.59,6.16-4.33,3.33-11.83-.69,1.63-2.47,3.38-1.56,1-3.26-4-.65-4-2.93C165.76,348.08,167.89,349.46,171,352Z"/><path class="cls-1" d="M43.77,350.84c.6-2.06,2.82-1.83,2.72.44A2.64,2.64,0,0,1,43.77,350.84Z"/><path class="cls-1" d="M547.28,350.9c3.6.07,10-3,8.83,2.79-1.63,1.86-3.27,3.72-5.06,5.43-2.24,2.37-4.19,5-6.78,7-2.61,1-5.86,3-6.15-1.27a34.4,34.4,0,0,1,.78-3.79c1.51-.3,3.4.25,4.65-.87.41-3.42-1.07-7.08,2.71-9.21Z"/><path class="cls-1" d="M145.75,356.26c3.18-.23,8.25-1.81,10.33.77-3.36-.09-6.69.16-10-.11Z"/><path class="cls-1" d="M128.09,356.87l1.65.26c.8,1.83.34,3.86.12,5.77A19.69,19.69,0,0,1,128.09,356.87Z"/><path class="cls-1" d="M484.2,362.84c1.31-1.41,3.25-8.45,3.66-4.14-.68,2.26,0,5.45-2.45,6.63C485.11,364.71,484.51,363.46,484.2,362.84Z"/><path class="cls-1" d="M488.64,358.68c.24-2.86,2.56-.2,3.93.3C491.14,360.84,486.83,362.58,488.64,358.68Z"/><path class="cls-1" d="M145.84,358c4.94-.6,9.75,2.66,14.57.45,3-1.35.23,1.33-.48,2.45l-.64,0a20,20,0,0,0-4.14.52,2.33,2.33,0,0,0-3.43-.26l-1.47-.33C148.79,359.82,147.29,358.93,145.84,358Z"/><path class="cls-1" d="M134.08,359.09c2,.28,6.41-1.51,6.06,1.73C138.22,358.63,133,362.5,134.08,359.09Z"/><path class="cls-1" d="M163.07,359c3.4-.18,6.64,1.45,10,1.17-.26,10.11.29,4.47-2.85,1.3C168.51,357.92,162.23,363.14,163.07,359Z"/><path class="cls-1" d="M134.47,363.22c4.21-1.05,8.19-3.61,12.68-2.71-5.47,3.44,1,7.67,4.9,7.91-2,1.76-6-2-6.43,1.53l-.65-.48C141.62,366.59,139.58,362.35,134.47,363.22Z"/><path class="cls-1" d="M167.07,365.09l1.62-1.29c.54,1.47,1.12,2.94,1.68,4.41l-.68,1.88C168.43,368.63,167.11,367.13,167.07,365.09Z"/><path class="cls-1" d="M171,368.17l1.76-.16a4.27,4.27,0,0,1-.45,4l-.75,0A6.37,6.37,0,0,1,171,368.17Z"/><path class="cls-1" d="M531.5,374.13a14.64,14.64,0,0,1,4.32-3.16c-1,4.09,1.57,5.91,3.88,8.34-.23.48-.71,1.45-1,1.93-2.3-1.7-4.34-3.74-6.88-5.1C531.77,375.63,531.59,374.63,531.5,374.13Z"/><path class="cls-1" d="M152,374.29c-1.73-1.24-.66-2.67,1.1-1.67l.71.64-.12.63-.83.44Z"/><path class="cls-1" d="M477.65,374.9c4.78,2.66,9.66-4.3,14.69-.19-3,1.11-7.7.17-8.65,3.93,1.39-.21,3.35-.86,2.14,1.28-4.65-.58-9.34-.87-13.94.15-2.41-3.4,2.17-4.92,4.89-5.49Z"/><path class="cls-1" d="M543.69,375c2.12-.77,4.47-2.4,6.14,0-.49,3.45-2.87,7.66.84,10.2-.15-1.66-.21-3.34,1.36-4.35l1.75.19c-1.17,1.8.22,2.08,1.87,2.2-2.32,3.68,1.14,10.13-2.28,12,1.55-4.32-5.24-.53-7.3-1.21-.3-2.12,1.08-9-.91-5.81l-.78.07c-1.84-1.19-3.84-2.53-2.53-4.9.8-1.59,1.4-3.45,0-4.93A6.58,6.58,0,0,1,543.69,375Z"/><path class="cls-1" d="M168.92,382.17c.35-4.58,4-1.7.9.73l-.62-.1Z"/><path class="cls-1" d="M452,381.14c.24-.48.7-1.46.93-1.94l2.13.83A3.66,3.66,0,0,1,452,381.14Z"/><path class="cls-1" d="M186.42,383.9c-2.49,2.58-2.64-5.32-.21-3.22C186.26,381.48,186.36,383.1,186.42,383.9Z"/><path class="cls-1" d="M455.8,380.09l1.85-.13c1.8,0,3.61.07,5.42.09l-.32,1.51a7.88,7.88,0,0,0-.05,3.71c-2.81,0-2.74-3.74-5.66-3.57Z"/><path class="cls-1" d="M466.87,380.22l1.82.48c3.33,1.32,2.17,2.9,2.18,5.25.82,2.4,3.47,3.47,5.48,4.75l.51.27c.72.67,1.43,1.35,2.14,2-2.47-1.09-4.65-1.29-4.35,2.15-1-1.94-.78-4.46-2.23-6.07-1.8,4.24-2.25-6-7.21-3.3.29-1.24.55-2.47.81-3.7Z"/><path class="cls-1" d="M0,382c2.85,1.34,1.8,5,0,7.17Z"/><path class="cls-1" d="M0,392.17l.87-.05a24.49,24.49,0,0,1,.05,6.68L0,398.75Z"/><path class="cls-1" d="M195.4,395q2.59,6.18-.57,4.24A5.44,5.44,0,0,1,195.4,395Z"/><path class="cls-1" d="M170,397c3.15.37-.18,20.06-.08,6Z"/><path class="cls-1" d="M474.28,400.31c1.39.28,1.39,4.09,0,4.38A4.71,4.71,0,0,1,474.28,400.31Z"/><path class="cls-1" d="M564.89,409.11c-1.39-5,2.79-7.85,7.3-7.92-2.49,2.61-2.51,12.81-5.94,8.08l-1.41,1.64C564.85,410.46,564.88,409.56,564.89,409.11Z"/><path class="cls-1" d="M586.83,411.88c2.33-2.13,4.8.38,7,1.39,1,.73,2.17.25,3.26.13l1.34-.19,1.61-.27v16.18c-1-1.86-3.19-1.74-5-2.07,2.42-9.89-11-3.91-9-12.83C586.21,413.64,586.63,412.47,586.83,411.88Z"/><path class="cls-1" d="M544,430.06a30.5,30.5,0,0,1,5.35,2.07c-.91,1.13-2.26,2.22-1.52,3.82-4.45,4.46,1.52,2.25,4.32.76,3.16-1.17,6.54-4.09,9.88-1.71l0,.92-1,1.72c-1.4,2.22-2.76,4.48-4.31,6.6l-2.56-.31a33.17,33.17,0,0,0-4.58-1c-2.52-.74-6.76.26-6.28-3.31.47-4.48-3.95.17-6.38-1.44-1-1.62-.81-3.39,1-4.28C539.54,432.45,542.91,432.84,544,430.06Z"/><path class="cls-1" d="M570.24,441.58c-3.53-8.89,2.58-3.47,2.72-.66-.19.37-.58,1.12-.78,1.49Z"/><path class="cls-1" d="M3.31,455.89c3.78-.62,1.37,4.62,1.63,7C1.57,463.75,3.92,458.27,3.31,455.89Z"/><path class="cls-1" d="M592.08,461c-.16-2.42,3-4,3.87-1.2Z"/><path class="cls-1" d="M570.25,461.38c.87-4,5-.91.61.19Z"/><path class="cls-1" d="M576.75,460.12l1.2-1.38c1.4.28,3,.21,4.25,1-1.16,1.12-2.32,2.25-3.51,3.34C576.79,463.33,577.05,461.38,576.75,460.12Z"/><path class="cls-1" d="M586.19,473.05a33.29,33.29,0,0,1,2.77-2.67l.67.16c2.65,1.62,3.72,4.43.38,5.9.8-4.35-3-3.24-1.84.61l-1.37.81,0-.69a8.25,8.25,0,0,0-1-3.35Z"/><path class="cls-1" d="M433.31,474.82c-1.71,5.95-1.85-6.47.09-.81Z"/><path class="cls-1" d="M523.76,475c.47-2,2.89-2.27,4.31-3.39C527.42,474.2,526.84,477.16,523.76,475Z"/><path class="cls-1" d="M595.87,475.9q1-1.08,2-2.19c.44,1.42.87,2.84,1.29,4.28l-.75-.32c-1.59-1.21-2.89.94-2.58,2.39C594.27,479,595.2,477.21,595.87,475.9Z"/><path class="cls-1" d="M418.39,480.2c-.7-3.06,2.88-3.87,1.5-.33Z"/><path class="cls-1" d="M598.42,477.67l.75.32.83,1.44V495c-4.7-.16-2.48,5.24,0,.57v11.64l-.9-.53c1.26-4.73-3.72-3.36-.77.18a2.17,2.17,0,0,0,1.67,3.18v4.33c-4.5,1.87-.41,7.76-4.76,9.7-4.28-3.94,1.28,4.86-3,4.38-3.27,0,1.23,2,2.16,2.87-.94,3,2.2,5.29-.14,8,2.09-.57,3.29-2,2.34-4.13L598,534c-1,4.67-.71,9.37,2,13.43v.79c-1.2.64-3.15.91-3,2.68-.65.66-1.11,1.79-2.23,1.43a25.3,25.3,0,0,0,0-11.61c-2.5,2.34.24,7.83-4,8.16-1.48,1.3-1.52,3.65-2.23,5.43l-1.77-.42c-.38-2.76,2.89-5.62.14-8-2.08,1-4,2.25-6,3.3-1-.67-2-1.39-2.92-2.08,2.23-2.57,2.67-6,2.26-9.39,1.6,1.16-.15,5.05,3,3.57-2.13,1.92-3.68,6.68.71,5.21-4.88-10.2,6.54.85,2.18-4.6-3.51-1.24,1.15-9.8-3.88-6.81-3,2.54-1.22-3.15-2.1-4.82l.5-.25c.25,2.48,2.23.43,3.53,0l.9-.08c-1.11,5.35,2.92,4.21,2.69-.32,2.63-1.61,6-7.58,3.54-9l-.09-.43c2.74-3.74-2.19-6.41-.27-1.08-3-4.9-5.84-5.42-6,1.93-3.72-3.77-1.88,1.56-5.92,1a13.4,13.4,0,0,1,5.53-6.83c-.67-3.17,4.39-11.47-1.67-10.46l1-.91c3.43-4.43,5.36,1.27,2.52,4,2.18,2.73,6.21,3.44,7.39,7.28-1.24-3.74,1.41-11,1.5-3,4.66-5.25-2.19-12-5.55-16.36.06-.45.17-1.37.23-1.82.16-1.4-.5-2.19-2-2.39-.11-1.56-.19-3.13-.22-4.68l.16-.81c3.55.58,2.95,4.87,6,6.16,4.3-.73,2.93-7.67,3.08-11.19A20.44,20.44,0,0,0,598.42,477.67Z"/><path class="cls-1" d="M593.38,479.48c1-1.47.21,2.57,1.68,2.51,3.58,3.29-5.74,2.48-5.22-.77C591.64,482.31,592.61,481.05,593.38,479.48Z"/><path class="cls-1" d="M533,496.13c-.76-1.17-1.42-3.73.9-3.21A3.26,3.26,0,0,1,533,496.13Z"/><path class="cls-1" d="M587,497l2,.11C590,499.79,585.78,499.56,587,497Z"/><path class="cls-1" d="M408.66,499.7l1.35-2a3.38,3.38,0,0,1,1.1,3.35Z"/><path class="cls-1" d="M578.11,503.14c2.4-.1,5.82-6.13,5.45-1.24-2-1.25-1.91,1.67-1.42,2.86C584.7,512,578.75,507.52,578.11,503.14Z"/><path class="cls-1" d="M212.35,505.08a6.54,6.54,0,0,1,.37-2.41l.82.32.56,1c-.12.49-.35,1.47-.47,2Z"/><path class="cls-1" d="M571,511.85l3.41-.16c.33,1.18,1.35,6.3-.28,3.18-1.47-4.76-3.58,1.37-4,3.48C570.34,516.73,570.8,513.48,571,511.85Z"/><path class="cls-1" d="M574.5,524.22c-.15-2.15-.37-5,1.55-6.4-.16,2.35-.43,4.7-.79,7Z"/><path class="cls-1" d="M588.55,523.09c-3-1.52-1.12-6.05.55-1.69C589,521.82,588.69,522.66,588.55,523.09Z"/><path class="cls-1" d="M332.23,520.4c1.71.32,2.79,4.41,1.13,5.23C332.78,524,331.46,522.15,332.23,520.4Z"/><path class="cls-1" d="M203.47,524.79l1.67-2,1,1.2-1.31,1.52Z"/><path class="cls-1" d="M579.1,522.85c2.71-.1,3.46,3.08,4,5.17C580.41,527.57,579.54,525.27,579.1,522.85Z"/><path class="cls-1" d="M305.61,533.92c-.76-2.9-2.86-7.09.47-8.89-.09.66-.28,2-.38,2.61-.93,1.66.93,2.81,1.55,4.19C307.19,534.18,307.08,538,305.61,533.92Z"/><path class="cls-1" d="M575.55,525.88c.43.62.87,1.24,1.33,1.86l1.56,2.24c-1.67,2.62-3.13,1.7-4-.87C574.69,528.3,575.26,526.68,575.55,525.88Z"/><path class="cls-1" d="M308.29,526.94c2.26-.33,3,1,2.92,3.14l-1,.83c-2,.11-2.46-1.38-2.48-3.14Z"/><path class="cls-1" d="M596.55,535.19c-.66-2.42-.13-5,.33-7.34h.74c-.28,2.21-1,5.15,2.38,4.18v.6L598,534Z"/><path class="cls-1" d="M202.19,531.05l1.36,2.25c-.52.91-1.1,1.8-1.72,2.67l-.67-.09A24,24,0,0,1,202.19,531.05Z"/><path class="cls-1" d="M571.94,538c3.75.19,3.12,3.51,2.82,6.31A65.94,65.94,0,0,1,571.94,538Z"/><path class="cls-1" d="M18.33,540.34c.91-1.11.43,5.74-2,4.1C14,550,13.9,537.23,16,542.15,16.44,544.07,17.46,540.66,18.33,540.34Z"/><path class="cls-1" d="M25.25,543c-.12-1.66,1-3.26,2.81-2.91a5.78,5.78,0,0,1-2.13,3.15Z"/><path class="cls-1" d="M0,544c2.32-.83,6-1.17,7.23,1.43-4.05-.23-2.59,5.24-7.23,5.66Z"/><path class="cls-1" d="M592.13,553.13c-3.06-2.77,1.15-4.47,1.92-.76Z"/><path class="cls-1" d="M0,554.13c3.43-2.58,8-3.93,9,1.63a8.58,8.58,0,0,0-1.56,4.35c-2.12-1.18-3.87-4.61-6.57-3.54l-.82.24Z"/><path class="cls-1" d="M557.91,562.1,561,562c-.31,1.13-.59,2.27-.88,3.42C557.41,566.73,558,563.93,557.91,562.1Z"/><path class="cls-1" d="M561.91,562a27.77,27.77,0,0,1,3.36.58c-.1,1.47-.18,3-.22,4.45.5,4.76-1.82,4.35-1.14-.21-.11-1.16.6-5.77-.72-2.68C561.71,567.92,562,564,561.91,562Z"/><path class="cls-1" d="M585.75,563.1c1.42-.25,2.84-.55,4.28-.75.14,2,.27,4.15,2.87,3.92-3.2.65-2.93,5.62-.26,1.92,1.92,2-.25,4.32-.47,6.57,3.59,3.71-4,6.38-6.06,8.55-.1.46-.28,1.37-.37,1.83-6.74,3.15-.75-3.77.59-6.76l1.75-1.47c2.18,4.86,4-3,0-3.08,0-.59.08-1.78.1-2.37,2.32-.89.58-3.68.73-5.48C587.1,570,586.28,565.08,585.75,563.1Z"/><path class="cls-1" d="M0,564.22c1.74-.42,3.46-.89,5.19-1.33a44.79,44.79,0,0,1,5.67.3c-6.55,10.34-.1,22.39-3.12,33.52-4.05,6.5-3.76,16.87,3.43,21-1.32.07-3.14-1-3.92.54-3.16,10.54,1.9,21.82-2.83,32,.41,4.13-4.49,10.12-.35,13.4-2.88,0-3.24,13.7.46,9.23,3.38,5.69-4.66,8.58-2.11,13.32L0,684.57Z"/><path class="cls-1" d="M568.5,562.78c1.06,0,2.13,0,3.2,0-.61,1.12-1.25,2.23-1.87,3.36-2.18,5.18-.65-.83-4.14.38C566.93,565.45,569.05,564.83,568.5,562.78Z"/><path class="cls-1" d="M581.9,566.85c-2.26-.88-.45-3.89,1.37-4.13l.64.43.11.74A3,3,0,0,0,581.9,566.85Z"/><path class="cls-1" d="M40.76,564.46l7.17-.62c-2.06,3,.68,3.65,3.34,4a33.67,33.67,0,0,0-2.35-4c4.19.21,5.39,4.31,7,7.25,1.06,1,2.17,1.89,3.22,2.9-2.78-1.22-5.64-2.26-7.19,1.15-6.07-2.45.47,5.63,3.59,1.78,4.29,3.11-4.29,4.15-6.59,1.47-4.19,5.48-7.45-5.69-2.34-5,1.49.8,6.35-.85,3.14-2.07-3,.5-12.14,1.06-8.9-3.45,3.15-3.07,1.35,4.66,4,.8C46.34,565.18,41.76,566.76,40.76,564.46Z"/><path class="cls-1" d="M57.73,570.91c-.5-6.06,10.52-8.2,8.16-.57A60.27,60.27,0,0,0,57.73,570.91Z"/><path class="cls-1" d="M35.51,567.13c2-.8,2.51,3.44.71,3.65C34.77,570.16,35.31,568.28,35.51,567.13Z"/><path class="cls-1" d="M553.3,567.32c1.35.66,1.35,4.69,0,5.36A6.92,6.92,0,0,1,553.3,567.32Z"/><path class="cls-1" d="M581.19,571.94A1.88,1.88,0,0,1,580,575.4C578.08,574.27,579.7,572.42,581.19,571.94Z"/><path class="cls-1" d="M597.28,573c4-2.6,1.33,9.52,1.41,13.23l-.67-.43-.06-1c0-1.2,0-2.39-.08-3.57a20.37,20.37,0,0,0-.74-7.57Z"/><path class="cls-1" d="M71.28,577c-1-2,2.6-2.68,3.17-.75A3.36,3.36,0,0,1,71.28,577Z"/><path class="cls-1" d="M61.29,577.16c1.9-.76,1.3,1.71,1.35,2.74C61.32,582.43,58.83,577.72,61.29,577.16Z"/><path class="cls-1" d="M52.34,582.41c5.07-1.9,1.75,7.92-2.05,8.47.05-3.54-5.19.44-6.35-1,.32-2.32.87-4.6,1.3-6.89C47.68,583.09,50.17,584,52.34,582.41Z"/><path class="cls-1" d="M65.84,584.91c-.34-2,2-2.5,3.36-1.65A2.82,2.82,0,0,1,65.84,584.91Z"/><path class="cls-1" d="M587.43,583.74a68.77,68.77,0,0,0,7.43,1.33,50.38,50.38,0,0,0-4,7.33c1.07.18,4.44.26,2.41,1.82-2.09,2-4.91-2.14-6.38.71.32-2.33.82-4.78-.63-6.84,2.55.08,3-.47.79-1.82A2.69,2.69,0,0,0,587.43,583.74Z"/><path class="cls-1" d="M598.69,586.21c2.35,5.3-3.16,2.3-.67-.43Z"/><path class="cls-1" d="M568.77,588.88a2.93,2.93,0,0,1,3.11-.74C573.25,590.45,569.6,590.42,568.77,588.88Z"/><path class="cls-1" d="M102.66,592.23c.18-4.55,3.24,1.09.42,1.51C103,593.37,102.76,592.61,102.66,592.23Z"/><path class="cls-1" d="M87.4,592.25c2.42-.9.52,3.28.27,4.41C86.24,596.18,86.64,593.33,87.4,592.25Z"/><path class="cls-1" d="M81,596c.2-3.33,3.62-3.81,3.78-.23-.2.58-.61,1.74-.82,2.32l-2.18-1Z"/><path class="cls-1" d="M591.35,597.35c2-.41-1.12,7.37-.35,8.49-4.72-1.62.1,3.12,2.76,1.61,4.73.24-1,5.1-1.1,7.5-2.57-.15-4.36-1.38-2.94-4-2-4.12-1.19-8.81-2.51-13.11C590.06,599.57,589.14,602.33,591.35,597.35Z"/><path class="cls-1" d="M71.28,598.32c1.5-.7,1.13,4.7-1.28,4.82C70.19,601.49,69.26,599.07,71.28,598.32Z"/><path class="cls-1" d="M84.11,602.31c3-1.09,1.12,4.59-.26,1.63C83.91,603.53,84.05,602.72,84.11,602.31Z"/><path class="cls-1" d="M565.89,607a6.49,6.49,0,0,1,5.24-5.39c1-.33,3.26,2.54,1.3,1.86C568.77,601.61,569.14,612.38,565.89,607Z"/><path class="cls-1" d="M586,603c2,.7.47,5,1.77,7.11C584.41,610.24,586.51,605.25,586,603Z"/><path class="cls-1" d="M70.66,606.14c-.11-4.13,3.92.75,1.15,1.78Z"/><path class="cls-1" d="M69.08,608.15c-2.86-.4-.39-5,1-1.93Z"/><path class="cls-1" d="M262.31,605.26c1.81.69-.69,3.84-2.1,3.36C259.55,607.19,261.13,605.79,262.31,605.26Z"/><path class="cls-1" d="M79.13,608.75c-1.56-3.25,4.12-2.91,1.5.16Z"/><path class="cls-1" d="M580.33,606.12c2.86-.53,0,2.65-.71,3.52C578.06,609.24,579.05,606.51,580.33,606.12Z"/><path class="cls-1" d="M597.64,616.9c-3.69-2-1.2-10.72,2.36-9v16.36C599.34,621.68,599.37,619,597.64,616.9Z"/><path class="cls-1" d="M36.13,611.32c-2.78-1.55-.24-4.87.81-1.23Z"/><path class="cls-1" d="M564.82,611.33c.79.53,1.58,1.08,2.36,1.65C567.54,618,564.41,614.06,564.82,611.33Z"/><path class="cls-1" d="M572.22,613.92a18.08,18.08,0,0,1,9.6-2.53c2,.27,1.57,6.87.33,3.5,0-3.29-3.59-.28-5.23.22a20.8,20.8,0,0,0,3,3.92l0,.74c-3.58,10.27-1.57-10.76-7.27-1.9C572.56,616.54,572.41,615.23,572.22,613.92Z"/><path class="cls-1" d="M583.86,621.69c0-2.7-1.34-5.51,2-6.86-1.72.9,3,7.91.46,8.12-.25-3-2.2-.8-2.11,1C582.34,623.82,581.11,621.59,583.86,621.69Z"/><path class="cls-1" d="M592.26,617.24c2.93-.74,1.55,4.75,3.55,6.52-4.34.09,3.2,3.1-1.82,2.29-4.77,1.1,2.88-5.19-2.21-4.62C587.38,621.78,590.22,618.77,592.26,617.24Z"/><path class="cls-1" d="M597,619.76a3.09,3.09,0,0,1,.9,3.27A1.79,1.79,0,0,1,597,619.76Z"/><path class="cls-1" d="M572.73,624.12c2.73-1.65,6,4.94,6.43,1,2.81-5.42,1.06,11.4.06,5.67-2.24-5.06-5.31,5.43-4.33-2.12C574.59,626.85,571.84,627.39,572.73,624.12Z"/><path class="cls-1" d="M585,624.16l.86-.29c2.27,1.23,8.13-.27,3.23,2.49l-1.31.92c-2.34,1.5-2.86,4.23-2.94,6.8-1.88-.92-6.26-6.28-1.75-4.22C580.26,625.36,586.2,628,585,624.16Z"/><path class="cls-1" d="M597.21,635c-.88-3.46-1.13-6.94.42-10.17-.15,3.09,1.16,1.73,2.37.16v19.29c-.74-1.44-1.46-2.87-2.2-4.28A4.9,4.9,0,0,0,597.21,635Z"/><path class="cls-1" d="M47.4,628.7l.69-.74q1.52.42,3,.9c.53,2.68-2.35,1.19-3.67,3.24C47.46,631,47.46,629.83,47.4,628.7Z"/><path class="cls-1" d="M588.35,634.31l.65,0c2.14,1.13,5.34,1.8,6.14,4.35-1.72-.27-5.08,1.33-3.38-1.57C589.31,635.73,582.63,637.23,588.35,634.31Z"/><path class="cls-1" d="M587.53,638.12c2.47-.82,2,4.26-.26,3.55C586.84,640.54,587.36,639.23,587.53,638.12Z"/><path class="cls-1" d="M534.83,640.29c.59-1.76,2.16-.39,2.33.79l-1,1.1-1.08-1Z"/><path class="cls-1" d="M583.1,645.09c2.09-5,3.28-4.21,2,.85C585.12,649.62,583.92,646.69,583.1,645.09Z"/><path class="cls-1" d="M588.86,643.22c2.5-3,.84,7.32-.18,1.64C588.73,644.45,588.82,643.63,588.86,643.22Z"/><path class="cls-1" d="M597.26,647.13c.91-.76,1.8-1.55,2.74-2.28v13.43l-2.2-1.08c-.33-1.79-.65-3.57-.86-5.36A25.67,25.67,0,0,0,597.26,647.13Z"/><path class="cls-1" d="M586.39,651.91c-1.15-1.28.77-2.12,1.47-3,1.69.59,4.27.13,4.57,2.48a2.63,2.63,0,0,0-3.25,1.19A4.06,4.06,0,0,0,586.39,651.91Z"/><path class="cls-1" d="M592.69,651.92c1.2-3.84,1.69.61,2.41,2.33l-.24,1.57-1.84,1-2.29-.64.16-2.77Z"/><path class="cls-1" d="M585.21,669.3c-1.69-4.53,3.14-7.37,2-1.18Z"/><path class="cls-1" d="M574.93,667.9c-1.8,1.26-3.22-2.66-1.15-2.79C574.19,666,574.58,667,574.93,667.9Z"/><path class="cls-1" d="M587.2,668.12c2.83,1.89-3.11,5.79-2,1.18Z"/><path class="cls-1" d="M504.91,671.61c-3.28,2.23-2.89-2.44.18-1.22C505,670.69,505,671.31,504.91,671.61Z"/><path class="cls-1" d="M597.78,674.44c-3.73,1,.5-2.8.68-4.54.39.51,1.16,1.55,1.54,2.06v4C598.28,677.45,597.86,676.25,597.78,674.44Z"/><path class="cls-1" d="M594.27,677c-.32-1.61-3.4-5-.51-5.19A5.34,5.34,0,0,1,594.27,677Z"/><path class="cls-1" d="M597.16,684.15c.66-9.06,3.11-5.89,1.82,1.92l-.87-.11Z"/><path class="cls-1" d="M524.21,682.08c2.92-.08.56,4-1.24,4.13l-.64,0-.22-.53A7,7,0,0,0,524.21,682.08Z"/><path class="cls-1" d="M594.19,681.81a3,3,0,0,1,2.36,2.08L594.91,686A8.88,8.88,0,0,1,594.19,681.81Z"/><path class="cls-1" d="M537.09,686.2h.66C541.9,692.27,532.45,688.15,537.09,686.2Z"/><path class="cls-1" d="M598.11,686l.87.11c.25.31.76.93,1,1.23v.6q-3.09,3.71-.82,7.06c-.72,2.91,1.33,16.7-1.46,11.29a39.35,39.35,0,0,0,.24-6.32c-.16-.91-.34-1.8-.53-2.68,1.05-3,.77-5.16-2.8-3.55.07-1.6.19-3.2.24-4.79C596.57,694.74,598.3,689.05,598.11,686Z"/><path class="cls-1" d="M497,689.68c-.61-1.65.39-3,2.07-2C501.55,688.81,498.49,691.5,497,689.68Z"/><path class="cls-1" d="M522.64,691.31c.08-5.88,5.08-.95.14.54Z"/><path class="cls-1" d="M595,696c-2.09.79-4.26-2.23-1.09-2.12Z"/><path class="cls-1" d="M590,694.9c2.13,1.06,2.09,4.09,2.08,6.2C589.9,700,589.94,697,590,694.9Z"/><path class="cls-1" d="M0,699.6c.63,1.94,1.54,3.74,3.88,3.6-1.24,2.1,2.33,4-.47,5.2C-1,710.43,3.65,716,0,718.5Z"/><path class="cls-1" d="M501,704c-2.28-2.88,2.66-2.26,2.76.07Z"/><path class="cls-1" d="M500.9,704.76c1.07,1,1.87,4,3.62,2.19,1.43,1.36,2.68,2.94,2.68,5-1.62.08-3.48,0-3.69,2l-1.38-.11-.84-.91Q501,708.86,500.9,704.76Z"/><path class="cls-1" d="M597.14,705.7c-1.75,2.71-4.64-1-1-1Z"/><path class="cls-1" d="M507.39,713.13c.42-4.57,3.43-6.32,6.6-2.51-5.51.31-3,8.19-7.25,10.55-2.5-1-2.64.79-1.06,2.29-4,.24-4.73-3.75-5.87-6.72.73-1,1.52-1.91,2.32-2.82l1.38.11C504,717.2,508.05,716.23,507.39,713.13Z"/><path class="cls-1" d="M593.21,714.72c-.26-2.05-5.14-6.19-1.12-5.89l.75.46c-.86,2.11,1,5.16,1.68,1.47l.53.55c0,.36.13,1.09.17,1.46.19.53.57,1.59.77,2.12C594.9,717,593.54,724,593.21,714.72Z"/><path class="cls-1" d="M544.57,712.15c.88-1.85,3.88-1.75,3.69.64A8.69,8.69,0,0,1,544.57,712.15Z"/><path class="cls-1" d="M597,715.15l.92-.32c.13,3.6.11,7.14.13,10.77l-.68.57A35.74,35.74,0,0,1,597,715.15Z"/><path class="cls-1" d="M548.12,722.32c3.63-2.38,2.47,3.63,0,.66Z"/><path class="cls-1" d="M568,725.33l.57-.19c2.51,1.11,4.58,5.46.26,3C568.56,727.19,568.28,726.26,568,725.33Z"/><path class="cls-1" d="M0,736a9.7,9.7,0,0,1,2.25,1.84A25.91,25.91,0,0,1,0,740.91Z"/><path class="cls-1" d="M596,736l1.77-.14c-.25,3.14-.62,6.27-.59,9.44-.4,6.41-3.2-2.22-1.86-4.22l-1.49-2.06.05-.95C595.52,739.85,596.82,737.68,596,736Z"/><path class="cls-1" d="M597,889c0-3,1.23-5.44,3-1.79v1.87l-1-.08Z"/><path class="cls-1" d="M1.88,894A12,12,0,0,1,4,891.55,8.46,8.46,0,0,1,6.94,894Z"/></g></g></svg>