<svg xmlns="http://www.w3.org/2000/svg" viewBox="0 0 554.16 710.05"><defs><style>.cls-1{fill:#ac823b;}</style></defs><title>Layer 11</title><g id="Layer_2" data-name="Layer 2"><g id="Layer_11" data-name="Layer 11"><path class="cls-1" d="M213.68,1.91c.79-.64,1.58-1.28,2.38-1.91.35,1.26.69,2.53,1,3.81l-1.78.5Z"/><path class="cls-1" d="M197.61,10.89a36.92,36.92,0,0,1,5.12-4.22l1.49,1.54c-.69,1.07-1.35,2.16-2,3.26-1.46,1.08-3,2-4.57,3C197.59,13.26,197.58,12.07,197.61,10.89Z"/><path class="cls-1" d="M189,18.76q1.23-1.91,2.63-3.72c.16.42.48,1.27.65,1.69-.35.54-1,1.63-1.37,2.17Z"/><path class="cls-1" d="M223.13,32.14l.66.24a18.7,18.7,0,0,0,3.42,3c-2.45.4-5,.39-7.11-1,.4,4.72-1.64,3.79-1.28-.44-.6,4.77-6,2.52-9.15,2C214,34.17,218.41,32.54,223.13,32.14Z"/><path class="cls-1" d="M227.84,35.39q2.73-.28,5.49-.54l2.23.08c7.06,1.8,16.75,2.75,20.54,9.92-6.55.22,1.64,1.77,2.44,4.8,9.2,7.82,5.45,21.52,12.8,30.2,5.79,2.74,11.74,6.49,14.67,12.37,0,6.77-8.14,8.94-12.93,11.94-8.18-1.3-17.46,5.06-25.17.19-6.62-4.08-13.67-.24-19.84,2.64.84-6.07,9.08-5.22,13.25-7.61,8.82-.84,21.66,7.64,27.82-2.12,2.41-3.22,10,1.32,6.72-5.85C272,91.18,270,88,267.09,86c.21,2.45.61,4.89.62,7.35-4.07-.62-1.45-5.06-2.39-7.73-2.75-1.93-1.67-7.53-3.67-1.5-3.87-4.95-.93-.54-3.27,2.26-1.66-6.5-4.23-13.88,1.37-19.53-.62-7.18-4.28-20.23-14.16-19.3a61,61,0,0,1-5.91-7.12C236,38.44,230,39.65,227.84,35.39Z"/><path class="cls-1" d="M198.75,37.94a24.27,24.27,0,0,0,7.45-.73c-2.64,2.5-6.28,3.46-9,5.8-.32-7.48-8.6,7.09-1.85,6.65-.14.61-.42,1.82-.55,2.43l-.6-.21a25,25,0,0,0-2.9-.92c-7.8-.22-10.37,10.4-8.28,16.67,1.37,2.13-3.3,2.56-2.58,4.89.38,5.86-.49,11.6-1.08,17.39l1.4.1,4.44.28-1.1,1.63-.86.15c-5.23-1.76-7.41,5.55-3.77,6.9-.26,2.78,5.84,5.63-3.38,3.36a5.16,5.16,0,0,0,2.22,5.61c8-1.35,15.81-5.14,24.08-4l.63.56c1.47,2.17,3,4.28,4.4,6.51-9.32-9.91-21.39,1.67-32.52-.64l-1.39-.89c.66-2.22,1.49-3.89-.83-5.65l0-.9c0-2.58,4.52-8.15-.25-7.87,3-2.8-.26-13.07,4.8-8-1.56-5.09,1.22-10.14-.41-15.16.64-4.93,2.6-9.76,2.05-14.85l.43-.57c2-3.12,10.8-7.84,2.69-5.41a37.71,37.71,0,0,1,10.29-10.73C194.42,39.56,196.53,38.58,198.75,37.94Z"/><path class="cls-1" d="M221.73,138.59c.33-10.44-3.11-23.56,6.14-31,2.06,2-1.29,3.63-1.75,5.62-3.89,6.76,0,14.92-2.82,22,2.15.1,3.17.83,2,3,5-.93,13.62-5.7,10-11.25-1.94-4.18,4.43-4.4,6.91-5.7-5.64,3.2-1.21,11.06-6.08,15-.43,4.65-.29,10.49-5.08,13.3-2.09,1-2.59,6.28.3,4.87,7-.81,5.67,6.23,7.46,10.94l.32.77,0,1c-4.31-4.5-9.62,1.75-14.74-.39-5.43.08-8.19,8.58-13.6,6.64a62.51,62.51,0,0,0,10.69-7.48c.4-4.56,2.72-8.73,3.66-13.25C219.79,152.74,223.65,142.19,221.73,138.59Z"/><path class="cls-1" d="M254.9,111.19l.92-.08c1.45,0,2.9,0,4.36.13.25,2.34-.81,3.42-3.15,2.78C256.33,113.07,255.61,112.13,254.9,111.19Z"/><path class="cls-1" d="M184,114.09a22.59,22.59,0,0,1,8.19-1.86c-1.9,1.1-4.24,1.77-5.46,3.74C184.05,117.38,182.29,117.47,184,114.09Z"/><path class="cls-1" d="M194,112.15c1.7,0,3.41-.05,5.12,0,1.79,1.33,5.25,2.61,2.87,5.19a36.92,36.92,0,0,0-4.05-1.46c-.4-.28-1.19-.86-1.58-1.15C195.54,113.83,194.75,113,194,112.15Z"/><path class="cls-1" d="M241,117.25c.74-2.41,2.39-4.55,5-5q.5,1.72,1.11,3.42A13.62,13.62,0,0,1,241,117.25Z"/><path class="cls-1" d="M209.13,113.9c1,1.65,1.9,3.61,3.75,4.52.08,1.82.12,3.65.17,5.47-1.25.26-2.35,1.67-1,2.62l0,.49c-4.31,1.15-6.79,6.86-10.95,6.29,1.66-6.52-3.31-4.66-7.56-3.59,1.79-1.55,3.69-3,5.57-4.42l.72-.14c4.07.9,8.93,1.63,6.54-4.14l-.18-.83c1.58.69,3.13,1.43,4.75,2A63.78,63.78,0,0,1,209.13,113.9Z"/><path class="cls-1" d="M250.17,114.73,256,114l0,.72-.74.55a16.77,16.77,0,0,1-4.42,0Z"/><path class="cls-1" d="M189.13,116.22c.66-1.61,2.6-1.49,3.94-.89l-.06.58A9.09,9.09,0,0,1,189.13,116.22Z"/><path class="cls-1" d="M185.27,121.23c5.91-5.67,5.23,4.61,11,4.46-3.47,1.58-5.38-1.32-7.38-3.59-6.36.44-5.14,10-10.95,9.06l0-.68C179,126.15,184.12,125.1,185.27,121.23Z"/><path class="cls-1" d="M280.67,122.93c2.79-2.15,9.62-5.12,10.32.27,3.25,10.72-4.36,20.47-9.69,29.09-1.91,9.28-10.72,15.39-12.3,24.84-1.87,6.69,3,14-1.93,20-6.65,9.44-17.36,15.12-25.88,22.15-4.57,8.27-15.53,5.76-22.37,10.25l-.68-.41c-2.22-2.11-4.76-3.91-7.88-4.27l-.86-1.75c-.42-1.34-1.8-1.93-3-2.24l-.32-.67c-5.25-11.49-19.1-16.74-21.64-29.52-3.22-3.87,2.68-6.93.48-10.42-4.29-8.35-8-16.92-11.76-25.44a36.34,36.34,0,0,1-1.13-7.62,50.41,50.41,0,0,0-1.67-12.35c-.11-.42-.32-1.26-.42-1.67l.27-.86c1.16-1.91.61-5.11,2.88-6.09.77.72,1.58,1.41,2.42,2.06l-.63,1.48-.63,1.15c-1.19,1.65-2.24,5,.54,5.6.15.31.43.91.57,1.22-6-2.64-2.2,7.12,1.93,7.17,3.78.95-.69,1.38-2.17,1.82,1.63,12.17,6.68,25.3,18.44,30.85,2.07,4.67,5.72,7.85,9.74,10.79-5-2.79-8.47,3.13-3.12,5.92-2.39.74-4.84-.15-7.25-.18.84,4.57,5,7.25,7.39,10.89,4.41,8.21,8,18.35,17.58,21.59a93.09,93.09,0,0,0,10.72-4.27c.89-2.16,1.42-4.93,4.3-3.29-3.52-3.07-.1-4.85,1-7.64a23.78,23.78,0,0,0-12.1-1.73l-2.51.08c-3.72-1.91-8.53-3.41-8.23-8.53,4.6-1.86,13.8,1.28,13-5.92a15.66,15.66,0,0,1,6.93,1.93c-1.38,7-16.85,0-14.91,8.58,9.25,4.84,21.56-3,28.69,4.94,5.75,2.67,8.62-5.52,3.25-6.23-3.61.3-7.45-2.26-9.45-5-.88-2.51,2.22-4.39,3.49-6.29l.85-.17c4-.7,9.11-4.27,9-8.7-5.49-4.1-13.84,5.82-18.83-.39,1.08-3.67,5.18-5.92,4.89-10,.11-.72.32-2.15.43-2.86l.88-.29a26.38,26.38,0,0,1,.16,9.25c8.85,2.82,17.17-3.45,24-8.06-.29-4,3.28-6.19,6.09-8.22,3.46-5.82,5.72-12.25,8.78-18.27,3.66-6.26,9.41-12.34,8.61-20.17C285.05,124.14,282.79,123.69,280.67,122.93Z"/><path class="cls-1" d="M270.86,127.18c1.7-1.24,2.5-4.11,4.94-3.94,1.69,1.88,2.88,3.54-.68,3,4.31,3.9-6.86,5.61-10.12,7.2,1.67-1.4,3.47-2.91,3.09-5.35-3.13.88-7.74,2.11-7.22,6.27-2.16.85-4.45,1.8-6.71.68a2.08,2.08,0,0,0-3.63.3c-1.15-.32-2.3-.63-3.44-1-3.38-7,11.24-1.32,11.17-9a21.57,21.57,0,0,0,4-1l1.61-.66C266.84,123.75,267.76,127.78,270.86,127.18Z"/><path class="cls-1" d="M174.57,125.62c.89-.74,1.81-1.46,2.76-2.15l.81.11c.59,1.68.27,4.59-2,4.53C175.73,127.49,175,126.25,174.57,125.62Z"/><path class="cls-1" d="M182.72,132.88c0-1.82.77-3.79,2.7-2.14,2.23,2.71,4.71-.94,7.37-.84-2.72,5,4.07,3.17,7.46,3.48-5.44,2.63-11-.36-16.61-.16Z"/><path class="cls-1" d="M202.9,169.24c-1-6.35,6.14.66,7.17,3.82C207.28,172.4,206.12,168.8,202.9,169.24Z"/><path class="cls-1" d="M203.34,169.94a8.12,8.12,0,0,1,3.81,3.82l-2.53-.18L204,173C203.76,172,203.54,171,203.34,169.94Z"/><path class="cls-1" d="M214,180.07c2,2.84,4.09,5.48,8,5.43-.07,8-10,7.3-15.11,3.8l1.43-1.11.72-.27c2.57.88,8.74,3.94,8.83-.48A6.33,6.33,0,0,1,214,180.07Z"/><path class="cls-1" d="M210.2,193.21c2.52-.22,4.88.72,7.12,1.76l-1,0a32.46,32.46,0,0,0-5.49.06C210.67,194.55,210.36,193.65,210.2,193.21Z"/><path class="cls-1" d="M227.71,263c-2.23-10.4,10.58-6.39,14.75-1.38,3,3.17,8.78,2.46,10.15,7,2.53,1.45,5.58,2,7.23,4.66,5.12.5,10.34,1.53,15.84.55-1.27-4.29,2,1.59,3.43-.57,2.55-4.06,8.48-1.66,11.21-5.61,4.64.92,10.44,1.12,10.41,7.24,4.47-.44,2.27,6.5,6,1.95-2.31,4.44,6.07,2.29,7.11,7.22,0,.71-.13,2.13-.18,2.84-2.56.77-1.16,4.15,1.38,3.6-.8,1.83-2.56,1-4.05.66a31.21,31.21,0,0,1-2.44-6c.54-1.94-1.05-3.17-2.43-4.19a47.13,47.13,0,0,0,.8,5.13c-3.16,2-4.12-4.89-8-4.8,5.74,1.42.52-4.94-2-2.26-3.1.47.58,5.12-3,4.1-3.64.88-1.39-3-.1-4.28-2.67.6-5.32,1.39-7.92,2.19l-.55-.5c-2.94-3.45-5.76-2.56-3,1.85-2.5,4.89-7-4.34-9.95-2.68.55,4.85-2.22,8.91-1.68,2.5-5.19,1-10-2-15.22-2.43-6.46,1.07-6.18-9.1-12.37-7.73,1.8,4.11-1.44,2.86-4.19,2.09,1.09,2.17,2.45,4.3,5.22,3.26-6.07,1.74-11.87,7-19.19,5.69-7.34.56-9.48,10-16,11.09.79-1.32,2.84-3.13.14-3.59,5.39-4.08,10.13-10,17.16-11,6.7-1.12,4.81-9.67,1.54-13.55C227.8,265,227.76,264,227.71,263Z"/><path class="cls-1" d="M495.55,262.92c1.06-3.22,5.5-2,5.75,1.1l-1,.11-3,.27Z"/><path class="cls-1" d="M487.77,265c1.07-1.15,2.72-1.08,4.17-.95l-1,2.21-1.86.12Z"/><path class="cls-1" d="M468.46,271.47c3.62-.72,8,.71,10.07,4C476.6,280.35,462.19,276.72,468.46,271.47Z"/><path class="cls-1" d="M467.88,278.07c2,3.24,7.74,1.39,8.1,5.64-2.67,0-3.32,1.89-3.2,4.23,2.32-2.3,5.45-1.07,8.41-.68a24.85,24.85,0,0,1-.89,4c-4.53-2.18-6.87,5.27-9.94,7.93-.82-7-9.71.41-14,.56,1.44,4-5,6.9-.35,10.41-1.55.3-3.1.64-4.64.92-1.05-5.5-7.75-1.42-11.2-2.08l-1.71.27-2,.86-1.19-2.3-.29-.53a10,10,0,0,0,0-5.07c.58-2.11,1.79-3.61,4.17-3.08-1.16,1.74-4.79,3.88-1.71,5.57,3.24,3.6,7.5-2.33,4.53-5.68,5.46-2.6,11.71-2.63,17.07-5.45l5,.07c3.54,1.89,1.53-3.16,5-2.43,6-.91-7.13-1.68-1.27-3.31C473.18,287.13,466.26,281,467.88,278.07Z"/><path class="cls-1" d="M282.84,281.71c.29-1.24,1.52-1.39,2.59-1.16l.55.5C286.33,283.51,284.05,282.56,282.84,281.71Z"/><path class="cls-1" d="M218.82,291.34a2.79,2.79,0,0,1,3.4-4.27l-.62.81c-1.35.56-1.6,2-2,3.22Z"/><path class="cls-1" d="M297.14,289.19c-1.83-2.81,5.26-3.1,2.94-.82C299.11,288.68,298.13,289,297.14,289.19Z"/><path class="cls-1" d="M202.53,294.29c-.91-3,2.47-3.79,4.67-4.26-3.7,1.92-2.4,3.66.74,5.26.25,2.07.16,3.6-1.66,1.51-3.09-4.06-3.65,4.29-7.65,2.68-4.11-.13,1.24,1.8,1.6,3.38a13.86,13.86,0,0,1-6.28-1.29,1.89,1.89,0,0,1-.32-3.74C196.2,296.1,199.75,290.51,202.53,294.29Z"/><path class="cls-1" d="M296.94,291.23c.05-.37.14-1.11.19-1.48a13.57,13.57,0,0,0,4.8.31l.81.92A33.14,33.14,0,0,1,296.94,291.23Z"/><path class="cls-1" d="M218.94,293.05c-2.91.16-3.35-3.31-.12-1.71Z"/><path class="cls-1" d="M313,298.29c-4-2.07-1.06-5.74.77-1.06Z"/><path class="cls-1" d="M308.38,297.27c2.82-.78.54,3.86-1.34,3C305.17,299.6,307.47,297.68,308.38,297.27Z"/><path class="cls-1" d="M304.24,299.5c1.22.27.77,2.67,2.59,2.19C306.93,305.32,301.67,301.87,304.24,299.5Z"/><path class="cls-1" d="M312.3,303.34c-1.65-.42-2.91-2.57-.36-2.63A1.85,1.85,0,0,1,312.3,303.34Z"/><path class="cls-1" d="M186.18,304.37c3.55.4,1.31-4,5-1.19-.36,1.67.29,4.84-2.31,4.73-4-.6-.89,2.52-1.94,5.35-.49,1.5-1.08,3-1.71,4.42a26.49,26.49,0,0,0-2.82-2.69c-1.58-3.7,4.56.69,1.8-2.84.33-1.71.64-3.42.89-5.14Z"/><path class="cls-1" d="M311.54,305.78c1.91,2.31.58,7.37,3.58,3.36.77,3.07-.35,12.66-4.05,9.94-.24-2.07-.3-4.48-3-4.34C312.63,313.72,312.21,309.86,311.54,305.78Z"/><path class="cls-1" d="M300.09,307.23l1.66-.09c5.44-1,2.87,3.74-1.06,1.42l-.59-.4Z"/><path class="cls-1" d="M299.2,309.42l1.41-.38C306.39,311.15,299.09,313.36,299.2,309.42Z"/><path class="cls-1" d="M456.8,310.26c2.78-.95,6.76-2.4,7.54,1.67-1.1.31-2.2.59-3.31.84C459.59,312,458.19,311.11,456.8,310.26Z"/><path class="cls-1" d="M508.33,313.65a31.15,31.15,0,0,1,5.56-3.5c.71,2.29,1.53,4.37,4.33,3.26a27.39,27.39,0,0,1-3.93,2.66c-3.09-.19-6.14-.06-9.17-.66l-.31-.85C506,314.45,507.77,315.22,508.33,313.65Z"/><path class="cls-1" d="M472,315.29c4.43,1,2-7.08,7-3.25-5.19,4.42,3.81-.09,6.37,1.7,2.24,2.63,9.56-.66,6.55,4.05l-1.91.6-.79.21c-1-.14-2.06-.34-3.08-.56-4.92-1.28-10,0-15,.11a4.67,4.67,0,0,0-.78-4.17l-.43-.88C472.86,312.85,475.1,312.9,472,315.29Z"/><path class="cls-1" d="M179,318.93a34.09,34.09,0,0,1,3.11-3.58c0,1.76,1.35,2.94,2.71,3.81l.31.92.08,1.81c-3.19,3.59-.36,3.7.69,6.11-1.15-1.46-4.65-.73-3,1.36a40.5,40.5,0,0,0-.56,5.16c-2.19-4.55-3.53.66-4.93,2.85l-1.21-.59c.35-1.81.66-3.62,1-5.43,5,.69,1.63-4.31,1.27-7C181.45,323.28,184.28,318.2,179,318.93Z"/><path class="cls-1" d="M498.25,316c-3.59,3.31-5.17-.93-.16-.73Z"/><path class="cls-1" d="M450,316.47c3.3-.46,6.54.36,9.82.77l.51,1.05a33.84,33.84,0,0,1-5.13.34C453.43,317.88,451.71,317.13,450,316.47Z"/><path class="cls-1" d="M500.75,319.88c2.66-3.68,16.1-.68,7.05.34-2.84-.65-4.21,2-5.64,3.93a22.38,22.38,0,0,1-5.11,2.19C498,324.06,498.49,321.29,500.75,319.88Z"/><path class="cls-1" d="M300,319.72c3.13-1.25,5.48.09,7.11,2.53-2.29,0-4.27-1.08-6.24-2.08Z"/><path class="cls-1" d="M311.18,325.31c-5.15.82-1.56-2.51.07-4.65A13,13,0,0,1,311.18,325.31Z"/><path class="cls-1" d="M472.08,322.61c2.94.48,6.52-2.88,7.24,1.69-.08.39-.23,1.16-.3,1.54C474.75,329,472.47,327.72,472.08,322.61Z"/><path class="cls-1" d="M310,329.1c-2.09-.79-.7-3.06,1.05-3A4.89,4.89,0,0,1,310,329.1Z"/><path class="cls-1" d="M489.1,328.4a20.13,20.13,0,0,1,5-1.38c-.34,1.86-4.05,6.4-.06,4.28l.23,1-5.48.06c-.34-1-.67-2-1-3C488.13,329.14,488.77,328.64,489.1,328.4Z"/><path class="cls-1" d="M307.33,328.48c1.32.71.52,8.09-4.34,5.63C301.75,330,306.22,331.34,307.33,328.48Z"/><path class="cls-1" d="M18.46,331.47c.26-3.3,5.61-3.05,1.61-.44,6.17-1.28,3.58,4.37.16,6.21C19.57,335.33,19.05,333.39,18.46,331.47Z"/><path class="cls-1" d="M500.47,332.16c3.23-1.31,7-3.87,10.49-2.07,3,1.43,6.36,1.23,9.45.42,4.17-.1,8.43-2.37,12.46-.29,1.09,2.76,1.52,5.71,2.45,8.52,3.89,1.53,11.62,6.6,13.86,2.57,1.9,0,2.09,2.12,1.77,3.58-3.42,4.67-13.05-3-15,2.14-1.31,1-2.28.36-3-.94l.26-.71c3.74-2.5-1.83-7-3.42-3.29-1.19.43-2.41.8-3.62,1.14.08-2.24,2.08-5.49-.67-6.54-1.46-2.92-5.5-1.73-5.75,1.38l-1.41,0c0-3.17-4.15-6.54-7.33-5C508.71,329,504,335.38,500.47,332.16Z"/><path class="cls-1" d="M308.88,340.59c-8.63.5,2.33-6.45,2.09-10.7,1.24.82.78,2.61,1.16,3.88-1.44.35-2,1.14-1.77,2.35,3.32,2-2.48,4.78,2.38,4.07-2.9,3.84.75,10.95-5.18,12.13-1.17-2.07.44-2.3,2.26-2.28C307,347.61,309.17,343.77,308.88,340.59Z"/><path class="cls-1" d="M46.33,331.37c2.08,1.13,0,3.05-1.73,2.59C41.64,334.2,44.92,331.17,46.33,331.37Z"/><path class="cls-1" d="M167.6,333.86c.43-2.14,1.93-.65,2.74.34C171.55,337.34,168.15,335.7,167.6,333.86Z"/><path class="cls-1" d="M27.91,333.36c4.85.1,10.2.28,14.23,3.31-4,1.38-9.56,2-11.1,6.64v-2.05c.09-.71.28-2.12.37-2.82C33,335.37,28.06,336,27.91,333.36Z"/><path class="cls-1" d="M464.69,334.59c2-.4,3.13,1.26,4.37,2.5l-1,.07-.79,0-1.06,0-2.29-.13C464.09,336.48,464.49,335.22,464.69,334.59Z"/><path class="cls-1" d="M492.29,339.48c-4.85-1,.74-5.12,2.93-1C494.24,338.8,493.26,339.13,492.29,339.48Z"/><path class="cls-1" d="M162.89,337.41H165c-.48,4.43,6.88-2.62,5.63,1.34-1.1,2.16,2.24,2.05,3.44,2.91-2.49,2.31-5.48,1.36-5.3-2.2-5,.35-1.2,7.33,2.41,4.82,1.85,3.5-6.74,1.3-1.06,5.3a12.07,12.07,0,0,1-4.1-.3l-.69-.26c0-2.55-1.16-1.24-2.22-.1-1-1.61-2.18-3.14-3.1-4.81,2-.46,3.21-.05,2.43,2.12C167.4,346.41,163.28,339.65,162.89,337.41Z"/><path class="cls-1" d="M43.58,338.14c2.46,1.23,4.94,2.34,7.81,2.28,1.18,3.72,1.37,7.66,2.61,11.38a2.4,2.4,0,0,0-2.2,1.9l-.59-.06-.45-.51c-.52-2.53-2.75-3.67-4.85-4.75,1.12-1.19,2.27-2.37,3.28-3.65a17.55,17.55,0,0,1-8.12-2.59C42.22,341,43.78,340,43.58,338.14Z"/><path class="cls-1" d="M389.43,339c1.17-.26,2.33-.58,3.5-.9,1.74,0,3.48,0,5.23.11l-.27.55-2.56.49a25.17,25.17,0,0,0-7.5,2.48c-1.63.45-3.26.89-4.89,1.29.05-.41.16-1.22.22-1.63A12.31,12.31,0,0,0,389.43,339Z"/><path class="cls-1" d="M499,338.09c1.72-.89,4,.59,2.08,2.23A2.09,2.09,0,0,1,499,338.09Z"/><path class="cls-1" d="M380.14,339.94l.71.34-.08,2.7-.62-.09c-.62-.56-1.22-1.12-1.79-1.7l.47-.45Z"/><path class="cls-1" d="M501.06,340.32a3,3,0,0,1,4,1.7,11.78,11.78,0,0,1-3.49-.55Z"/><path class="cls-1" d="M372.6,341.67c2.3-.91,1.87,2.23.34,2.85A3.1,3.1,0,0,1,372.6,341.67Z"/><path class="cls-1" d="M477.11,341l2.92.29c-.12.47-.34,1.4-.45,1.86l-1.67,0Z"/><path class="cls-1" d="M33,344.2c-.88-2.39,3.42-2.88,3-.42Z"/><path class="cls-1" d="M516.26,343c2.48-.23,5.1-.69,7.19,1.07-1.06.78-2.13,1.54-3.24,2.22A13.08,13.08,0,0,0,516,349l0-.92C516.12,346.4,516.17,344.68,516.26,343Z"/><path class="cls-1" d="M379.08,345.23c-1.4-1.07-.5-2.45,1.07-2.34l.62.09-.84,2.23Z"/><path class="cls-1" d="M357,344.33l2.83-.58c3.71,5.13-4.73,3.49-7.86,3.88l3.74-2.63C357.07,347.81,360.69,345.2,357,344.33Z"/><path class="cls-1" d="M156.8,346.05l.88-.42c2.72.41,2.49,3.46,3.26,5.49a36.18,36.18,0,0,0-4.73,7,8.56,8.56,0,0,1,6.64,1.11,32.41,32.41,0,0,0-2.1,5.14,5.3,5.3,0,0,0-4.6-1.64c-1-.82-1.69,1-2.46,1.41l-.9-1.47C152,356,161.61,352.3,156.8,346.05Z"/><path class="cls-1" d="M381.83,346.34c4-.51,8,.12,12,.54a5.63,5.63,0,0,1,4.54,3.31,56.56,56.56,0,0,1-5.88,1.16c.34-3.5-3.59-4.58-6.24-3.3l-.9-.08C384.14,347.43,383,346.86,381.83,346.34Z"/><path class="cls-1" d="M363.35,349.05c-2-3.32,6.2-2.41,2.55-.06Z"/><path class="cls-1" d="M376.37,348.35c2.8,2.29,5.76-1.11,8.94-.38l.9.08c-4.35.35-4.83,3.77-.17,2.15,0,.38.07,1.13.09,1.51a3.72,3.72,0,0,0-1,3.39c-1.05,1.12-2-.78-3-1.15-2.39-2.33-3.55-2.24-2.23,1.25a7,7,0,0,0-4.93-.87l-.85.06c-.2-1.88-1.54-2.6-3.35-2.64C371.61,349.1,375.54,351.66,376.37,348.35Z"/><path class="cls-1" d="M342.54,351.25c-.56-2.57,2.62-2.59,4.32-2.1-.1.47-.31,1.41-.41,1.88a2,2,0,0,0-3.12.22Z"/><path class="cls-1" d="M388.9,350.69c1.47-1.53,2.73-1,2.06,1.18-1,.38-2.07.72-3.12,1l-.93-1Z"/><path class="cls-1" d="M185.16,350.94c-1.46,4.67-4.71-.12-.26-.62Z"/><path class="cls-1" d="M368.29,350l1.57.06c0,.48.08,1.44.11,1.92-.44,6.24-8.41,2.5-12.56,4.75,2.31-3.28,7.29-5.54,10.72-2.87A23.75,23.75,0,0,0,368.29,350Z"/><path class="cls-1" d="M529.92,353.19c5.71,1,10.06-2.49,15.37-3.45l.77-.1a24.89,24.89,0,0,0,5,2.42c-.06,1.8-.09,3.82-1.8,4.88-1-.15-2.06-.31-3.08-.48-2.5-.6-5.19-2-7.64-.47-2.88,1.91-6-1.56-8.73.86-2.1,1.33-2.37-1.42-2.84-2.81Z"/><path class="cls-1" d="M161,352.1c4.5-1.33,4.51,3.73,1.21,5A11.46,11.46,0,0,1,161,352.1Z"/><path class="cls-1" d="M55.28,353.17c3,2.61-1.39,5.6-.31.68Z"/><path class="cls-1" d="M305.06,355.14c-2.4-2.25,1.95-.41,3.17-.36,5.86.42,3.44,4.53,3.78,8.27-1.31-2.81-3.41.27-5.14,1C301,365,307.64,357.51,305.06,355.14Z"/><path class="cls-1" d="M352.51,357.68l2.74-.13c-.49,1.88-2.58,1.94-4.11,1.44l.64-1.21Z"/><path class="cls-1" d="M363.86,358c-4.48,1.55-3.85-2.55.25-.55Z"/><path class="cls-1" d="M345.17,360.21c.95-.3,1.9-.56,2.87-.78,2.61.53,1.14,1.72-.28,2.86-1.09.91-.52,2.62-.79,3.87l-.63-.19c-1.1-.41-2.19-.8-3.28-1.18a9,9,0,0,0-3.39-1.13C340.94,361.78,343.25,361.19,345.17,360.21Z"/><path class="cls-1" d="M351.54,360.19a32.43,32.43,0,0,1,10.62-.57c-5,1-8.89,5.86-14.4,2.67C349.49,362.1,352.42,362.88,351.54,360.19Z"/><path class="cls-1" d="M519.8,362.31c1.1-1.43,3.56-1.54,3.37.79a2.66,2.66,0,0,1-3.37-.16Z"/><path class="cls-1" d="M529.93,361.17l1.16,0c1.94,0,3.88-.12,5.83-.27l2.44,1.06C538.17,366.36,532.87,361.48,529.93,361.17Z"/><path class="cls-1" d="M541,362c2.37-1,5.78.23,6.11,3-2.81,1.54-6.05,2.1-9,3.16L534,368C536.28,365.29,541.09,366.26,541,362Z"/><path class="cls-1" d="M524.74,363c4.64-3.17,6.33,3.82,1.11,3Q525.28,364.51,524.74,363Z"/><path class="cls-1" d="M520.67,365.31a31.67,31.67,0,0,1,4.29.78c1.52,3.4,5.47.85,8.24,1.9-1.44.92-5,2.33-1.19,2.36l0,1.51-1.2,1.38q-3.36-2.06-6.78-3.95A21.4,21.4,0,0,1,520.67,365.31Z"/><path class="cls-1" d="M302.91,374.09c-1.59-3.39,2.86-6.27,5-8.37a20.15,20.15,0,0,1,8.15,4.35l-.94-.24c-2.13-1.23-2.31.52-2.34,2.36-.77-1.48-1.49-3-2.37-4.4-.42,1.18-.31,11.88-3.61,6.38l0-.69c6.25-2.87-5.52-4.72-1.79-.57Z"/><path class="cls-1" d="M337.38,366.49c5.12.42-5.71,5.71-6.37.73Z"/><path class="cls-1" d="M157.91,369.34c2.79.37,6.68.47,4,4l-2-.57C159.25,371.6,158.61,370.45,157.91,369.34Z"/><path class="cls-1" d="M329.59,370.2c2.08-.73,5.47-2.4,3.79,1.24a23.86,23.86,0,0,1-3.05,0l-1.62-.88Z"/><path class="cls-1" d="M68,373.2l1.46-.27c1.08,2.76,4.65,2.2,6.65,4l-.91.15A10.36,10.36,0,0,0,70,378.92l-1.85.15c-1.45-.48-3.62.12-3.13,2.05l-.8-.07c-2.41-.6-5.13-.06-7.31-1.44l.47-1.51A4.3,4.3,0,0,1,59,375.27l2.74-.42C64.43,374.66,70.83,376.92,68,373.2Z"/><path class="cls-1" d="M320.08,373.16c4.4-1.38,4.47,3.93,0,1.68Z"/><path class="cls-1" d="M162.9,374.34c1.42-.45,5.11.47,3,2.34A3,3,0,0,1,162.9,374.34Z"/><path class="cls-1" d="M302.91,374.09l3.26.45c-.52,4.59-6.94,3.93-8.3,8.65l-3.15-.33c3.37-1,3.39-4.37,5.18-6.15,1.06.45,4.11,1.45,3.92-.57Z"/><path class="cls-1" d="M551.81,381c-3.43-4.26,5.05-8.09,1.44,1.26C552.31,385.5,551.88,383.14,551.81,381Z"/><path class="cls-1" d="M46.08,381.83c-6.06-5.53,2.82-5.18,7.18-3.68v.73C53.09,382.24,48.07,379.13,46.08,381.83Z"/><path class="cls-1" d="M168.09,377.07l.92-.1.66-.05c1.44,1,2.92,2.06,4.41,3-1.1.41-2.19.84-3.27,1.28l-.72-.24C169.47,379.66,168.79,378.36,168.09,377.07Z"/><path class="cls-1" d="M310.64,379.15c-3.18-1.63.64-3.3,2.17-1.28l-.57.55Z"/><path class="cls-1" d="M149.17,381.34c2.24-1.58,3.91,2.55.6,1.71Z"/><path class="cls-1" d="M165.71,386.15a5.12,5.12,0,0,1,3.2-4C168.73,383.63,167.86,387.52,165.71,386.15Z"/><path class="cls-1" d="M292.14,385.42c-4.22.75.06-4.86,2-2.17l2.06,1.31C294.84,384.94,293.48,385.16,292.14,385.42Z"/><path class="cls-1" d="M185.57,384c1.76-1.44,2.33,1.33,2.67,2.56a4.46,4.46,0,0,1-2.38-.87C185.78,385.26,185.64,384.41,185.57,384Z"/><path class="cls-1" d="M195.86,385.85c1.38-5,6.22-1.76.5.33Z"/><path class="cls-1" d="M284.78,387.25c-.36-2.89.92-1.46,2.14-.2l2,1.4c-.9.87-1.64,2-2.85,2.49C285.66,389.71,285.22,388.47,284.78,387.25Z"/><path class="cls-1" d="M200.75,388c2.21-1.4,3.45.88,4.71,2.36C203.44,390.92,201.9,389.47,200.75,388Z"/><path class="cls-1" d="M278.91,393.06c1.6,2.2,1.07-2.14,1.82-3.12.64.74,1.3,1.49,2,2.23-.77,2.23-3.11,3.21-4.8,4.63l-1.53.52c-1.23.16-2.47.33-3.69.53a37.28,37.28,0,0,1,3.43-5.73l.91.06C275,395,277.86,396.17,278.91,393.06Z"/><path class="cls-1" d="M228.4,393.33c2.41.82,4.89,1.94,7.43.89l.44.41L235,396.05l-1.12,1.2c-.85,0-1.7.07-2.55.07,0-2.41-2.49-2.1-4.2-2.47l-.11-1Z"/><path class="cls-1" d="M285.12,395.75c-4.15-1.48.21-3.54,2.94-.83Z"/><path class="cls-1" d="M237.53,395.88a16.64,16.64,0,0,1,6.58,1.11v2.1l-.85-.11A24.07,24.07,0,0,0,237.53,395.88Z"/><path class="cls-1" d="M249.1,397.29a22.15,22.15,0,0,0,9.1-.22l-.4.74-2.11,1.51c-2.32,1.13-4.88.6-7.19-.25Z"/><path class="cls-1" d="M260.88,397.17l.63,0c1.6.59,3.22,1.13,4.83,1.7v.89c-2.51.12-5,0-7.52.18l.17-.75A11.86,11.86,0,0,0,260.88,397.17Z"/><path class="cls-1" d="M267.07,399.08l1.17-2.54.83.22c.31.39.93,1.16,1.23,1.55A2.8,2.8,0,0,1,267.07,399.08Z"/><path class="cls-1" d="M204.17,398.25l.71.13C206.9,402.12,201,400.37,204.17,398.25Z"/><path class="cls-1" d="M211.19,398.07l.84.1c-1.28,5.65,2.45-1.29,2.42,3.1l-1.77,1.09-.71.2-.69-.54C211.23,400.7,211.2,399.38,211.19,398.07Z"/><path class="cls-1" d="M219.72,399.87q1.23-3.54,6.18-1.75l1,2.16c1.25,2.44-1.86,7.3-3.14,3.12,1.71-3.77.76-5.37-3.22-3.68Z"/><path class="cls-1" d="M215.86,401.44c1-3.46,3.73-1.08,1.13.92Z"/><path class="cls-1" d="M230,399.35c1.47-.42,5-.55,3,1.74h-.81L230,399.79Z"/><path class="cls-1" d="M240,400.15l4.13-.13c.61,1.35,1.14,2.7-.93,1.79-2.9-1.92-4.87,5.43-4.19-.56Z"/><path class="cls-1" d="M251.14,402.68c.32-3.82,6.54-.17.62.25Z"/><path class="cls-1" d="M243.18,402.84c.55,2.26,2.12,2.39,2.72.08C246.61,407.6,241,408.14,243.18,402.84Z"/><path class="cls-1" d="M259.53,403.25c2.34-.88,2.34,4.61,0,3.74A23.35,23.35,0,0,1,259.53,403.25Z"/><path class="cls-1" d="M279.09,405.83a18.9,18.9,0,0,1,4.55-3.18c-.52,1.23-1,2.48-1.45,3.75-.25.37-.74,1.12-1,1.49A4.17,4.17,0,0,0,279.09,405.83Z"/><path class="cls-1" d="M59.25,407c2.3-.87,4.19,1.68,2.11,3.33l-2.17-.82C60.58,409,60,407.84,59.25,407Z"/><path class="cls-1" d="M200,417c.72-2.18.84-4.88,3.11-6.09a10.69,10.69,0,0,1-2.2,6.32Z"/><path class="cls-1" d="M56.12,415.77c-2.44-3.91,4.87-4,.71,0Z"/><path class="cls-1" d="M16.3,444c-1.07,5.86-5.66-3.51.18-1Z"/><path class="cls-1" d="M43.88,446.15c-1.55-.1-4,.18-1.67-1.49,1.66.32,3.35.55,5,1-1.51,1.14-3.1,2.54-2.75,4.65C41.61,449.74,41.85,447.67,43.88,446.15Z"/><path class="cls-1" d="M28.87,451.31l.76-.17c1.16,1,6.47,2.56,2.69,3.32-.51,2.06,3.33-.13,3.81-1.43.55,2.84-1.37,4.8-3.94,3.05,4.16,4.46-9.43,5.44-6.32,1.84-4.5.64-3.78,4.1-5.72,6.94,3.91.93.69,3.29-1.92,2.31,2.06-3-4.16-5.17,1.72-5.27,1.45-4.21-5.27,1.38-4.93-1.76-.44-3.18,3.42-4.62,4.85-5.65C22.08,460.46,35.83,456.6,28.87,451.31Z"/><path class="cls-1" d="M0,453c2,.55,3.94,2,6.15,1.47C5.5,458.54.09,456.39,0,453Z"/><path class="cls-1" d="M38.42,453.41c4.37-1.26-2.27,7.85-2.28,9.73-2.35,1.24-6.27,3.72-4.3,7.07-6.08,1.6-3-10.37,1.93-7.22C34,459.27,37,456.67,38.42,453.41Z"/><path class="cls-1" d="M43.3,460.41c5.43-.24.83,1-.53,3.53C40.28,465.27,41,460.09,43.3,460.41Z"/><path class="cls-1" d="M25.24,463.26c4.61-2.26,4.39,6.58.47,6.52C22.05,472,23.15,464.46,25.24,463.26Z"/><path class="cls-1" d="M70.91,561.12l1.83-.12a3.53,3.53,0,0,1-1.67,2.41L70,562.31Z"/><path class="cls-1" d="M80.38,565.27c1.15-.48,2.29-1,3.45-1.43-.25.68-.73,2.06-1,2.75a4.45,4.45,0,0,1-2.81,1.1C80.17,566.88,80.28,566.07,80.38,565.27Z"/><path class="cls-1" d="M56.72,572.79a17.94,17.94,0,0,1,2-2.58,14.12,14.12,0,0,1,5,1.06c-.79.73-1.59,1.45-2.41,2.16l-2.35.45Z"/><path class="cls-1" d="M83.11,571.45a5.52,5.52,0,0,1,3-1l.22.83a10.83,10.83,0,0,1-3.08,1.89C83.22,572.71,83.15,571.87,83.11,571.45Z"/><path class="cls-1" d="M140.77,571.21a4.22,4.22,0,0,1,3.25-1C143.84,571.93,141.79,572.92,140.77,571.21Z"/><path class="cls-1" d="M144.8,570.23a137.34,137.34,0,0,1,14,.79,28.08,28.08,0,0,0,19.29,7.18l1.93.1c3.33,5.74,12.05,7.53,18.37,8.16,1.61.16,3.22.34,4.83.53,2.82.81,5.69,1.47,8.52,2.31,5.72,3.87,8.4,10.3,12.51,15.55,6.24,1,11.39,4.47,16.8,7.46-1.81-3.18-4.28-5.9-6.26-8.94l.93,0a3.3,3.3,0,0,0,4.1,1.76c3.37,5,10.27,6.54,14.47,10.83-3,4-10.18-7.58-9-.29,3.35,1.39,6.31,3.49,9.45,5.3l2.24,1.22c-.06.53-.16,1.59-.22,2.12-5.91-2.8-11.06-7.5-18-6.95-1.68-3.76-5.52-7.94-10.05-5.51-5.15,6.29-14.33,1.46-18.83-3.17-2,1.37-5.53,1.24-5-2,4.33.22,3.49-6.43,5.06-9.57.53-5-7.15-1.15-9.45-2.59a7.12,7.12,0,0,1-4.39,5.66c-1.27-1.25-2.33-3.07-4.38-2.64-7-.47-9.63-7.76-14.05-12C164.92,584.84,156.54,573.82,144.8,570.23Z"/><path class="cls-1" d="M54.59,574.79l2.79-.15c-.5,1.39-1.77,3-3.2,1.53l-.2-.8Z"/><path class="cls-1" d="M102.07,575.2c1.31-.4,2.63-.78,4-1.12.12.59.36,1.76.49,2.35l-.55.65c-2,.69-4.12,2-6.28,1C100.5,577.11,101.28,576.15,102.07,575.2Z"/><path class="cls-1" d="M75.77,577.45,78,576.09l2.13.23-1.46,1.6a7.48,7.48,0,0,0-2.24,1.84c-1.13.91-2.22,3-3.8,1.56l1.84-2.4Z"/><path class="cls-1" d="M91.13,579.27c.76-1,1.56-1.09,2.39-.13a8.52,8.52,0,0,1-2.22,2l-.3-.85Z"/><path class="cls-1" d="M115.61,584.06c-7.4,2.84-1.32-4.47,2.7-4.78C117.45,580.89,116.53,582.48,115.61,584.06Z"/><path class="cls-1" d="M71.39,582.88c1.72,3.37-4.33,3.76-3.32,7.38.17,1.71-.72,1.7-1.94,1-.06-.7-.17-2.11-.23-2.81A24.59,24.59,0,0,1,71.39,582.88Z"/><path class="cls-1" d="M85,585c.8,0,1.6-.06,2.41-.06q-1.08,2.25-2.18,4.51l-1.08.87-1-.1c0-.45.16-1.34.21-1.79C84,587.3,84.52,586.15,85,585Z"/><path class="cls-1" d="M44,587.67a3,3,0,0,1,2.06-2.76l.84.4,0,.75-1.2,2Z"/><path class="cls-1" d="M42.21,590.17l1.79.31c-.66,1.3-1.26,2.63-1.88,4l-1.24,1.16c0-1.09,0-2.19.09-3.26Z"/><path class="cls-1" d="M61.8,592.93a3.94,3.94,0,0,1,2.09-3.11c.32.49.94,1.49,1.25,2A7.47,7.47,0,0,1,61.8,592.93Z"/><path class="cls-1" d="M91.22,590.15l1.16,1.07a3.81,3.81,0,0,1-1.48,3.1L90,594A3.52,3.52,0,0,1,91.22,590.15Z"/><path class="cls-1" d="M107,594.19c2.18-3.65,2.21-.51,2.25,2.26-.08.39-.22,1.17-.3,1.55-.78,1.76-2.32,4.88-2.29,1C106.82,597.36,106.93,595.77,107,594.19Z"/><path class="cls-1" d="M114,596.23c.48-1.11,1-2.23,1.47-3.33,1,4,2.59,13.07,7.29,9.86,3.54,5.5,10.41,5.22,16.21,6,5.68-3.09,11.59.2,17.36,1.17.44,1.19.67,2.46,1.06,3.69,8.5,1.13,16.28,7,22.41,11.85,4.52-5.45,4.72,3.2,5.37,6.62,2.43-6.07,9-4.31,13.56-7.26,7-1.65,11.94,6,19.07,4.94,3.76-2,4.6-7.3,9-8.3,9.83-.7,13.91,9.69,22.27,12.56,4.65,2.72,10.82,2.55,13.69-2.54-3.23-.61-4.48-3.88-5.67-6.54,5.63,1.42,8.63,7,11.86,11.31,1.78,3-1.36,7.93-4.81,6.69-11.05-2.24-20.7-8-30.18-13.77-3.9-3.53-11.35,2.06-7.49,6.44,7.87,8.44,17.84,15,24.89,24.15,2.14,3.37-3.35,4.45-4.61,7.05-7.79-4.63-15.79-9-23.16-14.29-3.25-5.77-12-9.6-17.64-5.23,1.25,5.23,5.7,9.1,10.17,11.75l.94.88a9.89,9.89,0,0,0,6.2,5.07l1.65,1.19a39.18,39.18,0,0,0,5.17,5.9c1.41,1.25,2.87,2.45,4.34,3.65.76,2.48.51,5.45-1.74,7.11-3.58,2.95-7.15-1.77-10.32-3.2-10-10.54-25.26-16.55-31.91-29.46,1.52-5-2.12-1.74-4.67-.56-10.26-2-17.68-12-28.45-12.94-6.34,1.15-1.61-8.14-2.7-11.29-5.26-6.84-13.63-12.15-22.64-10.21-8.4,1.84-18.1-4-17.85-13.24l-.4-1.72A7.77,7.77,0,0,0,114,596.23Z"/><path class="cls-1" d="M305.27,624.94c1.29-.39,2.7-.63,3.83.32,0,.4,0,1.2-.05,1.6a22.21,22.21,0,0,1-3.84-1.2Z"/><path class="cls-1" d="M282.09,630.9c-.94-.51-2-1-1.42-2.25l3.27.44,1.8.23,3.44,1.62-3.44.37C284.52,631.16,283.3,631,282.09,630.9Z"/><path class="cls-1" d="M297.62,629.32c2.57.47,9.84,3.27,3.28,3A10.47,10.47,0,0,1,297.62,629.32Z"/><path class="cls-1" d="M306.28,639.1c-4.41-1.33.88-3.87.78,0Z"/><path class="cls-1" d="M128.83,642c3.29-.17,7,.42,8.82-2.81.19,3.63,4.18,2.73,6.64,4.12,2.51,9.93,13.28,15.78,14.43,26.15,4.87,12.63-9.19,20-16.24,28.08-5.21,4.33-10.33,12.07-17,12.48.19-.4.59-1.22.78-1.63a173.9,173.9,0,0,1,11.94-15.2c3.54-2.19-.19-8.17-3.47-5.46-2.52,2.32-8.24,5.5-6.87-.72.89-1.26,1.82-2.49,2.64-3.79,2.19-3.58,5-8.52,3.93-12.47-9.79-2.94-17.65,11-26.84,9.42,5.73-8.4,15-13.88,20.3-22.4,2.2-2.72,1.47-5.51-.33-8.13,1.94-1.64.6-5.41-2.14-4.72,1.55,3.92-3.41,2.1-3.61-.62l2.27-1C125.64,642.91,127.24,642.47,128.83,642Z"/><path class="cls-1" d="M113,647.24c1.28-.31,2.55-.67,3.81-1.06a33.09,33.09,0,0,1,4.15,2.12c.36,3-4.39,2-6.44,2.86C114.74,649.52,114.76,647.92,113,647.24Z"/><path class="cls-1" d="M102.26,653.39a32.08,32.08,0,0,1,3.82-2.07c-.12,1.92-1.88,4.8-3.9,2.81Z"/></g></g></svg>