<svg xmlns="http://www.w3.org/2000/svg" viewBox="0 0 367 559.98"><defs><style>.cls-1{fill:#d7b258;}</style></defs><title>Layer 7</title><g id="Layer_2" data-name="Layer 2"><g id="Layer_7" data-name="Layer 7"><path class="cls-1" d="M81.43,6c.84-4.85,6.51-2.71,9.34-6a41.64,41.64,0,0,1,2,6.6c-1.61,1.84-5.42,8.05-.45,6.6-2,2.35-6.07,2.41-5,7.09-2.17,3.08,2.91-9.52-2.08-6.37.07,3.9-1.64,4.63-1.56.34-5.07-1.9-4.77,1.56-3.63,5.62-1.53-2.93-5.55-5.77-4.19-.22l-.6,0c-1.84-2-5.85,2.26-3.39,4,1,1.71-1.93,5,1.28,5.73,3,1,1.44-3.1,1.89-4.79h.54c.2,4.69.12,6,3,1.8-.43,2.82-1.65,7.1,2.4,4.32,6.15-4.53-1.44,9,4.19,5l1.36.28c6,2.24-3.37-10.58,2.36-13.45-.05,2.87-2.78,8.32,2.07,8.37,1.22-1.68-2.34-20,.32-11.25,1.51-1.64,2.86-3.42,4.48-5,.54,2.46,2.68,8.34-.87,4,1.69,2.18-1.33,9.48,2.91,9.71-2.08,4.71,2.07,4.24,4.43,4.93,4.29-.72.92-13.38,6.19-9.15,6.63,4.63.17-16.3,1.55-1.43-1.22,4.26-2.66-19.56-3-4,.48,2.39-1.06,3.56-3.2,4,1.21-3.65,3.24-15-.58-6.77,2-.73-2.72-10-2.25-4.28.31,5.41-5-2.21-6.44,1.58-2.42,3.51-1.34-1.48-1.43-3.35-.46-5.72,6.92.14,6-4.77C96.5,6.25,96.76,4,96.93,2c2.93,1,6.9,1.64,5,6.47,3-1.5,9.55-3.39,8.08,2.1,1.08-1.89,4.23-.9,4,1.21.79,13.16-.66-1.42,4.08-.12-2.4,3.72-3.3,7,1.62,4.25-1.29,5.39,3.53,8.12,8.26,8.2-.87,4.62-3.91,9.08-7.48,12.16-4.09,2.22-3.56,6.43-.35,8.37-5-1.64-2.86,1.83,1,1.42-4.69,5,4.31,2,7,1.76-.9,3.3-4.44,3.13-7.21,4a8.92,8.92,0,0,0,6,3.33c.11,4.46-5.18,1.52-7.31.34-5.56,4.19-13.25,4.36-18.09,9.7-3.4,3.31-9.59,8.16-13.38,2.75.73,4.6-4.55,1.27-6.86.53C79.84,65.36,80,60.34,78,66.12l-.63-.56c-.32-5.19-7.18-3.11-10-6.48.17,4.53-4.39.43-6.52,2.55-2.42,2.69-4.13-1.44-4.87-3.48,3.3.21,3.28-2,2.21-4.42l.86-.15c3.3-.33,3.05,7.08,4.76,2,.83-3.89,2.74.79,1.69,2.56a52.14,52.14,0,0,1,6.69-7.4c-2.75,2-4.9.16-7.51,2.09-.88-2.75-4.8-8.12,3.28-5.14,4.27-1.93-5.09-.61-7.1-.3,1.4-3.75,3.36-7.33,3.87-11.37-.87-.94-3.89-2.16-1-2.47-1.69-2.2-7-6.24-1.41-6.45-.37-4.15,2.79-7.65,2-11.84,2,.67,1.91-1.13,2-2.65a25,25,0,0,1,2.9.92c.23,2.24-.72,3.54-3,3.5,1.25,1.93,2.78,3.4,4.29.77a6.56,6.56,0,0,0,.52-6.52c3.76,1,7.37-6.21,9.95-2.45-.1,3.72,1.11-.74,2.83.93,1.87,2.63,2.9-.55,1.19-2-.68-3.67-2.52,1.32-4.54-1.28C77.46,3.59,81.92,1.14,81.43,6Z"/><path class="cls-1" d="M101,16.66c1.13,3.81,6.45,10.5.15,13.09-2.58-3.28-1.27-8.2-2.17-12,4.55-.37-1.48,10.33,3.08,10A101.35,101.35,0,0,0,101,16.66Z"/><path class="cls-1" d="M84,19.71c4.31,2.29,1.89,7.34,1.76,11.14h-.61C84.87,27.12,84.35,23.42,84,19.71Z"/><path class="cls-1" d="M60.48,36.91c2.23-1.66,3.94,2.84,1.91,3.49C62.08,39.05,60.71,38.09,60.48,36.91Z"/><path class="cls-1" d="M55.7,51.67c1.24-1.73,7.38-3.05,4.44.28Z"/><path class="cls-1" d="M7.28,58c2.36-1.33,5.64.61,2.15,2.06,1.28,2-.11,10.85-2.68,6.08C.58,68.3,3.19,58.91,7.28,58Z"/><path class="cls-1" d="M359.32,65c2.2-1,3,.41,2.82,2.5,3.91-1.46,7.64,7.77,1.92,7.29-4.87-.14,3-7.87-2.4-5.49-2.82-.58-4.38,4.4-6.53,1.29C354.84,68,358.34,67.19,359.32,65Z"/><path class="cls-1" d="M87.87,80.08c2.72-2,5.78-.8,6.38,2.53,2.07,13-2.74,26.08-.22,39.16-3.41-4.64-1.47,3.34-.58,5.56-1.58,1.59-3.49,3.22-5.87,3.17-10.13,4.77,2-7.33-4.35-6.67-3.81,13.57,3.82-8.88-5-8-3,2.16-2.66,8.8-7.37,9.69-2.75.23-4.31,4.82-7.19,2.65C60,124,53.32,119.27,56.09,112.83c2-1.47-.15-5.84,3.2-4.44-1.74-2.5-7.07-1.64-4.47-6-5.55.4-.23-3.06-4.5-2.92-.14-.31-.42-.91-.57-1.22,3.26.62,5.5-2.06,8-3.67l.92.34c5.14.9,10.2,5.83,15.27,3.17-.39,2.71.15,5.54,2.92,6-1-2.23-3.52-7.18.16-3.45.32-2.41,1.54-4.44,4.12-4.88,0,1.84-2.53,6,1,4.32-.77,2.36-1.84,4.7-4.2,5.83,5-.43,9.18-4.6,8.19-10,3.24-.79.23,8.6,2.13,3,2.19-3.61-2-6.49-1.14-10.25l0-.49c1.63,0,2-1.54,1-2.62C88,83.73,88,81.9,87.87,80.08Z"/><path class="cls-1" d="M118.45,84.1c2.9-1.1,5,4.67.65,3.62C115.88,87.46,115.91,85.69,118.45,84.1Z"/><path class="cls-1" d="M51.09,92.94l1.83-.12C53,95.6,48.3,95.24,51.09,92.94Z"/><path class="cls-1" d="M122.08,96c1.14.33,2.29.64,3.44,1,1.14.91,2.5.24,3.63-.3,2.26,1.12,4.55.17,6.71-.68.92,0,1.85.12,2.78.13,3.54,0,7.21-.08,10.27,2-1.69,5.17-1.32,11.37-5.16,15.62-2.11.72-3.92-2.58-5.74-.9,2.72,1.19,2.43,3.22,1.52,5.58a9.14,9.14,0,0,0-7,2.69c1.88,7-4.79,11.12-8.66,15.78-8.09,3.32-6.17-5.6-9.81-9.12l-.32-.77c0-1.42.13-2.83.26-4.24,1.72-.41.54,4.29,1.54,2.52.71-4,5.19-2.18,7.69-4-5.17.29-5.09-3.66-.14-1.48a7.26,7.26,0,0,1-3.27-5.71c-3,4.39-6.83-.86-3.64-4,1.41-13.41-.12,4.5-1.53-1.87a15.36,15.36,0,0,1,1.45-9.79C118.62,98.94,120.78,98.33,122.08,96Z"/><path class="cls-1" d="M74.31,139.42c-3.72-6.16,2-4.3,4.65-4.73l.65.55c4.93,2.36,12,11.79,4.36,14.34l-.72.27C79.2,147.61,77.19,142.93,74.31,139.42Z"/><path class="cls-1" d="M79.24,155.91c6.24-2,3.32,9.39-.91,7.58C74.1,163,77.26,157.64,79.24,155.91Z"/><path class="cls-1" d="M85.82,156.66a32.46,32.46,0,0,1,5.49-.06C90.78,160.34,86.34,160.37,85.82,156.66Z"/><path class="cls-1" d="M83.79,172.53c3.24-1.69,7-1,10.5-1.1l2.51-.08c8.06.36,7.42,11.5-.53,12C89,184.7,82.92,178.85,83.79,172.53Z"/><path class="cls-1" d="M111.89,244.76c2.37.84,5,2.11,4.14,5.14C114.26,248.6,112,247.19,111.89,244.76Z"/><path class="cls-1" d="M97.21,248.73c1.27-3.07,1.85.82,3.25-1.53,1.78,4.36,6.37-1.73,3.5,4.48,3.81-4.06,5.38,3.16,5.43,6.22,2.9-2.4,3.16-8.79,3.86,1.12a53.48,53.48,0,0,0,3.42-8.3c1.82-.34.74,3.54,2,2.45,4.12-4.22-.65,8.74-2.72,3.7-2.2,5.32,5.9,1.75,5.71-2,2.74,2.94,6.33-.31,9.63.07-1.1,1.59-4.25,1.34-4.16,3.58,3.08,1.67,5.85,3.91,9.16,5.15-1.2-2.17-2.4-5.19-5.18-5.51,0-3.94,8.54-8.06,6.26-2.09,2.74-2,5.68-2.57,8.6-.46-1-6.06,2.34.11,3.92-5,2.61-2.37,19.43-2.33,12.59,3.77-3.18,3.4-6.13-7.56-5.86-1.73-7.79.32,1.75,1.21,3.58,4.5,3,.52,3.28-4,5.77-4.45-.19,2.33-.59,4.64-.67,7,4.77-2.24,1.65,3.35,1.78,6,1.84,3.69,8.26,6.52,3.85,10.65,3.33-.92,1.9,4,4.09,5.08l.87.45c.58,3.56-4.84-.27-7-.06,2.48,2.1,4.27,4.81,6.3,7.31-.6,2.79.55,7.95-4.26,5.92,1.28,2.18,5.74,4.11,2.21,6.78,4.69-.82-.27,1.57,3.05,3.73-4.45-1.73.17,2.81.46,4.88-3.34,1.18-5.69,4.14-7.47,7.07,2.07,3.11,5,.41,7.91.24-1.49,3-6,9.35-.5,10.42,5.84,1.07-3.71,5.72-5.47,2.69,2.33,2.06-.26,3.5,1.4,5.74-3.63,4.5-11.64,4.74-10.61,12.16-1.22-1.26-2.5-2.69-2.14.2-.61-.89-1.23-1.77-1.84-2.64v-.87c-.41-2.83,1.62.05,2.7.61-1.88-5.66,6.29-7.71,7.42-12.86-3.8,1.69-8.76-7-3.88-5.74,3.85-9.43-5.5-.5-5.82-5.85.19-4,8.47,3,5.5-2.62-.55-4.61-4.69-5.2-8.6-4.95,1.39-2.39.68-5.39,2.13-7.74-.8-1.73-3.33-3.38-.31-4.41-8.83,5-2-5.08-4.72-4.8,0,2.81-1.37,2.83-3.22,1.26,4.19-2.12-2.21-.47-.44-3.64,1.82-3.69-12.41-1.78,1.34-2.84,2.73.33-3.46-3.2.14-2.58,2.2-1.23,2.4-4.93,4.68-6.55-1.87-1.51-4,2.39-5.93.09.87-3.54,6.56-.78,4.08-4.56a8.51,8.51,0,0,0,2.56-4.25c2.12-5.87-4-1.65-4.28,1.71-4.07.07,3.72-6.75-1.25-6.78-5.78.11,0,10.24-6.8,7.83-.05-6.12-1.25-2.41-2.76,1-3.16-2.68.39-4.39-2.36-6l-1-.83-.86-1.31c2.24-1.56-1.63-4.2-1.56-1.05a6.42,6.42,0,0,0-.1,3c-.54,1.53,1.34,1.55,2.37,1.42-1.77,2.71,1.24,4.36,2,6.68a45.5,45.5,0,0,1-4.61,4.39c1.58-4.19-1.91-7.78-5.59-9.13.23,2,2.56,5.77-1.13,4.2.67,2.92,4.13,1.91,6.25,1.71.15,5.95-7.67-2.19-6,3.8,1.46,2,6.82-.72,9.19.21-1.32,2.89-4.66.62-7,1.87,2.61,2.55.59,5-.79,7.56,2.78,1.75-.14,1.87-2,2-.71-2.83-4-2.92-6.31-3.79,2.74,2.37,4.56,7.14.38,9.1-1.1-2.95-4.77-4.46-4.59-7.86,2.84-.78,1.4,3.72,4.24,3.05.12-4.16-3.92-5.37-6.36-2.13-1.74-5.86,10.84-.43,5.27-4.89,3.54.92,9.77-1.73,6.76-6-2.29.83-4.42,2.07-6.72,2.88-.67-1.94.55-6.22-2.82-4.72-2.64,2.39,1.61,4.28-.63,6.67-1.69-3.13-5.56.57-8.41-.5-3.44-1.05-2.83,2.82-2.65,4.93-3.3-2.49-5.56-8.79.64-8.67.66-3.32,10.55-1.9,5.75-5.59-2.81-2.13,2.06-1.05,1.84-4.16-3,7.17,10.69,2.46,5.63-1.27-2.82-2.14,2.9-1.65,2.6-4.63-3.07-.85-2.89,3.13-5.78,3.67-1.33-1.86-4.21-2.08-2.55-4.86-2.33,0-1.43,2.75-1.93,4.27-2.39-2.16-5.52-5.67-1.89-8.33-2.2,1-6,1.31-4.9,4.65,6.28.74-.79,3.69-1.29,7.4-5.26,1.64-.87-5.82-1.73-8.71-.43-2.91.82-1.38,2-.09.37-1.26-.81-4.29,1.48-3.47,2.85.87.72-6.64-1.65-4.78-3.86.86.27-2.51,1.29-3.65-2.7-.25-5.24.7-4.94,3.9l-.14,1c-1.59-.93-3.83-.9-2.38,1.42-.36,5.12,3.23,3.38,4-.39l.86.46a20.34,20.34,0,0,1-2.5,4.89c-2.37-.78-1.91.44-.86,1.91-.11.44-.32,1.31-.43,1.74-3.42,2.17-1.4-5.89-1.59-8-3.23,3.59-9.05,7.81-3,12-5.27-3.16-.41,5.63-4.93,5.13,1.55-3.33.34-4.79-2.94-3.15.93,1.89,3.41,4.82-.41,3.4,1.3,3.32,6.13,9.65.17,10.68a6.88,6.88,0,0,0,.91-6.95c-4.6-2.69-3.76,9.31-5.16,2.18-2.26-.23,2.37,7-2.58,4.7.45-2.45,1.18-4.82,1.72-7.24-2.8,1-2.21,4.85-3.6,6.81-2.45.42-3.67,1.9-3.52,4.48-2.5-.09-4.05-2.43-6.27-3.3l-1.52-.62c-2.21-1.35-4,2.61-.72,1.84.38,1,.71,2.08,1,3.16-2.23.58-5,.94-4.16,4,2.24.38,3.46-1.25,4.42-3l.91-1.14c7.12-2,6.06,6.92.74,9,1.32-5.21-3.14-3.92-6.25-2.35,3.47-.08,3.77,1.95.11,1.63,8.77,3.86-2.54.1-4,6.32h-.74c-2.08-1.46-4.28,2.48-1.37,2.69l.35.61c-2.6-.12-3.33,1.63-2.91,4a19.53,19.53,0,0,0,7.73.17c-2.2.95-.8,2.37.15,3.73-3.41.07-6.71-.89-10-1.76,1.42,2.33,2.65,5.11-.64,6.44-5.31-1.48-6.71,2.85-9.41,5.75,2.47.68,8-1,7.46,2.89,2.8.78,2.27-1.41,1.84-3.36,2.51.39.92,4.38,3,4.81,1.58-1.76,8.73,1.81,3.57,1.59-5.46.76,3.39.28,2.06,3.47-.62,1-.3,1.67,1,2l.1.84c-5.4-.07-6.75-2.24-11.52-3.62.75-3.06-2.22-1.39-3.93-1l-.66.05c-2.28-4.46-6.83-7.51-8.26-12.62a32.41,32.41,0,0,1,2.1-5.14c1.57,1,5.82,4.79,3.15.92-2.4-3,.84-1.51,2.74-.9,1.31,3.34,11.36,2.11,4.31-.1l0-.74c2.56.08,1.89-2.59,2.14-4.3-1.39,1.63-2.84,3.29-5.2,3.13a7.34,7.34,0,0,1,5-6.46c5,.86.91-6.09-.34-1.69l-1.87.06c-.25-2.77,2.1-3.14,4.2-3.74l1.16-1.15c2.56-1.62,3.78-4.22,5-6.88-3.16,1.48-1.71-1-.83-2.84,1.7-1.24,2.22-3.32,2.95-5.17l.62-1.35c-1.05-2.41-3.88-2.52-.69-6.11,3.33,1.5,2.79-1.75-.08-1.81l-.31-.92c3.71-.54,9.51-.05,5-3.75,5.87,2.64,1-3.55-2.1-2.7,1.59-1.22,3.16-2.5,3.83-4.46,1,1.9,7.47,7.62,5.31,3.42-4.58-5.15,6.84-6.58,10.08-6.47-6.43-5.33,9-2.92,3.26-8.11,4.65-1.92,9.53,3.23,8.8-4L93.81,253l.75-.24c2.18,2.49,2.75,2.07,1.69-1,4.18,2.84,4.72-2.66.34-2.24Z"/><path class="cls-1" d="M172.13,250.85c1-.24,2-.51,2.94-.82a1.89,1.89,0,0,1,1.85,1.69,13.57,13.57,0,0,1-4.8-.31Z"/><path class="cls-1" d="M171.93,252.89a33.14,33.14,0,0,0,5.8-.25c.4,4.83-9.84,8.49-10.86,2.19C169.71,257,175,257.76,171.93,252.89Z"/><path class="cls-1" d="M171,261.67c3.85,1.16,7,2.64,5.72,7.13l-1.66.09c-1.42-3.26-5.52-1.39-7.22-3.95C170.79,265.21,172.72,264.82,171,261.67Z"/><path class="cls-1" d="M174.19,271.08c-4.56-1.3-2.37-4.78.9-1.26l.59.4-.08.48Z"/><path class="cls-1" d="M96.21,271.91c2.69-1.48,2.43,3.39.15,3.28C93.6,276.93,95.87,273.14,96.21,271.91Z"/><path class="cls-1" d="M57.83,291c-1.64-2.09,1.86-2.82,3-1.36L60.22,291Z"/><path class="cls-1" d="M95.17,288.58c1.45.81,5.06,2.31,2.68,4.07C95.3,293.55,95.89,290.07,95.17,288.58Z"/><path class="cls-1" d="M81.39,293c4.45-2,4,5.35,0,3-.39,2.79-3.68,0-5.41,1.6,1.09-1.92.49-2.77-1-3.93C77.91,293.37,80.37,297.67,81.39,293Z"/><path class="cls-1" d="M89,294.8c7.29-.39-.75,8.05-.14,12C85.07,303,92,299.68,89,294.8Z"/><path class="cls-1" d="M135.18,294.85c2,.09.75,4.45-1.28,4.79,6.68.46-1,1.16-3.06,3.12,1.14-2.17,2.58-4.13.17-6.11C133.3,297.19,135.89,298.4,135.18,294.85Z"/><path class="cls-1" d="M108.2,297.18c2,.2,8.59,6.24,3.28,4.24C110.77,298.66,103,298.85,108.2,297.18Z"/><path class="cls-1" d="M74.33,298.72c1.91,1,1,3.27,1.73,4.92,3.3.46,7.33-7.62,4.58,1.56-1.49.94-4.48,5.36-.84,4.09,2.56-1.11,3.44,1.71,4.24,3.59-1.9-.29-4.28-4.31-5.27-.34-.89-1.67-2.38-1.71-4.55-.77.41-1.87-.13-6,2.83-4.2,1.24-4.16-3.21-.43-2.15-4.72-.59,1.9-6.74,7.66-4-1.23C73,305.88,73.75,301,74.33,298.72Z"/><path class="cls-1" d="M126.25,300c1.28,2.34,1.31.58,3.51-.39.63,3.08-3.8,4.75,1.34,4.25-1.9,1.66-4.83,2-7.18,3,.67-1.61,5.21-4.69,1.1-4.1C120.27,302.23,126,301.63,126.25,300Z"/><path class="cls-1" d="M153.44,306.1c2.23-1.5.76,1.19.7,2.38,3-.26,1,3.67-.91,3.46,1.83-2.67-2.14-2.65-2.4-4.93C152,307.44,153.15,307.68,153.44,306.1Z"/><path class="cls-1" d="M59.89,312c-.68-5.42,9.4-6.9,10.32-2.44l-6.38-.78c1.46,1.52,4.44,1.39,5.22,3.88-2,1-4.2.46-6.31.22,5.65-2.54-4.64-3.09,0,0,4.9,3.74-1.27,3.38-2.59-.26Z"/><path class="cls-1" d="M139.35,309.05c1.25-.79,5-1,4.55,1.23C142.55,310.26,140,310.3,139.35,309.05Z"/><path class="cls-1" d="M40.31,310.68l.69.26C42.34,314.94,37.25,313.15,40.31,310.68Z"/><path class="cls-1" d="M158.19,315.19c1.41-.61,3.5,1,2.92,2.61C159.76,320.34,158.47,316.26,158.19,315.19Z"/><path class="cls-1" d="M79.9,315.73c5.53-1.84.48,4.13,4.14,4.41-1.4,2-6.41,2.46-5.1-1.14C81.72,320.66,82.63,316.37,79.9,315.73Z"/><path class="cls-1" d="M137.29,319.08c1.91-2.51,5.3,3.33,2.16,2.4C139.16,319.93,136.19,320.93,137.29,319.08Z"/><path class="cls-1" d="M86,323.67c2.26,2.09,3.38,5.15,7.08,3C91.46,331.88,85,327.79,86,323.67Z"/><path class="cls-1" d="M72.52,325.07c6.44-.76-2.33,9.19.12,10.29,5.79-1.75,5-10.12,11.22-10.61,0,4,4.14,4.95,4.06,9.81-1.91,4-3.79-6.46-3.43-1.2,1.16,2.92-3.65-.92-3,2.62.34,5.48,6.35.15,8.79-1.18-.12,2.45-3.39,2.8-4,4.77,1.87,1.81,8.69,4.69-1,3.49.84,1.66,3.61,6.58,7.09,8.3,1.15,1.44,7.45-2.47,6.46,1.53-3.35.28-6.74.31-10.08.67l-.66.06c-.63-3.56-6.71-1.95-6.71-5.59-1.84,1.27-6.08-1.8-2.75-2.58-1.76-3.72-5.6-4.76-7.74-.72-2.36,3.88-7.15.55-10-1.41,1.69-2.66,6-2.95,2.57-6,1.45-2.16,3-3.28,2.57.32,5-1.09,2.13-5.26,3-8.5C66.48,326.13,73.13,328.78,72.52,325.07Z"/><path class="cls-1" d="M46.11,326.84c5.5-6.74,7.32,6.07,3.92,1.9C49.32,326.1,44.6,330.61,46.11,326.84Z"/><path class="cls-1" d="M53,326.72c1.6.09,4.88-.45,4.85,1.91C56.06,331.1,53.15,329.4,53,326.72Z"/><path class="cls-1" d="M60.3,327.07c1.78-.83,1,2.37,3.3,2.05C63,331.43,58.05,329.32,60.3,327.07Z"/><path class="cls-1" d="M56.26,333.83c4.29-1.68,3.64,2.86-.14.52Z"/><path class="cls-1" d="M90.88,336c1.58,1.24,5.16-1.38,4.16,1.75,1.27,6.5-14.11-1.59-1,1C94,336.8,90.18,338.7,90.88,336Z"/><path class="cls-1" d="M102.2,341c1.49.39,1.42,4,.15,4.39C101.84,344.14,100.41,341.9,102.2,341Z"/><path class="cls-1" d="M145.1,341.69c3.29,0,4.43,3.77,7.14,5.08-3.33-.46-4.53,3.09-2,5.15,0,.45,0,1.35-.07,1.8l-1.72.06q-1.62-2.14-2.84-.09a35.77,35.77,0,0,0-1.54,4.73l-.83-.22c-1.91-1.24-5.87-2-6.73.66l-.63,0-2.68-.1-2-2.47c.28-1.09-.71-4.72,1.12-2.72,2.79,3.7,7.38-1.32,10.39,2.18C144.46,350.91,146.79,347.2,145.1,341.69Z"/><path class="cls-1" d="M153,346.66a4.69,4.69,0,0,1,5-1.26v.87a56.39,56.39,0,0,0-2.21,5.33c-.75,1-.22,5.32-1.82,3.12l-1.89-.88-.91-.06-.94-.06c0-.45.06-1.35.07-1.8C150.08,349,155.05,349.28,153,346.66Z"/><path class="cls-1" d="M104.62,352.73c6,.93,12.5-2.16,16.7,3.49-3.36.16-6.72-.49-10.06.07l-.44-.41C109,354.42,106.53,354.07,104.62,352.73Z"/><path class="cls-1" d="M101.7,353.74l2.17-.94-.48,2.19-1.4.54C101.92,355.09,101.77,354.19,101.7,353.74Z"/><path class="cls-1" d="M124.45,355.88c.75-3,4.58-1.8,6.09-.06C130.1,358.65,125.38,358.08,124.45,355.88Z"/><path class="cls-1" d="M17.26,536.09c1.57-.14,2.69,2.23,2.74,3.7.44,5.11,9.24,4.77,9,9.77-5.7-1.13-5.4,9.11-11.81,6.62-.49,4.62-5.73,4.56-8.88,2.31.2-4-3.13-7.69-1.62-11.67-5.05-3,1.11,8.17-4.44,6.86-.92-2.88-4.94-9.63.7-9,4.42-.91,2.82-10.37,9.67-6.27C14.73,539.21,15.89,537.31,17.26,536.09Z"/></g></g></svg>