<svg xmlns="http://www.w3.org/2000/svg" viewBox="0 0 600 891.25"><defs><style>.cls-1{fill:#322128;}</style></defs><title>Layer 8</title><g id="Layer_2" data-name="Layer 2"><g id="Layer_8" data-name="Layer 8"><path class="cls-1" d="M582.31.53a4.77,4.77,0,0,1,4.38,0C586.4,1.92,582.58,1.92,582.31.53Z"/><path class="cls-1" d="M312.82,82.35c5.66.21,10.62,4.05,16.34,3.36,2.13.41,4.43,1.85,6.48.47l1.33.19c-.46,3.85,8.75,3.6,12.2,5.86-.22,1.68,1.63,2.23,2.94,1.85.89.41,1.78.83,2.66,1.28.74,1.35,1.51,2.68,2.35,4-2.56-.77-4.38-3.36-7.22-3.15.68,3.43,4.16,5.33,6.17,8,2.36,1.93-1.6,4.32-1,6.76,3.66,2.69,9,3.52,10.9,8.11-4.46,5.86-8.18-2.43-10.84-5.9-3.94-2.37-8-5-12.58-5.77-2.92-4.23-8.84-5.32-13.59-6.24.93,5.19,4.46,8,9.81,8.3-4.78,7.14,7.61,6.71,3.65,13.28-2.89,5.76,3.39,11,3.36,16.82,3,5.31,9.84,7.6,13.44,12.6-1.62,3-4.62,4.8-6.8,7.32,1.47,5.09-3.69,10.07.73,14.68,3.71,3.07.3,8.8,4.05,11.44,5.27-1.29,7.81,7.06,4.17,9.48-.58-4-2.2-2.46-1.1.75a26.76,26.76,0,0,0,11.82,1.93c.46,1.7-.38,2.29-2,2-1.12,3.73-.06,7.61.06,11.41-3-4.06-5.74,1.58-1.92,3.7-2.88-1.07-5.78-.73-7.06,2.35,1.31-4-3.27-5.82-3.48-1.2-.86,4.63-8.84,13.77-.76,14.29,2.2.95-.95-4.39.78-2.75,3.7,2.43,4.56,9,2.53,11.67,2.79-7.17-4.65-2.31-6.11-7.15,1,2.91,1.29,5.83-1.66,7.61-5.24,4.1,10.89,9.64,2.88,8.77-.07,3.42-6.12,6.1.32,6.66-.77-5,5.35-7,5.1-1.11-2.77.75-3.85,3.77-6.64,4.49-.56,3.08,4.4,3.05,6,4.91a15.29,15.29,0,0,0-6.1,8.8c.45,3.51,3.76,5.62,5.94,8.1-.08,3.54-6.94-1.07-5.84,3.74,1.82,3.14,5.25,3.95,4-.91,1.66,4.85,5.38.16,8.86.93l.85.08c1.81,4.32.82,4.35-2,1,.43,2.91,3.71,8.06-1.19,8.5-3.53,1-3.3-4-5.49-5.64-1.95,2.75,1.76,9.26-1.95,9,1.55-13.81-2.74,4-2.31-4.82-1.88,2.28-6.33,3.75-1,4.51-2.19,3.48,1.4,3.82,3,5.58-2.41,3.8-3.34,11.87,3,11.55a25.57,25.57,0,0,1,9,1.59c.25,3.29-2.52,6.35-5.64,7.13.32,3,3,7.39,6.1,4.14,10.82-.63,5.39,16.24,14.36,20.16,2.55,2.87-1.48,2.78-3.75,1.21-1,5.14,7.28,4.13,10.11,2.24,2.42-2.13,7.2-3.52,6.17,1.09-1.68.25-2.4,3.7-.32,3.56,5.65-7.59,5.56-19.45,7.53-28.9-.19,3.8,4.58,2.18,5.11,5.37s-.4,6.58-1.31,9.76c.86,3,3.87,4.73,5.53,7.27a37.23,37.23,0,0,0,2.47,23.5c3.91,1.81,3.37-3.7-.16-3.22a32.5,32.5,0,0,1,1-7.4c2.5,1.55,7.2,2.55,4.38,6.16-2.28,3.58,6.67.15,3.77,3.93-2.57,4.28.1,9.37,4.69,10.76.26,1.4-.6,5.74,1.37,2.77-.52,2.81.21,4.61,2.2,5.42-1.79-4.73,8.15.36,3.77-7.13-.07-2.4-1.76-4.75-.16-7.08,2.16,0,4.12,1.55,6.29,1.08,2.11,1.2,4.06,2.66,6.07,4-.81-2.44,1.81-2.43,3.47-3l2,1.17a7.17,7.17,0,0,1-3.75,6.94c0,3.85,3.94.81,5.67,2.82,3.68,4.37,10.17,7.39,10.48,13.76,5.34,5,10.85,11.07,16.24,16.55-1.11-3,.91-3.11,1.6-.34-4.21,1.56,2.25,4.08,2.09,7.07a4,4,0,0,0,.74-5.16,10.23,10.23,0,0,1,1.75-.46c2.26,3.37,5.84,5.42,9,7.81l.45.62c-.25.26-.73.79-1,1.06-3-3.93-12.93-3.3-9.4,3.83-.53-4.63-6.28-13.95-13.91-12.68-6.43.16,1.31-10.34-5.81-9.14-1.29,2.6-5.34,3.62-5.05,6.7,7.45,2,13.53,6.81,20.54,9.71-.46,3.39-1.22,7.08-5.45,6.82.32,2.15.67,4.37-2,4.81,1.29-2.94,0-8-3.59-4.57-3.43-.59-7.44-1.95-9.72,2.58,4.26-3.91,5.3,2.6,9.57,2.47,4.72-3.5,7.9,7.81,3.68,2.56,1.09,3.07-2.84,6-1.55,1.57.29-8.48-4.41,7.36-7.17.19-.3-1.33-.82-1.64-1.54-.92-1.64,3.16-5.82,2.17-8.67,1.36.75-4.08-2.38-2.95-1.28.4-6.42,2.06-14-1.17-19.68,3.49-1.12,1.28-1.78-.44-2.52-1.16-1.23-6.55,6.51-1,9.19-5.06,3,0,6.66-2.92,9-.17-1.4-5,6.2.74,5-3.45a6.34,6.34,0,0,1-6.24-2.28l.35-.69A15.49,15.49,0,0,0,464.78,432c1-3.39-5.15-1.39-5.8-4,3-1.25,5.81-2.91,9-3.29,0-2.26-3.14-1.08-4.6-1.65-4.45-1.51-9.23-1.4-13.74-2.6.58-4.29,7.59-4.67,6.36-10.13-3.72-5-11.37-4.56-17-2.76l-.86.1c-3.34-2,2.82-.33,1.3-2.77.57-5.33-5.5-3.6-7.91-.93-5.73,6.18-12.09,11.76-19.73,15.46a30.16,30.16,0,0,1-4.93,1.84,2.58,2.58,0,0,0-2.65,2.12l-.32.74c-2.85-1.38-6.55,1.2-8.79-1,.52-4.28,2.07-8.46,1.07-12.84-6.12-10.82,6.52-.25,4.06-6.14,2.24-10.07,3.85-21.39,8.44-30.16-.48-7,.3-17.4-5.61-21.7-3.44,8.7-1.61,18.42-5.06,27.23-.09,2-1.26-.92-1.82-1.26l-.28-2.73c.28-3.93,1.14-7.9.72-11.82-2.52-3.14-5.34-2.15-7.65.6-2.64,1-9.25-3.44-8.37,1.65,2.33,5.09-4.88,9.74-2.83,15.39-3.44.22-2.34-5.35-3.43-7.2,1.3-3.24,5.4-5.51,3.6-9.87-2.39-.57-3.31.77-3.22,3-2.06-2.72-3.14-6.51-7.1-6.79-4.15-5,2.32-6.18,5.36-7.62-3.08-1.81-6.13-5.18-10-3.81,1.48-3.82.31-7.45-2.34-10.39-3.56-5.28-3.89-18.55-12.68-15.37-5.9,2.91-6.06-7.83-9.66-9.08.58,3.24-.47,6.18-4.31,4.93,1.16-4.6-5.41-1.27-.64.23-1.08,1-2.14,2.08-3.26,3.06,2.52-12.79-3.72,2.57-6.48-2.6-4.3,2.21-11,12-10.56,2.36,2.64,9.57-4.18,1.77-8,3.55-3.09-6,3.46-7.28,7.75-8.58a14,14,0,0,0-2,5.23c5.58-7.23,14.07-11.33,22-15.43,3.15-.55-1.21-5.45,1.16-6.55,5.3-1.52,5.61-7.88,6.54-12.47-1.37-9.77,3.85-18.86,3.21-28.63-2.17-20,8.51-38.84,6.84-58.64-6.17-13.2-.08-29.42-7.49-42.49-6.72-3.66-4-13-9.27-17.78-6.92-5-6.42-15-14.53-18.46-.84-9-6.92-19.1-15-22.87l-1.8.2c-1.55-2-9.71-5.16-5.06-7.41,2.34-1.83,1.15,2.29,1.61,3.56,1.47-6.76,9-2.67,13.89-3.91C325,92.07,311.25,87.47,312.82,82.35Z"/><path class="cls-1" d="M357.93,99.71l2.25-.77,1.08.15c.18.56.53,1.7.71,2.27A6,6,0,0,1,357.93,99.71Z"/><path class="cls-1" d="M363,102.32a5.67,5.67,0,0,1,4,1.84C365.08,105.74,363.24,104.66,363,102.32Z"/><path class="cls-1" d="M369.13,107.34l.79-.31,1.3,1.49-.28,1.58A2.75,2.75,0,0,1,369.13,107.34Z"/><path class="cls-1" d="M372.79,111.53l.68-.18c1.17,1,2.35,2,3.57,3l.67,1.93-.72.29A15.38,15.38,0,0,1,372.79,111.53Z"/><path class="cls-1" d="M378,118.37l2-.58a25.21,25.21,0,0,1,2.2,5.35C380.08,122.33,379,120.33,378,118.37Z"/><path class="cls-1" d="M382.88,123.54l1-.17a39.45,39.45,0,0,1,3.15,6A10.09,10.09,0,0,1,382.88,123.54Z"/><path class="cls-1" d="M387.89,130.32c3.87,4,5.81,9.27,8,14.23C390.06,144.41,390,134.8,387.89,130.32Z"/><path class="cls-1" d="M211.76,144.11c8.87-3.81,4.48,8.52,4.66,13.5.33,3.52-6.35,8-.36,8.94a47,47,0,0,1-.76,5.68,5.22,5.22,0,0,0,0,4.05l-.33.52c-1.1,1-.33,2.48.19,3.59,0,.65.11,2,.15,2.6.52,3.81.53,9.62-3.33,11.84a5.28,5.28,0,0,0-5.3-.09c-5,.15-9.48-5.76-6.48-10.46,2.23.13,4.09,1.46,5.82,2.75-1.46-8.86,6.79-16.64,2.13-25.09l1.35-1.52c0-1.3,0-3.9.07-5.2-.27-1.67-.49-3.34-.8-5-.14-.32-.4-1-.54-1.29.65-1.15,1.28-2.32,1.85-3.51Z"/><path class="cls-1" d="M355.31,166.53c3.15-1.22,6,1.63,8.66,2.81,2.28,5.89-9-.47-4.1,8.09C358,173.76,348.45,170.19,355.31,166.53Z"/><path class="cls-1" d="M407.1,194.26c1.56,1.26,1.28,3.39.63,5.06C406.49,197.9,406.63,196,407.1,194.26Z"/><path class="cls-1" d="M0,194.74c.45,1.46.86,2.93,1.33,4.39,2.71.25,1.45-4.94,4.61-3.9-.24,2.66.6,6.21-2.08,7.89-1.69,2.95,3.56,6.89.71,9.63-2.84,1.93-1,6.41-4.57,2.28Z"/><path class="cls-1" d="M408.09,205.26l1.31,1.16c-.15,1.59-.37,3.18-.6,4.77C408,209.37,406.62,207.12,408.09,205.26Z"/><path class="cls-1" d="M206.44,207.42c2.37-.4,5,2.64,6.73-.1a36.38,36.38,0,0,1,1.72,10.3c0,2.73,0,5.51-.06,8.25-1.38,1.95-.17,3.83.94,5.54.41,3.13,1,6.23,1.37,9.37-1.79.91-.6,3,.88,3.41l.16.69c-1.48,2.36-1.72,5.31.94,6.92.48,3.52,1.89,6.85,2.13,10.42-.66,2.17.26,4.27,1.55,6l.33.72c.88,7.55,3,15.3,9.15,20.33a48.68,48.68,0,0,1,5.51,6c4,4.45,7.06,10.39,13.09,12.1l.28.75c1,2.07,2.75,5.43,5.25,5.31.71.41,1.41.83,2.12,1.26,3.27,2.45,4.68,14.15,4.83,2.29,1.47,1.66,2,4.62,4.48,5,.05,2.2-1.22,4.86.84,6.53.23,1.83.4,3.67.57,5.51-5.37,4.24.09,9.61-2.46,15.06-1.32.83-2.76,1.06-3.55-.52-.43,4.32-5.07,5.73-6.47,9.58-.65,5.48-6.76,4.27-7.52.08.31,6.46-7,9.61-12.56,9.85-1.31,8.37-13.54,11.2-13.51,18.44-6,7.37-12.12,14.74-17.27,22.67-9.33,8-11.75,20.64-14.56,32-.15.81-.45,2.42-.59,3.22q-3.58-3.3-1.76,3.91c.28,5.55-5.37,10.6-2,15.91-4.22-1.86-2.45,1.1-1.5,3.74a28.17,28.17,0,0,1-4.39,4.41c-1.65-2.47-.15-4.84,1-7.13-7.77,5.32-10.4,15.52-11.76,24.43-2.12,4.37.26,8.84,1.07,13.17-2.42,2.21-4.82,5.86-3.18,9.16,1.31,5.37-.85,11-.25,16.48,2-1.58,1.22-4.93,1.52-7.29,3.43-.65,3.16,3.07,4.15,5.22,1.66-5.25,8.19-8.93,6.65-15.89-1.67-4.51,6.8-12.13,7.14-5.06-1.51,2.65-1.34,5.59-.63,8.46-2.34,3.47-4.59,7.61-1.72,11.46-4.84,0,2.74,7,.35.76-1.16-4.58,6.12-6.55,2.45-10.79-.88-3.68,1.34-5.28,3.9-2.37,1.18-5.06,4.76-9,7.53-13.18-1.18-5.52,6.84-6.2,6.06-11.11,4.42.51,4.7-6,8.38-7.38l-.24.68a29.64,29.64,0,0,0-1.77,7.89l-.64.62c-1.13.92-1.59,2.36-2.28,3.61-3.89,3.3-3.41,10.1-6.23,14.44.1,3.91,2.26,7.57,2.53,11.53l-1.67,2c-1.92,1.27-2.34,3.36-1.28,6.26a24,24,0,0,0-1,4.83c-1.38,4.2-3.43,9,.67,12.24.62-4,2.43-8.48,0-12.15.62-.87,1.2-1.76,1.72-2.67,1.62-1.59,5.08-8.82,1.28-7.81l1.31-1.52c3.23-2.28,10.58,1.47,7.88-6.06-1-5.64-1.36,4.09-4,3.11.55-5.35,1.75-10.6,2.36-15.94l1.28.84c4.48,6.66,4.05-8.29,9.45-5.92-.68,4.95-3.78,9.15-5.08,13.94-4.62-6.62-.19,17,.09,6.95-.14-3.43,1.92,4.61,1.82,1.22-.84-3.65,2.7-4,2.26-.24,2.8-5.17,3.69,7.2-.21,5.66,1.27,2.31,3.56,6.78,1.89,11.23-5.19,2.79,4.93,18.19,2.13,6.28-2.58-6.45,5-9.24,9.3-10.55,1.46-.73-1.19-5.79,2.53-5.75.3,8.67-8.62,20.06,1,26.27,3.53-5.22,7.26-15,14.95-12.1,1-1.66,1.69-3.46,2.79-5,1.23,2.92,1.43,6.68,3.36,9.1.35-2.11,1.16-13,2.08-7,1.11,5.49,0-4.09,3.6-2,.89,3.49-.47,6.75-1.56,10,4.31,7-6.24,10.84-7,17.12-1.9,1.63-5.69,7.74-.67,6.32-4.69,2.76-6.95,7.6-6.85,13.15-3.83,2.53-.76,6,1.23,8.6a97.46,97.46,0,0,1,2.31-10.83c1.54,1.9,9-.34,4.15-1-1.46-1.2-6.1-4.5-2.37-5.24,3.09,3.87,4.8-3.61,6.94-5.08,3.37-.16,1.53-6,5.24-5,.61,5.54-5.14,9.12-5.57,14.5-.93,11.44-.88.73,2.6,1.49-.64,9.4-12.9,15-11.91,25.07,2.09,4.67-6.1,4.61-6.6,8.61-.06,2.91-6.72,1.57-4.73,4.68s5.71-1.48,8.79,0c.84-4.94,7-3,9.52-6.3,2.84-3.18,8.2-4.79,8.22-9.72,3.74,1.49,1.83-3.42,4.66-4.33,8-4.43,13.45-12,19.08-19-5.22,2.15-5.58-.48-4-5-4.19.36-2.73,4.32-2.22,7.18-2.19.05-4.1-3.43-6.12-1.49-2.7,1.65-.08,4.75-.12,7.17a15,15,0,0,1-4.49,5.14c-2.56-1,1.34-6.31-1.9-4.78,2.06,4.64-2.36,11.11-1.61,4-6.47,3.22.34-9.71-.41-2.34,1.93,4.66-.09-5.34-.64-7,5.21-2.9,9-10.45,16-12.44,2.57,4.63,6.76-6.25,1.65-4.09-3.17,2-9.28-1.67-3.78-3.5-.43,6.67,7.28-.56,1-2.17,2.52-3.36,2.79-9.9,8.38-9.37,3.48.19,4.87-11.75,5.21-4.27,1.37,3.94.59-6,1.93-1.9-.25,3.78,1.24-1.21,2.55,1.34,2.94.88-1.86-15.63,2.38-10.58.26-1,.51-2,.74-2.94,1.47,4.1,1.58.26,1.64-2.09.75,5.6,1.85,3.31,2.91-.92l1-.83c2.51,1.74,2.82-2.53,3.61-4.14.11-5.36-8.42,6.06-3.4-4.5,1.15-5.26,6.45-7.69,10.63-10.35,6.29-2.66,11.78-7.11,18.57-8.54,1.91-2.23-1.63-.63-2.79-.68,4.33-5.55,10.08-5.27,14.14-11.07,1.6-1.05,3.27-2,4.95-2.93,5.46.54,7.23-6.49,13.15-5.39-1.17-7.86-14.44,6.11-15.26-1.14l.84-.45a61.32,61.32,0,0,0,17.81-11.5c2.07-2.92,5.42,2.63,4.76-2.19,9-4.62,20-8.18,29-13.67,5.58,1,10.33-3.67,15.92-1.56,3,.88,5.75-1.67,8.83-1-.12,2.54,1.5,3.57,3.86,3.65-.7,2.82.9,7.83-3.09,8.36-3,2.74-3.32-1.12-6.67-.27-9.29-.06-21.68,2.17-24.93,12.28,1.38,1.64,2.64,4.74,5.24,3.37,3.71-1.63-2.53,3.84,1.25,3.28.9-2.1,1.82-4.25,4.46-3l1,.15.68.13c.37,3,.9,6,1.16,9-2-.23-3.25.41-2.8,2.55l-.67.68c2.67-5.09-7-7.37-5.59-2.76-5.82,1.38-3.78,11-7.62,14.08-3.13-.38.46,1.64,1.48,2.17.28,10.69.46,1-2.14.11.42,2.33-1.68,4.51-.53,6.74,2.49.09,6.17-1.87,3.22,4.74a52.28,52.28,0,0,1,4.59-8.81l.69-.62c3.1-1.37,4.22-.32,5.58-4.85l1.76-.17c.3.54.91,1.62,1.22,2.15.33,2.82.23,5-2.32,2.25q-3.37,3.71.21,5.5c3.48.34,7,1.12,5.37,6.41,2.55-.62,5-2.83,7.12,0-1,2.58-2.92,2.56-1.81-.41-3.88.88-1,7-5.65,7.31-3.6,0-4.11,4.64-.16,3.89-3.48,3-1.1,10.24-6.92,10.22-.72-4,5.5-6.18,2.91-10-2.57-1.09-6.19,5.92-4.34.39.29-3.56,10.21-6,3.77-6.59,2.07-3.19,2.92-9.32-2.19-6-1.06,6-4.23,12.73-6.31,19a24.12,24.12,0,0,0-1.24,3.12c-3,1.91-.85,10.91-4.53,6.12-2.38,5-2.52,9.82-5.76,14.26,4.66-.31,6.09-5.31,8.9-8.24-3.46,1.41-3.68-.16-1.75-2.74,7.32,3.82-1.55,11.76-1.3,17.43,6.65,4.66,9.4-10.27,16-5,3.06-1.17-.45-8.22,2.55-10.92,0,1.92,3.18,7-.7,5.54-.68,3.51,3.33,5.26,2.4,8.65,3-1.62,7.84-1.84,8.92-5.54,4.35,1.46,10-1.71,9-7,12.4-1.76,17.45-15.83,30-18.38-.95,6.5-7.86,8-12.86,10.5-4.46,5.22-12.48,8-13.06,15.49-1.05-4.07-3.51-2.63-4.71.46,6.19-.84-1.63,11.58-5.56,6.3-3.16-3.1-.42,8.45-5.66,6.68-2.44-3.32-5.31,2.75-4.69-2.68-2.63,1.74-4.22,3.72-1.81,6.08-4.62,6.47-16.26,6.49-18.7,15.37-3.82,2-4,10.81-9.26,7.66-2.72-2.13-2.44,2.19-3.37,3.84-3.42,1.26-3.16-3-3.51-5.2,7.18-.21-.13-15.82,5.15-10.7-1-2.67-4.14-7.75-.37-9.23,1.85-.25,2-3.26.19-3.68-3.9-3.59-3.06,5.08-6.77,1.87-.09-7.93,5.21-15.43,3.68-23,.56-1,1.17-2,1.79-3-.6,3.13,1.86,3.29,1.51.09,4.47-.28,2-5-.35-.65l-.75-.1,0-.91.87-1.33c3.53-2.31,8.57-4.85,6.46-9.9a13.79,13.79,0,0,1,7.76-1.67c-.56-2.23-2.3-2.27-4.17-1.58.71-2.6,5.44-9.92.52-9.29-3.25,1.21-3.49,5.8-7.38,6.08-1.33-2.14-2-7.62-5.51-5-2.57.89-2.15,7.27-4.71,3.44a21,21,0,0,0,0,9.75c-3.8-3.73-3.31,1.31-7,.78l-1.23-.79a10,10,0,0,0,.1-6.71c-4.21-1.67-1.45,4.75-.91,7a6.78,6.78,0,0,0,.73,3.82c1.44,4-3.7,5-3.28,8.68.11,3.78-5.31,2.84-2.43,7.26-6-6.32-1.83,9.44,1.82,2.92,1.59-4,2,.74.13,2-2.87,1.89-.79,5.77-2.41,8.47,2.07-5.66-2.88-7.82-5.27-11.41.56-3.17,3.09-12.9,6.81-8-1.14-3.45.2-6.78,1.47-10-2.6-3.32,1.65-7.37.59-11.11-1.75,3.39-2.15,7.85-4.66,11.12-1.52-2.33-1.83-6.74-5.53-6,0,2.15,1.55,3.85,2,5.9-3.65,2.52-8-2.67-4.48-5.76,2.44,4.71,2.51-3.13-1.16-.94-2.18,7.64-6.44,14.38-9.59,21.62-4,2.36-3.18-6.69,0-6.48,1.05-7.15,7.19-12.7,7-20,2.73-2.93,4.69-6.42,7.12-9.58,2.74,1.07,2-2,.31-2.72a46.39,46.39,0,0,1,6.17-9.69c4.12-.08,9.26-2.67,8.86-7.39-3.11,6.61-2.49-2.1-.72-5,.55,1.39,1.06,2.81,1.7,4.18,2.65-.7.58-5.59,4-4.63.37-2.74-4.39-5.86-.4-7.54.9,2.11.75,8.45,3.09,3.89,1.94-4.42,6.54,2.65,9-1,1.81-3.32-.06-8.07,3.65-10.37,1.63-3,3.56.61,5.46,1.46,1.59-2.8-.71-8.72-1.76-2.82,1-6.57-7.72-4.25-6.47,1.43-3.52-.56-9,0-10,4.23-2-3.14-1.18.6-3.09,1.41.45-3.27-2.56-6.25-5.31-3.48-1.46,9-15.73,1.42-17.32,10.34-.3,2.19-1.83-2.38-2.52-.57-1.35,1-2.89,6.31-3.82,2.77-4.32.89-2,6.19-5.65,7.76s-1,5.57.06,8.08c.38,3.55-4.93,3.16-5.29,6.47-3.46-1.55-11.52-3.23-11.95,2.08,4.74-.62,1.21,4.17-1.79.63-3.32,4.84,2.67,6.76,4,11-.13-2.83-.78-5.59-1.06-8.39,1.46,1.88,2.13,4.78,5.83,3.2-1.79,3.76-2.24,8-3.63,11.87-8.93,2.63-9.46,16.31-13.28,23.93-6.27.73-9.44,8.21-11.48,12.13a7.84,7.84,0,0,0,1.22,4.07c-.07,2.86-1.05,3.09-2.77,1,.79,5,6.18,7.8,4.75,13.83-2.71,2.38-2.8-1.67-4.24-3.27-1.66-.55,1.44,11.76-1.91,7.24,0-2.6,2.09-8.93-1.68-6.15L301,594.22c3.43-9.68-4.43-3.3-2.45.06-7.95-3.23-1.32,3.91-3.39,8.31,3.7,2.11,5.38,1.15,4-4.26,5.24,4.58-4.05,9.29-4.07,14,3.87-8-4.75-4.89-5.33-1.37.05,2.44-5.47,4.23-1,4.94a53,53,0,0,0,2.63,7.9c3.74,7.41-10.74,4.42-7.81,11.31-4,1.39-10.41,13.42-2.37,10.55-.48,5.2-5.27,2-6-1.49.62,10.79-3.68-8.38-8.5-2.3-5.72,1.86-4.38,7.44-3.82,12.15-4.71,2.87-4.81-6.66-3.86-9.8-7.18-1-1.27,7.09-1.91,10.3-1.83-.93,0-5.73-2.68-2.89-2.48-1.74-4.56-3.29-5.15.8,1.39-5.14-4.27-5.34-6.2-1.58,5.26-.26,4,5.93,8.95,5.61,0,3.23-9.12,4.62-4.17,8,2.92,2.67,1.35-1.3,1.09-3.15,3.43,4.17,7.5,4.82,12.66,4.19,1.53,9.52,14.77,8.86,15.25,18.94l-.95,0c-2.11-1.62-4.1-3.39-6.18-5,.49-1.72-1.39-2.54-2.76-2-1.63-.67-3.21-1.41-4.78-2.19.28-2-1.84-2.62-3.32-1.85l-1,.06c-2.83-.84-5.7-1.5-8.52-2.31-1.91-2.11-4.75-2.54-7.42-2.89l-2.84-.94a3.5,3.5,0,0,0-3.26-1.91l-1.63-.23c-.77-2.23-3.16-2.47-5.09-1.71L226.84,662a4.73,4.73,0,0,0-4.83-1.69l-1.72-.23c.09-1.93-2-2.37-3.39-1.67-4.1-.84-7.86-3-12.07-3.29a137.34,137.34,0,0,0-14.05-.79l-.78,0a4.22,4.22,0,0,0-3.25,1c-2.19.32-4.37.68-6.56.94.8-4-2.7-2.46-5.16-2.12-1.84,0-4.06-.19-4,2.21l-2.37.88c-.85-.7-1.69-1.41-2.59-2-3.22.86-5.31,3.4-6.93,6.15l-1,1c-4.33-3.8,4.24-9,6.08-12.9,2.88-3.92-4.48,3.35-2.61-.53,1.17-2.13-1.82-1.15-3-1.47,3.17-2.09-1.82-3.81-1.63-.54l-.75.44c-1.45.57-2.88,1.16-4.31,1.76q-1.4.43-2.76.9c1.63-5.3-3.95-4.72-7.2-4.95-1,.49-1.91,1-2.85,1.54a7.81,7.81,0,0,0-4.14-.29,24.34,24.34,0,0,0-5.2,1.63c-1.16.45-2.3.95-3.45,1.43l-2.17.48a8.58,8.58,0,0,0-5.28-2c.58-.61,1.18-1.21,1.79-1.79,2.41,2.07,4.54-.5,6.58-1.75,1.15-.41,2.29-.82,3.44-1.21,2,4.39,9.93-4.06,14.34-2.46,2,2.39,3.37-2.08,5.94-2a15.23,15.23,0,0,0-8.75-4.68,18.92,18.92,0,0,0-2.1-.29,10.64,10.64,0,0,0-7.43-1.26,47.93,47.93,0,0,1-5.84-1.18c2.76-4.34,9.31-2.62,13.4-1.31-2.57-5.36-10.4-1.44-15.26-2.55-3.34-.27-6.62.57-9.93.85a4.37,4.37,0,0,0-3.29,1.1,71.86,71.86,0,0,0-8.24,2.65l-.63.14c-1.31.31-3.14-.34-4.06.86-.6.63-1.18,1.28-1.73,1.95l-.75.14c-2.64.17-5,1.38-7.44,2.35-2.29-2.75,3.57-4.24,5.2-6.12l1.21-.83L97,629.49c2.07-2.51,14.44-5.72,6.79-6.55,1.48-.78,4.67-4.54,4.21-.73-.58,5.47,9.51-1.16,1.87-.07,1.71-1.64,3.82-3.45,1.94-5.84-6.08.79-11.08,5.58-17.48,4.48-2.56-.53-1.6,3.16-1.65,4.67-3.89,1.52-8.14,2.5-11.54,5,.2,6.35,5.54-6,5,1.82a5.12,5.12,0,0,0-2.42,1.91,7.68,7.68,0,0,0-3.81,3.14l-2.37.85a23.27,23.27,0,0,0-1.57,2.53l-.43.75c-.61-4.19-4.23.27-.37.72q-1,2.13-2.12,4.17a27.26,27.26,0,0,0-1.64,2.77q-1,2-1.92,4.16c-1,2.2-1.61,4.54-2.4,6.82l-.88,2.25c-.69,2.7-3.17,8.68,1.56,6.71,2.15-3.51,6.51-6.61,4.65-11.14,2.57.63,2.88,2.9,2.55,5.2-.33.53-1,1.58-1.35,2.1-1.25,1.84,3.58,4.39.66,6.15-4.81,1-3.83,6.42-2.61,9.86-3.24,3.45,1.17,11.09,5.7,8.35,4.25-.41,8.12-2.57,12.29-3,1.89,2.53,3.7,5.14,6.35,7,.28,1.38-.19,3.13.94,4.22,1,2.34,2.68.44,4-.53,4.82-3.14,4.88-9.69,8.27-14,1.56.5,1.71,2.41,2.22,3.73,0,1.86.13,5.59.17,7.46.58,2.47-1.95,6.88,1.29,7.77,3-7.24-2.19-17.53,3.92-24.12,4.34-4.77.51,4.67-.55,7.47,2.71,0,4-2.59,5.72-4.21.08.48.23,1.42.31,1.89.54,3.46-4.45,2.09-3.33,6-.34,3.26-.72,6.61-1.32,9.86-2.08,5-.8,7.59,3.18,4.86.59-3.85.58-7.81,3.28-11a35.33,35.33,0,0,0,1.59,3.28c1,2.24,2.9,4.36,5.42,4.86,4.6.41-3,8.41,2.7,6.92,5.25,1.19,4.72-5.57,6.41-8.81,2.86-.35,5,2.56,5.88,5,1.45,4.92,4.67,8.57,7.14,12.83,1.11,4.09.29-4.48,1.71-.64,2.68,7.54,12.82,7.72,18,2.72,1.71-2.55,7.55-2.15,5.93,1.83-2.89,2.09-8.52,2-8.81,6.5l-2.27,1c-1.66.66-3.32,1.27-5,1.85-1.26.39-2.53.75-3.81,1.06l-.85-.07a2.51,2.51,0,0,0-3.2,1.86c-.94.76-1.9,1.51-2.84,2.29a32.08,32.08,0,0,0-3.82,2.07c-.35-3.43-5.53-5.55-1.24-8.66-2,.09-2.59-2.7-4.6-2.39-1.23,2.62-2.07,5.49-3.87,7.8-1.11-4.14-11.85-12.13-10.68-4.16-6.21-.21-7.48-7.67-13.33-8.37-.67-1.85-1.07-3.88-2.55-5.28-2.73,2.4-6.87,1.41-8.92,4.63-2.51-3.46-5.75-.89-8.13,1.18A10.59,10.59,0,0,0,83.14,721c2.37-5.15-5.44-3.7-6.18-7.81-2-6.2-10.78-9.39-8.14-16.74-3.89-3-2.95-11.48-8.65-11.21-2.3,7.64-6.54,14.58-3.21,22.14-1.8-1.74-5.8-9.59-4.42-3.25-2.54,2.34,1.82,4.1,2,6.61-1.59,1.44-2.77,3.48-4.7,4.49-3.53.22-7.12-5.06-10-1.12-1.42-2-1.43-4.58-1.92-6.92-3,.57-3.56,3.44-4.43,5.87-3.47.56-7.42-2.41-3.6-5.22-2.43-2.42-6.19.25-3.73,3.1,1.74,3.22-2.79-.16-4-.86,1.84,3.88-4.47,5.28-5,9.95-1.72,4.16,1.88,5.39,4.84,3.14,0,5.63-6.55,6.76-5.81,12.34.22,3.87,3.13,7.06,4.41,10.65-3.86.92-5.23,5.27-3.8,8.71-4.63-1.59.11,6.25-3.45,7.82,5.29,2.33-1.06,4.76-2.37,7.58-1.31,4.32-7.49,2.5-8.77,7.11a95.23,95.23,0,0,1,3,26.59c1.59,3.23,4.23-4.1,6.76-.82,4.26,1.89.38,3.56,3.22,6.54-6.49-.6-9.15,9.06-15.25,8.85v-66.4c3.94,3.42,2.21-3.95,0-5.47v-8.53a25.91,25.91,0,0,0,2.25-3.09c3.4-4.73,11.08-6.72,10.47-13.53-1.18-1.83-4.21-4.11-1.57-6.15,3.35-2.23-2.29-3.28-2.5-5.79,0-12.88-1-25.92.27-38.86,3.16,1,1-2.76,2.11-4.4,2.85-6,9.39-10.27,9.72-17.41,1.06-2-1.65-.49-1.82-1.82-2.23-4.05,2.17-8,.39-12.18-.32-2.72-2.68-6.77.74-8.43,2-1.82,4,.81,5.84,1.55a96.75,96.75,0,0,1,10.23-19.48l.81-1.23c1.55-3.41,3.23,4.37,4.93.68-.06-3.19-2.21-9.23,2.89-9.41,2.56,0,7-.36,4-3.65a10.72,10.72,0,0,1,3.71-4.5c1.36,2.87,1.57.3,2.27-1.41,4.21-1.37,7.51-4.37,11.07-6.89a2.82,2.82,0,0,0,3.36-1.65c3.28-.85,4.57-3.75,2.08-6.28a3.36,3.36,0,0,0,3.17-.75c2.57-1.87,3.2-6.67,7.23-5.87,3-1.14-1.17,4.5,2,2.33-2-6.19,5.31-6.1,7.08-10.38,2-4.25,5-8.93,4.08-13.68l.88-1.6c.42,3.52,3.86-2.83,6.91,1.22-2.28-7,9.75-7.77,9.4-15.08-3.07-1.62.08,3.87-3.7,1.59-4.4-5.22,6.86-16.62.26-19.5,1.46-3.11,1.2-6.71,2.9-9.8-3.57-3.08,2.48-5.45,4.11-1.7,3.48-6.72-7.8-13.08-2.93-21.11.27-.91.55-1.81.84-2.71,2.73,2,3.45-4.06,4.85-5.84.66-1.29,1.27-2.6,1.87-3.91,1.43.38,3.33-.41,2.82-2.18v-.86l.83,0c1.58,1.69,3.59,0,3.22-2l2.07-.85c7-2.19,9.64-10.07,11.88-16.38.38-.9.75-1.79,1.11-2.68,6.46-6.73,11.69-15.11,19.33-20.74,2.48-.54,2.17-3.24,2.88-5.13a31.07,31.07,0,0,1,7.91-1.72c-4.51,3.48-8.8,8.31-8.28,14.41,4.07-.19,4.63-6.3,8.89-6.35-.66,1.41-1.4,2.78-2,4.21,7.62-3.23,12.07-11,19-14.19-.88-4.2-.49-8.72,2.55-12-2.09-4.15-.67-11,2.47-4.52q3.16,1.94.57-4.24l.4-1.18c2.34,2.56,3.3-1.6,1.57-3-.82-1.65-2.67-2.22-4.1-3.2.72-2.66,3.3-4.68,2.76-7.66-4.12.36-7.46,6.72-9.82.75-2.43-2.1-2.28,5.8.21,3.22,2.36,7.05,3,16.54-3.52,21.71,1.71.41,3.46.76,5.15,1.3a6.6,6.6,0,0,0-3.21,5.95c-2.31-4.29-3.6,3-7,0,2.6-3.57-.14-10.33,4.94-11.45A26.88,26.88,0,0,0,180.29,387c1.44,14.43-4.17-3.58-3.6,5.44-1.54-3.51-4.41-7.93-.77-11.15,1.5-2.88.91,2.22,1.41,3.28a42,42,0,0,0,2.72-8.74c-4.7.84-6.69-2.67-7.79-6.54a4.27,4.27,0,0,0,.45-4,41.62,41.62,0,0,1,3.46-5c5.49,3.6,9,9.8,14.69,13,.79-2.21,1.45-4.61,4.26-3.3h2.81l1.23-.41,1.91.46c2.18,0,1.17-3.41-.68-3.15l-1.35-.13c-.38.39-1.15,1.19-1.54,1.58-.81-.73-1.63-1.45-2.45-2.16,0-.42,0-1.24,0-1.65,2.71.32,2.78-4.46.21-4.47.22-2,.51-4,.6-6-.31-4.89,1.71-9.87,0-14.64,3.23-8.57-1.23-18.44,6-25.33-1.13,14.86,6.38-1.85-1-3.54-6.89-1.47-1.05-10.24-4.27-14.71-.14-6.72-8.23,8-4.27-4,1.83-2.18,4.19-4.15,3.94-7.3-2.41,2.35-5.53-.73-8-1.53,3.11-5.82-2.32-6.56-3.74-10.6-2.18,1-.75,3.41-.74,5.2-4.4-3-1.19-12.4-5.88-12.75a3,3,0,0,1,1-2c3.22,1.81,2.88-10.11-.77-4.58.52-3.06-1.16-5.49-2.84-1.85-.25-.52-.76-1.56-1-2.08l-.06-.88c1.64.51,4.8-.91,2.66-2.68,2.43-1.23,1.67,2,3.31,2.65,2.12-4.19-8.68-6.72-1.2-7.25l.55.1a2.08,2.08,0,0,0,2.78-.06L183,246c2.53.84,7.06.46,7.26,4,3-3.36,5,3.45,6.51,5.5-.88-4.18.71-8.43-1.65-12.24.94-2.29,7.35-5,6.87,0,1.06,5.75,5.36-5.37,8.92-2.48,1.59-5.29-11.2-.5-6.5-6.11.7-4.91-4.31.93-4.82-2.32-.37,3.06-5.69,6.17-4.43,1.15,3.66.19,2.28-1.72.66-3.67,0-.42.08-1.25.11-1.67.11-1.41.34-4.22.45-5.62C203.42,220.4,203.53,213,206.44,207.42Z"/><path class="cls-1" d="M395.21,215.39c9.48,1.94,7,12.47,10.67,18.72-4.48,3.14-2.56-4.44-5.61-6.13-3.43-2.67-.27-8.66-4.93-10.12C393.76,217.47,393.93,216.06,395.21,215.39Z"/><path class="cls-1" d="M8.06,218.58c2.87-2.17,3.22,2.17.26,1.47C8.25,219.68,8.13,219,8.06,218.58Z"/><path class="cls-1" d="M6.93,221.86c-3.15,6.48-3.76,0,0-2.76C6.89,219.79,6.91,221.17,6.93,221.86Z"/><path class="cls-1" d="M366.9,220.33c2.45.46,7.14-.18,6.16,3.67C370.29,224.45,368.24,222.54,366.9,220.33Z"/><path class="cls-1" d="M0,227.88l1.16,1.4a13.89,13.89,0,0,0-.06,5c-.28.58-.83,1.72-1.1,2.3Z"/><path class="cls-1" d="M383.33,229.57c1.62.65-1.28,5.4-3.14,6.71C378.91,232.92,379,229.75,383.33,229.57Z"/><path class="cls-1" d="M181,230.31l.93-.18c.06,2.05.14,4.11.17,6.17.81,3.93-2.86,5.61-1.16.82.08-1.23.09-2.46.05-3.68C181,232.65,181,231.09,181,230.31Z"/><path class="cls-1" d="M370.39,231.56c4.25-3.93,2.88,4,3.63,6.81-2.43-4.51-2.48-.78-6-2.1,2.22,3.61-1.26,5.92-1.16.93-1.72,1.37-1.32,4.4-2.24,6.38l-.56-.61c-2.17-1.42.11-3.2.92-4.68-.61-1.64-3.38-1.62-3.14-3.78C364.84,235.11,370.3,235.8,370.39,231.56Z"/><path class="cls-1" d="M377.36,230.6c1.7,1-.28,3.81-.72,5.28C375,235,376.14,231.78,377.36,230.6Z"/><path class="cls-1" d="M375.58,239.6c-2.36-3.8,4.1-2.77,3.61.5-5.32-1.07.77,1.05,1,3-3.58-2.58-3.1,3.17-.87,4.89,3.08,1.66-1.33,7.41,3.66,6.36-2.74,2.53-8.08,0-10.7,3.85-.2-3.47-1.33-.7-2.26.78l-1.31-.62c.65-5.25,9.81-6.75,6.39-12.5-.2-.84-.42-1.68-.66-2.51C372.51,239.82,377.93,243.76,375.58,239.6Z"/><path class="cls-1" d="M179,241.67l1.43,1.48-.92,3-.55-.1c-.06-.73-.16-2.2-.21-2.94C178.83,242.77,179,242,179,241.67Z"/><path class="cls-1" d="M418.83,242.4c.77-.65,2.71-1.92,3.07-.2C421.33,244.14,419.56,244.4,418.83,242.4Z"/><path class="cls-1" d="M170.12,245.5c-2.41-3.12,1.78-1.85,3.41-1.09C173.51,245.85,171.09,245.18,170.12,245.5Z"/><path class="cls-1" d="M413,243.23c3.85,1.38,6.53,4.44,6.17,8.75-3.09-1.26-3.38-.23-1.7,2.31.18,2,.41,3.94.57,5.92-.1,2.64-.19,5.28-.26,7.94a30.82,30.82,0,0,0,.2,4.07c.06.8.17,2.38.23,3.18l-.34.8a2.87,2.87,0,0,0-2.95.69l-.63.44c-.2-2-.26-4.2-2.13-5.42,0,1.84-.1,5.52-.14,7.36l-1.1.79c-.91-5.4-.56-10.84-.61-16.26.52-6.94-6.14-13.39-2-19.58,2.54.82,1.86,5.05,4.64,4.94C413.83,247.26,413.32,245.2,413,243.23Z"/><path class="cls-1" d="M25.88,249.27a5.89,5.89,0,0,1,4.35-4.82c-.12.39-.37,1.18-.5,1.58C29.24,247.9,27.54,248.66,25.88,249.27Z"/><path class="cls-1" d="M370.21,245.42c3.42-1.1.51,4.06,1.61,6C370.18,250.13,367.62,247,370.21,245.42Z"/><path class="cls-1" d="M426.6,245.48l1.06-.12c1.46-.11,2.92-.22,4.38-.31l1,.37C431.06,246.21,427.45,248.84,426.6,245.48Z"/><path class="cls-1" d="M363.3,252c-3.25-3.36,2.58-4.73.55-.14Z"/><path class="cls-1" d="M425.22,251c-2.47-.5-5.66-.83-2.36-3.11l.82.25a3,3,0,0,0,3.47.32c1.37,0,2.74.05,4.11.17-1.24,1.34-3.1,1.71-4.67,2.51Z"/><path class="cls-1" d="M389.06,249.27c4.24-1.85,3.5,5.84,1,.81,0,1.79-.08,5.36-.1,7.15C386.52,257.76,389.66,251.39,389.06,249.27Z"/><path class="cls-1" d="M363.85,251.9c1.18-.62,5.43-.06,3.42,1.6-1.16.87-4.61.7-4-1.46Z"/><path class="cls-1" d="M419,253.36c2.71-2.18,4.92-2.51,4.27,1.73-4.21,1.43.63,4.14.63.31a33.37,33.37,0,0,1,1.08-3.66c.36,1.22.77,2.42,1.23,3.61.17.51.52,1.52.7,2a5.38,5.38,0,0,0-1,3.71c-1.26,1.27-6.57,2.05-3.13,3.62-1.18.92-2.43,1.74-3.67,2.57,0-1.75,0-5.26-.05-7S419,255.08,419,253.36Z"/><path class="cls-1" d="M29.69,254.44l2.31.11,2.16,2.1c-.57,2.22-2.2,10.08-3.24,4.1C33.79,258.3,31.47,256.53,29.69,254.44Z"/><path class="cls-1" d="M167,256.06c-4.17,1.69-4.41-2.23-.1-.68Z"/><path class="cls-1" d="M403.06,255.12c3,.75,1.56,5-.06,6.2A61,61,0,0,1,403.06,255.12Z"/><path class="cls-1" d="M21.89,257.11c4.79-3.19,2.18,7.07-.69,8.28.59-4.37-3.81-1.1-2.19-6.26,2,3.27,2.12,1.16,2.1-1.67Z"/><path class="cls-1" d="M363,257.22a5.7,5.7,0,0,1,4,4.13C365,259.62,362.12,260.72,363,257.22Z"/><path class="cls-1" d="M25.12,264.44c-1-3.12.22-9.29,3.08-4.13C27.14,261.65,26.1,263,25.12,264.44Z"/><path class="cls-1" d="M370,259c2.79,3.15-4.37,1.59-1.31-.62Z"/><path class="cls-1" d="M428.18,258.21c1.57-.06,3.14-.15,4.71-.28.19.42.55,1.27.74,1.69-4.05-2.28-3.78,2.14.15,1.79,1.18.24,2.11-1,3.37-.29l-1.25,2.41c-3.76-1.31-3.87,2.75-6.27,2.52a16.62,16.62,0,0,1,2.2-3.95c-1.81-.17-4.87,1.92-5.36-.82A20.51,20.51,0,0,0,428.18,258.21Z"/><path class="cls-1" d="M444.89,262.76c-1.6-1.8,1.55-2.59,2.86-2.73A3.41,3.41,0,0,1,444.89,262.76Z"/><path class="cls-1" d="M372.3,261.53c4-1.9,3.44,4.24-.41,2.93,1.05,2.73,4.17,2,5.14-.33.49,3,0,5.09-3.22,3.31,2.81,3,2.74,6.33-1,2C373.64,265,360.27,261.25,372.3,261.53Z"/><path class="cls-1" d="M391.4,261.5c2.42-.9.51,3.28.27,4.41C390.24,265.43,390.63,262.59,391.4,261.5Z"/><path class="cls-1" d="M12.76,265c.71-1,1.38-2,2.06-3,1.31,6.37-1.34,11.91-6.29,15.91-2.55-4-5.13,1.26-6.52,3.48,0,7.29,8.52,12,4.32,20,.75,2.74-1.88,8.06.57,10,.1-3.29.07-6.52.37-9.79a28.54,28.54,0,0,0,.83-8.57c.82,3.32,4.77,3.11,6.55,5.55.85,7.82,10.37,12,6.7,20.85-1.78,3.22-1.09-4.77-2.35-1.14.36,3.75-2.36-.32-3.82-1,0,2.45-3.36,9.82,1.36,7.4,4.24-4.08,5.72,6.44.56,5.58.42,5.08,3.22,1,4.25-1.59,5.75.36,1.21,11.72,6.61,6.71,4.11,3.8-1.42,9.74-5.72,6.28,1.72-3.3-1.19-4.66-4-5.59-4.69-.53-10.7,8.1-2.64,5.87-2.24-4,5.15-4.62,2-1.25.87,2.52,3.62,5.63-.35,6.76l-.55.37c-.43.23-1.28.71-1.7.95-2.81,1.33-7,5.68-3.28,8.25-4.23,1.1-7.88,3.63-11.73,5.6V266.86c1.61-.41,2.76-4,4.33-2.61C4,265.6,3.05,267,3.4,268.43,4.29,275.09,10.91,267.64,12.76,265Z"/><path class="cls-1" d="M445.32,263.48l2.71-.15-.8,1.88-1.9-1Z"/><path class="cls-1" d="M382.3,264.57c3.12-.19-4.48,9-3.31,3.7C378.37,266,380.75,265.35,382.3,264.57Z"/><path class="cls-1" d="M155.16,267.39c-5.12-2,3.49-3.66.73-.23Z"/><path class="cls-1" d="M167.2,267c-.49-2.9,4.79-1.54,1.42.29Z"/><path class="cls-1" d="M363.19,265.25c4.76,1.55,3.15,11.51-1.94,12.94-.18-2.64-4.62-5.41-.88-7.54C362.86,269.82,363.21,267.6,363.19,265.25Z"/><path class="cls-1" d="M418.92,272.17l1-2.33,2,1.57A4.93,4.93,0,0,1,418.92,272.17Z"/><path class="cls-1" d="M367,284.12c-6.71-4.37,5.47-9.44,6.14-11.88,2,3.55-.59,10.85-1.93,13.91,1.1-3.12-2.69-6-3.36-1.95Z"/><path class="cls-1" d="M422.38,273.33c1.29-.37,2.52-.9,3.79-1.36l.89,1.15c-2.74,1.34-8,1.94-4.11,5.49-2.4,2-1.12,5.15-1,7.77-1-1.42-1.93-2.89-2.88-4.33l-.24-6.82C418.9,273.29,421.1,273.91,422.38,273.33Z"/><path class="cls-1" d="M37.69,274.71c.38-1.52,2.08-1.38,3.28-1.78C43,279,41.68,275,37.69,274.71Z"/><path class="cls-1" d="M414.29,277.33l.63-.44a16.85,16.85,0,0,0,2.76,1.27,15.85,15.85,0,0,0,.72,3.86c.66,2.44,3.06,6.49-1.23,4.57,1.6,3.33-3.17,12.13,2.67,9.79-.72,2.33-1.41,7.51,2.48,6.42,3.26,1.58-1.87,6.79,1.49,9l1,1.66a41,41,0,0,0-.88,5.05,17.9,17.9,0,0,0,2.75,2.89c.3-2.34.65-4.47,1.39-1.06-.5,3,2.36,3.36,3.85,1.23a58.62,58.62,0,0,1,6.9,1.85l-2.72-.06c-1.79.21-4-.09-5.25,1.47-.71,1.49-1.19,3.09-1.8,4.63l-1.46.56c-5.11,1.12-2.76,11,.6,14,3.13.23,1.64-5.85,4.88-5.65-.12,1.43-.28,2.86-.32,4.29-3.27,4.46,6.37,12.49,6.25,5.56.92,3.8,4.76,3.84,7.75,2.65,7.79,7.48,21.33-1.23,27.44,9.44-.18.41-.52,1.23-.7,1.65-3.8,4.22-5.21,10.6-11.68,12.06-1.93.35-3.73,1.12-4.19,3.23l-1.85.13-.75-.06-2.13-.83c4.61.49,2.15-2.09,0-3.79-2.5,1-7.23,3-8-.5-2-2-2.23,1.19-3,2.58-3.65-2.85-1.9-7.75-1.93-11.58-3.86,3.45-8.33-.27-6.1-4.81-4.14-6.71-7.27-14.43-12.77-20.21-3.45-2.87-6.14-11.84.58-12.1-1.67,6.26,3.16.67.07-3.17,2.34-2.45-1.14-4.89-2.58-6.83.16,3.21,1.57,10.82-.62,4.35-2.47,1.63-10.13,1.42-4.46.56-2.35-3.49-1.13-7.62-2.35-11.39-.13-2.45-4.83-8.68.24-9.36,3.46.88,1.46-6.51-.08-6.73-2.4-.44-4.77-1.07-2.55-3.57.49-4.52-5.12-2.53-4.81,1.22-4.6-.34-4.35-10.07.54-8.05l.6.21c3.85,4,2.7-1.13,5.23-3.22l1.1-.79C414,280.83,414.28,279.25,414.29,277.33Z"/><path class="cls-1" d="M380.14,278.3c2.07.31,4.71,4.94.87,4C378.06,283.35,378.62,279.49,380.14,278.3Z"/><path class="cls-1" d="M445.31,280.53a4.71,4.71,0,0,1,4.38,0C449.4,281.92,445.58,281.92,445.31,280.53Z"/><path class="cls-1" d="M27.21,282.59c1.4.65,4.23,10.05-1,9.67.66-3.4-6.26-3-3-7.91C26.48,286.21,25.23,285.82,27.21,282.59Z"/><path class="cls-1" d="M437.05,283.23c-1.32,3.56-4.32,1.18-2-1.3Z"/><path class="cls-1" d="M438.27,282.23c5.5-1.31-1.64,5.32-1.22,1Z"/><path class="cls-1" d="M377.24,283.57c4,.86-1.15,3.47-3.38,3.6C373.64,285.1,375.68,284.26,377.24,283.57Z"/><path class="cls-1" d="M130.11,286.48c5.28-1.78,5.3,2.3,0,.57Z"/><path class="cls-1" d="M422.44,292.19l.36-4.71C426.25,287.93,423.41,290.63,422.44,292.19Z"/><path class="cls-1" d="M434.21,289.34c-.8-1.53,1.78-2.95,2.87-1.76A3.62,3.62,0,0,1,434.21,289.34Z"/><path class="cls-1" d="M181.06,288.18a2.45,2.45,0,0,1,.12,4.14A7.86,7.86,0,0,1,181.06,288.18Z"/><path class="cls-1" d="M373.34,292.52c2-.83,1.65,3.15,1.44,4.34C373.23,296.7,372.26,293.79,373.34,292.52Z"/><path class="cls-1" d="M438,295.13c-1.22,2.8-4.23-1.7-1.7-2.24A2.18,2.18,0,0,1,438,295.13Z"/><path class="cls-1" d="M40,295c.66-.06,1.32-.11,2-.14-.54,1.48-2.09,6.16-3.37,2.63Z"/><path class="cls-1" d="M401.19,294.49c1.48.39,1.42,4,.15,4.39C400.82,297.61,399.4,295.37,401.19,294.49Z"/><path class="cls-1" d="M405.45,295.63c2-.76,2.61,9-1.35,8.65C403.4,301.26,402.08,297.39,405.45,295.63Z"/><path class="cls-1" d="M98.16,298.41a5.3,5.3,0,0,1,3.84.06l0,.66a8.09,8.09,0,0,1-3.79-.06Z"/><path class="cls-1" d="M359,298.2c2.82.72,4.24,5.36,8,3.07-.85,2.19-1.92,5.92-4.71,5.79C359.14,304.4,360.65,301.26,359,298.2Z"/><path class="cls-1" d="M377.22,298.4c2.8-.39-1.71,8,.84,11.84-4.87,1.55-5.8-3.85-5-7.72C376.06,302.88,375.83,300.15,377.22,298.4Z"/><path class="cls-1" d="M117.15,300.78c1.47.38,3.64-.94,4.6.66C121.33,303.17,116.57,302.91,117.15,300.78Z"/><path class="cls-1" d="M30,301.27c.49,1.27,3.25,7.33,5.3,3.27,2.52,2,12.83-.33,6.75,4.76-2.21,7.36-2.8-.13-5.65.38C33,306.43,27.14,308.18,30,301.27Z"/><path class="cls-1" d="M47.08,304.46c4.7.26,13.14,6.08,7.43,10.31-.88,2-1.11,4.28-1.73,6.41-6.1.38,1.27-10.48-2.73-8-.95,5.92-1.35-3.94-4.17-1.11C46.69,309.6,45.89,306.64,47.08,304.46Z"/><path class="cls-1" d="M114.16,305.06c2.72-2.86,5.28,1.21.54.48Z"/><path class="cls-1" d="M132.51,304.67c4,.09-3.57,3.46-4.56,5.69C126.79,306.73,130.71,306.66,132.51,304.67Z"/><path class="cls-1" d="M191.05,306.61c3.19.42,9.35-2.89,6,4.64,1.5,8.34-2.39,6.85-1.06,0-1.53-3.95-.89,4.12-1.09,6.17C191.81,314.63,192,310.36,191.05,306.61Z"/><path class="cls-1" d="M404.12,306.38c2.89.79,3.39,3.2,3.93,5.95C405.88,311,401.83,309.4,404.12,306.38Z"/><path class="cls-1" d="M529.18,311.37c1.55-4.77,4.34,2.07,0,.58Z"/><path class="cls-1" d="M28.25,310.6c3.31,0-.67,3.64-.49,5.5C26.39,315.21,24.91,310.44,28.25,310.6Z"/><path class="cls-1" d="M184,310.23c2.4-.19,1.94,2.66,2.74,4.19l1.59,1.57c.55,1.6-1.32,2.44-2.11,3.54l-.14-1a31.64,31.64,0,0,0-1.88-7.55Z"/><path class="cls-1" d="M404.06,312.27c3.62-.8,2.05,5.83,0,7.11A54.41,54.41,0,0,1,404.06,312.27Z"/><path class="cls-1" d="M375.15,313.65c1.9,2.11,7.19,3.18,2.53,7.28-1.89,1.56,1.89-6.18-.82-2.84C375.1,323.72,371.12,313.4,375.15,313.65Z"/><path class="cls-1" d="M443.21,315.69c-4.16-.61.45-3.16,1.62-.54Z"/><path class="cls-1" d="M389,315.14c2,1.23,2.07,4.11,2,6.25C388.48,320.34,389.5,317.23,389,315.14Z"/><path class="cls-1" d="M445.91,316.48l2.18,1.27.52,1.6a2.58,2.58,0,0,1-3.1-2.21Z"/><path class="cls-1" d="M442.18,322.29c1-2.38-5.06-4.74-1.75-5.07a6,6,0,0,0,4.4.5c.59,1.26,1.29,2.46,1.94,3.68-2.47,2.18-3.9-5.11-4.09.48Z"/><path class="cls-1" d="M38.52,323.85c.35-7.69,10.73-2.65,9,2.49-.78-3.71-2.7.24-2,2,1.05,4.17.79,8.43.71,12.69,2.49,1.54.09-2.32,2.41-1.78l1.12.72c6.61,1.95,1.23,8.25-3.26,8.52.1-2.27-2.12-2.5-2.72-.44l-1,1.29c-2.43-1.15-2.51-4.7-4.26-6.69C33,337.31,35.93,330,38.52,323.85Z"/><path class="cls-1" d="M497.33,319.37c2.86-.53,0,2.65-.71,3.52C495.06,322.5,496.05,319.76,497.33,319.37Z"/><path class="cls-1" d="M527.24,320.07c-.34-2.19,5.37-.83,2.55.43Z"/><path class="cls-1" d="M301.34,321.42c2.93-.52,2.83,4,1.52,5.74-1.87-1.12-4.41-2-4-4.69C300.13,323,301.23,323.13,301.34,321.42Z"/><path class="cls-1" d="M599.31,321.4l.69-.2v2.91C597.71,325,598.08,322.35,599.31,321.4Z"/><path class="cls-1" d="M58,330l.58.36,1.77,1.19c1.3,2.83,8.35,2.54,5.52,6.12-2.46-.49-4.31,1.06-6,2.59a37.55,37.55,0,0,1-3.89-4.83C56.66,333.61,57.35,331.79,58,330Z"/><path class="cls-1" d="M30,331.2c3.53.39,5.44,5.89,1.12,7.1A32.23,32.23,0,0,1,30,331.2Z"/><path class="cls-1" d="M129.74,354.38c2.11,1.21,2.74,4,4,6,.51,3.1,6.15,2.38,4.57,6.27-3.3,6.64,1.94,12.21,5.25,16.86-1,4.7-7.08,8.43-7.49,11.67-5.14-8.05-5.24-20.41-1.9-29.28-3,.19-2.94-3.79-4.3-5.71C130.08,358.24,130.54,356.21,129.74,354.38Z"/><path class="cls-1" d="M493.27,356.56l.48-.62,3.21.51A7.78,7.78,0,0,0,500,357.7l1.18.57c-.21,3.56-1.15,8.76-4.3,10.84-4,.47,1.23-7.27-2.28-5.26-2.54.07.63,4.09-2.27,3.1C485.65,368.13,491,359.5,493.27,356.56Z"/><path class="cls-1" d="M155.78,363.62c1.87-.38,3-1.91,4.08-3.35C162.33,363.73,158.46,366.87,155.78,363.62Z"/><path class="cls-1" d="M481,362.41a2.85,2.85,0,0,1,2.45-2.74l.8.42c.31.62.91,1.87,1.21,2.49-1.84,3.81-3.36,8.18-7.76,9.57l-.87-.32a12.61,12.61,0,0,1,2.39-6C480.72,365.28,480.84,363.81,481,362.41Z"/><path class="cls-1" d="M170.37,365.46l.58,0a6.37,6.37,0,0,0,.56,3.81c-1.21,3.46-1.92-.14-1.82-1.89Z"/><path class="cls-1" d="M153.11,369.87c.64-2.18,3-3.05,4.89-3.85a44.35,44.35,0,0,1-2.28,4.31l-1.9.18Z"/><path class="cls-1" d="M142.74,370.56c-1-1.67.92-3.13,2.23-3.84l.65.48c1.61,1.58,5.24,2.91,3,5.48-1.32,4,4.07,2.29,3.43-1.14l.86,0c2.89,3.42,7.65,4.31,11.91,3.81.79,9.66,3.48,20.46-2.68,29,.17-2.83.44-5.77.6-8.55-1.35,3.2-1.07,11.86-6.42,8.24.94-2.54-.61-3.18-2.93-3.28-1-4-1.25-8.58-4.1-11.84l-.24-3.47c1.91-2.51-3.29-2.62-5-3.37C142.8,378.34,144.48,374.23,142.74,370.56Z"/><path class="cls-1" d="M429,382.29c.47-4.8-1.69-9.83-.06-14.48l.85,0c1.4,3.72,5.32,5.1,5.42,9.39-1.86-1.46-5.21-6.06-2.36,3.29-2.77-7.24-3,1-2.48,4.53C428.38,388,429.24,383.69,429,382.29Z"/><path class="cls-1" d="M387.91,381.55c-2.86-3.8-7.46-11-1.1-12.28,2.6,2.33-1.7,5.29,1.42,8C388.11,378.7,388,380.12,387.91,381.55Z"/><path class="cls-1" d="M168,382.23c-2.25,0-1.1-4.26.91-2.81l.28.63C168.9,380.6,168.3,381.68,168,382.23Z"/><path class="cls-1" d="M.87,389.37l.84-.06c0,1.7.08,5.1.1,6.8l-.89-.06A24.49,24.49,0,0,0,.87,389.37Z"/><path class="cls-1" d="M397.16,392.4c3.74,0,1.26,8.49-1.18,10C396.66,399.05,396.17,395.6,397.16,392.4Z"/><path class="cls-1" d="M173.28,413.86c-2.33-2,.48-4.48,2.61-2.63A7,7,0,0,1,173.28,413.86Z"/><path class="cls-1" d="M453.11,429.57c-3.37-.85-1.08-4,.82-1.17Z"/><path class="cls-1" d="M498.32,431.44c3.17-2.37,8.66,1.22,5.58,5.05A15.31,15.31,0,0,1,498.32,431.44Z"/><path class="cls-1" d="M483.41,435.59c2.55-1.92,2.32,4.3-.44,2.69C479.41,439,482.31,436.82,483.41,435.59Z"/><path class="cls-1" d="M504,438.32c2.64-4.38,5.11-.73,4,3.09C506.5,440.59,503.52,440.75,504,438.32Z"/><path class="cls-1" d="M439.79,438.32c1.47-.31,2.94-.68,4.39-1.1C445.44,440,439.5,442.71,439.79,438.32Z"/><path class="cls-1" d="M486.17,444.05c0-4.43,4-7.77,8.35-6.16,1.1,2.77,7.18,9.54,7.11,3.3,2.4.35,5,6.32,6.81,1,5.7,1.36,6.63,8.45,8.58,11.83,6.11-.15,5.25,8.79,8.71,12.36l.52-2.31a14.85,14.85,0,0,1,2.15,3.9l-.33.95c-1.42,1.12-3.84,1.4-4.31,3.39-1.29,2.23,2.36,5,3.55,2a49.65,49.65,0,0,1-2.12,5.25c4-.5,1.62-7.52,6.47-4.32-.08.54-.24,1.62-.31,2.16,0,2.41-1,1.3-2,0-3.71,5.34,6.64,6.86,4.53,12.75-2.32-.52-1.66,2-.9,3.21.38,1.75,2.39,2.14,3.71,3,.06-6.61.61,4.12,3,6.17.1.64.29,1.93.39,2.57-.72,1.46,0,3.68,2,3.18.11,1.23.25,2.47.32,3.71-.41,3-1.09,7.34,2,3.12.6,1.35,1,2.77,1.54,4.16,1,3.91,6,3.6,9.1,2.9l0,2c-3.79,1.14-4,8.77-8.07,7.38-.2,2.31-.37,5.07,1.55,1.82,2.46,3.81,3.28,8.34,4.4,12.66-2.25,1.9-.32,4,1.44,1.46-.11,3,1.55,5.68,1.84,8.64-.79,1.38-.28,3.61,1.7,3.2.06,1.83-.5,4.63,2.17,3.31,1.3,2.74,2.71,6.31,3.83,1.42-.68,4.56,1.64,5,1.14.21l.64-.49c3.49-1.21,2,4.8,4.14-.38,3,.86,8.34,0,7.27,4.67,1.5-2.55,2.83-.55,4.09,1.1-1.49.48-3.11,2.33-1.15,3.46-4.89,1.92-2.37,10.28-8.67,10.12-2.45.11-.08,1.62.51,2.62a2.93,2.93,0,0,0-3.11.74c-3.6,1-2.1-1.16-.86-3.15-4.49.76-2.1,6.13-2.81,9.24,2.69.83,1.61-2.47,2-4,1.38,3,6.93,5,4,8.95-3.38-4.25-4,1.45,0,1.75a6.49,6.49,0,0,0-5.24,5.39,25.18,25.18,0,0,1-1-3.46c-1.34-3.36,3.56-.91,1.74-3.26-1.76-3.47-3.25,2-2.59,3.74-.66,2.49-1.19,5.18.77,7.27-.41,2.73,2.72,6.67,2.36,1.65a34.67,34.67,0,0,1,5,.94c.19,1.31.34,2.62.43,4a10.66,10.66,0,0,0,.08,6.25c-.89,3.27,1.86,2.73,2.16,4.57-2.73,1.86-3.32,10.17.11,5.38,1,3.72-1.52,7.36,1.25,10.9,2.63,1.21,5.68-3.73,6.85.12.82,1.6,2,4.53,2,.85.9,1,1.83,2,2.78,2.95-.7.9-2.62,1.74-1.47,3,.76,1.94,2.19,3.82,4.34,4.28l2.29.64c1,3,2.2,7.07-1.4,8.61.31-5.53-5-2.4,0,0,3.06.91,2.14,3.64,2.14,6.34-2.89.17.19,3.58.51,5.19-1.09,2.39-5.26,2.93-.08,4.84a8.88,8.88,0,0,0,.72,4.2,25.45,25.45,0,0,0,0,2.9c0,1.59-.17,3.19-.24,4.79l-.77.15c-3.17-.11-1,2.91,1.09,2.12l2.48,1.28c.19.88.37,1.77.53,2.68-4.25-2.42-6,2.79-1.81,4.73-3.65.09-.76,3.75,1,1l.58.55c2.79,5.41.74-8.38,1.46-11.29l.82-.16v33.48c-1.42-.24-1.69-1.51-2-2.68,0-3.63,0-7.17-.13-10.77.62-1.76-1.18-3.45-2.68-2.06,0-.37-.13-1.1-.17-1.46,2.12-3.52-5.94-6.6-3-2.48-4-.3.86,3.84,1.12,5.89.33,9.31,1.69,2.31,2.78.17l1,.26a35.74,35.74,0,0,0,.37,11c-.36,3.85-3.1,3.35-1.47-.33-1.62,1.42-3.86,2.8-3.84,5.23,0,.46-.16,1.38-.21,1.84-7.16-3.7,4.41,6.06-.79,5-2.47-1-10.45-.55-6.18,3.13,1.6,1.83-3.23-1-1.66.86,3.42,3.41-2.93,6.8-1.51,10.39,2.88,2.16,3.13,6.59-.55,8.11-2.17-1.42-3.63-4-6.28-4.53-.17,2.59,6,4.25,2.21,5.91,1.66.31,3.33.63,5,1.1,1.67,3.88-1.37,15.06,5.61,12.06-1.38,5.25,4.35,3.18,4.09-1.2-1.62,3.85,4,8.48.75,11.74,1,1.16,2.83,3.89,2.64.66S598,778.82,600,777v41.76c-5,1.75-1.24,8.49-4.76,11.77,3.27,6-9.66,10-3.26,14.76.95,3-3.41,7.12-.47,10-4,6.77-6.55-5.64-3.72-8.68-3.44-3.27,4.86-9.48-1.36-10.83-7.52-4.27,1.73-13.74-3.78-19.16-3.09-2.39,2.65-5.51.3-8.24-2.61-2.95-.3-7.26-2.77-10.24-3.52-3.95,4-7.14,2-11.69-2.9,2.94-7-.73-10-2,2-3.47-5.64-6.45-4.35-1.6,3.11-1,1.32,3.34,3.88,3.83l-.11.79c-1.44.65-3.39,2-2.59,3.82.92,3,4.22.06,2.91-2.12l0-1,.55.29a4.59,4.59,0,0,0,2.26,2c4.08,2.54.2,9-4.08,6.24.81,2.75,4.84,1.39,6.1,3.87.14,2.51-.49,5-.45,7.5.71,1.38,3.17,4.59.06,4.42,1.19-2.88-1.63-1.91-3.42-1.77,4.22,4.23,1.36,9.69-.26,14.43-4-.31-7.86-5.44-1.75-5.32-1.29-3.25-4.08-7.2-1.24-10.3-3.13-.75-6.21-2-9.48-1.63,0-4.83-4.46-11.57-6.55-3.78-4.61-1.84-5.28-6.56-8.16-9.69-1.24-6,7.78-2.61,7.49-8.11.57-2.43-2.8-1.82-4.24-2.63,2.53-1.71,5.29-6.41,8.62-4.26.19,1.89.29,3.79.45,5.7-4.21.42,2.57,3.74,1.81,6.43-2.19,3.31-2.19,10.58,3.05,10.2,2.72,1.43-.17,1.54-1.85,1.85,1.82,2.85,8.5,5.77,4.2.65,6.36,3,.31-2,3.74-5.12-.59-2.83-4.24-9.3-7.3-4.76a12.06,12.06,0,0,0-3.65-9.25c6.28,2.89-1-2.11,3.64-2.12.3-3.81.23-7.62.25-11.43-2-3.15-5.4-.19-7.37,1.44-1.38-2.62-5-6.45-1.68-9,1.26-1.58,2.95-.14,3.86,1,3.34-1.3,1.94-4.87,1.75-7.58,1.88.62,3.48.8,2.74-1.72-2.66,1.34-3.29-1.35-4.15-3.26,1.61.32,3.43,2.31,5,.94-4.06-3,1.72-2.92,1.88-7-2.93-1.76-7-3.35-1.08-3.44,6-6.51-10.22-7.93-3-12.77,2.23,6.83,1.83-1.74-1.49-3.92-1.39,7.07.08-2.86-4.11-1,1.69,3.85-1.35,7.2-5.23,5.11,7.43,4.51-6.29,15,.11,19.59-4-.47-5,3.36-6.48,6.24-1.45-1.64-2.88-8.87.75-7.34-1-3.49-4.9-4.44-6.62-7.34,1.75.29,8.54,3.15,5.19-.21-.83-1,1.45-1.67,1.85-2.52,3.85-6.7-5-2.7-5-7.42,2.79,2.8,5.13-.84,7.62,2.57,3.9,1,1.75-3.52.5-5.16-2.06.4-7.36.92-4.94-2.43,2.3,3.46,3.74-.2,3-2.87-3.25-1.45-7.14-2.1-7.19,2.62-3.63-6.87-6.78,1.08-7.16,5.27-1.15-2.26-4.44-7,.39-6.27-1.15-.69-5-4.78-1.77-3,2.3,2,4.08-1.15,5-3l.56.05c4.62,4.56,5.76,0,9.61-2.18-1-3.7,5.6-3.4,3.93-7,.19-2.39-2.81-2.49-3.69-.64-4.86-.71-5-6-6.56-9.65,3.75.27,1.79-6.3,6.06-6.44,4.88,2.43,1.9-3.69-1.13-1.24-2.34-1.73-.92-4.68-1.08-7.06-2.94,3.26-5.93,8.09-2.57,12-3.6-2.7-8.07,2.25-5.36-4-2.43,1.41-3.42,4.47-5.24.5-1.25-4.58-9.07,1.18-5.91-4.45,4.94-1.49-.06-6.42-.14-.54a5.31,5.31,0,0,1,.33-5.1c1.8-.13,4.16-4.21,1.24-4.13l-1.14-.15c3.07-2.51,3.85-11.48-2-9.78,1,3.14,1.73,6.37.87,9.66-2.32,1-1.57,2.76.16,3.91l.22.53c-4,1.56-4.72-5.33-3.87-7.66-2.07-6.74,4-8.38,8.31-10.78-2-2.92-4-5.81,1.28-5,.88-4.82-7.94-5.46,0-6.52a2,2,0,0,0,3.19-1.42c.46,2,1.39,3.67,3.76,3.3-.68-1.85-1.62-4.28-4-4l-.8-.13c-3.85-2-6.18,1.14-6.1-4.58,3.27-.68,8.57-2.39,7.4-6.66,2,1,1.28,4.67,3.41,1.33.71,3,1.45,6.28-.67,8.95,3,2.76,6.28.42,6.91-2.85,2.45.07,3.67,1.78,4.3,3.91.46-3.94,3.12-4.88,4.71-1-2.18-.55-2.43,2.42-1.75,3.76,2.13.91,1.86-2.52,1.75-3.76,3.6.38-1.55-5.21-3.13-5.65-3.12,1.62-1.57-7.64-4.43-4.26,1.47,2-2.73,6-2,2.56.88-2.8-3.47-1.42-4.42-3.52l1-1.1c1.78-2.12-2.34-4.21-2.4-6.67-.91,1.42-2.06.57-3.13-.17.88,2.1,2.11,4,3.2,6l.26.88c-1.68.21-4.71,1.86-4.05-1.19-.32-4.67-.49,1.51-2.92.49.11,2,2.51,6.2-1.12,5.66-2.68.84,2.89-4,.42-2.81-2.54.3-2.42,2.72-2.69,4.73-1.35-1.31-2.62-2.8-2.49-4.79,2.45-.67,6.64.24,4-5.09-6.08,5.12-4.44-5.11-4.65-9.2,5.31-1,2-12.91,2.17-5.21-4-.6-4.11,1.92-2.94,5-.34,2.9-2.27,3.4-4.81,2.72.05,4.38-.88,9.5-6.48,6.39.94-3.87-4.32-10.73,2.41-11.09,6.59-3.44-5.87-7.1,0-9.9,3.23-2.77-2.38-5.43-4.78-6.14,1.11,2.23,3.25,5.52-1,4.09-2.51-4.16,3.93-8.17,2.4-12.37-3.95-3.3,0-8.85-5.6-11.07,6.14-2.29.13-.32-.28-4.12-1.49-2.56,3.1-.84,4.46-1.27,1.1,2.67-1.29,9.62,2.38,8.71.92-3,3-5.52,3.82-8.58,2.28.85,3.41-1.77.9-2.39-3.52-1.37-7-2.51-9.16-5.84a111.65,111.65,0,0,1-9.37,9.22c-3.92-4.27,3.64-3.32,2.43-7.82-6.81,1.15.86-1.5,2.12-3.87-3.15,1.3-1.28-2.32-3.08-3.65,3.69.66,7.24,1.85,11,2.15-1.82-3-2.33-11.82-7.17-7.8,5.2,6.45-4.24,3.12-7.22,6.65-4.32-1,8.09-6.24.86-5.23-1.59-1.31.6-6.7,1.51-9.52,2.86,1.31,5.41,3.56,8.87,3.91,1.25-5-4.49-6.64-8.22-7.49,3.82-.26,5-2.14,3.54-5.81,2.18,1.37,2.22,4.37,3.75,6.32,2-.63,3.93-5.22.89-6-4.6-1.49,1.55-9.55,1.89-2.86-.25-6.6.63-1.86,4.08,0-1.74-4.14-1.07-8.9-2.93-12.92-1.93,1.12-6.5,3.49-4.76-.69,2.13-.8,4.23-1.91,4.62-4.38-5.89-4.31-7,8.06-12.76,3.64a31.62,31.62,0,0,1,1.08-7.86c3,1.33,0,5.1,1,7.28,4.51-1.36,2-8.24-.79-10.49,1.84-2.77,5-7.56.65-9.47-2.31,1.47-3.49,5.77-2.41,8.7-9.9-3.4-13.95,13.13-23.85,11.2-3.54-2.67.86,4.4-3.89.93a8.15,8.15,0,0,1,1.14-8.06,5,5,0,0,1-.5-5.75c-1.4-1.09-2.93-2.28-2.61-4.29,5.08-.62,3.88,9.57,10.84,5.91,2.83-4.06-4.63-4.33-5.31-8.11-.59-2.16.69-4,1.89-5.7,1.71-1.66-.84-2.8-2.31-2.07,0-.79-.07-2.36-.09-3.15v-.84c1,1.15,2.43.51,2.23-1a25,25,0,0,1,2.65,1.88c-3.21.09-.52,3.06,1.36,2.8,1.27.12,1.63.75,1.06,1.88-5.08-2.82-2.78,5.25.16.76,4.11-2.48,8.54-1.13,13.19-.09a6,6,0,0,1,1.2-6c1.06-.87,1.6-2.43.39-3.44.74-2.16.83-4.33-1.08-5.89-3.13-3.41,3.17-4.68,5-6.76.43,4.8,1.76,9.48,5,13.33-2.49-.92-4.9,3-1.16,2.55,3-.67,0,3.21,2.7,3.33,5.68.89-2.89,5.73-4.73,3.9,3.08,2.83,4.71,6.58,6.87,10-.13-2.08-.46-4.14-.72-6.2,1.9.53,5.22,4.72,5.83,1.06-.59-1.56-2.22-2.42-3.22-3.69,4.75,2.05-.49-5.52,1.43-6.91,5.11,0,1-6.06-2-6.54.28,1.65.67,3.28.87,5-3.71,1.34.21-6.51-1.91-6.9-3.51,4.71-4-7.35-5.51-7.5-3,4.25-1.41-4.93,1.31-3.21,5.92.52-2.9-3.7-2.21-7-5.37-.35-3.35,4.9-1.81,7.95-3.38-1.29-2.4-7.87-5.72-2.11,1.8-7.31-3.64.8-3.06,4,.56-4,.9-8-.07-11.91,1.15.16,3.1.83,1.4-.72-4.28-3.43-.75-9-1.37-13.43,1.6.84,3.12,2,5,1.94a20.06,20.06,0,0,1-.17-13.33c-2.11,1.12-1.31,3.91-2.79,5.33C490.35,446.38,490.51,442.51,486.17,444.05Z"/><path class="cls-1" d="M456.5,448.36c2.16-.6,2.33,4.12.83,4.55A10.21,10.21,0,0,1,456.5,448.36Z"/><path class="cls-1" d="M446.43,449.73c1.72-1.43,1.17.12.87,1.39,1.6,1.28,3.82,2,4.74,4-4.37.22-9,3.5-13,0C440.13,451.56,443.57,451.23,446.43,449.73Z"/><path class="cls-1" d="M486.1,450.32a8.18,8.18,0,0,1,3,5C486.65,455,484.24,452.68,486.1,450.32Z"/><path class="cls-1" d="M478.2,451.39c3.17-1.21,1.13,2.25.6,3.72C475.61,456.31,477.67,452.86,478.2,451.39Z"/><path class="cls-1" d="M454.91,452.17c3.18,1.89,1.85,6.71,2.11,10.05C454.63,461.18,456.37,455,454.91,452.17Z"/><path class="cls-1" d="M474.34,455.52c2.23,1-2.61,4-3.09,2C471.79,456.32,473.15,455.85,474.34,455.52Z"/><path class="cls-1" d="M460.28,462.56c1.39.27,1.39,4.09,0,4.38A4.71,4.71,0,0,1,460.28,462.56Z"/><path class="cls-1" d="M7.12,463.32c4.62.35,5.12,8.63.68,8.79-2.3,1.73-5.37,2.95-2.8-.8C9,469.64,4.78,465.53,7.12,463.32Z"/><path class="cls-1" d="M431.11,464.13c1.37,1.56.75,4.21,2.7,1.2-1.26,4.6,4.41,4.11,4.44,7.85-.68-.16-3.11-3.12-2.34-1,1.81,3.32.76,7.69,3.79,10.35a61.83,61.83,0,0,1,.5-12.61c1.39,3,3.86,6,3.3,9.51.09,2.43-2.5,7.19,1.43,6.33,2.91,5.72-2.1,10.31-.67,15.5l-2.54,1c-.5-1.56-.15-3.83-1.45-4.88-2.15-.22-2.34-1.56-1.58-3.38-2.55.19-1.53,3.48-2.18,5.22-.17,1.47-.52,4.42-.69,5.9-.89.7-1.82,1.35-2.7,2.06-.19-3.75-6.32,2.73-7.24,5l-.31.74-.33.68c-.94-.93-1.88-1.83-2.77-2.78a25.61,25.61,0,0,0,1.44-17.58c4.15,4.6,1.11-3.59-.87-5.26-1.15,3-.25,6.39-1.23,9.47-5.75,1-1.88,18-4.95,4.56-1.5,3.36-1.42,7.16-2.79-.87-.31-.53-.92-1.61-1.22-2.15.94-4.94,2.41-9.92,6.12-13.51-1.13-.07-2.27-.08-3.39-.26.88-3.18,4.45-4.33,4.31-8.16,1.38-3.54-2.2-2.73-1.5.33-3.25-.92-4.49,2.39-4.14-4.35-1.32-2.07-1.83,2-1.21,2.93l-1-.15a11.77,11.77,0,0,1,1.51-6.49c2.13.11,4.78,2.45,6.54,1.09,2.25-4.7,2.73,3.54,6.69,2.67-.78-3.88,2.46-5.35,2.62-.72C430.65,469.86,430.57,466.81,431.11,464.13Z"/><path class="cls-1" d="M148.48,465.71c1.48-1-.15,3.4-.68,4.4C144.19,471.16,146.56,466.41,148.48,465.71Z"/><path class="cls-1" d="M454.35,468.6c1.63.47.9,4.71-1.08,4.32C452.77,471.48,453.82,469.91,454.35,468.6Z"/><path class="cls-1" d="M9.24,473.13c7,3.15-.47,9.94,1.23,15.46,2-5.77,7-.58,10.68.58L24,491.25c.34,1.48,1.08,3.08,2.81,3.21l.51,1.46c2.2,4.59-.83,12.9,6.59,11.67.07,1.85.08,3.7.05,5.57-.55,1.69-2.73,3.89-.33,5.06.11.39.32,1.16.42,1.55-3.1,3.24-8.62,6.6-5.24,11.6a5.17,5.17,0,0,0-7.68,1c3.37,1.75,1.82,4.47.15,7a43.81,43.81,0,0,1-1.8-15c-3.83-1.18-6.59-2.54-6.58,2.86-2.31-9-10.58,4.15-12-3.32.2-1.93-.25-4.16,1.21-5.7,2.47,1.11,7.34,5.49,8.25.75,2.86-.29,10.75-2.6,6.89-5.94-4.15-2.58,1.27-6.42-2.25-9.82-1.15,1.86-3.66,4.59-5.11,1.4,7.86,1-2.17-10-.19-2.69-3.41,0-5.56,3.08-8.77,3.43-.15-4.47,9.57-4.21,6.49-9.46-.81-3-4.4-2.21-6.71-2.87,1.43-1.9,8.13-2.2,4.48-4.81C9.5,484.91,6.49,477.92,9.24,473.13Z"/><path class="cls-1" d="M447.34,474.61c1.53.72,1.22,5.46-1.06,5.29C446,478.18,447,476.31,447.34,474.61Z"/><path class="cls-1" d="M474.22,480.45c1.46.44.25,2.6.25,3.68C472.26,484.8,472.35,480.8,474.22,480.45Z"/><path class="cls-1" d="M376.22,485.45c1.46.44.25,2.6.25,3.68C374.26,489.8,374.36,485.8,376.22,485.45Z"/><path class="cls-1" d="M215.36,486.13a2.88,2.88,0,0,1-.53,3.41C212,489.26,214,487,215.36,486.13Z"/><path class="cls-1" d="M224,496.23c-1.72,1.51-3.21-2.24-.93-2.28Z"/><path class="cls-1" d="M457.14,498.39c.84-1.06,1.69-2.11,2.58-3.13-.37,4.79,5.32,1.65,8,4-1,1.55-.83,5.44-3.31,4.72-1.07-1.15-2.29-6.59-3.69-3.54,0,2.67-3.22,9-5.8,5C450.83,504.4,456.52,500.83,457.14,498.39Z"/><path class="cls-1" d="M213.54,500.24c1.37-2,4-6.29,3.64-1.27a22.71,22.71,0,0,0-2.3,2.68l-.78-.45Z"/><path class="cls-1" d="M437.87,504.61a9.52,9.52,0,0,1,1.66-4.7c.4.65,1.2,1.95,1.59,2.6l.06.77-1.26,1.88Z"/><path class="cls-1" d="M452.34,513.5c4.69.12,8.92-1,8.44,4.93-2.83-5.23-6.25,4.59-10,.07C447.56,516.8,451.17,515.24,452.34,513.5Z"/><path class="cls-1" d="M584.09,527.37c-1.14-5.46,4-11.88,1.9-.2l-1,.12Z"/><path class="cls-1" d="M421.47,521.71c1.93-1.23-2,4.61,1.5,3.85C420.57,529.83,417.16,523,421.47,521.71Z"/><path class="cls-1" d="M574.4,526.36c0-1.22.08-3.67.1-4.89l.76.65.29,1C575.26,523.93,574.69,525.55,574.4,526.36Z"/><path class="cls-1" d="M306.08,522.28c1.37-.38,2.1.25,2.21,1.91l-.61.83-2-.13C305.8,524.24,306,522.94,306.08,522.28Z"/><path class="cls-1" d="M244,534.43a29.25,29.25,0,0,1,2.92-11.35c.07.59.22,1.77.29,2.35A14.14,14.14,0,0,1,244,534.43Z"/><path class="cls-1" d="M569.19,524.65a4.14,4.14,0,0,1,2.4,3.42C569.77,528.94,568.1,526.11,569.19,524.65Z"/><path class="cls-1" d="M576.88,525c1.81-1.31,3.12.86,3.68,2.35l-.5.25-1.62-.36Z"/><path class="cls-1" d="M31,528c1.44.89.92,2.68-.29,3.51C29.73,530.41,30.16,529,31,528Z"/><path class="cls-1" d="M348.93,528.27c2,.07.19,4.34,3.25,2.15C351.59,535.49,347.63,531.57,348.93,528.27Z"/><path class="cls-1" d="M453.23,528.44c3.2-2,1.9,5.27-.62,3.24C449.66,531.48,452.17,529.45,453.23,528.44Z"/><path class="cls-1" d="M274.21,529.42c4-2.25.4,8.1-.67,3.21C272.86,531.47,272.85,530,274.21,529.42Z"/><path class="cls-1" d="M480.22,534.62c1.09-.83,2.69,3.72-.05,2.89C476.66,539.38,478.15,535.62,480.22,534.62Z"/><path class="cls-1" d="M494.12,534.13c3.45,1.21,5,6.21.18,5.85C488.86,537.18,495.89,539,494.12,534.13Z"/><path class="cls-1" d="M342.22,538.32c6.41,1-.43,11-5.18,10-3.3-5.2,3.76-4.21,1.18-8.1C340.33,541.49,341.44,540.33,342.22,538.32Z"/><path class="cls-1" d="M383,539.24c2.59,1.92.43,7.06,1.95,10.15C381,547.7,383.49,542.58,383,539.24Z"/><path class="cls-1" d="M498.36,541.47c6.33-3-3.79,8.37-2.39,2.78C494.87,541,498.34,544.3,498.36,541.47Z"/><path class="cls-1" d="M378.19,546.59c1.55-.23,1.16,3.47,1.79,4.81C378.53,548.63,373.37,548.64,378.19,546.59Z"/><path class="cls-1" d="M476.14,546.23c3.66,1.37-.49,6.67.83,9C474.3,554.82,475.49,548.61,476.14,546.23Z"/><path class="cls-1" d="M524.42,546.67c.13.18,3.69,9.4-1.29,9.49C520.4,553.53,521.39,548.55,524.42,546.67Z"/><path class="cls-1" d="M371.27,549.59c1.25.6,1.21,3.2,1.23,4.55C370.31,554.56,370.48,550.84,371.27,549.59Z"/><path class="cls-1" d="M494.27,549.49c2.35-1.37,1.1,2.29,1.48,3.57C494,556.34,491.71,550.08,494.27,549.49Z"/><path class="cls-1" d="M466,553.26c3.14.36-.18,20.06-.08,6Z"/><path class="cls-1" d="M376.19,555.36c3.17-1,.16,5.77.82,7.76-5.14-4.72,1.24,14.89-2.1,7.16C371.85,563.68,374.75,560.74,376.19,555.36Z"/><path class="cls-1" d="M378.28,555.56c1.39.27,1.39,4.09,0,4.38A4.71,4.71,0,0,1,378.28,555.56Z"/><path class="cls-1" d="M487.2,556.57c2.52,1.85,1.8,2.66,4.82.67C494.14,563.48,480.64,560.18,487.2,556.57Z"/><path class="cls-1" d="M460.16,558.41c2.91-1.27.42,5.21,1.59,7C458.24,565.09,459.8,560.66,460.16,558.41Z"/><path class="cls-1" d="M358.09,560.31c4.32.47-.15,11.39-2,4.87C354.65,558.62,361.91,574,358.09,560.31Z"/><path class="cls-1" d="M18.86,561.43l3.3-.28C23.34,565,17.93,565.42,18.86,561.43Z"/><path class="cls-1" d="M581.9,564.1a3,3,0,0,1,2.12-3C584.74,562.53,583.79,565.24,581.9,564.1Z"/><path class="cls-1" d="M451,562.21c3.06-.4,2.22,5.08,6.77,2.29-.54,1.76-.23,8.19,3.29,6,1.46,4.71-4.68,2.94-3.16,7.79-2.35-1.57-3.65-4-4.88-6.16,2.07,2.69-2.42,13.92-1.09,2.13-4-15.26,6.1,7.16,2.05-7.86C453.51,564.51,449.52,565.71,451,562.21Z"/><path class="cls-1" d="M482.15,563.37c2.74.11,1.47,3.37.67,4.88C480.54,567.74,480.34,564.56,482.15,563.37Z"/><path class="cls-1" d="M325.13,564.32c6.48,5.37,3.07,15.68-2.11,21.08-.53,7.3,11.4-5.53,6.85,5.59-5.15.14-5.69,6.1-6,11.33-2.29-5.37-2,4.29-3-1.05-1-3.45-2.12,4,.71,3.4,5.75,1.23,2.17-10.9,8.13-6.31-.32,5.23-5.27,10.1-3.67,14.6,5.1-1-2.06,2.77-1.34,5.28-1.94-3.42-1.82-.61-1.91,1.94-3.25.9.34-4.89.13-6.73-3.17,2.16-1.75-4-4.79-3.19.11,2.49-.51,4.61-3.26,5-2.3-4.81,2.45-7.48,2.21-11.83,4.23.95,1-3.93-2-.34-1.84-3.83-1.19-7.93.85-2.85-.59-14.37.86,3.75,4.16-2.95,4.65-5.29-2.5-7.58-2.29-12.12,2,4.18,2.86-1.41,5.09-3.05,3-2.45-2.9-5.52-.15-8.09C325.52,571.23,321.47,567,325.13,564.32Z"/><path class="cls-1" d="M313,565.26c2.25,1,5.36,2.86,2.29,5C314.5,567.75,311.74,569.48,313,565.26Z"/><path class="cls-1" d="M472.88,565.22c3.44-1,4.8,2.18,4.2,5.08C475.74,568.78,474.64,566.69,472.88,565.22Z"/><path class="cls-1" d="M584.78,568.25c.93,1.5,2.15,1.6,3.45.46,0,.59-.07,1.78-.1,2.37,0,.77,0,2.31,0,3.08l-1.75,1.47A75,75,0,0,1,584.78,568.25Z"/><path class="cls-1" d="M317.43,569.45c3.55.24-.83,9.24-.53,3.71-.85-3.63-2.51,5.82-3,2.11C313.24,572.42,316,571.33,317.43,569.45Z"/><path class="cls-1" d="M597.14,570.86c-4.3,1.91-2.49-4.41.14-.63Z"/><path class="cls-1" d="M356,571.26c2.92-1,1.86,2.25,2,4C355.05,576.25,356.11,573,356,571.26Z"/><path class="cls-1" d="M463.28,575.56c1.39.27,1.39,4.09,0,4.38A4.71,4.71,0,0,1,463.28,575.56Z"/><path class="cls-1" d="M314,577.25c1.59,1.69,3.41,1.91,5,.07,2.62,2.39-2.28,3.43-3.72,4.84C314.77,580.52,314.33,578.89,314,577.25Z"/><path class="cls-1" d="M578,577.27c4.66-1.14,1.23,6.27,2,9C577.91,584.66,578.77,580.06,578,577.27Z"/><path class="cls-1" d="M459.21,578.12c4.49.51.72,8.69,1.77,12.09C458.25,588.36,461.05,581.73,459.21,578.12Z"/><path class="cls-1" d="M598,582c-1.58-.82-4.1-5.41-.08-3.57C598,579.61,598,580.8,598,582Z"/><path class="cls-1" d="M334.23,579.55c1.57-.14.27,7.23,1.73,9.75C330.52,589.88,330.37,581.78,334.23,579.55Z"/><path class="cls-1" d="M487,579.24c2.41,2.59,2.48,10.84,0,13.07C487,587.93,486.85,583.59,487,579.24Z"/><path class="cls-1" d="M507.16,583.26c-2.72-6.09,1.83,1,4-2.93C511.79,583.32,509.54,583.5,507.16,583.26Z"/><path class="cls-1" d="M586.11,580.56l1.32.43a2.69,2.69,0,0,1-.35,2.53c-.33-.29-1-.85-1.34-1.13C585.83,581.93,586,581,586.11,580.56Z"/><path class="cls-1" d="M314.25,584.08c3.46.36,2.86,5.63.86,7.32A43.55,43.55,0,0,0,314.25,584.08Z"/><path class="cls-1" d="M447.3,584.55c4.75-2.69,2.81,6.81-.66,5.12C443.87,589.33,444.43,584.41,447.3,584.55Z"/><path class="cls-1" d="M451,585.17c4.87,2.86.06,4.11.72,9.24l-.62.12C450.92,591.36,450.93,588.3,451,585.17Z"/><path class="cls-1" d="M372,587.59c3-.82,3.61,1,3,3.77-2.8-4.24-2.13.48-1.2,3C370.06,594.94,372.18,590,372,587.59Z"/><path class="cls-1" d="M432.69,595.61c-4.48-.85,2.11-12.67.75-6-2.06,5.56,8.32,8.2,4,12.94,1.91,4.13-2.81.28-1.51,4.56,3.63-.06,5.61-2.52,7.82-5,0,2.17.33,6.39,3.48,4.42l.43-.09c2.33,1.37,5.57-1.21,7.36,1.52-5.39-1.11-10.94,8.65-3.28,8.21.8-3.32,3.31-2.53,5.91-2,1-2.77,1.5-7.32,5.12-7.63,4.05.75,1.55,5.12,3.5,7.39,1.61,1.1,4.31,2.28,5.59.08,1.19-2.8-2.8-2.75-2-5.54,2.87-.28,8.21,1.89,4.21,3.78,3.42,1.59-1.81,5.45.47,8.83-2.16,2-4.7,4.12-2.84,7.28,1.35,2.78-3.21,1.13-3.09,3.81-.63-2.59-4.62-3.19-4.34-5.66,3.38-4.24-9.12-1.49-3.3.76-.5,1.07-7.13-.7-6.2,3.66-4.66,1-6.1-4.41-1-2.8.38-3.12,5-5.82,1.47-8.21-2.25-3-6.14,4.64-4.5-.8-2.07-4.25-3.35,5.93-6.42.77-1.7-4.8-1.5,5-2.48-.63-4.56-7.76-6.2,9.7-7.85,1.12,3.8-.77-1.34-12.4-1.25-5.28C432.22,610.39,432.83,601.92,432.69,595.61Z"/><path class="cls-1" d="M141.11,590.31c1.12,1,5.31,2.18,2.54,3.59C141.18,597.31,139.35,592.41,141.11,590.31Z"/><path class="cls-1" d="M580.33,591.65c1.19-.44.33,8.22-1.25,7.61,4.8-9.6-7.52-.49-5-7C576.22,592.65,578.42,593.05,580.33,591.65Z"/><path class="cls-1" d="M451.1,594.53l.62-.12C454.94,597.25,449.56,598.24,451.1,594.53Z"/><path class="cls-1" d="M308.16,595.39c1.78,2,1.63,7,3.72,9.89-.25,5.66-5.64-.29-3.13-3.18,1.13-3.14-.68-1-1.84.24C307.25,600,307.78,597.71,308.16,595.39Z"/><path class="cls-1" d="M208.49,596.33l.86-.5c.62,2.12-.21,4.28-.55,6.38C205.16,602.27,206.08,597.71,208.49,596.33Z"/><path class="cls-1" d="M440,596.26c1.86,1,.59,4.61,3.07.87C444.37,602.14,438,600.63,440,596.26Z"/><path class="cls-1" d="M305.28,598.56c1.39.27,1.39,4.09,0,4.38A4.71,4.71,0,0,1,305.28,598.56Z"/><path class="cls-1" d="M447.26,606.54c-1.43-1.33-2.14-4.8-.61-5.91.34,1.9,1.37,3.86,1,5.82Z"/><path class="cls-1" d="M212.27,602.35c2.76.41,4.79,4.18,2,5.85-.9-5-3.33,2.84-4-2.25C208.43,602.19,212.19,605.22,212.27,602.35Z"/><path class="cls-1" d="M370.24,602.43c3.35-1.26.83,9.34-2,5.73C368.79,606.22,368.64,603.86,370.24,602.43Z"/><path class="cls-1" d="M380.19,603.37c5.69-1.08,1.13,7.36.3,10.45-1.89,1.88-.74,7-4.35,6.35C373.6,613.92,380.58,609.81,380.19,603.37Z"/><path class="cls-1" d="M347.1,607.38c4.46-.07,1.93,4.12-1.13,3.92C346,609.9,345.8,608.28,347.1,607.38Z"/><path class="cls-1" d="M487.21,609.4c1.87,0,.4,4.17.72,5.82C484.29,616.11,487.45,611.33,487.21,609.4Z"/><path class="cls-1" d="M430.16,610.31c1.88.27.37,5.93-.92,6.79,0-1.92-4.32-7.68-.49-4.62C430.45,614.33,429.84,611.38,430.16,610.31Z"/><path class="cls-1" d="M298.3,611.58c1.53-1.4.55,2.36-.11,2.88-1.67,2.47.21,5.7-.76,8.48,2.64,2.13.05,6.39-2.09,3,.86-3.85-6.59-8.43-1-10.46C296.14,614.79,296.7,612.64,298.3,611.58Z"/><path class="cls-1" d="M313.07,613.34c3.1-.35.2,6.72.87,9C311,620.47,313,616,313.07,613.34Z"/><path class="cls-1" d="M212,615.28c1.65.12,4.8-1,4.13,1.83-2.21-1.48-2.35.24-2.29,2.25C212.07,618.64,211.74,617,212,615.28Z"/><path class="cls-1" d="M584.18,621.17c-.09-1.77,1.86-4,2.11-1l-.48.92-.86.29Z"/><path class="cls-1" d="M309.23,621.57c6.24,2.49-6.63,3.94-2.3,8.76C304.22,628,305.57,622.69,309.23,621.57Z"/><path class="cls-1" d="M328.28,621.56c1.39.27,1.39,4.09,0,4.38A4.71,4.71,0,0,1,328.28,621.56Z"/><path class="cls-1" d="M95.78,624.17c1.36-1.94,3.83.12,5.56.38-1.44,2.81-6.24-2.62-4.56,4.05C96.37,627.14,96,625.65,95.78,624.17Z"/><path class="cls-1" d="M325,623.22c1.76.83,2.42,8.54,0,10.15Z"/><path class="cls-1" d="M434.36,630.66c2.19.78,6.94.31,6.58,3.43-3.76,3-8.7,2.35-12.19,5.94C419.29,640.69,432.73,634.66,434.36,630.66Z"/><path class="cls-1" d="M459.33,630.59c4.26-.6,2.55,4.58-1.35,2.7C454,633.76,456.82,630.15,459.33,630.59Z"/><path class="cls-1" d="M194.2,631.37c3.52-1,.2,4.08.56,6C192.68,635.93,193.6,633.32,194.2,631.37Z"/><path class="cls-1" d="M185.14,633.32c2.47.79,4.92,2.2,2.65,4.84C185.42,638,183.33,635.47,185.14,633.32Z"/><path class="cls-1" d="M304.28,634.56c1.39.27,1.39,4.09,0,4.38A4.71,4.71,0,0,1,304.28,634.56Z"/><path class="cls-1" d="M118,636.23c2.06-.45,4.56.53,4.08,3C120,639.71,117.48,638.73,118,636.23Z"/><path class="cls-1" d="M113.34,638.68c4.21-1.12,0,5.8-3.14,4.85-2.48,1.5-10.62,8.42-8.29,1.69C102.71,639.29,109.56,641.15,113.34,638.68Z"/><path class="cls-1" d="M436.14,638.09c2.73,3.47,2.23,2.76,3.93.18C441.37,644.24,434.52,643.82,436.14,638.09Z"/><path class="cls-1" d="M283,639.27c2.36-.44-.31,4.19,2.09,3.89,3.11-.39.51,3.31.73,5C281.37,647.58,283.22,642.54,283,639.27Z"/><path class="cls-1" d="M588.68,642.11c-3,1.84-2.52-2.53.18-1.64C588.82,640.88,588.73,641.7,588.68,642.11Z"/><path class="cls-1" d="M418.34,642.57c1.79,1-4.2,4.73-6.45,5.73C412.55,645.35,416,644.15,418.34,642.57Z"/><path class="cls-1" d="M512.26,643.55c1.65-.28,1.24,4.94-1.6,3.37C508.81,646.61,510.45,643.4,512.26,643.55Z"/><path class="cls-1" d="M442,648.08c-.22-3.72,2.83-2.22,4.8-1,0-2.8,2.28-1.35,3.51-.27,3.67-1.53,13.05-4.61,13.83,1.33-4.49-1.38-8.93,1.94-13.24.33,3.1,5-3.53,8.07-2.94,12.9l-1.05-1C446.11,656,448.85,646.83,442,648.08Z"/><path class="cls-1" d="M393.3,646.57c1.35.66,1.35,4.69,0,5.36A6.92,6.92,0,0,1,393.3,646.57Z"/><path class="cls-1" d="M589.18,649.81a2.63,2.63,0,0,1,3.25-1.19l.26.55-1.8,1.5Z"/><path class="cls-1" d="M143.09,652.21c1-2.32,3.19-4,5.49-1.94-.81,1.9-3,1.65-4.71,2.06Z"/><path class="cls-1" d="M332.28,649.56c1.39.27,1.39,4.09,0,4.38A4.71,4.71,0,0,1,332.28,649.56Z"/><path class="cls-1" d="M595.1,651.5c.61-.81,1.22-1.62,1.84-2.41.21,1.79.53,3.57.86,5.36l-2.94-1.38Z"/><path class="cls-1" d="M458.13,651.32c2.6.13,3,6.67-.3,4.2C454.57,655.6,457.41,652.73,458.13,651.32Z"/><path class="cls-1" d="M132.88,661c-1-3.55,6.21-9.43,7.56-7-1.87,1.69-3.83,3.29-5.59,5.1a4.92,4.92,0,0,0-1,3.28C133.62,662,133.12,661.35,132.88,661Z"/><path class="cls-1" d="M441.08,656.1c1.35,2.22,4.33,1.82,5.79,4.3l1.05,1c2.15-.7,3.15-2.93,3.28-5,1.95,1.56,1.78,5.29,1.26,7.77.42,3.14,4.37,1.93,6.47,3.35,1.84,5-8.24,2.08-3.92,8.73,3.5,3.39,1.07,8,.18,12,1.89,1.21,4.83.89,3.82,4.07-3.58,3.74-8.21-4.86-10,.2-5-5,7.75-6.36,2.3-9.2-.16,4.93-6.5-2.33-1.39-2.13,5.67-3.72-1-12.31-5.93-6.86-2.62-2.21-6-2.64-8.83-4.2-1.91-4.55,8-.09,6.75-4.62-2.07-2.34-6.38,1.52-6.84-2.27C432.84,656.21,446.19,666.48,441.08,656.1Z"/><path class="cls-1" d="M514.34,661.6c3.17-2.05-.19,3.63-1.23,3.32C511,663.81,512.29,661.57,514.34,661.6Z"/><path class="cls-1" d="M131.76,664.28l2.16-1.16.72.26,0,.69c-.54,1.11-2,2.66-3,.95Z"/><path class="cls-1" d="M505.09,667.64c3.28-2.24,2.88,2.43-.18,1.22C505,668.56,505,667.94,505.09,667.64Z"/><path class="cls-1" d="M123.54,674.61c-5.29-4,8.48-10.29,5.87-2.05,0,.45-.16,1.34-.21,1.79-.68,1-1.34,2-2,3.09l-.62-.36C125.58,676.23,124.54,675.44,123.54,674.61Z"/><path class="cls-1" d="M135.15,674.6c-.23-2.39,1.53-7,4.36-4.34a21.46,21.46,0,0,1-2.31,4,3.52,3.52,0,0,0-1.18,3.83,41.3,41.3,0,0,0-2.2,3.83C127.64,682.69,135.08,677.62,135.15,674.6Z"/><path class="cls-1" d="M93.06,673.23c1.35-.64,2.72-1.25,4.08-1.85-.33,3.59-.77,7.19-.93,10.82-5.23.06-4.16-4.44-3.31-8.11Z"/><path class="cls-1" d="M140.3,672.32c2.79.65,1.59,4.4-.56,1.58Z"/><path class="cls-1" d="M324.05,676.23c3.23-1.58,5.66,4.67,1.9,5C322.71,682.3,324.3,678,324.05,676.23Z"/><path class="cls-1" d="M499.3,678.27c1.48.5,2.76,6.83.71,4-1.69-2.64-.71,1.45-.91,2.63-1.68-.91-2.68.4-2.07,2-1.92.07-3.59.3-2.19,2.42-2.42.26-4.5-.93-6.58-1.91-.33,3.73-4.55.59-3.19-1.9,3.56.2,4.26-3.72,6.63-5.52C494,678.55,498.82,682.13,499.3,678.27Z"/><path class="cls-1" d="M131.82,688.7c-1-2.08-1.37-4.77,1.41-5.47A41.42,41.42,0,0,1,131.82,688.7Z"/><path class="cls-1" d="M141.31,687.72c.11,14.11-4.78-8.93,1.6-3.32,0,.65,0,1.94,0,2.58Z"/><path class="cls-1" d="M277.86,684.83c5.73-1.58,10.23,4.69,15.94,4.06a24.64,24.64,0,0,1,1.89,3.6l-.94-.12-.73-.14c-.39-2-2.39-2.53-4.08-1.84-1.37-.4-2.73-.8-4.09-1.17a3.42,3.42,0,0,0-4.1-1.76l-.93,0C279.83,686.6,278.85,685.69,277.86,684.83Z"/><path class="cls-1" d="M95.85,689.3a2.22,2.22,0,0,1,.28-4A13.92,13.92,0,0,1,95.85,689.3Z"/><path class="cls-1" d="M296.79,692.87c2.67-.79,5.17,1.09,6.58,3.23A34,34,0,0,1,296.79,692.87Z"/><path class="cls-1" d="M522.85,693.29c2.58-.41,5.2-.36,4.18,3C525.48,695.55,523.62,695,522.85,693.29Z"/><path class="cls-1" d="M505.75,698.32c-2.52-4.91,8.17-5,5.86-.41-1.34,2.42,1.23.74,2.45.47-.85,2.25-1.76,4.61,1.7,4-1.51,3.31,2.83,6,1.29,9.75,3.62-2.12,0,2.34,2.28,3.79a37.07,37.07,0,0,1,6.76,8.34c-1.93.29-3.72.37-2.29-1.84-2.85.51-3-1.57-2.89-3.83-2.46,1.4-3.81-5.32-5.28-.44-3-.67-6.57-.88-8.56,2.07-.08-.44-.24-1.32-.33-1.76,4.21-2.36,1.74-10.24,7.25-10.55-3.17-3.81-6.18-2.06-6.6,2.51l-.19-1.14c0-2.1-1.25-3.68-2.68-5-.2-.73-.61-2.18-.81-2.9-.1-2.33-5-2.95-2.76-.07l-.05.78c2.36,5.94-4.51,3.26-2,6.36.32,1.85-2.47,6.36.91,5.62,1.14,3,1.84,7,5.87,6.72l.62.38c-.34,2.65.88,6.22-1.52,8-3.88.55-4.19-5.25-3-7.62-4.87-1.77-3.9-7.25-6-11.1-3.58,1.83-4.94-2.24-4.75-5.08,1.29.37,6.27,3.51,4.11.73-3.88-4.07,4.81-3.11,3.76-7.49-3,.83-1-4.78.29-2.56C500.15,698.91,503,698.35,505.75,698.32Z"/><path class="cls-1" d="M527.38,697.46c1.44-1.13,4.29.55,3.45,2.37C529.55,700.09,527.05,699,527.38,697.46Z"/><path class="cls-1" d="M415,701.42c3.64-4.81,10.6,4.37,13.28-1.58a65.43,65.43,0,0,1,8.82,5c-4,.58-10.12-5.75-9.9,1.43,4.6,1.19,12.44-.15,13.27,6.13a4.84,4.84,0,0,1-4.31.08c0-1.89-5-4-4.64-1.12l-.62-.51c-.55-2-2.13-2.79-3.77-1.22-2,.54-3.56-.93-5.16-1.84l-.77-.87C419.79,704.37,415.26,704.54,415,701.42Z"/><path class="cls-1" d="M159.37,704.26c-2,4.65-5.19-6.94-.32-.76Z"/><path class="cls-1" d="M530.48,702.4c2.81-2,4,4.3,1,3.69C531.93,704.58,531.09,703.5,530.48,702.4Z"/><path class="cls-1" d="M320.27,709.32c-5.26,3.07-4.2-6.44.75-4.27C320.83,706.47,320.52,707.89,320.27,709.32Z"/><path class="cls-1" d="M471.27,704.52c4.67-.76,5.28,6.69,2.71,7.74-5.27.76.68-6.52-4.86-5.27C467.75,704,471.49,707.35,471.27,704.52Z"/><path class="cls-1" d="M527.29,704.55c4.73-2,1.5,4.23,2.54,6.8-2.08-.4-5-3.75-3.2.23C525,714.68,523.71,704.49,527.29,704.55Z"/><path class="cls-1" d="M376.89,707.1a3.29,3.29,0,0,1,2.14-1.76l1,2.11-.29.51A3.3,3.3,0,0,1,376.89,707.1Z"/><path class="cls-1" d="M372.13,709.54a3.21,3.21,0,0,1,4.16-2.57C376.79,710.38,374.74,710.6,372.13,709.54Z"/><path class="cls-1" d="M592.84,706.54l1.68,1.47C593.88,711.7,592,708.65,592.84,706.54Z"/><path class="cls-1" d="M321.17,710.24c2-1.34,3.5.18,4.63,1.79l-2.82.14-1.84-1.29Z"/><path class="cls-1" d="M444.05,709.05c2,.47,5.52,5.17,6.13,1.44.83-3.17.68,1,1,2.17,4.94.41,1.22,8.73,5.81,10.6,7.58,4.33,7.27,13.83,9.75,21.18.58,4.24-3,8.27-6.7,9.89-6.4,1.57,4.45,7.85-1.1,8.86-5.69-1.61-11.08-5.42-16.8-1.65.58,4.75,4.1,14.37-3.79,10.14-.52,5.18-6.66,5.09-8.65.91-2.21,2.29-6.75,1.92-7.06,5.64-4-10.32-18.78-6.5-26.23-1.45-3.24,2.28-8.19-.15-9.36-3.62,0-1.66,1.26-6.12-.79-2.73-2.45,6.67-8.27.32-12.88,2.09,0,5.4-3.22,11.64-8.37,13.59-7.45-1-8-10.24-12.71-14.75-2,4.71-4.56,9.43-9.28,11.9-2-1.31-5.76-5.59-6.92-1-1.12,7.25-12.22,8-15.36,2,4.63,1,10.29,4.64,13.13-1.25,2.16-5.61-3.26-12.2-7.72-15.1l-.46-.62c-.71-3.69.66-11.18,5.07-6.92,1.76,5.9,7.09,9.43,12.89,10.76.39-6.54,4.43-5.5,2.58,2.35,5.39-5.42,2-19.91,12.22-19,1.9,6.18,7,4.49,9.33-.33,1,3.86,0,9.2,4.21,11.25a13,13,0,0,0,4.78-9.87c-5.07-2.61,1.62-1.93-.41-6.46,3.84-.17,6.92,2.55,10.61,3.11-.89,5,7.35,14.13,14.35,9.36,7.48-1.56,2.65-10.55,3.75-15.53,6.75.54,8.36,11,15.87,9.3-2.77-8.55-13.06-12.7-17-20.13,10.27-1.09,17.78,7.59,24.75,13.9.57-4,4.8-6.37,8.28-7.71,3.21,1.46,11.16,4.44,11.09-1.16.43-3.07-5.13-1.78-4.07-5.15,3.77-.12,6.45,6.08,9.8,3.87,5.4.69-.16,9.8,6.31,7.15-1.43-7.93-8.48-13.57-15.06-17.54,1.53-1.47,4.34-2.21,4.9-4.35C448.08,719.16,444.8,714.55,444.05,709.05Z"/><path class="cls-1" d="M329,711.06c1.59-1.07,3,.28,4.05,1.42l-1.32,1-1.8-.23Z"/><path class="cls-1" d="M480.32,712.37c2.78-.85.56,4.16-1.11,3.5A2.5,2.5,0,0,1,480.32,712.37Z"/><path class="cls-1" d="M526.14,718c2.39-1.54,11.14-9,8.86-2.93,5.62-1.9-.09,1.22-.28,4.18l-.56-.05C531,717.92,528.33,721.08,526.14,718Z"/><path class="cls-1" d="M484.29,713.54c2.25-2.25,4.36,2.73,2,3.3C486.66,714.57,483.46,715.32,484.29,713.54Z"/><path class="cls-1" d="M382.05,716.79c-3.1-4.08,4.71-2.22,2.09.57Z"/><path class="cls-1" d="M428.12,716.45c2.1-3,6.09,2.92,9-.08l.57-.18c.8,3.32,3.87,5,7.48,4.42-1.19,3.1-4.85,3.66-7.63,4.59C436.6,720.94,428.34,721.43,428.12,716.45Z"/><path class="cls-1" d="M21.39,717.48c2.75-.8.93,3.27.27,4.43C20.23,721.42,20.6,718.56,21.39,717.48Z"/><path class="cls-1" d="M597.75,733.14c.59-2.5-1.08-6.58,2.25-7.15v14.12c-.93.85-1.88,1.67-2.84,2.47C597.13,739.41,597.5,736.28,597.75,733.14Z"/><path class="cls-1" d="M42.19,727.2c4.62,2,2.27,7.06.78,11.75-3-1.2-2.15,4.58-6.07,4.33,2.68-2.61,2-6-.52-9.07-2.9,4.76-1.22-.21-.94-2.87C38.19,730,42.89,731.51,42.19,727.2Z"/><path class="cls-1" d="M592.65,728.08c6.07-1.54,1.1,8.63-.82,2.08C594.1,732.3,594.42,729.29,592.65,728.08Z"/><path class="cls-1" d="M428,728.21c1.39-.06,4-.08,3.85,1.89C430.06,732.34,426.68,731.42,428,728.21Z"/><path class="cls-1" d="M26.31,729.51c1.81.69-.69,3.83-2.1,3.36C23.55,731.44,25.13,730,26.31,729.51Z"/><path class="cls-1" d="M433.94,730.19c2.91,1.33,5.28,3.55,7.95,5.29-.75,3.4-4.34.1-5.22-1.66C434.33,734.45,433.61,732.08,433.94,730.19Z"/><path class="cls-1" d="M519.3,732.55c.4.34.13,6.21,2.77,1.57C527.48,745.71,511.68,733.43,519.3,732.55Z"/><path class="cls-1" d="M32.33,733.6c3.59-1.54-1.26,2.55-.49,4.41,4.75-1.9,4,6.57-.81,3.87,1.64-2.68-.48-4.37-2.94-2.51,2.22,1.69,2.2,5.2-.84,5.49-4.49.24-6.12-10-.63-9.22C29.24,738.93,29.43,733.63,32.33,733.6Z"/><path class="cls-1" d="M593.86,735.35c-.06-1.47.64-2.16,2.12-2.07C596.82,734.93,595.52,737.1,593.86,735.35Z"/><path class="cls-1" d="M595.3,738.36c-3.26,4.79-8.58-2.79-4.26-3.18.91.38,1.84.75,2.77,1.12Z"/><path class="cls-1" d="M72.31,739.55c2.47-1.66,8,2.26,5.61,4.53C75.55,742.24,66.5,741.81,72.31,739.55Z"/><path class="cls-1" d="M83.23,741.22c4.29-.14,6.12,6.87.66,5.36C78.56,746.8,84.18,744.5,83.23,741.22Z"/><path class="cls-1" d="M550.18,745.49c1.6-.37,2,2.49,2.76,3.64C550.55,752.55,548,746.94,550.18,745.49Z"/><path class="cls-1" d="M553.22,745.65A4.05,4.05,0,0,1,556.6,749C554.92,749.66,552.57,747.32,553.22,745.65Z"/><path class="cls-1" d="M326.16,746.24l1,.78a2.89,2.89,0,0,0,3,2.13l2.35,1.5c4.17,5.23,18.76,7.39,13.63-3.73,4.27,3.46,2.75,10.21-1.48,13-6.44,3.45-11-4.59-16.2-7.09C327,751,322.08,747.64,326.16,746.24Z"/><path class="cls-1" d="M35.06,750.09c2,1.22,4.44,5,1.18,6.25C35.88,754.24,35.43,752.17,35.06,750.09Z"/><path class="cls-1" d="M524.89,751.17c2.18.62,4.86,1.23,6.22,3.17C528.73,754.33,525.91,753.53,524.89,751.17Z"/><path class="cls-1" d="M56.2,752.43c4.42-.14-1.44,9.14-5.18,7.91A15.48,15.48,0,0,1,56.2,752.43Z"/><path class="cls-1" d="M546.29,753.46c1.68.51.66,3-.91,2.56C543.09,758.55,543.76,752.79,546.29,753.46Z"/><path class="cls-1" d="M65.33,754.32c3.34,2.11-.26,6.7-4.34,3.94C59.93,754.69,65.42,757.66,65.33,754.32Z"/><path class="cls-1" d="M600,758.22c-2.68-.13-3.17-4.65,0-3.93Z"/><path class="cls-1" d="M132.21,763.49c4.21-.87,4.6-4.6,6.59-7.6-.78,6-.43,12.09-1.74,18-2.14,8,7.15,15.93,12.14,21.15,6.36.63,6.27,11.4,13.17,8.68,4.13-2,2.8,4.2,4.12,6.7l0,.74c-3.06,6.4,4.38,17.83,11.34,12.84.56-4.4,1.55-9.41,6.74-10.32,1.3-7.47,3.5-15.51,11.47-18.53,3.82,2.25,4.59,7,7.51,10,2.34-2.33-.88-7,4.19-7.64,3,5.42,7.69,1.4,12.12,3,6.66-6.57,16.46-1.94,24.51-1.86,12.82-4.75,25.24,4.55,38-.11,2.9-2,10.49-.57,10.66-5.15-5-2.59-10.35-4.7-16.14-4.34,3.82-2.55,4.19-5.59,1.15-9,9.86,2.19,18.68,9.51,29.11,8.4,8.83-1.85-1.14-9.49-2-14.38,6.59-.22,9.24,7.67,14.9,10-4.18-2.07-5.55,2-6.86,5.15,3.72,1,11.29,6.17,10-1.16.29,5.26,5.87,5.34,9.62,7.48.83,6.75-10.71,3.61-12.44,8.2,2.36.41.2,5.09-.9,2-3.44-.41-7.61,1.24-10.63-1.33-2.31,2.38-5.38,2.46-8.49,2.37-.57,2.36-2.87,4.84-1.25,7.21,2.26,5.6-14,4.79-4.88,6.85-4.07,4.44-11.3,3.81-16.69,5-6.24,4.24-14.15,5-21.23,6.88-10.6-4.42-22.33,1.63-33.27-1.36-7.67,4.57-8.77-5.24-15.6-4.65-2.88-.67-2.28-5.34-5.31-5.5-2.17,2.31.39,7.37-3.77,7.53-3.15,1.83-4.19-2.12-5.72-4-8.14-1.47-9.83,11.71-18.91,7.93-5.47,3.48,4.22,10.33.18,14.61-4-2.3-5.32-7.49-11.36-5.44-3.25-5.18-2.26-14.59-10.31-14.55-.85,3.33-4.73,7.17-7.07,2.68-2.46-5.72,5.61-3.74,7.24-7.34,3.81-5.51-6.28-9.7-3.87-15.73,1.85-4.19-1.4-3.46-4.42-2.86-8-5.69-3.28,7.77-10.28,4.55-8.14-4.5-5.14,4.42-8.73,6.7-5.64-9,3.85-18.2-.09-26.17-3-2.3-5.65.59-8,2.21a18.32,18.32,0,0,0-.06-9.88c3,3,6.48-2.47,6,2.82,5-3,10.81-9.12,6-14.76C134.59,772.26,128.94,765.31,132.21,763.49Z"/><path class="cls-1" d="M524.89,760.17c2.21.85,6.08,1.13,6.23,4.06C529,763.11,526,762.56,524.89,760.17Z"/><path class="cls-1" d="M548.38,760.46c1.4-.66,3.51,1.15,3.24,2.58C550.21,763.68,548.1,761.88,548.38,760.46Z"/><path class="cls-1" d="M44.23,761.74c5.63-1.24,2.08,7.94,7.86,5.82.62,4.62-6.61,3.26-9,2.47C45.91,766.15,37.37,761.89,44.23,761.74Z"/><path class="cls-1" d="M86.71,764.8c4-.76,4.64,5,.36,2.52-2.16-.76.05,4.43-2.75,2.51-6.75-3.09-5.38,10.56-11.67,6.82-3.58.35-6.3,4.7-10.71,2.6.49-5.09,5.88-5.24,9.86-4.22,3.1-2.64,2.71-9.09,9-7.15Z"/><path class="cls-1" d="M100.22,764.35c4.88-1.42,3.42,4.6,1.61,6.83C98.86,771.64,97.88,765.83,100.22,764.35Z"/><path class="cls-1" d="M600,772.58c-3.63-2.23-2.37-5.2,0-7.83Z"/><path class="cls-1" d="M91.34,766.31c2.57.54,6.53,1.34,3.61,5.86-.3,2.74-6.75,2.44-5.9-.83A19.69,19.69,0,0,0,91.34,766.31Z"/><path class="cls-1" d="M528.9,767.15c2,1,3.72,2.61,3.09,5C529.44,773,530.51,768.76,528.9,767.15Z"/><path class="cls-1" d="M300.35,768l1.73,1.15a19.15,19.15,0,0,1,2.07,4.21C301.12,772.75,295.15,770.52,300.35,768Z"/><path class="cls-1" d="M120.25,770.43c7.31,2.09-4.71,6.72-5.22,10.89-3.63,3.79-6.15-4.59-1.74-5.71C116.87,775.8,118,772.41,120.25,770.43Z"/><path class="cls-1" d="M547.35,770.49c5.73,1.22-1.35,3.34-3.44,4.71C542.89,771.92,546.48,772.75,547.35,770.49Z"/><path class="cls-1" d="M519.38,772.46c1.4-.66,3.51,1.15,3.24,2.58C521.21,775.68,519.1,773.88,519.38,772.46Z"/><path class="cls-1" d="M238.16,774.29c8.75.63,14.13,11,23.84,11.2-4.43,4.71-13.15-3.17-19,.75-10.23,4.15-21.5-.26-32.05,3,.65-7.27,10-3.34,14.78-5.26C231.67,783.92,236.37,779.68,238.16,774.29Z"/><path class="cls-1" d="M18.21,781.38c3.54-2.32,4.22,5.06.79,3.9C16.13,786.37,16.49,782.35,18.21,781.38Z"/><path class="cls-1" d="M37.12,791.56c.77.8,3,1.56,3.81,2.53C37.64,795,34.38,795.66,37.12,791.56Z"/><path class="cls-1" d="M48,794.26c1.85,0,5.31-.12,5.83,1.89C51.66,796.94,46.54,798.33,48,794.26Z"/><path class="cls-1" d="M560.2,795.66c.78.49,3.68,3.34,1.95-.6,7.23.18-1.62,9.41-.33,3.27C559.2,798.69,558.58,797.7,560.2,795.66Z"/><path class="cls-1" d="M540.12,796.06c2.33,1.73,1.54,4.82,1.5,7.32C537.66,803.34,539.85,798,540.12,796.06Z"/><path class="cls-1" d="M85.26,801.42l4.73-.19C95.28,811.05,81,804.38,85.26,801.42Z"/><path class="cls-1" d="M59.64,802.6c6.43,5.68-5.61,13.81-9.59,7.78-.92,2-4.41,2.57-4.09-1C50,806.09,54.92,804.49,59.64,802.6Z"/><path class="cls-1" d="M524.27,802.53c5.67-.65,1.1,10.23,4.39,13,2.36,8.49-11.88-7.31-5.6-4.43C522.26,808.47,520.8,803.57,524.27,802.53Z"/><path class="cls-1" d="M548,803.55c2.91-1.67,6,4.85,2,3C547.39,807.93,547.82,805.45,548,803.55Z"/><path class="cls-1" d="M532.24,804.56c1.61-.42,1.94,2.67,2.78,3.81C533.32,807.1,527.6,805.76,532.24,804.56Z"/><path class="cls-1" d="M541.14,804.66c4.23-1.47,3.34,3.67-.49,3.24C537.6,809.42,540.14,805.63,541.14,804.66Z"/><path class="cls-1" d="M26.07,806.54c2.6.28,3.74,4.35-.08,3.73C22.48,811.28,25.12,807.9,26.07,806.54Z"/><path class="cls-1" d="M545.34,808.61c1.53.72,1.22,5.45-1.06,5.29C544,812.17,545,810.31,545.34,808.61Z"/><path class="cls-1" d="M303,809.28c2.62-.46,5.09-.26,4,3.06C305.33,811.79,302.37,811.74,303,809.28Z"/><path class="cls-1" d="M541.11,809.2c4.15,2.69-1.08,7.63-2.27,2.21C541.05,812.82,541.23,811.22,541.11,809.2Z"/><path class="cls-1" d="M49,813.15c.57,2.18,6,1.27,2.8,3.94C48.55,818.47,48.75,815.5,49,813.15Z"/><path class="cls-1" d="M29.4,818.59c5.52-.45-1.5,5.69-2.21,2.09Z"/><path class="cls-1" d="M316.14,818.66c4.91,1,.34,5.12-3.17,4.69C313.71,821.59,314.53,819.76,316.14,818.66Z"/><path class="cls-1" d="M324.3,818.52c3.06-1.88,5.47,3.36,1.39,3.44C321.64,823.87,319.49,819.24,324.3,818.52Z"/><path class="cls-1" d="M534.34,818.39c3.13-.74-.31,4-1.74,2.21C531.47,819.44,533.53,818.72,534.34,818.39Z"/><path class="cls-1" d="M301.25,820.39c3.72-.53,13.84-1.29,7.61,3.65C306.78,821.16,298,825.07,301.25,820.39Z"/><path class="cls-1" d="M531.09,821.28c2.22.15,4.38,2.82,1,3.32,2.15,4.49,1.79,9.72,2.94,14.52-3.79-2.47-2.34,4.62.86,4.53-1.18,3.32-11.83.45-5.75-.92,3,1.4,2.46-4.1-.31-1.62,3.78-5.76-5.87-6.57-3.27-12.22.65-2-2.34-8.85,1.44-5.68C529.57,827,531.92,824.44,531.09,821.28Z"/><path class="cls-1" d="M559.89,821.18c2.51-.07,3.94,2.33,5.22,4.14C562.59,825.38,561.17,823,559.89,821.18Z"/><path class="cls-1" d="M600,829.77c-.75-2.13-3.91-6.37,0-7Z"/><path class="cls-1" d="M0,824c6.51.22.65,8.64,2.54,12.81,2.73,4.07.41,9.55-2.54,12.89Z"/><path class="cls-1" d="M148.18,836.57c3.11,1.12,8.73,1.36,8.82,5.59-1.52,2.27-3.28,4.4-4.1,7.1C149.13,846.84,141.25,839.09,148.18,836.57Z"/><path class="cls-1" d="M600,839.13c-4,1.72-2.66-3.7,0-.67Z"/><path class="cls-1" d="M231.32,850.54c5.05-1.77,8.64,6.31,3.6,8.63C231.69,865.56,226.88,850.78,231.32,850.54Z"/><path class="cls-1" d="M0,852.09c2.54-1.47,2.87,2.48,4.14,3.93-5.78-3,.32,7.7-4.14,9.66Z"/><path class="cls-1" d="M600,861.75c-1-1.57-3.76-8.25,0-5.43Z"/><path class="cls-1" d="M233.19,862.32c1.89,1,5.3,2.12,4.64,4.81-.23,4.18-4.43,6.53-2,10.83-2.92-.09-4.13,3.14-6.86,3.37.32-3.66-.45-7.82,3-10.22A12.37,12.37,0,0,1,233.19,862.32Z"/><path class="cls-1" d="M600,874.89c-1.69,5.15-5.17-2,0-.62Z"/><path class="cls-1" d="M0,876.84c2.57,3.11,5.09,7.37,2,11.06a2.8,2.8,0,0,0-.85,3.35H0Z"/><path class="cls-1" d="M232.69,885c2.49-3,6.6-1.27,9.32.48.54,3.38-3.72,3.82-5.55,5.8H225.85c-1.6-2.5.49-5,2.22-6.76C229.63,885.28,231.29,886.93,232.69,885Z"/><path class="cls-1" d="M395.13,884.76a21.23,21.23,0,0,1,3.74,0C399.74,887.1,394.25,887.1,395.13,884.76Z"/><path class="cls-1" d="M390,886c-5.37,2-5.37-2.43,0-.42Z"/><path class="cls-1" d="M597,886.24h2l-1,2.4Z"/><path class="cls-1" d="M138,891.25c-.76-5.28,8.05-4.76,5.19,0Z"/><path class="cls-1" d="M243.59,891.25c.4-3.2,1.71-4.57,4.39-2.32,3.6-2.79,6.79,1.71,10.42,2.32Z"/><path class="cls-1" d="M1.13,891.25A2.8,2.8,0,0,1,2,887.9l2.05.9a12,12,0,0,0-2.15,2.45Z"/><path class="cls-1" d="M261.62,891.25c4-4.53,10.28-2.3,14.9,0Z"/></g></g></svg>