<svg xmlns="http://www.w3.org/2000/svg" viewBox="0 0 127.28 349.66"><defs><style>.cls-1{fill:#eccb70;}</style></defs><title>Layer 10</title><g id="Layer_2" data-name="Layer 2"><g id="Layer_10" data-name="Layer 10"><path class="cls-1" d="M51.3,6.6c-5,1.45-1.16-4.76.45-6.6.09.85.25,2.53.34,3.37.09,1.87-1,6.86,1.43,3.35C55,2.93,60.27,10.55,60,5.14c-.47-5.69,4.29,3.55,2.25,4.28,3.82-8.19,1.79,3.12.58,6.77,2.14-.47,3.68-1.64,3.2-4,.29-15.51,1.73,8.31,3,4.05C67.56,1.34,74,22.27,67.39,17.64c-5.27-4.23-1.9,8.43-6.19,9.15-2.36-.69-6.51-.22-4.43-4.93-4.24-.23-1.22-7.53-2.91-9.71,3.55,4.31,1.41-1.57.87-4-1.62,1.54-3,3.32-4.48,5-2.66-8.75.9,9.57-.32,11.25-4.85,0-2.12-5.5-2.07-8.37-5.73,2.87,3.62,15.69-2.36,13.45a49.79,49.79,0,0,0-.78-5.16c.13-3.8,2.55-8.85-1.76-11.14.32,3.71.84,7.41,1.15,11.14a11.31,11.31,0,0,0,0,4.88c-5.63,4,2-9.51-4.19-5-4.05,2.78-2.83-1.5-2.4-4.32-2.84,4.21-2.76,2.89-3-1.8.66-1.71,2.85-3.78.28-5-1.36-5.55,2.66-2.71,4.19.22-1.14-4.06-1.44-7.52,3.63-5.62-.08,4.29,1.63,3.56,1.56-.34,5-3.15-.09,9.45,2.08,6.37C45.23,9,49.31,9,51.3,6.6Z"/><path class="cls-1" d="M42.64,3.17c.3-.5.89-1.52,1.19-2C45.54,2.62,44.51,5.8,42.64,3.17Z"/><path class="cls-1" d="M29.22,4.72l.64,0a6.56,6.56,0,0,1-.52,6.52,37,37,0,0,1-.67-4.06C28.8,6.54,29.08,5.33,29.22,4.72Z"/><path class="cls-1" d="M32.13,6.05c6.1-.27-.64,9.54-1.32,3.26C34.07,11.26,32.66,8.1,32.13,6.05Z"/><path class="cls-1" d="M30.88,17.1c-2.46-1.76,1.55-6,3.39-4a28.33,28.33,0,0,0-.22,5c-.45,1.69,1.06,5.77-1.89,4.79C29,22.14,31.87,18.81,30.88,17.1Z"/><path class="cls-1" d="M53.07,28.46c-.21-4.86-5.2-11.59-.23-16.51.31,2.33-1.58,17.16,3.15,11.14a30.11,30.11,0,0,0-.05,10.2c-.84-1.15-1.55-2.17-3.09-1.47C53,30.7,53.05,29.58,53.07,28.46Z"/><path class="cls-1" d="M34,27.2c4.16-1.93,3.6,5.8,1.09.91C35.21,32.78,33.07,30.61,34,27.2Z"/><path class="cls-1" d="M50,36.37l.52,0L51.25,39c-.06,1.73-.56,2.19-1.51,1.39Q49.82,38.36,50,36.37Z"/><path class="cls-1" d="M45.74,40.32C45,35,51.67,45.38,45.68,44A4.07,4.07,0,0,0,45.74,40.32Z"/><path class="cls-1" d="M68,38.2c4.16-1.15.86,4.62,1.62,7C65.81,45.94,68.29,40.57,68,38.2Z"/><path class="cls-1" d="M45,44c-2,.36-1.92-4,0-3.57A12.21,12.21,0,0,0,45,44Z"/><path class="cls-1" d="M34.67,42.39c.13-2.87,4.53-.23,3.11,1.94l-1.87.5-.89.28C34.93,44.43,34.76,43.07,34.67,42.39Z"/><path class="cls-1" d="M32.23,43.23c2-.85,2.76,3.48.42,2.26C32.55,44.93,32.33,43.8,32.23,43.23Z"/><path class="cls-1" d="M38.14,45.11c2.11-2.93,2.54,3-.14,1.61C38,46.32,38.11,45.51,38.14,45.11Z"/><path class="cls-1" d="M87.83,96.35C88.36,94.21,92.05,95,94,94.4c1.27,3.46-5.19.09-3.45,3.16s-4.46,7-2.71,1.51C87.84,98.39,87.83,97,87.83,96.35Z"/><path class="cls-1" d="M84.21,95.87c.07-1.41,2.74-1,3,.24L86.09,97l-1.39-.59Z"/><path class="cls-1" d="M88.79,104.15c1.13-2.17,3.75-3,6-3.09l-.22.86C94.39,105.08,91,104.1,88.79,104.15Z"/><path class="cls-1" d="M48.64,110.16c1.38-2.45,2.48,2.24.86,3A20.82,20.82,0,0,1,48.64,110.16Z"/><path class="cls-1" d="M45.09,115.35c4,1.05.3,6.1-.26.56Z"/><path class="cls-1" d="M62.7,251.89c2.37-1.86,4.5,5.65,1.65,4.78-2.29-.82-1.11,2.21-1.48,3.47-1.15-1.29-2.4-2.82-2,.09l-2-.71a20.34,20.34,0,0,0,2.5-4.89Z"/><path class="cls-1" d="M59.05,252.14l1.44,2c-.73,3.77-4.32,5.51-4,.39,1.21.59,2.74.21,2.38-1.42Z"/><path class="cls-1" d="M104.93,255.18c3.54-4,4.23,2.69,5,6-1.89.18-2.4-2.1-4.31-1.92C106.33,257.75,106.53,256.71,104.93,255.18Z"/><path class="cls-1" d="M53,267.14c-6-4.21-.21-8.43,3-12,.19,2.16-1.83,10.22,1.59,8.05.75,4,3.09-.71.43-1.74-1.05-1.47-1.51-2.69.86-1.91l2,.71c.86,2.89-3.53,10.35,1.73,8.71.5-3.71,7.57-6.66,1.29-7.4-1.07-3.34,2.7-3.69,4.9-4.65-3.63,2.66-.5,6.17,1.89,8.33.5-1.52-.4-4.27,1.93-4.27-1.66,2.78,1.22,3,2.55,4.86,2.89-.54,2.71-4.52,5.78-3.67.3,3-5.42,2.49-2.6,4.63,5.06,3.73-8.62,8.44-5.63,1.27.22,3.11-4.65,2-1.84,4.16,4.8,3.69-5.09,2.27-5.75,5.59-6.2-.12-3.94,6.18-.64,8.67-.18-2.11-.79-6,2.65-4.93,2.85,1.07,6.72-2.63,8.41.5,2.24-2.39-2-4.28.63-6.67,3.37-1.5,2.15,2.78,2.82,4.72,2.3-.81,4.43-2.05,6.72-2.88,3,4.28-3.22,6.93-6.76,6,5.57,4.46-7-1-5.27,4.89,2.44-3.24,6.48-2,6.36,2.13-2.84.67-1.4-3.83-4.24-3.05-.18,3.4,3.49,4.91,4.59,7.86,4.18-2,2.36-6.73-.38-9.1,2.27.87,5.6,1,6.31,3.79,1.85-.17,4.77-.29,2-2,1.38-2.56,3.4-5,.79-7.56,2.31-1.25,5.65,1,7-1.87-2.37-.93-7.73,1.82-9.19-.21-1.68-6,6.14,2.15,6-3.8-2.12.2-5.58,1.21-6.25-1.71,3.69,1.57,1.36-2.21,1.13-4.2,3.68,1.35,7.17,4.94,5.59,9.13A45.5,45.5,0,0,0,98,273.08c-.79-2.32-3.8-4-2-6.68l1.1-1.25c2.75,1.62-.8,3.33,2.36,6,1.51-3.44,2.71-7.15,2.76-1,6.83,2.41,1-7.72,6.8-7.83,5,0-2.82,6.85,1.25,6.78.28-3.36,6.4-7.58,4.28-1.71-.69-2.34-6.08,5-2.56,4.25,2.48,3.78-3.21,1-4.08,4.56,2,2.3,4.06-1.6,5.93-.09-2.28,1.62-2.48,5.32-4.68,6.55-3.6-.62,2.59,2.91-.14,2.58-13.75,1.06.48-.85-1.34,2.84-1.77,3.17,4.63,1.52.44,3.64,1.85,1.57,3.22,1.55,3.22-1.26,2.77-.28-4.11,9.81,4.72,4.8-3,1-.49,2.68.31,4.41-1.45,2.35-.74,5.35-2.13,7.74,3.91-.25,8,.34,8.6,4.95,3,5.64-5.31-1.42-5.5,2.62.32,5.35,9.67-3.58,5.82,5.85-4.88-1.25.08,7.43,3.88,5.74-1.13,5.15-9.3,7.2-7.42,12.86-1.08-.56-3.11-3.44-2.7-.61a4.69,4.69,0,0,0-5,1.26l-.71.11c-2.71-1.31-3.85-5.12-7.14-5.08,1.69,5.51-.64,9.22-2.41,14-3-3.5-7.6,1.52-10.39-2.18-1.83-2-.84,1.63-1.12,2.72l-.64-.44c-1.51-1.74-5.34-3-6.09.06a20.66,20.66,0,0,1-3.13.34c-4.2-5.65-10.74-2.56-16.7-3.49l-.75.07-2.17.94c-.94-.3-1.88-.56-2.81-.85,1-4-5.31-.09-6.46-1.53-3.48-1.72-6.25-6.64-7.09-8.3,9.64,1.2,2.82-1.68.95-3.49.57-2,3.84-2.32,4-4.77-2.44,1.33-8.45,6.66-8.79,1.18-.62-3.54,4.19.3,3-2.62-.36-5.26,1.52,5.23,3.43,1.2.08-4.86-4-5.83-4.06-9.81-6.22.49-5.43,8.86-11.22,10.61-2.45-1.1,6.32-11.05-.12-10.29.61,3.71-6,1.06-3.39,4-.92,3.24,2,7.41-3,8.5.4-3.6-1.12-2.48-2.57-.32,3.48,3.09-.88,3.38-2.57,6L19,336.6l-.1-.84c2.79-.65,1-2.29-1-2,1.33-3.19-7.52-2.71-2.06-3.47,5.16.22-2-3.35-3.57-1.59-2.12-.43-.53-4.42-3-4.81.43,1.95,1,4.14-1.84,3.36.54-3.86-5-2.21-7.46-2.89,2.7-2.9,4.1-7.23,9.41-5.75,3.29-1.33,2.06-4.11.64-6.44,3.27.87,6.57,1.83,10,1.76-1-1.36-2.35-2.78-.15-3.73a19.53,19.53,0,0,1-7.73-.17c-.42-2.37.31-4.12,2.91-4,1.22-.37,3.09-2,1.76-3.31,1.5-6.22,12.81-2.46,4-6.32,3.66.32,3.36-1.71-.11-1.63,3.11-1.57,7.57-2.86,6.25,2.35,5.32-2.07,6.38-11-.74-9a10.81,10.81,0,0,0,.08-4.24c2.22.87,3.77,3.21,6.27,3.3-.15-2.58,1.07-4.06,3.52-4.48,1.39-2,.8-5.85,3.6-6.81-.54,2.42-1.27,4.79-1.72,7.24,5,2.25.32-4.93,2.58-4.7,1.4,7.13.56-4.87,5.16-2.18a6.88,6.88,0,0,1-.91,6.95c6-1,1.13-7.36-.17-10.68,3.82,1.42,1.34-1.51.41-3.4,3.28-1.64,4.49-.18,2.94,3.15C52.54,272.77,47.68,264,53,267.14Z"/><path class="cls-1" d="M125.15,261.44c1.49.37,1.29,3.88.17,4.34C125,264,121.73,262.06,125.15,261.44Z"/><path class="cls-1" d="M93.58,265a6.42,6.42,0,0,1,.1-3L95.24,263l.86,1.31Z"/><path class="cls-1" d="M116.87,272.28c-1.15-5.68,4.34-1.77,6.12-.08-1.2,0-2.39.08-3.57.14C118.75,269.37,118.1,270.8,116.87,272.28Z"/><path class="cls-1" d="M32,276.16c3.52-1.45,3.17,8.54.37,4.64C29.68,279,34.15,279.06,32,276.16Z"/><path class="cls-1" d="M120,278.33c2.15.18,5.18-.46,3.94,2.8C121.47,281.53,118.9,281.51,120,278.33Z"/><path class="cls-1" d="M24.1,285.1c-3.27.77-1.49-3.19.72-1.84Z"/><path class="cls-1" d="M111.21,285.48c1.41-.68,1.47,5.39-1.29,3.71C107.66,289.2,109.1,285.23,111.21,285.48Z"/><path class="cls-1" d="M118.07,288.81c-1.54.81-3-2.81-1-2.88A4.35,4.35,0,0,1,118.07,288.81Z"/><path class="cls-1" d="M20.93,292.24c-.88-3,1.93-3.4,4.16-4l.26,1C24.39,291,23.17,292.62,20.93,292.24Z"/><path class="cls-1" d="M10.17,298l1.64.46.26.89-1.16,1.15C9.13,300.69,8.94,298.82,10.17,298Z"/><path class="cls-1" d="M126.07,303.12c-4.21-4.84,3.13-2.9.7.19Z"/><path class="cls-1" d="M14.71,305.41c-2.91-.21-.71-4.15,1.37-2.69C15.73,303.39,15.05,304.74,14.71,305.41Z"/><path class="cls-1" d="M3.89,312.28c2.36.16,3.81-1.5,5.2-3.13-.25,1.71.42,4.38-2.14,4.3Q4.7,313.71,3.89,312.28Z"/><path class="cls-1" d="M2.66,314.29c1.43-.05,2.87-.08,4.31-.1C14,316.4,4,317.63,2.66,314.29Z"/><path class="cls-1" d="M109.16,345.32c-2.52-2.06-1.32-5.61,2-5.15l.71-.11C114,342.68,109,342.37,109.16,345.32Z"/><path class="cls-1" d="M104.53,347.09q1.22-2.05,2.84.09C106.36,348.43,105.42,348.4,104.53,347.09Z"/></g></g></svg>