<svg xmlns="http://www.w3.org/2000/svg" viewBox="0 0 600.14 707.38"><defs><style>.cls-1{fill:#926832;}</style></defs><title>Layer 12</title><g id="Layer_2" data-name="Layer 2"><g id="Layer_12" data-name="Layer 12"><path class="cls-1" d="M356.82,0c1.71.55,6.05-.11,4.44,2.79l-1.08-.15C359,1.82,357.9.93,356.82,0Z"/><path class="cls-1" d="M263.27,18.18c1.09-4.36,1.94-9,5.57-12.24,3.07,4.8-2.23,9.33.27,14-4.72.4-9.14,2-13.46,3.84-1.18.36-2.34.76-3.47,1.23a24.27,24.27,0,0,1-7.45.73C251.33,24.26,256.79,20,263.27,18.18Z"/><path class="cls-1" d="M232,9.93a4.31,4.31,0,0,1,3-3.34l1.91.14c.32,2.79-4.72,5.91-7.07,7.56A21.41,21.41,0,0,0,232,9.93Z"/><path class="cls-1" d="M370.11,10.05a2.49,2.49,0,0,1,3,2.68l-1.88-.51-1.3-1.49Z"/><path class="cls-1" d="M269.77,20.21c3.07,1.3,6.73.64,9.54,2.47q-2.76.26-5.49.54l-.63,0A18.7,18.7,0,0,1,269.77,20.21Z"/><path class="cls-1" d="M225.21,20.93c3.76-.29-.69,3.68-1.72,5l-.82-.32C223.57,24.06,224.41,22.5,225.21,20.93Z"/><path class="cls-1" d="M281.54,22.76c7.51.58,16.08.26,22,5.67,5.23,7.74,14.28,13.8,15.11,23.86.95,6.8,6.95,11,11.39,15.58,8.07,1.79,9.55,11.86,7.68,18.73-5.65,8.28-16.79,8.58-25.7,9.28-2.14,1.32-12.75-2.36-10.21,3.06l-.92.08c-1.25.11-2.51.23-3.76.36-6.48-7.26-21-6.57-23.81,3.9-1.29,3.82-5.3,12.27,3.37,9.48,5.39-4.33,9.52-14.78,17.55-13.19l-2.28.52c-2.61.44-4.26,2.58-5,5a13.62,13.62,0,0,0,6.11-1.57l3.09-1,.69.49c-2.3,1.06-5.37,2.23-1.64,3.86-2.34.75-4.71,1.37-7.05,2.13-2.48,1.3-8.85,1.52-6.91,5.7,3.65,5.55-5,10.32-10,11.25,1.18-2.17.16-2.9-2-3,2.86-7-1.07-15.19,2.82-21.95.46-2,3.81-3.67,1.75-5.62l.2-.6c6.17-2.88,13.22-6.72,19.84-2.64,7.71,4.87,17-1.49,25.17-.19C323.85,89,332,86.82,332,80.05c-2.93-5.88-8.88-9.63-14.67-12.37-7.35-8.68-3.6-22.38-12.8-30.2-.8-3-9-4.58-2.44-4.8C298.29,25.51,288.6,24.56,281.54,22.76Z"/><path class="cls-1" d="M230.35,31.06q3.89-1.57,7.88-2.9a37.71,37.71,0,0,0-10.29,10.73c8.11-2.43-.73,2.29-2.69,5.41-5.81-.11,4.34-3.4-.08-5.38,1.71-2.32,3.76-4.44,4.84-7.16Z"/><path class="cls-1" d="M219.12,70c5.44-7.33-2.46-19.41,5.7-25.17.55,5.09-1.41,9.92-2,14.85,1.63,5-1.15,10.07.41,15.16-5.06-5.1-1.81,5.17-4.8,8,4.77-.28.27,5.29.25,7.87l-1.7.64L216.49,90C219.43,83.61,214.45,76,219.12,70Z"/><path class="cls-1" d="M203.9,57.78c7.78,3-1.33,8.36-3,12.15-1.44,6-4.92,11.43-3.73,17.85-1.45,1.89-3.85,2.25-5.91,3.16,1,1.66,1.91,3.51.1,5-.74-1.72-1.4-3.76-3.38-4.4.27-1.16.56-2.3.9-3.44,4.78-.73,4.18-11.29,1-4.07a42.42,42.42,0,0,1,2.24-10.83c4.68,1.9,1.15-3.42,3.56-5.55,1.76.21,4.46-1.06,2.48-2.93q1.34-2,2.72-3.9A2.33,2.33,0,0,0,203.9,57.78Z"/><path class="cls-1" d="M219.44,97.27q-2.53-1.83-.83-5.65C220.93,93.38,220.1,95.05,219.44,97.27Z"/><path class="cls-1" d="M220.83,98.16c11.13,2.31,23.2-9.27,32.52.64a29.9,29.9,0,0,1,1.76,2.93A63.78,63.78,0,0,0,257,110c-1.62-.6-3.17-1.34-4.75-2a17.27,17.27,0,0,1-4.3-2.87c2.38-2.58-1.08-3.86-2.87-5.19C238.72,93.65,227.89,104.31,220.83,98.16Z"/><path class="cls-1" d="M306.16,99.07c3.47-1.15,6.88,3.49,2.73,5.2-2.29-.63-4.58-1.23-6.89-1.73l0-.72,1,0C305.35,102.49,306.41,101.41,306.16,99.07Z"/><path class="cls-1" d="M226.78,106.77c.64-1.86,1.3-3.94,3.22-4.85-1.73,3.38,0,3.29,2.73,1.88l2.38.25A32.14,32.14,0,0,1,226.78,106.77Z"/><path class="cls-1" d="M239.05,103.16l3.24-.64c.39.29,1.18.87,1.58,1.15l-.77.36a22.61,22.61,0,0,1-4.11-.29Z"/><path class="cls-1" d="M332.43,105.4c4.78-4.67,10.81,2.81,9.29,7.86-.42,12.31-4.82,26.08-12.35,35.33-.56,6.25-7.3,12-3.66,18.53-.48,21.56-19.38,37-37.64,45-6.31,4.82-15.76,7.78-23.27,5.32,6.84-4.49,17.8-2,22.37-10.25,8.52-7,19.23-12.71,25.88-22.15,5-6,.06-13.35,1.93-20,1.58-9.45,10.39-15.56,12.3-24.84,5.33-8.62,12.94-18.37,9.69-29.09-.7-5.39-7.53-2.42-10.32-.27-1.63.11-3.25.18-4.87.31-2.44-.17-3.24,2.7-4.94,3.94-3.1.6-4-3.43-7-3.49C317,109.14,326.25,111.24,332.43,105.4Z"/><path class="cls-1" d="M295.91,107.14c1.65.06,2.62,2.42.93,3.25A4,4,0,0,1,295.91,107.14Z"/><path class="cls-1" d="M216.06,114.08c1.13-3,4.73-6.16,7.25-2.78-.95.69-1.87,1.41-2.76,2.15l-1.51.64c-2.27,1-1.72,4.18-2.88,6.09C216.1,118.14,216,116.11,216.06,114.08Z"/><path class="cls-1" d="M224.12,111.41c2.66.4,4.94-1.06,7.13-2.35-1.15,3.87-6.24,4.92-7.31,9.25l-3.11-.68.63-1.48.64-.21C224.39,116,224.71,113.09,224.12,111.41Z"/><path class="cls-1" d="M252.4,108.83c2.39,5.77-2.47,5-6.54,4.14A42.71,42.71,0,0,0,252.4,108.83Z"/><path class="cls-1" d="M303.17,109.9l1.53-.22c1.16.83,2.32,1.68,3.5,2.5a21.57,21.57,0,0,1-4,1l-3.12.19C301.79,112.17,302.47,111,303.17,109.9Z"/><path class="cls-1" d="M239.57,117.53c4.25-1.07,9.22-2.93,7.56,3.59l-.9.09c-3.39-.31-10.18,1.54-7.46-3.48Z"/><path class="cls-1" d="M306.85,122.14c-.52-4.16,4.09-5.39,7.22-6.27.38,2.44-1.42,3.95-3.09,5.35l-1.35,1C308.7,122.26,307.77,122.19,306.85,122.14Z"/><path class="cls-1" d="M220.2,118.78l.63-1.15,3.11.68,0,.68-1.83.12Z"/><path class="cls-1" d="M216.31,122.71A50.41,50.41,0,0,1,218,135.06L215.82,134c0-1.36.05-2.71.06-4.06C216,128.14,216.2,124.52,216.31,122.71Z"/><path class="cls-1" d="M150,125.23l.63-1.6a27.82,27.82,0,0,1,3.62,5.31,14.84,14.84,0,0,1-5.24-.8Q149.51,126.69,150,125.23Z"/><path class="cls-1" d="M277.29,142.17c-2.89,1.41-2.39-3.86-.3-4.87A6.61,6.61,0,0,1,277.29,142.17Z"/><path class="cls-1" d="M219.11,142.68c3.76,8.52,7.47,17.09,11.76,25.44,2.2,3.49-3.7,6.55-.48,10.42,2.54,12.78,16.39,18,21.64,29.52q-1.38-.69-2.76-1.35l-1-.89c-6.25-8-14.23-14.65-20.15-23l-.37-.64c-2.66-6.84.85-15.87-4.39-20.53C221.41,155.49,219.63,149.09,219.11,142.68Z"/><path class="cls-1" d="M270.37,154.48c5.12,2.14,10.43-4.11,14.74.39.05,1.24.11,2.48.19,3.73l-.88.29c-1.36-5.39-7.51-1.11-11.27-2.26-5.63-1.39-9.49,4.23-13.19,7.45,0,4,5.41,6.29,8.94,6.78,5.38-2.56,12-3.36,15.09-9.11.29,4.12-3.81,6.37-4.89,10,5,6.21,13.34-3.71,18.83.39.12,4.43-5,8-9,8.7,1.86-1.1,3.66-2.49,3.1-4.93-5.74.31-11.36,1.83-17.13,1.93-2.38.9-7,.48-7,3.87,6.79.62,13.57,1.41,20.2-.7-1.27,1.9-4.37,3.78-3.49,6.29,2,2.77,5.84,5.33,9.45,5,5.37.71,2.5,8.9-3.25,6.23-7.13-8-19.44-.1-28.69-4.94-1.94-8.56,13.53-1.54,14.91-8.58a15.66,15.66,0,0,0-6.93-1.93,27.1,27.1,0,0,1-6.79-.35c-2.24-1-4.6-2-7.12-1.76l-.63,0c-.82-1.55-2.43-2.25-3.89-3l1.15-.84c5.07,3.5,15,4.21,15.11-3.8-3.87,0-6-2.59-8-5.43-2.23-2.16-4.69-4.06-6.83-6.31a8.12,8.12,0,0,0-3.81-3.82l-.44-.7c3.22-.44,4.38,3.16,7.17,3.82l.72.23C262.18,163.06,264.94,154.56,270.37,154.48Z"/><path class="cls-1" d="M246.13,182.15c-5.35-2.79-1.89-8.71,3.12-5.92l1,1.35c-4.44-.57-3.5,2.88,0,3.37C248.92,181.36,247.54,181.82,246.13,182.15Z"/><path class="cls-1" d="M252.35,208.73c1.23.31,2.61.9,3,2.24C253.82,212.78,252.26,210.3,252.35,208.73Z"/><path class="cls-1" d="M254.9,213.76l1.34-1c3.12.36,5.66,2.16,7.88,4.27a12.75,12.75,0,0,1-7.93-2.18Z"/><path class="cls-1" d="M273.08,234.39c6.5,4.8,15.28,5.66,21,11.53,8.24,4.09,16.92,7.2,26.1,4.42,2.08,5.16,9.08-.91,13.45-2.18.55-1.55,3-6.73,3-2.58a47.82,47.82,0,0,0,9.73,3.67c-1,2.55,3.1,7.54,2,2.52,10.23-4.79-1.35,8.55,8.19,4.26.26,1.17-1.49,3.9.46,3.78,6.15-1-2.29,8.7,4,9.16,4.23,1.13.09,1.2-1.21,2.95-1-4.93-9.42-2.78-7.11-7.22-3.73,4.55-1.53-2.39-6-1.95,0-6.12-5.77-6.32-10.41-7.24-2.73,3.95-8.66,1.55-11.21,5.61-1.45,2.16-4.7-3.72-3.43.57-5.5,1-10.72-.05-15.84-.55-1.65-2.7-4.7-3.21-7.23-4.66-1.37-4.55-7.18-3.84-10.15-7-4.17-5-17-9-14.75,1.38l-1.62-.87c-.39-2.28-.91-4.54-1.34-6.8C271.48,240.3,269.06,235,273.08,234.39Z"/><path class="cls-1" d="M537.92,251.88c1.19-.39,2.39-.77,3.61-1.13l1.75,1.48c-1.6,1.87-4.1,1.73-6.32,1.86Z"/><path class="cls-1" d="M510.79,255.65c7.66-.87,15.29-2,23-2.82l1.35,1.38c-3.85,2.59-4.79,4.81.83,4.76,1.42.56,2.62-.65,3.08-1.88,2.37.41,4.57,1.27,4.54,4.08-1.25,1.12-3.14.57-4.65.87-6.89,4.62-9.32-5.84-14.95-3,3.47,4.73,7.76,8.07,13.92,7.76-1.56,2.89-5.41,4-7.17,6.91-1.84,1.88-2.2-2-3.53,1.36-3-.39-6.09-1.62-8.41.68-.12-2.34.53-4.23,3.2-4.23-.36-4.25-6.1-2.4-8.1-5.64-1.62,2.89,5.3,9.06-.09,9.85-5.86,1.63,7.3,2.4,1.27,3.31-3.49-.73-1.48,4.32-5,2.43l-3.33-1.09.63-1.23a47.88,47.88,0,0,0,2.77-6.11l.67-.17c1.42,2.37,4.9-1.34,1.31-1.16,1.53-2.62-.39-5.68-1.89-7.87a32.15,32.15,0,0,0-4.13-4.12C507.23,258,509.08,256.84,510.79,255.65Z"/><path class="cls-1" d="M273.06,254.09l.77-.22c3.27,3.88,5.16,12.43-1.54,13.55-7,1-11.77,6.93-17.16,11,2.7.46.65,2.27-.14,3.59-.27.28-.81.82-1.07,1.1-3.14-1.6-4.44-3.34-.74-5.26-2.2.47-5.58,1.25-4.67,4.26-2.78-3.78-6.33,1.81-8.9,3.54a1.89,1.89,0,0,0,.32,3.74c-.93.52-1.84,1.06-2.75,1.61-3.71-2.81-1.47,1.59-5,1.19.55-1.8,1.06-3.6,1.65-5.37l1.08-.9c3.31-2.35,7.81-3.6,9.9-7.31.84-1.2,2.23-1.75,3.46-2.46a11,11,0,0,0,2.87-2.05l1.11-1.05c6.29,1.06,8.33-5.95,14.08-6.84,4.07-1.59,9-6.06,7-10.7C273.25,255.16,273.13,254.45,273.06,254.09Z"/><path class="cls-1" d="M556.22,255.52c6.31,3.6-1.13,9.14-1.9,13.78-.11,2-2,.89-3.16.78.23-1.32,1.54-3.42-.79-3.2A37.39,37.39,0,0,0,551,261C554.12,262.69,554.62,257.26,556.22,255.52Z"/><path class="cls-1" d="M86.23,265.09c6-1.29-.3,5.22-3.24,5A41.75,41.75,0,0,1,86.23,265.09Z"/><path class="cls-1" d="M352.1,268.8c1.38,1,3,2.25,2.43,4.19l-1.63.94A47.13,47.13,0,0,1,352.1,268.8Z"/><path class="cls-1" d="M83.22,273.06c4,1.75-.16,7.24-3.36,7.88C80.55,278,83.79,276.46,83.22,273.06Z"/><path class="cls-1" d="M361,278.36c-2.54.55-3.94-2.83-1.38-3.6,1.29,2.11,3.7,2.68,5.88,3.46-1.48,2.27.09,6.31-3.3,6.93-3.41,1.21,2.72.72,3.91,1.11l-.28.8c-4.7-1.57-4.48,3.53-.17.59-.29,1-.6,2.05-.91,3.07-3.47,3.74-2.37,8.23.11,12.27,2.42,3.05-2.25,4.14-3.11,6.64-1.86,1.85,3.76,1.74,1.74,3.86-4,2.84-1.7,4.6-4.83,8.71l-.57-.6c-.38-1.27.08-3.06-1.16-3.88l-.95-.79a4.89,4.89,0,0,0,1.05-3l.11-.81a13,13,0,0,0,.07-4.65c-.05-.39-.14-1.18-.18-1.58,3.7,2.72,4.82-6.87,4.05-9.94-3,4-1.67-1.05-3.58-3.36a13.8,13.8,0,0,1,.76-2.44,1.85,1.85,0,0,0-.36-2.63c-.83-1.14.13-1.8,1.06-2.42l.77-1.06c2.21-3.5-.57-4.17-2.78-6C358.46,279.39,360.22,280.19,361,278.36Z"/><path class="cls-1" d="M75.24,277.11c2-1.2,5.2,1.38,3.1,3.09C76.21,282.11,72.46,278.75,75.24,277.11Z"/><path class="cls-1" d="M516.34,287c3.07-2.66,5.41-10.11,9.94-7.93-.41,1.17-.88,2.32-1.34,3.48-1.51.91-2,4.95.63,3.64.08,3.38,2.63,6.66,3.28,1.53l.82.48c1.25.9,2.51,1.8,3.75,2.72,3.85,1.87,1.93,3.17-1.29,5.33,1.2,2.79,4.21,3.77,7,3.57-.57-2-4-2.74-2.43-5.13a3.35,3.35,0,0,0,2.71-2.94c2.09,1.69,1,7.45,3.62,3.06l2.07.22q-.63,1.5-1.23,3c-3.63-1.72-3.15,3.31,0,3,.05.52.14,1.56.18,2.08-5-.2-3.43,4,.16.73,2.07-.37,6.34,2.26,6.87-.6,3,.6,6.08.47,9.17.66-.11,1.81-.32,5.41-.42,7.22-2.09-.9-4.05-2.06-6.07-3.07,9.05-1-4.39-4-7-.34-2.26,1.41-2.75,4.18-3.7,6.46a22.38,22.38,0,0,0,5.11-2.19c-.36,4.47-4.81,5.39-8.11,7.15-4,2.12-.28-2.42.06-4.28a20.13,20.13,0,0,0-5,1.38c-4.45-.56-2.55-7.81.16-9.8l.79-.21c-.51,3.26,6.42-.15,1.91-.6,3-4.71-4.31-1.42-6.55-4.05-2.56-1.79-11.56,2.72-6.37-1.7-5-3.83-2.58,4.21-7,3.25,3.07-2.39.83-2.44-2-2.19-1.89-.44-3.77-.86-5.67-1.17-.78-4.07-4.76-2.62-7.54-1.67L502,298c-4.66-3.51,1.79-6.37.35-10.41C506.63,287.43,515.52,280,516.34,287Z"/><path class="cls-1" d="M66.92,282.4a11.13,11.13,0,0,1,2-2.44C70,281.39,68.55,284.22,66.92,282.4Z"/><path class="cls-1" d="M112.07,284.79c-2.38,3-3.43-2.57-.18-1.83C111.94,283.41,112,284.33,112.07,284.79Z"/><path class="cls-1" d="M475.25,287.79l1.6.17a7.93,7.93,0,0,1,0,4l-.51-.27A16.84,16.84,0,0,1,475.25,287.79Z"/><path class="cls-1" d="M96.51,294.43c2.66-1.28,1.13,6.87-2.52,5.52C91,299.14,94.72,295.4,96.51,294.43Z"/><path class="cls-1" d="M230.2,300q-3.19-4.67.89-5.14C230.84,296.56,230.53,298.27,230.2,300Z"/><path class="cls-1" d="M104.2,296.43c4.65-1.92,4.58,2.73,1.92,5.43,5.75,1.11-.09,1.14-.4,5C101.58,307.46,101.83,299.41,104.2,296.43Z"/><path class="cls-1" d="M479.91,298l1.3-2.32,1.19,2.3A1.53,1.53,0,0,1,479.91,298Z"/><path class="cls-1" d="M484.42,297.1l1.71-.27c.4,1.88,1.05,4.17-1,5.38C479.42,302.8,485,300,484.42,297.1Z"/><path class="cls-1" d="M550.79,302.39c-1.42-4.54,2-3.29,3.52-.91C553.75,303.05,552,302.28,550.79,302.39Z"/><path class="cls-1" d="M228,303.18l.36-.36a26.49,26.49,0,0,1,2.82,2.69c-.11.37-.35,1.11-.47,1.48C229.39,306.12,228,304.94,228,303.18Z"/><path class="cls-1" d="M75.07,303.8c2.66,1.93,5.16,4.57,4.36,8.39,1.83-1.27.68-3.39.52-5.16,1.54,2.47,2.7,1,3.79-.94,1,2.1,2.9,3,5.15,3.17-1.93,3.18-3.86,6.43-1.19,9.82,4-3.74,5.22-9.16,7.45-13.93,1.66,3.15,8.38,5.35,5.38,9.27-1.61,2.36,2.48,8.63,2.2,3.14,4.32-2.71,8.66-1.13,6.6,4.19,3.55-1.66,5.27,2.53,8.23,3.57-2.54,2.75-.72,5.28,1.39,7.58-2.74,2.55-4.68.19-4.23-2.94-3.78-1.44-7.09,6.7-2.19,6.57,2.1-3.57,1,3.11,4.09,2.14,7.63-.2,12.56,7.53,20.13,6.66a35.68,35.68,0,0,0,.37,6.53l0,.65c-1.84,1.9-2.89,4.36-4,6.71l-2,2.69c-2.84.3-6.3.71-4,4.22l-.56-.34c-1.6-1.64-3.1.75-2.66,2.34l-.83,0c-4.44.59,1.88-2.15-.93-3.35-2-1.79-5.57-1.23-6.65-4,7.71-1.21,11-11,4.53-16a58.57,58.57,0,0,0,1.08,7.19c-4.94-8-19-10.65-21.32.58-7,1,1.57-4.34-1.45-8.5l-1.1-2.57.59.06a19.8,19.8,0,0,0,3.17.15c-1.08,4.92,3.29,1.93.31-.68L100,339.63c-1.24-3.72-1.43-7.66-2.61-11.38-2.87.06-5.35-1.05-7.81-2.28.2,1.84-1.36,2.85-2.51,4a17.55,17.55,0,0,0,8.12,2.59c-1,1.28-2.16,2.46-3.28,3.65a43,43,0,0,0-5-2.29l-2.82-1.06-2-1.25c.38-2.46-3.92-2-3,.42-1.65,2.18-2.45,2-2-.89,1.54-4.6,7.09-5.26,11.1-6.64-4-3-9.38-3.21-14.23-3.31.15,2.63,5.07,2,3.5,5.08-2.08-1.37-4-3.68-7-2.08-1.58.7-3.78,4.3-4.14.88,3.42-1.84,6-7.49-.16-6.21,4-2.61-1.35-2.86-1.61.44-3.93-3.61-2.5-8-2.11-12.31a16.25,16.25,0,0,0,5.61,2.23c-3.58,1.66,3.78,5.2,5.87,6.07-2.27-2.19-.75-5.38.32-7.78C77,308.26,75.24,305.4,75.07,303.8Z"/><path class="cls-1" d="M487.15,304.22l2.19.44c-4.47,1.67,0,3.44,1.69.46,1.63-.27,3.26-.61,4.91-.82,1.75.66,3.47,1.41,5.2,2.16-5.92.87-12.14,2.77-18.11,1.42C484.37,306.63,485.78,305.44,487.15,304.22Z"/><path class="cls-1" d="M517.2,306c5-.12,10-1.39,15-.11-3.09,1.29-6.86,2.21-6.86,6.26-.72-4.57-4.3-1.21-7.24-1.69.39,5.11,2.67,6.42,6.94,3.23,3.48-1.05,2.06,5.38,5.37,2.66,1.11-1.7,2.31.26,3.42.88.32,1,.65,2,1,3-.94.21-1.86.44-2.77.69-1.08-.67-2.13-1.37-3.24-1.94-2.52.08-5,.2-7.52.38-2.26-2.47-7.23-5.36-4,.05-1,0-2.09,0-3.11-.06-3.2-.94-3.73-7.35-7.2-3.2,1.61-4.22,2.09-5.36-2.19-2.27-1.77-3.19.74-5.4,2.62-7.72C510.62,305.94,513.86,306,517.2,306Z"/><path class="cls-1" d="M224.93,306.76c5.33-.73,2.5,4.35-.57,5.4.36,2.71,3.77,7.71-1.27,7-2.66-.23-5.79.55-7.29-2.06,2.46-.72,7.38,1.71,7.42-1.95C217.29,317.81,223.72,309.23,224.93,306.76Z"/><path class="cls-1" d="M39.93,310.89c3.29-.14,4.29,2.32,3.93,5.18C42.44,314.45,40.22,313.19,39.93,310.89Z"/><path class="cls-1" d="M492.93,313.64c.28-5.7,7.25-.73,3,.91C495,314.21,493.94,313.9,492.93,313.64Z"/><path class="cls-1" d="M595.12,311a5.49,5.49,0,0,1,1.93,3.37c-1.09.12-2.29.6-3.26-.13C594.24,313.14,594.68,312.06,595.12,311Z"/><path class="cls-1" d="M503.29,317.05c-2.3,2-2-4.39,0-2Z"/><path class="cls-1" d="M556.94,317l3.08-.15,6.37,1.54c-3.09.81-6.48,1-9.45-.42Z"/><path class="cls-1" d="M492.37,320.22c-3.41-.79-1.66-3.63.7-1.23v.78Z"/><path class="cls-1" d="M578.85,318.05l.88.27c0,3.53,3.91-1.68,4.19.64-.78,5.49,9.66,1.31,6.8,7.8-2.11,3.22,2.54,1.83,4.44,2.38-2.24,4-10-1-13.86-2.57C580.37,323.76,579.94,320.81,578.85,318.05Z"/><path class="cls-1" d="M216.32,322c2.2-1.21,5.55-3.52,4.21.62-4.51.63-.79,1.77,1.59,2l1.21.59a18.56,18.56,0,0,0,.54,6l-1.64-.46c-1.79-.12-3.38,1-5.08,1.39-3.61,2.51-7.46-4.47-2.41-4.82-.18,3.56,2.81,4.51,5.3,2.2-1.2-.86-4.54-.75-3.44-2.91,1.25-4-6.11,3.09-5.63-1.34,3.61.08-1.54-2.35,2.61-3.55C214.13,323.53,217.53,325.17,216.32,322Z"/><path class="cls-1" d="M358.73,323.16c1.87,1,2.7-4.16,3.69-.6,2.41,2.34-.34,2.67-2.31,3.55,1.66,3.65-3.11,7.22,2.8,5.84-3.86,2.84-2.94,7.35-4.61,11.13,5,1.5,10.26.93,15.33,1.9-1.5,3.27.66,2.65,3.12,1.8-1,6.22-6.41-.06-9.85-.84.7,1.75.05,7.43,2.94,4.87,3-1.89,0,3.16-1.83,3.23-2.58.79-2.54,6.19-5.95,3.86a20.15,20.15,0,0,0-8.15-4.35c1.29-1.39.89-2-1.06-1.66,1.73-.74,3.83-3.82,5.14-1-.34-3.74,2.08-7.85-3.78-8.27-.17-.62-.5-1.85-.67-2.46,5.93-1.18,2.28-8.29,5.18-12.13-4.86.71.94-2.11-2.38-4.07A7,7,0,0,0,358.73,323.16Z"/><path class="cls-1" d="M415,323.35a4.76,4.76,0,0,1,3.08-1l0,1.63-.76.34Z"/><path class="cls-1" d="M203.66,333.46c1.54-2.61,1.52-8.35,5.21-8.22.39,2.24,4.51,9-.46,8.82.78-2.17-.44-2.58-2.43-2.12.92,1.67,2.06,3.2,3.1,4.81-.72.72-1.44,1.46-2.16,2.2C206.15,336.92,206.38,333.87,203.66,333.46Z"/><path class="cls-1" d="M444.14,326c1.21-.11,4.27.43,3,2.19l-2.07-.5-1.16-1.14Z"/><path class="cls-1" d="M520,325.82l1.64-.1,1.35,2.16A2.39,2.39,0,0,1,520,325.82Z"/><path class="cls-1" d="M541.2,326.3c1.25-.14,2.5-.26,3.76-.38a2.09,2.09,0,0,0,2.08,2.23l.54,1.15c.16.36.47,1.07.63,1.42-1.81-.48-4.11-2.48-5.26,0-3.07-2.4-2.48.25-4.91,1.31-4.52.81-9.23,4.13-12.48-1,.11-.46.33-1.39.45-1.86l1.07-.21c1.13-.22,2.26-.45,3.39-.72l.75-.13c0,2.25,2.57,2.07,2.8,0,1.43-.13,3.85,1.42,4.25-.77C539.24,327,540.22,326.63,541.2,326.3Z"/><path class="cls-1" d="M433.81,329.53a25.17,25.17,0,0,1,7.5-2.48c-.35,3.65-4.27,1.29-4.93,4.37C434.54,333.76,436.63,328.6,433.81,329.53Z"/><path class="cls-1" d="M425.06,333.06c-5.06,2-5.21-7.59-.72-4,.57.58,1.17,1.14,1.79,1.7C424.56,330.61,423.66,332,425.06,333.06Z"/><path class="cls-1" d="M426.83,328.11l2.31,1.08c-.06.41-.17,1.22-.22,1.63,0,1.9-1.21,2.51-3,2.22l.84-2.23Z"/><path class="cls-1" d="M413.19,329.34l3.5-.73,1.89.89a3.1,3.1,0,0,0,.34,2.85c1.19,4.11,5.65,1.85,8.89,1.82,1.16.52,2.31,1.09,3.48,1.63-3.18-.73-6.14,2.67-8.94.38-.83,3.31-4.76.75-5.57,3.4l-.83.27c0-.48-.08-1.44-.11-1.92,1.06-1.07,2.16-2.09,3.2-3.16-1.76.54-5.61.31-4.77,3.1a23.75,23.75,0,0,1-.16,3.86c-3.43-2.67-8.41-.41-10.72,2.87l-.87.29c.33-2,1.11-3.9,1.61-5.86-1.82.28-4.8,2-3.55-1.2-12.46-2.89,3,3-3.58,4.07-2.2-3-9.84,1.63-8.48-2.82h.79q1.86,2,3.12-.22c.1-.47.31-1.41.41-1.88-.3-3.2,3.19-1.37,5.09-1.52,3.13-.39,11.57,1.25,7.86-3.88C408.28,330.91,410.74,330.15,413.19,329.34Z"/><path class="cls-1" d="M523.89,331c-2.25.83-4-2.6-.8-2.12Z"/><path class="cls-1" d="M401.67,332.83l1.29-.67C406.67,333,403.05,335.64,401.67,332.83Z"/><path class="cls-1" d="M550.36,332.82l.88-.31C555.39,334.59,549.07,336.83,550.36,332.82Z"/><path class="cls-1" d="M197.79,341.22c1.93-2.23,2.56-5.75,5-7.34,4.81,6.25-4.79,9.91-4,16.6C194.65,347.73,199.9,344,197.79,341.22Z"/><path class="cls-1" d="M439.77,334.71,446,334l6.63,0c6.66,2.48-.42,1.52-3.93,3.51l-1.83.48-2.58,0A5.63,5.63,0,0,0,439.77,334.71Z"/><path class="cls-1" d="M562,336.87a13.08,13.08,0,0,1,4.17-2.78c-2.12,2.39,1.37,10.87-2.82,8-.4-1.46-.56-3.2-2.37-3.46Z"/><path class="cls-1" d="M578.94,333.92c.71,1.3,1.68,1.95,3,.94,2.93-.6,1,2.43.94,4,2.13-2.63,5.29-2,8.4-1.27-5.31,1-9.66,4.42-15.37,3.45-.47-2.91,2.44-1,4-.94C577.79,338.51,577.67,336.1,578.94,333.92Z"/><path class="cls-1" d="M432.19,335.88c2.65-1.28,6.58-.2,6.24,3.3l-1.49.52c.67-2.19-.59-2.71-2.06-1.18.4-2.12-1.88-1-2.86-.49C427.36,339.65,427.84,336.23,432.19,335.88Z"/><path class="cls-1" d="M592,337.47a5,5,0,0,1,5,.67c0,.44,0,1.32,0,1.75A24.89,24.89,0,0,1,592,337.47Z"/><path class="cls-1" d="M367.33,340.34c4,2.49-6.1,4.12-6.32.71Z"/><path class="cls-1" d="M383.31,340.2c2.07,1.13-.05,3.05-1.73,2.59C378.61,343,381.9,340,383.31,340.2Z"/><path class="cls-1" d="M425.91,343c-1.32-3.49-.16-3.58,2.23-1.25C429.7,344.57,428,344.27,425.91,343Z"/><path class="cls-1" d="M431.12,342.93a3.72,3.72,0,0,1,1-3.39l.78.18.93,1A29.8,29.8,0,0,1,431.12,342.93Z"/><path class="cls-1" d="M387.32,342.25a6.92,6.92,0,0,1,5.36,0C392,343.6,388,343.6,387.32,342.25Z"/><path class="cls-1" d="M420.13,342.22l.85-.06c2.84,5.78-3.18,2.85-5.52,5.8l-.64-.34c.46-1.69-10,.93-8,3.58-1.2.48-2.37,1-3.54,1.57-2-1-3.41,1.17-4.64,2.36l-1.41.25c-1.46-.44-2.9-.89-4.32-1.39.27-1.25-.3-3,.79-3.87,5.51,3.19,9.42-1.66,14.4-2.67a2,2,0,0,0,1.7-1.61l.25-.55C413.78,346.05,416.86,343.44,420.13,342.22Z"/><path class="cls-1" d="M397.76,345.61c-.29-4.54,5.44-2.33.73-.1Z"/><path class="cls-1" d="M105.35,346.32c2.74.46,3,5.2-.13,4.47C102.93,349.33,103,347.61,105.35,346.32Z"/><path class="cls-1" d="M380,350.07c4.41.15,6.63-4.48,11.13-2-1.92,1-4.23,1.57-5.5,3.45-1.68,2.1,2.31,1.82,3.39,1.13,1.09.38,2.18.77,3.28,1.18-4.15,2.14-8.11,5.27-13,5.47,1.68-3.64-1.71-2-3.79-1.24C372,352.43,384.85,353.11,380,350.07Z"/><path class="cls-1" d="M67.18,350.28c1.48-.6,2.86,5.9,1.13,5.46C68.59,353.45,64.14,352,67.18,350.28Z"/><path class="cls-1" d="M199.67,352c.77-.43,1.42-2.23,2.46-1.41.53,2,1.87,4.06,1.21,6.26C201.51,355.73,200.78,353.62,199.67,352Z"/><path class="cls-1" d="M563.69,351.89l2.09-1.12a2.66,2.66,0,0,0,3.37.16l.61-.28,1,.19q.54,1.5,1.11,3l-.89.08a31.67,31.67,0,0,0-4.29-.78C565.64,352.76,564.65,352.34,563.69,351.89Z"/><path class="cls-1" d="M72.33,355.2c2.52,1-.79,5.28-3.45,5.75C68.74,358.26,72.41,358,72.33,355.2Z"/><path class="cls-1" d="M110.85,354.88c1.22,1.58,2.19,2.32,4.28,1.29C115.56,362,109.85,359.45,110.85,354.88Z"/><path class="cls-1" d="M372,355.85c3.25-2.71.18,2.09,2.74,2.5l1.62.88C374.17,365.24,364.84,358,372,355.85Z"/><path class="cls-1" d="M356.41,355.62c.88,1.41,1.6,2.92,2.37,4.4,0-1.84.21-3.59,2.34-2.36-3.18,5,1.22,4,4.94,3.33v1.68c-2.84-.06-5.53.67-7.27,3-1.53-2-5.35-.35-2.17,1.28l.06.76c-5.74-.59-4.94,9.56-9.48,5.51-.38,1.1-.71,2.22-1.06,3.34l-1.08,1.21c-5-2.73-6.76,4.47-11,4.95-2.73-2.71-7.09-.65-2.94.83-3.82,2.87-7.18,6.37-11,9.22-4.46-3.54,9.13-7.57,3.73-8.17,1.69-1.42,4-2.4,4.8-4.63.14-2.08,2-1.27,3.41-1.23,1.21-.45,2-1.62,2.85-2.49,1-1,2.09-2,3.18-3,1.34-.26,2.7-.48,4-.86l1.71-1.37c1.36-4.72,7.78-4.06,8.3-8.65l.65-.37C356.1,367.5,356,356.8,356.41,355.62Z"/><path class="cls-1" d="M94.4,361.54c2.26,2.73,4.56-1.44,7.17-1.57.23,2.06,1.21,3.38,3.43,3.13a4.3,4.3,0,0,0-1.67,2.83,16.46,16.46,0,0,0-4.09.05c-4.36-1.5-13.24-1.85-7.18,3.68,2-2.7,7,.41,7.18-3a20.2,20.2,0,0,0,3.62.73c2.18,1.38,4.9.84,7.31,1.44.71,6.94-7.37,1-10.23,5C96.11,379.31,87.86,376.74,86,384c1.54,6.11,10.84,2.68,12.52,8.61,3.88.11,7.48.07,3.32,2.28q-4,0-8.07.19c2.41,3.68,7.72,1.11,11.38,2.32l2.17.82c.35,3.46-.21,7.19-4.53,5.39,4.16-4-3.15-3.9-.71,0-3.25.49-6.52,1-9.78.42.81,2.46-.08,2-1.6.6-2.19,2-5,.4-7.53.6-3.89,1.61-8.32,3.23-12.25,2.82-2.67,3.47-4.42-4.53-6.31-1.7-4.37-.78-8.4-1-11.3-5-.6,2.86-2.56-.05-3.74-.92-2.21-2.59-5.79-2.37-8.79-1.62C45.18,395,49.87,390,56.11,393c-2.74-6.09-16.75-8.87-9.12-15.84-7.53-4.31-3.92,6.48-4.13,11-1.23-1.27-1.42-4.58-3.75-3.77-5.42,2.57-6.16-8-2.14-9.46,1.37-1.52,5.58-.29,4.6-3.14,2.09-3.38,11.65-3.74,12,1.34,2.7.29,1.1-3-.28-3.69,2.66-2.24,6.14-2.8,9.45-3.49-.18,1.14-.91,3.16.7,1.45,1.89-2.36,5.56-1.21,6.84-4.18,1.58,6.27,8.12-4.45,8.11,2.75,3.46,1.35,3.52-4.58,5.75-4.14,3.74.44,1.47,5.57,4.49,6.48C86.73,364.75,90.68,359.33,94.4,361.54Z"/><path class="cls-1" d="M107.74,362.68A54.24,54.24,0,0,1,114,361C116.81,364.75,110.41,362.49,107.74,362.68Z"/><path class="cls-1" d="M213.23,368.47c-1.38-3.71-9.8-2.83-7.36-7.88l2,.57,1,1a3,3,0,0,0,3,2.34l2.17.39c.7,1.29,1.38,2.59,2,3.93l-1.18,1.1a5.12,5.12,0,0,0-3.2,4.05c-1.74-1.49-3.44-.67-4.78.86-3.14-3.82.1-5.57,2.64-8.22C208.31,369.71,211.31,368.66,213.23,368.47Z"/><path class="cls-1" d="M592.08,361.93l3.87-1.2c1.33.58,2.68,1.1,4,1.62v7.49l-.77.27c3.61-9.35-4.87-5.52-1.44-1.26a12.32,12.32,0,0,1-3.53,5.22c-1.4-1.1-2.74-2.52-4.63-2.58l-.67-.16c-.7-1.19-1.47-2.34-2.23-3.48.65-2.26,3.44-2.14,5.33-2.25,0-1.9-2.23-1.85-3.49-2.56C589.74,362.69,590.92,362.34,592.08,361.93Z"/><path class="cls-1" d="M345.88,364.54a4.37,4.37,0,0,1,3.92-.57C350,366,346.94,365,345.88,364.54Z"/><path class="cls-1" d="M116,366.75a10.36,10.36,0,0,1,5.24-1.85C120.45,367.23,118,367.49,116,366.75Z"/><path class="cls-1" d="M356.62,367l1.6-.73,4.92,1.71-1,.08c-3.18-1.19-5.27,1-1.17,1.67l-.76.38c-2.4.94-4,.55-3.55-2.35Z"/><path class="cls-1" d="M111,369c-.49-1.93,1.68-2.53,3.13-2.05A2.54,2.54,0,0,1,111,369Z"/><path class="cls-1" d="M216.79,369.07c1.08-.44,2.17-.87,3.27-1.28,2.72,1.47,5.63,2.57,8.26,4.22C224.3,372.44,220.63,369.94,216.79,369.07Z"/><path class="cls-1" d="M217.81,373.36c-2.52-.66-2.22-3.65.29-1.52l1.12,1.11c0,.55,0,1.65,0,2.2-.67,1-2.91,2.88-.35,3.06,1.12,2.94-2.43,1.59-3.19,0C213.6,376.14,219.74,376.25,217.81,373.36Z"/><path class="cls-1" d="M229.11,372l2.44-.2c.07.42.21,1.27.29,1.69C230.18,374.6,227.85,374.78,229.11,372Z"/><path class="cls-1" d="M220.74,376.93c.21-4,5.67-2.49,1.45.23Z"/><path class="cls-1" d="M240,375.1l1.89-1.42.5.33c.75,1.83,2.78,1.55,4.39,1.83,1.15,1.46,2.69,2.91,4.71,2.36,2.5.92,5,3,7.7,1.59l.66-.06c4.2,1.86,8.79,2.35,13.29,2.95,1.71.37,4.16.06,4.2,2.47-.93.5-2.69.84-1.27,2l-.07.44-1.2,2-.4.67c-.32-1.28,0-5-1.48-2.2l-1-2.16c-3.48-3.32-11.06-3.2-10,3.32l-.55-.65c-.37-1.36-.76-2.71-1.2-4,.64-.47,1.27-.95,1.89-1.43-5.51-1.51-11.5-1.87-16.12-5.53C243.82,378.54,237.11,378.56,240,375.1Z"/><path class="cls-1" d="M226.3,376.22c3-1.14,7.68,2.09,4,3.31-1.35-4.95-8.56,1-3.33-.44-.71,1.21.68,5-1.63,3.54C221.8,382.44,223.65,376.62,226.3,376.22Z"/><path class="cls-1" d="M220.16,377.15l.58-.22,1.45.23c2.46,1.37-3.28,4.16-2.43.73Z"/><path class="cls-1" d="M200,382.76c.27-1.72.76-4.45,3.12-3.82-.41,1.92-1.67,3.48-2.58,5.18C200.39,383.78,200.11,383.1,200,382.76Z"/><path class="cls-1" d="M345,381c1-.56,2-1.13,3-1.71l.53.79C347.61,382.65,340.09,384.14,345,381Z"/><path class="cls-1" d="M349,379.61c1.07-1.61,2.86-.15,3.05,1.3l-.7.32C350.76,380.82,349.58,380,349,379.61Z"/><path class="cls-1" d="M581.13,381c3.33,2.39,1,7.22,1.15,10.76,1.26,1.78,3,2.88,3.6,0l1.38,1.1-.09.81c-.74,1.4-1.48,2.81-2.25,4.2-1.53.89-3,2.44-4.87,1.26-3.25-4.73,1.6-8.84-2.29-14.17C580.82,389,580.26,383.23,581.13,381Z"/><path class="cls-1" d="M246,385.55c-1-4.89,7.9-.12,4.87.66l-.71-.13c-1.19-.23-2.39-.69-3.57-.15Z"/><path class="cls-1" d="M257.17,385.9c-3.59-3,.49-4.24,2.17-.91L258,386Z"/><path class="cls-1" d="M213.77,385a8,8,0,0,1,3-1l1.23.81-1.68,1.68a4.33,4.33,0,0,1-2.76-.8Z"/><path class="cls-1" d="M279.84,385.08l1.12-1.2,2.55-.17a24.07,24.07,0,0,1,5.73,3.1c-3.3-1-9.86.3-3.24,1.17l-1,1.1c-1.19,1.81-1.54,4.05-2.73,5.87-.11-.44-.32-1.32-.43-1.77-.26-2.1-2-3.29-3.68-4.25H279C282.54,390.28,282.33,386.17,279.84,385.08Z"/><path class="cls-1" d="M39.13,385.09c3.18,1.24,0,4.5-1.23,5.88A12.45,12.45,0,0,1,39.13,385.09Z"/><path class="cls-1" d="M246.58,385.93c1.36,4.73-5.63-2.05-.59-.38Z"/><path class="cls-1" d="M290.09,384.82c1.66.09,3.33.15,5,.3l-.6,1.78a15.34,15.34,0,0,0-2.6,3.85c-.6,2.31-2.17,2.18-2.72-.08l0-1c2.07.91,1.54-.44.93-1.79l0-.93Z"/><path class="cls-1" d="M318.66,385.68c1.22-.2,2.46-.37,3.69-.53-2.41,3.12-6.65,3.92-9.52,6.56l-.67.34c.08-1.48.19-2.95.16-4.43v-.89l.73.18a2.8,2.8,0,0,0,3.23-.77Z"/><path class="cls-1" d="M340.4,386.07c-5.8,2.43-7.28-2.22.84-.37Z"/><path class="cls-1" d="M226.47,389.15c-1.43-1.88-3.66-4.22.28-3.14C230.82,386.82,229.65,388,226.47,389.15Z"/><path class="cls-1" d="M301.67,387.15l2.11-1.51,1.19,1.41-.17.75A2.9,2.9,0,0,1,301.67,387.15Z"/><path class="cls-1" d="M251.34,390.55c4.21,1.93,2.24-5.44,5.92-.7l.69.54c-.14.36-.43,1.08-.58,1.45l-.34.56C254.51,392.53,246.81,390.91,251.34,390.55Z"/><path class="cls-1" d="M263,390.19c2,1.75,2.09-1.06,2.73-2.49l.81-.15c.85,1.09,1.71,2.2,2.59,3.28-5.64-.79-4.59,4.95-9.26,2.33,2.63-1.52,1.1-2.59-1.18-3l1.77-1.09.86-.48.55.65Z"/><path class="cls-1" d="M329.62,390.48c1.91-1.94,5.38-4.12,4.49.47a41.87,41.87,0,0,1-5.94,3.28C328.61,393,329.1,391.71,329.62,390.48Z"/><path class="cls-1" d="M296.86,391.86c-2.58,5.83-5-6.45.26-1.35l.62.25C301.68,393.07,296.19,397.9,296.86,391.86Z"/><path class="cls-1" d="M301.92,392.89c-3.69-5.26,10.38-6,8.31-1.73-2.05,2.55,0,2,1.93.89l.67-.34c2.36,3.84,2.27,5.19-1.59,2.07,2.08,3.71-3.78,3.09-6.21,5.39,2.73-3.42,7.49-12.85-1.71-9.17C302.83,391,303.11,395.9,301.92,392.89Z"/><path class="cls-1" d="M232.1,389.84c3.44,1.14,1.12,4.84-1.24,1.9Z"/><path class="cls-1" d="M274.35,390.31l.4-.67c-.68,3.6,1.66,3.27,4.25,2.41-.75,3-2,4.77-4.81,2.73C268.83,396.76,273.74,392.89,274.35,390.31Z"/><path class="cls-1" d="M242.59,392.8c-2.37-3.75,7-1.06,3.2.88-3.1,2.1-4.12,7.24.17,3,0,3.62-5.76,11.21-4.09,1.17-3.82-.13-2.6,6.41-5.92,7.12C236.79,400.32,240.37,396.85,242.59,392.8Z"/><path class="cls-1" d="M236.21,392.09c3.09-1.28,3.09,1.37,2.84,3.72C236.85,395.59,233.13,394.3,236.21,392.09Z"/><path class="cls-1" d="M257.37,391.84l1.88,1.16c-.18,3.07-2.74,1.83-2.22-.6Z"/><path class="cls-1" d="M250.64,399.07c-3.49-1.61.46-7.69,3.51-5.39,3.45-.17.66,2.59-1.15,2.61C251.54,396.4,250.87,397.79,250.64,399.07Z"/><path class="cls-1" d="M282.28,395c-2.66,3.09-3.74-.7-.43-1.77C282,393.63,282.17,394.51,282.28,395Z"/><path class="cls-1" d="M319.78,397.79c1.5-1.71,3.61-2.64,5.29-4.13a4.17,4.17,0,0,1,2.12,2.06l-2.08,1.34C323.33,397.3,321.56,397.6,319.78,397.79Z"/><path class="cls-1" d="M33.92,395c1.7,0,7.44-.59,3.43,1.3C38.73,400,34.9,396.25,33.92,395Z"/><path class="cls-1" d="M285,395.89l10,.12c1.1,3.86-4.89-.64-5.37,2.67C286.36,399.69,288,396.42,285,395.89Z"/><path class="cls-1" d="M253.27,396.92c1.77.83.55,4.75-1.28,4.69l-.21-.65C252.24,399.6,252.86,398.29,253.27,396.92Z"/><path class="cls-1" d="M271.05,397c4.41-1,9.3,1.39,4.17,4.11C276.07,393.62,269,403.46,271.05,397Z"/><path class="cls-1" d="M260.06,401.75c.66,4.63-4.81-3.5-1-1.77Z"/><path class="cls-1" d="M293.3,399.25c5.15-1.95.33,3.42-2.41,2.47C290.67,400.11,292.07,399.68,293.3,399.25Z"/><path class="cls-1" d="M314.25,402.79c-.05-5.25,5.25-3,.52.25Z"/><path class="cls-1" d="M251.22,400.8l.56.16.21.65c-.05,2.79,2.84,8.66-1.81,7.36.34-2,.68-4,.83-6.05C251.06,402.39,251.17,401.33,251.22,400.8Z"/><path class="cls-1" d="M312,402.17l1.47.41a6.6,6.6,0,0,1-5.67,4.28C309.22,405.31,310.6,403.73,312,402.17Z"/><path class="cls-1" d="M290.24,402.9l1.1.67c-.07.82-.2,2.46-.27,3.28l-.62.16A8.66,8.66,0,0,1,290.24,402.9Z"/><path class="cls-1" d="M260.24,404.08c3.47-.89.28,5.85-1.31,7A21.31,21.31,0,0,1,260.24,404.08Z"/><path class="cls-1" d="M239.75,406.65a4.94,4.94,0,0,1,3.11-1.08l-.21.91c-1.42,1.77-4.85,6.28-.67,6.68-.2.3-.58.92-.77,1.23l-2.47-1.4A56.15,56.15,0,0,1,239.75,406.65Z"/><path class="cls-1" d="M244.91,405.92l1-1.08.91.23c-.6,1.31.34,2.27,1.09,3.26-1.46.47-3.89,2.43-3.07-.56C244.89,407.31,244.9,406.38,244.91,405.92Z"/><path class="cls-1" d="M441.18,407c3.55-.9,1.91.82,1,2.94l-.25.72c-2.12.56-3.52.46-2-1.78Z"/><path class="cls-1" d="M269,409.94c.21-2.22,2.82-.59,3.12.78A3.41,3.41,0,0,1,269,409.94Z"/><path class="cls-1" d="M264.36,410.42c2,2.25,2.28,4.94-1.37,4.48A15.93,15.93,0,0,1,264.36,410.42Z"/><path class="cls-1" d="M552,414.86c1.9,3.16,6.16,2.61,9.22,3.31-1.75,1.86-9.19,3.91-6.34-.32C551.81,419.76,551.52,417.73,552,414.86Z"/><path class="cls-1" d="M561.88,420.33c3.35.54,1.8-5.53,7-3.53l0,.95c-4.92-.49-2.73,4.56-3.85,7.49l-.94-1.25C563.35,422.76,562.58,421.57,561.88,420.33Z"/><path class="cls-1" d="M247.1,420.08c2.62-1.36,1.13,1.76,1.15,3.16-.26,1.47-.79,4.42-1.05,5.89-.07-.58-.22-1.76-.29-2.35C247,425.11,247.06,421.75,247.1,420.08Z"/><path class="cls-1" d="M54.2,426.56c2.67.85,10.18-2.67,7.82,2.13,3.82-1.37,2.72.18.44,2.16-5.84-2.55-1.25,6.82-.18,1,.52.34,1.27,3.15,1.7,1.28.35-3,4.32-2,2.25-5.21,3.91,1.35,7.3,4.76,11.66,3.66,2.23,1.63,5.5.52,5.5-2.49a21.93,21.93,0,0,1,4.8,3.44c-2.36,1.67.12,1.39,1.67,1.49-2,1.52-2.27,3.59.56,4.18-.35-2.11,1.24-3.51,2.75-4.65,5,1.85-.88,7.56-2.79,10.14q2.87,1.77,5.68,3.63l-.37.7-.88,1.6c-2.27,3-3.11,6.76-5.25,9.81-3.33.4-6.72,5.72-9.61,2.76-1.69,2-2.29,1.55-2.06-1.07-3.78,2.89-2.68.55-1-2.45-2.9.58-3.34,3.58-4.09,5.95-9.25-3.28-19.93-2.5-29.3-2.18-2.1-1.9-3.5.3-4.92,1.83l-.74-.16c-.83-1.47-1.33-3.45-3.43-2.76-.74-4.84-5-3.58-5.6.63-4.27-.06-8.28-2.29-12.57-1.34-2.82-1.33.28-4.44,1.87-5.53l.83-.22c3.3,0,4-3.76,4.38-6.33l.67-.74a3.25,3.25,0,0,0,2-3.6A5.78,5.78,0,0,0,28.06,441c.85-2,1.66-3.95,2.67-5.84,3,1.7,3.13-2.07,2.75-4.12.11-.5.34-1.49.45-2,2.28,1.1,4.72.2,7-.17-1.43,1.83-3,3.73-2.78,6.21,2.66-.87,6.75-1.77,5.13-6.06C47.64,430.21,51.6,431.25,54.2,426.56Z"/><path class="cls-1" d="M572.17,447.06c3.57-1.5-1.1,3.77,2.72,3.08-1.42.95-3.17,5.45-4.63,2.54C567.76,448,578,457.27,572.17,447.06Z"/><path class="cls-1" d="M565.09,449.4c5.35,1.91-4,4.34-2,1.39A1.73,1.73,0,0,0,565.09,449.4Z"/><path class="cls-1" d="M576.87,450.94c3.79-1.5,2.77,3.1,5.74,3.58a8.27,8.27,0,0,0,2.53,1.41c-.35,3.72-2.8,5.48-6.36,5.81C581.94,457.74,578.26,454.68,576.87,450.94Z"/><path class="cls-1" d="M590.31,457.29c2.6.84-.76,6.28-3.67,4.11C582.28,459.66,588,457.19,590.31,457.29Z"/><path class="cls-1" d="M0,457.76l.82-.24c1.47,1.4,4.15,2.16,4.08,4.57-1.77-.9-3.67-1.67-4.9-3.31Z"/><path class="cls-1" d="M121.37,535.12c-3-2.33,1.3-3.08,1.67-.18Z"/><path class="cls-1" d="M86.11,536a11.36,11.36,0,0,1,3.67-2l.28,1.82a8.81,8.81,0,0,1-2.94,1.38Z"/><path class="cls-1" d="M102.93,535.93l.63-.14C106.58,539.05,102.12,540.12,102.93,535.93Z"/><path class="cls-1" d="M97.14,538.74c.55-.67,1.13-1.32,1.73-2A29.54,29.54,0,0,1,97,545.67l-.69.4c.35-3.22-2.1-.83-3.61-.27C94.06,543.35,96.64,541.68,97.14,538.74Z"/><path class="cls-1" d="M79.88,541a7.68,7.68,0,0,1,3.81-3.14l.38.87c-1.24,1.11-2.53,2.17-3.81,3.23Z"/><path class="cls-1" d="M89,541.23c2.42-1,4.8-2.18,7.44-2.35a77,77,0,0,1-8.83,5.55C84.81,543.17,87.51,542.18,89,541.23Z"/><path class="cls-1" d="M96.3,546.07l.69-.4c-.53,2.3-2.58,3.72-4.14,5.33C92.45,548.47,94.33,547.12,96.3,546.07Z"/><path class="cls-1" d="M120,548.27c1.26-.58,2.52-1.15,3.83-1.62l2.56,1.15c-1.74.41-3.45.9-5.16,1.38Z"/><path class="cls-1" d="M107.48,555.24c3.59,0,7.45-1.54,8.51-5.1l1.06,1.1c-.2,4-5.08,2.91-5.39,6.46l-2,1.4a14.12,14.12,0,0,0-5-1.06C105.58,557.07,106.53,556.15,107.48,555.24Z"/><path class="cls-1" d="M135,550a7.81,7.81,0,0,1,4.14.29C138,551.91,133.68,553.69,135,550Z"/><path class="cls-1" d="M102.73,555.24a22.18,22.18,0,0,0,4.32-3.46c.17,1.14.31,2.29.43,3.46A7.86,7.86,0,0,1,102.73,555.24Z"/><path class="cls-1" d="M124.19,553.58l2.17-.48c-.1.8-.21,1.61-.34,2.42-1.37.07-2.74.18-4.1.33.06-.45.17-1.35.23-1.8Z"/><path class="cls-1" d="M136.87,556.07c-3.8-.62.45-3.17,2.32-2.81A8.16,8.16,0,0,1,136.87,556.07Z"/><path class="cls-1" d="M149.2,553.74q1.37-.47,2.76-.9c-.44,1-.85,2.06-1.26,3.11l-.64.24a6.8,6.8,0,0,0-4.9,2.76c-.64.7-1.27,1.42-1.89,2.15,0-.49.09-1.46.13-1.94a5.22,5.22,0,0,0,.47-3.13c1.67-.41,3.9-.16,4.71-2.06Z"/><path class="cls-1" d="M152.06,557.08c2.42-.3,4.91-1.26,7.31-.35a51.66,51.66,0,0,1-6.87,7.53c-.13-.59-.37-1.76-.49-2.35-.22-1.07-.45-2.12-.7-3.17C151.5,558.33,151.88,557.5,152.06,557.08Z"/><path class="cls-1" d="M83.62,558.85c.47-2.11,3.07-2.16,2.39.35A2,2,0,0,1,83.62,558.85Z"/><path class="cls-1" d="M90.68,562.28a24,24,0,0,0,8.14-5.37c5.26-.34.81,2.21,1.67,5.18l.08.53-.61.58-.76-.27c-2.16-2.54-5.87,3.06-2.29,3l2.9,0c-.1.5-.3,1.52-.41,2-1.19-1.14-2.7-.73-4.11-.4C92.68,566.9,91.22,564.83,90.68,562.28Z"/><path class="cls-1" d="M140.44,557.7l.87,1.25c-.33.29-1,.85-1.35,1.13a9.75,9.75,0,0,0-2.14,2.16l-2.06.55h-.91C136.61,561,138.57,559.39,140.44,557.7Z"/><path class="cls-1" d="M142.14,558.14l1.26,1c0,.48-.1,1.45-.13,1.94l-.19.86c-1,1.27-2.48,2.79-4,1.23l.79-.37c1.52-.55,2.08-2.3,2.1-3.76Z"/><path class="cls-1" d="M204.83,558.85c4.21.33,8,2.45,12.07,3.29a4.42,4.42,0,0,0,3.39,1.67L222,564c.68.67,1.39,1.33,2.11,2A28.08,28.08,0,0,1,204.83,558.85Z"/><path class="cls-1" d="M168.62,561l2.37-.88C171.23,562.08,168.69,564,168.62,561Z"/><path class="cls-1" d="M84.88,562.86l.9-.72C89.3,565.43,82.4,567,84.88,562.86Z"/><path class="cls-1" d="M103.36,562.47l1.55-.76c-1,2-2.17,6.5-5.1,4.22.09-.49.26-1.45.35-1.93C101.59,565.5,102.86,563.86,103.36,562.47Z"/><path class="cls-1" d="M165,561.86l1-.2c2.09.39,2.25,2.65,3,4.26l-.75.3c-1.31.28-2.63.53-3.92.89-4,.31-10.1,7.62-2.7,4.78a115.87,115.87,0,0,0-6.34,12.39c0-2.77-.07-5.91-2.25-2.26-.08-.59-.25-1.75-.33-2.33.78-2.57,1.62-5.1,2.43-7.65a3.8,3.8,0,0,0,1.66-3.38q.68-1.32,1.38-2.58l1-1c1.43.28,3,.77,3.83-.84A20.2,20.2,0,0,0,165,561.86Z"/><path class="cls-1" d="M172.89,561.83l2.35.4a19.39,19.39,0,0,1-5.6,3.41C170.65,564.31,171.75,563.06,172.89,561.83Z"/><path class="cls-1" d="M131.76,568c-.72-1.38-1.51-4.68,1.12-3.28.24.35.74,1,1,1.38l0,.74Z"/><path class="cls-1" d="M145.67,565.88c2.16,1,4.25-.28,6.28-1l-1.27,1.82c-1.57.34-2.29,1.8-2.59,3.25-1,.79-2.06,1.58-3.12,2.35l-.81-.38c2.12-3.07,2.37-4.82-1.38-2.21A11.43,11.43,0,0,1,145.67,565.88Z"/><path class="cls-1" d="M226.05,566.13l.79-.4,2.17,1.41a7.67,7.67,0,0,0,5.09,1.71l1.63.23c-.08,1.82,1.79,2.36,3.26,1.91l2.84.94c.87.77,1.73,1.56,2.59,2.36C238.1,573.66,229.38,571.87,226.05,566.13Z"/><path class="cls-1" d="M134.64,567.08l2.34,1,.3.85-1,1.28c-.41-.62-1.24-1.86-1.65-2.49Z"/><path class="cls-1" d="M118.64,569.15c1.58,1.45,2.67-.65,3.8-1.56l-.12,2.54c-.83.92-1.66,1.84-2.47,2.79a8.8,8.8,0,0,0-3.84,3.91l-2,1.26c-1-3.62,5-4,3.32-7.38l-.17-.73Z"/><path class="cls-1" d="M92.07,572.74c-.55-2.29,1.07-3.45,3-4.25a10.33,10.33,0,0,1-2.12,4.65Z"/><path class="cls-1" d="M110,572.14c1.32-.63,2.64-1.25,4-1.84l.12.62c-.65.82-1.3,1.65-2,2.46l-2.26.14-.27-.77Z"/><path class="cls-1" d="M163.13,575c-.73-1.73-.1-3.93,2.08-3.82A5.85,5.85,0,0,1,163.13,575Z"/><path class="cls-1" d="M139.51,574c.79-.73,1.58-1.45,2.38-2.15l1.21.11-1.55,2A13.28,13.28,0,0,0,140.3,576l-.56,1.58-1.38,1.45L137.2,578A21.46,21.46,0,0,0,139.51,574Z"/><path class="cls-1" d="M81.09,576.24,83,576c-.46,1.95-.87,3.91-1.21,5.9l-1.48.29C80.56,580.18,80.89,578.22,81.09,576.24Z"/><path class="cls-1" d="M88.19,578A4.44,4.44,0,0,1,90,575.5l1.73.43A5,5,0,0,1,90,578.31Z"/><path class="cls-1" d="M111.17,576.23l.71,0c.06.7.17,2.11.23,2.81l-1,.54c-.31-.49-.93-1.49-1.25-2l-.05-.56Z"/><path class="cls-1" d="M257.77,577.13l1-.06a5.73,5.73,0,0,0,3.32,1.85c1.57.78,3.15,1.52,4.78,2.19a10.91,10.91,0,0,0,1.95,2.29c1,4.4,12.91,12.49,7,4.77l.95,0,1.08.4c1,.86,2,1.77,3,2.67,2,3,4.45,5.76,6.26,8.94-5.41-3-10.56-6.44-16.8-7.46C266.17,587.43,263.49,581,257.77,577.13Z"/><path class="cls-1" d="M101.93,588.49c1.2-3.13,2.57-6.29,5.85-7.73l.47.83a7.71,7.71,0,0,0-2,3.55c-.36,1.27-.7,2.55-1.06,3.84-1.6,1.78-3.87,4.58-3.25.3Z"/><path class="cls-1" d="M126.58,580.78l.62.36a8,8,0,0,1-1.23,2.93l-.61.17A2.89,2.89,0,0,1,126.58,580.78Z"/><path class="cls-1" d="M133.82,585.64a41.3,41.3,0,0,1,2.2-3.83l.86.34c-1.3,4.63-2.63,9.28-4,13.91-.33-.53-1-1.58-1.34-2.11.07-.39.19-1.16.26-1.55a41.42,41.42,0,0,0,1.41-5.47Z"/><path class="cls-1" d="M122,585a1.11,1.11,0,1,1,2.1.73l-1.79,1.16C122.18,586.43,122,585.49,122,585Z"/><path class="cls-1" d="M159.76,588.06a2.28,2.28,0,0,1,.24-4A7.77,7.77,0,0,1,159.76,588.06Z"/><path class="cls-1" d="M152.66,586.79c0,3.92,1.51.8,2.29-1-.37,2.7.93,5.91-1.07,8.13C150.61,593.19,152.57,589.12,152.66,586.79Z"/><path class="cls-1" d="M158.34,599c3.61-.65-3.78-11.43,1.82-9.2-.25,9.27,9.45,15.08,17.85,13.24,9-1.94,17.38,3.37,22.64,10.21,1.09,3.15-3.64,12.44,2.7,11.29,10.77.92,18.19,10.93,28.45,12.94,2.55-1.18,6.19-4.44,4.67.56,6.65,12.91,22,18.92,31.91,29.46,3.17,1.43,6.74,6.15,10.32,3.2,2.25-1.66,2.5-4.63,1.74-7.11,5.25,1.89,5.9,8.22,1.24,11.26-14.95,3.25-22.14-13.69-34.47-18.23-4.46-2.27-9.42-.14-14-2-6.95,2-9.47-5.63-14.5-8.37-7.47-.36-12.88-6.43-20-8.15,2.18,4.79,6.64,8.28,8.05,13.45,6.29,1.62,6.39,10,9,14.75,3,5.94-6,7.52-9.47,10.08-11.79,9.87-23.65,19.57-34.72,30.3-1.19,1.81-3.14-.19-4.62-.53l-.14-.8c1.22-2.64,1.52-6.23,4.59-7.42,6.7-.41,11.82-8.15,17-12.48,7-8.13,21.11-15.45,16.24-28.08-1.15-10.37-11.92-16.22-14.43-26.15-2.46-1.39-6.45-.49-6.64-4.12-1.86,3.23-5.53,2.64-8.82,2.81q2.52-1.53,5.1-3a2.7,2.7,0,0,0,3.25-1.79,25.39,25.39,0,0,0,5.82-1.83,18.47,18.47,0,0,0,4.1,1.79c-1.08-9.35-12.24-18.7-20.93-13.75-4.74-3.94-10.67-6.08-14-11.65Z"/><path class="cls-1" d="M285.85,592.92c1.36.37,2.72.77,4.09,1.17a4.7,4.7,0,0,0,4.08,1.84l.73.14a14.44,14.44,0,0,0,8.12,6,23.71,23.71,0,0,0,4.26.89c2.72,4.2-3.64,4.74-6.39,5.81-3.14-1.81-6.1-3.91-9.45-5.3-1.15-7.29,6,4.32,9,.29C296.12,599.46,289.22,598,285.85,592.92Z"/><path class="cls-1" d="M100.29,593.93a5.23,5.23,0,0,1,1,3.16l-1.49,2c-.82-1.46-.22-3.07.16-4.54Z"/><path class="cls-1" d="M399.19,606.05l.83,0a6.9,6.9,0,0,0,4.86,1.8c3.68,2.26.54,2.44-2.32,2.6l-1-.09C397.92,611.07,394.91,608,399.19,606.05Z"/><path class="cls-1" d="M410.48,607.79l.6.19a3.58,3.58,0,0,1-2.44,3.35l-.66-.24A10,10,0,0,1,410.48,607.79Z"/><path class="cls-1" d="M303,610c4.63,1.74,7,6.37,10.89,9.23l1,1a10.38,10.38,0,0,0,3.22,2.46l.76.4c3.39,3.86,1,9.19,1.6,13.8-3,2-6.75.19-9.74-.65-10-5.44-20.08-10.57-30.1-15.88-9.75-2.14-2.6,5.89.09,8.81,4.56,4.11,9.36,8,14.13,11.84q-.09,2.44,2.34,1.89l.84,1c8,12,19,21.68,29,32-5.44,4.78-11.68.73-12.37-5.59-7.93.34-12.95-4.73-17.84-10.12-9.66-1.14-17.47-9-25.2-14.49-2.34,2.64-4.83-5.64-8.95-5.39-5-1.44-3,4.8-.54,6.63-4.47-2.65-8.92-6.52-10.17-11.75,5.6-4.37,14.39-.54,17.64,5.23C277,645.65,285,650,292.77,654.65c1.26-2.6,6.75-3.68,4.61-7-7.05-9.2-17-15.71-24.89-24.15-3.86-4.38,3.59-10,7.49-6.44,9.48,5.74,19.13,11.53,30.18,13.77,3.45,1.24,6.59-3.65,4.81-6.69-3.23-4.34-6.23-9.89-11.86-11.31l-.35-.68C302.82,611.57,302.92,610.51,303,610Z"/><path class="cls-1" d="M416.12,613.45c-.38-1.43-2.27-4,.56-3.47.13,2.33,2.26,1.26,3.75,1.1-1.19.86-2.38,1.73-3.59,2.56Z"/><path class="cls-1" d="M342.87,613.28a39.76,39.76,0,0,1,8.38-.51l-.06.72c-9.47.74,2.68,3.64,5.85,5.4,3.07,4.27-4-.26-6-1-1.28,4.56,6.35,1.6,5.94,7,3.18,3.4-2.38,1.59-3.94,2,.1-3.86-5.19-1.32-.78,0-4.55-1.16-10.25-1.11-13.69-4.76l.18-1.15c1.3-2.2,2.83.22,4.16,1.05,2.1,2.29,5.48,1.25,8.23,1.64-.45-2.05-2.81-2.43-4.26-3.56,6.56.27-.71-2.53-3.28-3C342.26,616.17,342.44,614.69,342.87,613.28Z"/><path class="cls-1" d="M426.89,614.75c-2,.61-6.36-.8-4.89-3.28,1.6.91,3.16,2.38,5.16,1.84C427.09,613.67,427,614.39,426.89,614.75Z"/><path class="cls-1" d="M355.08,613.09l3.73-.32a5.46,5.46,0,0,0,3,1.34,15.92,15.92,0,0,0,3.08.56l.72.08.95.24c3.25,3,9,2.61,10.67,7.42a39,39,0,0,0-4.71.49l-.77-.69c.51-1,1-2,1.46-2.92-6.48,1.75-11.75-4.16-18.17-4.6C355,614.29,355.07,613.49,355.08,613.09Z"/><path class="cls-1" d="M427.4,615a29.66,29.66,0,0,1,3.53-.48l.62.51,1.53,1.33-1.32,1-.7.13C429.81,616.69,428.6,615.84,427.4,615Z"/><path class="cls-1" d="M317,615l.95.25c1.11,2,3.31,1,5,.59l2.82-.14h.76l.09.74c-.6,1.25.48,1.74,1.42,2.25-1.07.55-4,.69-2.15,2.26,3.08,3.16-2.11,1.59-4.08,1.36-1.41-.89-2.79-1.81-4.16-2.72A5.45,5.45,0,0,1,317,615Z"/><path class="cls-1" d="M399.34,619.18c-6-6.26,3.35.69,6.72.41.76.27,1.53.56,2.3.87,1.1,7.15-6,.13-8.21-1.18Z"/><path class="cls-1" d="M331.72,619.14l3.44-.37a6.28,6.28,0,0,1,3.59,2.25l-.18,1.15A10.39,10.39,0,0,1,331.72,619.14Z"/><path class="cls-1" d="M360.14,621.35c1.74-.13,3.26,1.71,3.91,3.22l-.67.29C362.09,624.08,359.44,623.3,360.14,621.35Z"/><path class="cls-1" d="M369.22,629.9c-1.3-1.12-3.5-4.48-.08-3.23l1,1.13c.1.57.28,1.72.38,2.29Z"/><path class="cls-1" d="M162.76,634c1.68-.58,3.34-1.19,5-1.85.2,2.72,5.16,4.54,3.61.62,2.74-.69,4.08,3.08,2.14,4.72,1.8,2.62,2.53,5.41.33,8.13-2.13,1.47-4,3.22-6.17,4.69-4-.71-7.74-2.22-11.6-3.35-4.55,3.22-11.68,8.89-15.31,1.95.72-3.83,4.1-5.66,7.4-7,2,2,3.78-.89,3.9-2.81.94-.78,1.9-1.53,2.84-2.29a2.53,2.53,0,0,0,3.2-1.86l.85.07c1.79.68,1.77,2.28,1.52,3.92,2.05-.87,6.8.13,6.44-2.86A33.09,33.09,0,0,0,162.76,634Z"/><path class="cls-1" d="M337.14,632.8c2.39-.15,3,2.5,3.89,4.2C337.94,637.87,337.62,635.09,337.14,632.8Z"/><path class="cls-1" d="M263.08,647.76a14.53,14.53,0,0,1,6.2,5.07A9.89,9.89,0,0,1,263.08,647.76Z"/><path class="cls-1" d="M270.93,654l1.95.06,2,1.93c.41,1.29.8,2.59,1.21,3.91A39.18,39.18,0,0,1,270.93,654Z"/><path class="cls-1" d="M233.32,657.24c6.48-.71,11.9,7.48,11.59,12.9-6.21-2.1-9.25-8.17-13.87-12Z"/><path class="cls-1" d="M153.54,668c9.19,1.62,17.05-12.36,26.84-9.42,1.08,3.95-1.74,8.89-3.93,12.47-3.31-6.1-11.9.18-15.87,2.46-2.72,3.16-8.08,5.68-11.56,2.25A10.9,10.9,0,0,1,153.54,668Z"/><path class="cls-1" d="M164.23,694.86a53.2,53.2,0,0,1,9.58-20c-1.37,6.22,4.35,3,6.87.72,3.28-2.71,7,3.27,3.47,5.46a173.9,173.9,0,0,0-11.94,15.2C174.7,688.25,167,698.88,164.23,694.86Z"/></g></g></svg>