<svg xmlns="http://www.w3.org/2000/svg" viewBox="0 0 600 737.05"><defs><style>.cls-1{fill:#754d2a;}</style></defs><title>Layer 13</title><g id="Layer_2" data-name="Layer 2"><g id="Layer_13" data-name="Layer 13"><path class="cls-1" d="M296.76.46a30.67,30.67,0,0,1,10.47,0C303.71.51,300.25.66,296.76.46Z"/><path class="cls-1" d="M277.89,2.53c1.05-1.29,2.8-1.2,4.22-.66C281.08,3.2,279.3,3.07,277.89,2.53Z"/><path class="cls-1" d="M327.73,3.74c2.63-.35,6.1-.25,7.91,1.9-2.05,1.38-4.35-.06-6.48-.47Z"/><path class="cls-1" d="M265.87,6.07c1-1.29,2.4-2.48,4.17-2.22C269.38,5.51,267.75,7.52,265.87,6.07Z"/><path class="cls-1" d="M337,5.83a44.67,44.67,0,0,1,13,5.5l-.85.36C345.72,9.43,336.51,9.68,337,5.83Z"/><path class="cls-1" d="M250.2,11.8c3-.31,4.89-3.13,8-3.08a58.6,58.6,0,0,1-10,6.34C248.85,14,249.51,12.87,250.2,11.8Z"/><path class="cls-1" d="M268.84,11.27c2.38-1.79,6.43-2.21,7,1.55-1.32,7.51,7.13,8.34,11.39,11.65,3.1,2.59,7.35-.28,10.86,1.34-1.91,2.16-4.74,3.27-7,5.07,2.72,6.05,8.89,8.6,14.44,11.39,7.12,3.1,11.69,9.63,17.93,14,.9,6.32,5.46,10.36,6.8,16.18,1.25,6.43,9.81,7.59,11.37,13.68,3,10.75-2.11,22.42,3.16,32.77,3,6,1.88,12.7.19,18.84-3.18,17.93-11.11,35.22-9.4,53.56-1.58,4.51-4.74,8.54-3.8,13.68-13.56,5.66-19.67,25.54-36.48,24.08-3.44,2.73-5.09,9.29-10.42,7.09-8.6,2.21-17.92.41-26.35-2-.71-.43-1.41-.85-2.12-1.26-.06-.57-.16-1.71-.22-2.28a12.75,12.75,0,0,0,7.93,2.18l.68.41c7.51,2.46,17-.5,23.27-5.32,18.26-8,37.16-23.4,37.64-45-3.64-6.57,3.1-12.28,3.66-18.53,7.53-9.25,11.93-23,12.35-35.33,1.52-5.05-4.51-12.53-9.29-7.86-6.18,5.84-15.42,3.74-22.62,6.12l-1.61.66c-1.18-.82-2.34-1.67-3.5-2.5.84-3.89,4.72-1.41,7.33-2.78-1-.92-2.08-1.77-3.14-2.63,4.15-1.71.74-6.35-2.73-5.2-1.46-.08-2.91-.13-4.36-.13-2.54-5.42,8.07-1.74,10.21-3.06,8.91-.7,20.05-1,25.7-9.28,1.87-6.87.39-16.94-7.68-18.73-4.44-4.6-10.44-8.78-11.39-15.58-.83-10.06-9.88-16.12-15.11-23.86-5.91-5.41-14.48-5.09-22-5.67l-2.23-.08c-2.81-1.83-6.47-1.17-9.54-2.47l-.66-.24c-2.5-4.7,2.8-9.23-.27-14-3.63,3.26-4.48,7.88-5.57,12.24-6.48,1.82-11.94,6.08-18.54,7.59-2.22.64-4.33,1.62-6.5,2.39q-4,1.32-7.88,2.9c-2-6.52,9.14-10,5.73-16.16-2.59-5.18-4.76,5.45-9.25,3l.81-1.68q1.1-1,2.22-1.95c2.35-1.65,7.39-4.77,7.07-7.56.34-.54,1-1.63,1.37-2.17l.88,2.25c.4,2.36-1.16,3-3.15,3.12,2.78,2,6.89,9.33,5.18-.22C250.33,20.61,262.59,20.16,268.84,11.27Z"/><path class="cls-1" d="M302.6,18.71l1.8-.2C304.88,21.65,302.28,22.07,302.6,18.71Z"/><path class="cls-1" d="M377,33.78c1.65-.23,3.43.95,3,2.79l-2.3-.86Z"/><path class="cls-1" d="M380,37.25c2.55.8,3.26,3.28,3.88,5.58l-1,.17-.67-.4A25.21,25.21,0,0,0,380,37.25Z"/><path class="cls-1" d="M214.8,56.16a33.72,33.72,0,0,1,7.87-14.83l.82.32c-.1,1.87,2.39,4.27-.32,5.12C219,48.52,218.89,54.06,214.8,56.16Z"/><path class="cls-1" d="M218.94,67.69c3.95-6.61,3.26-16.36,11.07-20.17-1.08,2.72-3.13,4.84-4.84,7.16,4.42,2-5.73,5.27.08,5.38l-.43.57c-8.16,5.76-.26,17.84-5.7,25.17-4.67,5.91.31,13.57-2.63,20-.41-1.11-.82-2.23-1.22-3.34,0-.65-.12-2-.15-2.6a2.09,2.09,0,0,0-.19-3.59l.33-.52a2.47,2.47,0,0,0,0-4,47,47,0,0,0,.76-5.68C219.19,80.24,217.63,73.72,218.94,67.69Z"/><path class="cls-1" d="M213,57.68l.89-.21c.81,3.36-.2,4.48-2.13,6.1L210,64.88A31.83,31.83,0,0,1,213,57.68Z"/><path class="cls-1" d="M205.56,70.9c1.22,1.07,2.59-.07,3.17-1.22.31,1.66.53,3.33.8,5-1.15,1.54-2.49,4.07-.07,5.2l-1.35,1.52a38.63,38.63,0,0,0-7.22,4.29c1.68-3.79,10.79-9.1,3-12.15.32-1,.65-2,1-3Z"/><path class="cls-1" d="M200.91,76.58a7,7,0,0,1,3-3A2.33,2.33,0,0,1,200.91,76.58Z"/><path class="cls-1" d="M198.19,80.48c2,1.87-.72,3.14-2.48,2.93A6.84,6.84,0,0,1,198.19,80.48Z"/><path class="cls-1" d="M0,88.15c.75,1.11,1.48,2.24,2.14,3.42A14.31,14.31,0,0,1,0,96.27Z"/><path class="cls-1" d="M191.25,106.7c2.06-.91,4.46-1.27,5.91-3.16,1.86,4.36,1,9.32-4.24,9.86,1.1,1.34,3.46,2.31,2.29,4.36-2.6,3-5.65,1.23-7.7-1.39.72-2,2.42-3.23,3.84-4.67C193.16,110.21,192.25,108.36,191.25,106.7Z"/><path class="cls-1" d="M216.93,107.12l1.7-.64,0,.9q-1.71,3.83.83,5.65l1.39.89c7.06,6.15,17.89-4.51,24.22,1.78-1.71,0-3.42,0-5.12,0l-1.74.08a22.59,22.59,0,0,0-8.19,1.86c-1.92.91-2.58,3-3.22,4.85a32.14,32.14,0,0,0,8.33-2.72,9.09,9.09,0,0,0,3.88-.31c-4.13,5.5,6,10.23,7.43,4.57,1.87-2.56-1.65-3.23-3.32-4.28l.77-.36a36.92,36.92,0,0,1,4,1.46,17.27,17.27,0,0,0,4.3,2.87l.18.83a42.71,42.71,0,0,1-6.54,4.14l-.72.14-2.9.41c-5.76.15-5.08-10.13-11-4.46-2.19,1.29-4.47,2.75-7.13,2.35l-.81-.11c-2.52-3.38-6.12-.23-7.25,2.78C217.12,122.28,216.12,114.68,216.93,107.12Z"/><path class="cls-1" d="M273.31,119c2.81-10.47,17.33-11.16,23.81-3.9-1,.1-1.93.16-2.89.19-8-1.59-12.16,8.86-17.55,13.19C268,131.31,272,122.86,273.31,119Z"/><path class="cls-1" d="M296.84,118.81a16.77,16.77,0,0,0,4.42,0c-3.29,2.81-1.29,5.24,1.91,6.81-.7,1.13-1.38,2.27-2.05,3.43-2,.5-3.21-1.61-4.28-2.94,1.69-.83.72-3.19-.93-3.25l-.71-.23C291.47,121,294.54,119.87,296.84,118.81Z"/><path class="cls-1" d="M188.67,134.8c6.1-3.82,6.79,6.77,3.47,9.9,5.82-.63-1.12,3-2.3,5.1a12,12,0,0,0,6.06-2.12c0,.42-.08,1.25-.11,1.67a29.48,29.48,0,0,1-5.1,4.76c-2.89-1.08-6.56-.92-8.62,1.65,0-2.06-.11-4.12-.17-6.17.43-1.22.89-2.42,1.34-3.63,1.3-.26,2.62-.49,3.91-.81,1.87.1,1.62-1.64.1-2L185,141l1.27-1.3.47.36c2,1.58,1.67-2.29,1-3.31Z"/><path class="cls-1" d="M214.89,137.08l1-.28c.1.41.31,1.25.42,1.67-.11,1.81-.32,5.43-.43,7.24l-1-.38C214.93,142.59,214.87,139.81,214.89,137.08Z"/><path class="cls-1" d="M154.24,144.7c1.86-.93,1.74-3.59,2.74-5.24,4,5.8-5.58,11.53-8.88,5.39.22-.24.67-.72.9-.95A14.84,14.84,0,0,0,154.24,144.7Z"/><path class="cls-1" d="M162,147.93c1.54.53,2.91-.29,4.24-1-1.12,3,0,8-3.81,8.94C162.27,153.25,162.13,150.57,162,147.93Z"/><path class="cls-1" d="M215.82,149.77l2.16,1a36.34,36.34,0,0,0,1.13,7.62c.52,6.41,2.3,12.81,4.24,19,5.24,4.66,1.73,13.69,4.39,20.53-2.15-2.87-2.82-6.48-4.61-9.55l-.33-.72a5.38,5.38,0,0,0-1.55-6c-.24-3.57-1.65-6.9-2.13-10.42,1-2.35-.24-4.69-.94-6.92l-.16-.69a4.08,4.08,0,0,0-.88-3.41c-.37-3.14-1-6.24-1.37-9.37Z"/><path class="cls-1" d="M260,179.84c3.7-3.22,7.56-8.84,13.19-7.45,3.76,1.15,9.91-3.13,11.27,2.26-.11.71-.32,2.14-.43,2.86-3.1,5.75-9.71,6.55-15.09,9.11C265.37,186.13,260,183.89,260,179.84Z"/><path class="cls-1" d="M274.91,193.64c5.77-.1,11.39-1.62,17.13-1.93.56,2.44-1.24,3.83-3.1,4.93l-.85.17c-6.63,2.11-13.41,1.32-20.2.7C267.92,194.12,272.53,194.54,274.91,193.64Z"/><path class="cls-1" d="M250.31,196.71c-3.52-.49-4.46-3.94,0-3.37l1.37.39c1.46.79,3.07,1.49,3.89,3A31.61,31.61,0,0,1,250.31,196.71Z"/><path class="cls-1" d="M228.11,198.58c5.92,8.35,13.9,15,20.15,23-4.53-.87-6-8.61-10.47-6.89a48.68,48.68,0,0,0-5.51-6C232.57,204.92,228.61,202.31,228.11,198.58Z"/><path class="cls-1" d="M183.23,219.1c1.06-1.56,6.77-.14,3,.87C185.31,220.64,182.23,221.18,183.23,219.1Z"/><path class="cls-1" d="M249.27,222.47l2.76,1.35.32.67c-.09,1.57,1.47,4,3,2.24l.86,1.75-1.34,1c-1.24-.68-2.49-1.34-3.74-2l-.28-.75C250.42,225.32,249.87,223.88,249.27,222.47Z"/><path class="cls-1" d="M268.68,247.93c9.22-2.56,19,2.56,27.86,5.63,7.79,9.41,21.38,3.6,30.59-.61,2.86-.09,7,2.25,6.83-2,1.76.87,3.5,1.93,5.54,2-.11-5.33,11.76-2.82,8.93,3.6,9,.21,5.78,12.64,11.92,16.88,4,5.09,4.78,12,7.18,17.88,2.11,2,6,2.86,5.72,6.45-2.61-3.89-5.84,2-7.12,4.34-1.19-.39-7.32.1-3.91-1.11,3.39-.62,1.82-4.66,3.3-6.93-2.18-.78-4.59-1.35-5.88-3.46.05-.71.14-2.13.18-2.84,1.3-1.75,5.44-1.82,1.21-2.95-6.3-.46,2.14-10.13-4-9.16-1.95.12-.2-2.61-.46-3.78-9.54,4.29,2-9.05-8.19-4.26,1.09,5-3,0-2-2.52a47.82,47.82,0,0,1-9.73-3.67c-.05-4.15-2.48,1-3,2.58-4.37,1.27-11.37,7.34-13.45,2.18-9.18,2.78-17.86-.33-26.1-4.42-5.69-5.87-14.47-6.73-21-11.53-4,.59-1.6,5.91-2.35,8.79l-1.48-5.5C269.08,251.6,268.91,249.76,268.68,247.93Z"/><path class="cls-1" d="M592.05,258.48c-3,3.22-3.62-1.12-.16-1.58Z"/><path class="cls-1" d="M272.07,265.74l1.62.87c.05,1,.09,2,.14,3l-.77.22C271.59,269,271.79,267.15,272.07,265.74Z"/><path class="cls-1" d="M543.28,268l3-.27c-3.78,2.13-2.3,5.79-2.71,9.21,0-2.81-2.17-3.67-4.54-4.08-1.43-.77-2.77.56-3.08,1.88-5.62,0-4.68-2.17-.83-4.76l1.86-.12C539.18,269.72,541.68,269.86,543.28,268Z"/><path class="cls-1" d="M551.05,275.83c1.79-1.71,3.43-3.57,5.06-5.43l.11.88c-1.6,1.74-2.1,7.17-5.2,5.49Z"/><path class="cls-1" d="M255.43,284.93a35.42,35.42,0,0,0,17.89-13.65c2,4.64-2.94,9.11-7,10.7-5.75.89-7.79,7.9-14.08,6.84C253.38,287.61,253.3,282.89,255.43,284.93Z"/><path class="cls-1" d="M562.46,274.46c1.39,1.8-.44,3.74-2.44,3.31C559.91,276.16,561.23,275.19,562.46,274.46Z"/><path class="cls-1" d="M86.73,276.41c2.72-2.69,3.2,4.5,5.12.4,2-3.28,5.87,6.52,5.31-.1h2.63a1.62,1.62,0,0,0,2.83-.91l.52-.53c5.93,5.87-9.46,12.2-.89,14.14-5.48.24-11.72,4.93-9.18,11.24-6.19-5.09-.83,1.4-2,5.82,3.67-2.84,8.9,2.28,11.63-2.07,3.61-1.38,3.73-6.46-.66-6.32,0-4.19,2.4-7.79,3.85-11.58,1.68-3.22,9.08,1.75,7.49-3,3.93.66.73,7.67-2.38,3.42-1.34,3.64,1.85,7.94.91,11.81-3.25-.74-2.2,4.86.18,1.83.55,1.66,1,4.18,2.92,2.17,5.9-6,.56-15.39,3.18-22.75a21.63,21.63,0,0,0,8.8-1.24c-4,6.08-.41,12.56,1,18.78-3.2,3.36-4.6,7.8-6.6,11.89,4.08,2.4,3.58,7.64,2.34,11.53-1.74-2.15-.76-4.84-.71-7.3-5.09.59-3.08,7.19-3.68,10.73,3.61.15,7.21-.44,10.83-.54-.62,7.15-10.62,7-9.17,15,4.13-1,4.67-6.43,8.54-7.27.41,5.84,5.7.67,8.77.38-1.71,3-5,5.14-5.36,8.89,4.8-2.84,8.72-6.93,9.15-12.7-6.7.15,4.94-6.36,2.26.49,5-.21,8.65,5.13,7.66,9.82.58,2.73-5.52,8.23-.73,6.61-2,6.24-10.58,9.73-9.08,17-.36.89-.73,1.78-1.11,2.68-1.29,1-2.6,2-3.91,3a35.68,35.68,0,0,1-.37-6.53c-7.57.87-12.5-6.86-20.13-6.66-3.05,1-2-5.71-4.09-2.14-4.9.13-1.59-8,2.19-6.57-.45,3.13,1.49,5.49,4.23,2.94-2.11-2.3-3.93-4.83-1.39-7.58-3-1-4.68-5.23-8.23-3.57,2.06-5.32-2.28-6.9-6.6-4.19.28,5.49-3.81-.78-2.2-3.14,3-3.92-3.72-6.12-5.38-9.27-2.23,4.77-3.42,10.19-7.45,13.93C85,331.45,87,328.2,88.89,325c-2.25-.21-4.14-1.07-5.15-3.17-1.09,1.94-2.25,3.41-3.79.94.16,1.77,1.31,3.89-.52,5.16.8-3.82-1.7-6.46-4.36-8.39.17,1.6,2,4.46-.94,3.71-1.07,2.4-2.59,5.59-.32,7.78-2.09-.87-9.45-4.41-5.87-6.07a16.25,16.25,0,0,1-5.61-2.23c-.39,4.35-1.82,8.7,2.11,12.31.59,1.92,1.11,3.86,1.77,5.77.36,3.42,2.56-.18,4.14-.88,3-1.6,5,.71,7,2.08-.09.7-.28,2.11-.37,2.82-2.11-4.61-4.28,2.23-2.94,4.51-.51,2.64,1,6.9-3,6.77.44,2.61,1.71,5,2.39,7.55,5.21-2.67,12.21-3.57,11.44-11,.45,7.44.42.51,4.16-.77-1.85-.05-3.65-.19-2.11-2.23a43,43,0,0,1,5,2.29c2.1,1.08,4.33,2.22,4.85,4.75-1.45,1.27-.56,4.76,1.55,3.08,3,4.16-5.51,9.46,1.45,8.5,2.35-11.23,16.38-8.62,21.32-.58a58.57,58.57,0,0,1-1.08-7.19c6.52,5,3.18,14.78-4.53,16l-1.46.27a54.24,54.24,0,0,0-6.25,1.65l-2.74.42c-2.22.25-3.2-1.07-3.43-3.13-2.61.13-4.91,4.3-7.17,1.57-3.72-2.21-7.67,3.21-5.79,6.7-3-.91-.75-6-4.49-6.48-2.23-.44-2.29,5.49-5.75,4.14,0-7.2-6.53,3.52-8.11-2.75-1.28,3-5,1.82-6.84,4.18-1.61,1.71-.88-.31-.7-1.45-3.31.69-6.79,1.25-9.45,3.49,1.38.73,3,4,.28,3.69-.33-5.08-9.89-4.72-12-1.34,1,2.85-3.23,1.62-4.6,3.14-4,1.45-3.28,12,2.14,9.46,2.33-.81,2.52,2.5,3.75,3.77.21-4.5-3.4-15.29,4.13-11-7.63,7,6.38,9.75,9.12,15.84-6.24-3-10.93,2.07-15.31,5.81,3-.75,6.58-1,8.79,1.62,1.18.87,3.14,3.78,3.74.92,2.9,4,6.93,4.26,11.3,5,1.89-2.83,3.64,5.17,6.31,1.7,3.93.41,8.36-1.21,12.25-2.82,2.55-.2,5.34,1.41,7.53-.6,1.52,1.41,2.41,1.86,1.6-.6,3.26.56,6.53.07,9.78-.42h.71c4.32,1.8,4.88-1.93,4.53-5.39,2.08-1.65.19-4.2-2.11-3.33h-3.37c4.16-2.21.56-2.17-3.32-2.28-1.68-5.93-11-2.5-12.52-8.61,1.84-7.24,10.09-4.67,13.92-10.11,2.86-4,10.94,1.95,10.23-5l.8.07a2.54,2.54,0,0,0,3.13-2l1.85-.15c2,.74,4.5.48,5.24-1.85l.91-.15c2.81,1.2-3.51,3.94.93,3.35v.86a3.08,3.08,0,0,0-2.82,2.18c-.6,1.31-1.21,2.62-1.87,3.91-2.42,1.14-4.51,3-4.85,5.84-.29.9-.57,1.8-.84,2.71-1.49,2.8-2.33,5.92-4.38,8.41,1.16,2.31,6.43,6.63.86,6,3.27,1.26.06,11.41-2.25,6.94a11.83,11.83,0,0,1-1.35,10.48c1.25,2.19,4.64,3.84,2,6.47-.81-3.74-2.71,1.56-4.76,1.74-3.65,1.06-6,4.19-7.48,7.58-.07,3.7,11.58-1.58,9.45,4.36-3.88,3.09-6.08,7.54-8.68,11.68q-2.82-1.86-5.68-3.63c1.91-2.58,7.78-8.29,2.79-10.14-1.63-.47-3.32-.7-5-1a21.93,21.93,0,0,0-4.8-3.44c0,3-3.27,4.12-5.5,2.49-4.36,1.1-7.75-2.31-11.66-3.66,2.07,3.16-1.9,2.21-2.25,5.21-.43,1.87-1.18-.94-1.7-1.28l.18-1c2.28-2,3.38-3.53-.44-2.16,2.36-4.8-5.15-1.28-7.82-2.13-2.6,4.69-6.56,3.65-10.87,2.5,1.62,4.29-2.47,5.19-5.13,6.06-.18-2.48,1.35-4.38,2.78-6.21-2.33.37-4.77,1.27-7,.17.1-1.87.71-3.79.11-5.61-.1-.39-.31-1.16-.42-1.55,3.55,0,10.07.68,12.61-3.39-2.39.33-6-6.61-6-1.2.62,4.68-4.34.72-6.3-.47,0-1.87,0-3.72-.05-5.57,3.35,1.82,9.49,1.37,4.92-2.93-6.25,4.53-4.19-8.72-11.51-8.74l-.51-1.46c0-1.68-.88-3.47-2.81-3.21l-2.84-2.08c-2.09-2.57-4-6-.58-8.39,2.19-3.63-2.66-5.42-5.09-6.93-.31-3.16,1.35-8.93-3.29-8.85-5.82-7.88.52-18.53-3.51-27.37l-5.06-1c-2.16-13.2,2-27.28-1.81-40.47,0-1.7-.07-5.1-.1-6.8q.25-4.09.42-8.17c5.08,3.33,11.31,2.19,17,2.76,0,5.5,4.88,1.84,8.07,1.11l.73,1.14c.13,2.69,4.78,2.47,3.45,5.44-2,4.22,5.18,1.15,3.78,5.66-1.35-2.89-3-.6-4.24,1,2,3.93,9.65-1.27,7.16-5.16,2,3.43,6.26,5.28,6.24,9.78,3.06-.79,7.95,1.45,6.88-3.57,2.76-.78,1.09,3.05,2.61,4.22.07-1.75.23-5.25.3-7,6-2.7.48-11.43,7.88-12.33a4.61,4.61,0,0,0,1.85-1.76c.93-1.34,1.79-2.73,2.59-4.14l.46.37c1.63,1.82,3.06-1,2-2.44-.14-.52-.42-1.55-.55-2.07.14-3.58,3.82-2.93,6.39-3.59a45.72,45.72,0,0,0,4.87-6.85,52.11,52.11,0,0,0,2.32-4.75C84,282.88,84,277.23,86.73,276.41Z"/><path class="cls-1" d="M155.15,278.08a20,20,0,0,1,4.14-.52c.14.54.43,1.62.57,2.17-1.07,1.44-2.21,3-4.08,3.35-2.8-1-3.33-.18-3.73,2.05-3.88-.24-10.37-4.47-4.9-7.91l3.1.27,1.47.33C151.76,280.35,154.06,279.18,155.15,278.08Z"/><path class="cls-1" d="M475.2,278.74a53.33,53.33,0,0,1,5.75,3.13c-.11,1.4-.23,2.87-1.78,3.39-2.34-.55-4-2.21-5.65-3.88.18-.42.52-1.24.7-1.65Z"/><path class="cls-1" d="M538.12,281.59c.29,4.22,3.54,2.26,6.15,1.27-5.85,3-2.45,8.6-4.57,13.16-2.31-2.43-4.85-4.25-3.88-8.34a14.64,14.64,0,0,0-4.32,3.16l-.8-1.35c1.76-2.92,5.61-4,7.17-6.91Z"/><path class="cls-1" d="M550.37,282.64c2.33-.22,1,1.88.79,3.2a39,39,0,0,0-1.33,5.85c-1.67-2.43-4-.8-6.14,0C542.54,287.08,549.65,287,550.37,282.64Z"/><path class="cls-1" d="M248.25,291.92c1.05-4,4.53-9.57,2.87-2.05A11,11,0,0,1,248.25,291.92Z"/><path class="cls-1" d="M510.76,288.65l1.31-1.16C515.66,287.31,512.18,291,510.76,288.65Z"/><path class="cls-1" d="M505.14,293.81c-4.62-3.74,1.92-4.16,4.95-5a47.88,47.88,0,0,1-2.77,6.11Z"/><path class="cls-1" d="M153.82,290l1.9-.18c4.08,2-.2,3.55-2,.81Z"/><path class="cls-1" d="M4.21,290.9c4.34.52,8.16,4.74,3.81,7.89C2.6,302.12-.82,293.75,4.21,290.9Z"/><path class="cls-1" d="M390.35,293.94c1.76-3.57,4-1.49,5.61,1l.28,2.73c-1.72,2.53-.75-2.36-2.85-2.26.2,5.44,1.72,14.91-1.81,16.74,3.42,3.29-3.8,2.34-.41,4.89-.25,1.6-2.4,3,.81,2a31.51,31.51,0,0,0-.3,8.51c-2.24,1.91-4.7-.37-6.77-1.38,6.07-2.47,3.59-12.1,2.36-17.73-13-1.76,3.86-.15.64-7.4.09-1.43.2-2.85.32-4.27C390.62,297.32,390.74,295.86,390.35,293.94Z"/><path class="cls-1" d="M527.4,296.22c3.12,4.47.6-7.4,4.47-3.37,2.54,1.36,4.58,3.4,6.88,5.1-1.74,3.17-6.6,3-9.85,3,1.3,1.34,4.9,3.47.77,3.06l-.82-.48C528,302.09,525.2,294.45,527.4,296.22Z"/><path class="cls-1" d="M234.89,301.69c1.66-4.14,6.27-5.38,9.9-7.31C242.7,298.09,238.2,299.34,234.89,301.69Z"/><path class="cls-1" d="M552,297.54c-.2-3.78,5.38-2.73,1.75.19Z"/><path class="cls-1" d="M541.85,300.05c-1.17-1.71-2.26-3.59,0-4.93C543.25,296.6,542.65,298.46,541.85,300.05Z"/><path class="cls-1" d="M525.57,302c-2.64,1.31-2.14-2.73-.63-3.64A3.65,3.65,0,0,1,525.57,302Z"/><path class="cls-1" d="M169.2,299.51l.62.1c2.64,4.73-4.34,8.39-1.81,2.08C168.3,301.14,168.9,300.06,169.2,299.51Z"/><path class="cls-1" d="M226.72,313.09c.63-5.12.66-9.21,7.09-10.5-.59,1.77-1.1,3.57-1.65,5.37l-1.07,2.64q-4.08.47-.89,5.14c2.76,3.53-3.38-.86-1.8,2.84l-.36.36a34.09,34.09,0,0,0-3.11,3.58c-1.21,2.47-7.64,11.05-1.71,8.41,0,3.66-5,1.23-7.42,1.95,1.5,2.61,4.63,1.83,7.29,2.06-.31,1.81-.62,3.62-1,5.43-2.38-.19-6.1-1.33-1.59-2,1.34-4.14-2-1.83-4.21-.62-.81-1-2.31-2.48-2.74-.34-4.15,1.2,1,3.63-2.61,3.55h-2.1c-3.69-.13-3.67,5.61-5.21,8.22l-.88.42c-2.43,1.59-3.06,5.11-5,7.34,2.11,2.75-3.14,6.51,1,9.26l.9,1.47c1.11,1.67,1.84,3.78,3.67,4.85l.55.37c.7,1.11,1.34,2.26,2,3.42-2.44,5,6,4.17,7.36,7.88-1.92.19-4.92,1.24-3.68-1.85-2.54,2.65-5.78,4.4-2.64,8.22,1.34-1.53,3-2.35,4.78-.86,2.15,1.37,3-2.52,3.2-4.05l1.18-1.1.72.24c3.84.87,7.51,3.37,11.53,2.94h.79c-1.26,2.76,1.07,2.58,2.73,1.49a4.46,4.46,0,0,0,2.38.87c1.89.32,3.81.55,5.73.72-2.84,3.46,3.87,3.44,5.91,2.53,4.62,3.66,10.61,4,16.12,5.53-.62.48-1.25,1-1.89,1.43l-.75.4c-1.68-3.33-5.76-2.13-2.17.91,0,1.31,0,2.63.09,3.95-3.68-4.74-1.71,2.63-5.92.7-4.53.36,3.17,2,5.69,1.85-.52,2.43,2,3.67,2.22.6l.59.16c4.67,2.62,3.62-3.12,9.26-2.33l.63.4c1.28,4.18,4.39-.68,3.14-3.12,1.48-2.81,1.16.92,1.48,2.2-.61,2.58-5.52,6.45-.16,4.47,2.81,2,4.06.28,4.81-2.73-2.59.86-4.93,1.19-4.25-2.41l1.2-2,2.22,1.31c1.69,1,3.42,2.15,3.68,4.25-3.31,1.07-2.23,4.86.43,1.77,1.19-1.82,1.54-4.06,2.73-5.87-.68,6,1.29-1.36,4.19.56l0,1c-2.14,5.3,3.43,4.76,2.72.08a15.34,15.34,0,0,1,2.6-3.85c2.31.85,4.87,1.38,7.19.25a2.9,2.9,0,0,0,3.13.65c2.5-.21,5-.06,7.52-.18,0,1.48-.08,2.95-.16,4.43-1.91,1.11-4,1.66-1.93-.89,2.07-4.27-12-3.53-8.31,1.73,1.19,3,.91-1.85,1.4-2.89,9.2-3.68,4.44,5.75,1.71,9.17,2.43-2.3,8.29-1.68,6.21-5.39,3.86,3.12,3.95,1.77,1.59-2.07,2.87-2.64,7.11-3.44,9.52-6.56l1.53-.52c5.4.6-8.19,4.63-3.73,8.17,3.77-2.85,7.13-6.35,11-9.22l2.94-.83c4.26-.48,6-7.68,11-4.95l-.08,3.15c-4.89,3.19,2.63,1.7,3.58-.92l.43-.42c.59.4,1.77,1.21,2.35,1.62-3.25,1.74-6.72,3-10.1,4.47-8.12-1.85-6.64,2.8-.84.37a45,45,0,0,1-6.29,4.88c.89-4.59-2.58-2.41-4.49-.47a18.9,18.9,0,0,0-4.55,3.18c-1.68,1.49-3.79,2.42-5.29,4.13,1.78-.19,3.55-.49,5.33-.73-2.68,1.46-2,2.09.92,2-3.61,1.63-7.44,8.72-11.26,4,4.73-3.26-.57-5.5-.52-.25l-.77-.21-1.47-.41c-5.33.39-8.46,5.24-12.93,7,1.26-2.95,3.44-5.93,1.77-9.22-6-.64-1.46,11.12-7.23,8.4-3-.27.64-4.25-2.28-4.79l-1.1-.67c-3.36-2.1-9.4,6.94-3.46,6.61,2,.75,3-.84,3.67-2.5l.62-.16c1.21,4.64-9.53,8.62-8.5,2.39-2.27-3.07-5.13,3.5-4.94,5.82-2.32-1.37-2.09-5.88-5.56-4.34-.3-1.37-2.91-3-3.12-.78-.39,2,1.71,1.92,3.06,2.43-1.07,2-2.62,7.46-4.86,3.74.16,3.16-1.8,6.55-5.14,7,.12-2.75.6-5.46,1-8.17,3.65.46,3.39-2.23,1.37-4.48a1.71,1.71,0,0,0-1.94-1.32c-1.93,5.9-5.78,11.58-4.68,18.06-2.12-2.73-3.41-5.94-5.07-8.94-2.42-.11-2.37,3.85-4.42,5,0-1.4,1.47-4.52-1.15-3.16-5-1.49-5.63,11.66-4.43.38-.21-2.5,3.9-11.07-.69-7.3-4.18-.4-.75-4.91.67-6.68-.32,2.38,1.22,4.45,2.23,1.29-.82,3,1.61,1,3.07.56-.75-1-1.69-1.95-1.09-3.26a10.69,10.69,0,0,0,2.2-6.32c-2.27,1.21-2.39,3.91-3.11,6.09l-1,1.08a4.7,4.7,0,0,0-2-.35,4.94,4.94,0,0,0-3.11,1.08c-5.35-.37-1,6-5,4.65,0,3.22,1.9,4.32,4,1.69l2.47,1.4c-.15,1.94-1.69,2.79-3.31,3.49l-.52-.13c-2.49-1.33-4.69.82-6.66,2.1-.66-4.4,3.28-7.53,3.21-11.68a3.43,3.43,0,0,0-5.16.68c.48-4.05,2.81-7.54,3.45-11.52-3.89,1.58-2.78-3.32-1.36-5.59,2.36,2.94,4.68-.76,1.24-1.9-2.78-3.3,2.24.12,3-2.63a46.41,46.41,0,0,0-8.36-1.2c-3.94-1.08-1.71,1.26-.28,3.14-.14,5.3-5.08,4.84-8.74,6.47,5.26-.43,2.82.93,2.75,4.54-1.68-2.63-4.28-3.19-7.17-2.45.36-1.72.14-3.28-1.55-4.19a29.64,29.64,0,0,1,1.77-7.89,4.33,4.33,0,0,0,2.76.8c-.32,1.12-.63,2.26-.93,3.4-1.36.84-3.39,3.13-.53,3.41,4.82,4.2,8.32-6.78,3.14-8.49l-1.23-.81c6.21,0-4.08-6.7-4.58-2.37-2.66,2.39-10.85,7.67-9.25.42,5.14,4.09.75-1.42,2.41-4.45-3.35-4.72-7,.74-7.71,4.54-.73,5.2-6.53,3.76-8.6,8-2.64-1.61-4.47-5,0-5.1-.39-3.1-2.92-12,3.78-13.16-1.84,4.19,5.15,3.54,2.95-.91,3.31.84,1.64-3.29-.6-1.71l-1.66.8c-.59-3-1.14-6.67,1.8-8.52,2.19-9.2-6.46-19.44,2.55-26.63,1.91-7.39,6.95-12.77,11.54-18.57,3.58.46,5.86.35,3.83-5.61,1,7.64,8.29-1.34,6-4.85-1.61-1.83-1.88-6.05,1.46-5.23C223.18,319,226.41,316,226.72,313.09Z"/><path class="cls-1" d="M365.68,303.41c-4.31,2.94-4.53-2.16.17-.59Z"/><path class="cls-1" d="M470.87,302.66c1.45.28,2.92.57,4.38.89a16.84,16.84,0,0,0,1.1,3.86C474.34,306.13,471.69,305.06,470.87,302.66Z"/><path class="cls-1" d="M476.85,303.72c1.74-.06,3.29.45,4.09,2.1a10,10,0,0,1,0,5.07L479,309.72c-.71-.69-1.42-1.37-2.14-2A7.93,7.93,0,0,0,476.85,303.72Z"/><path class="cls-1" d="M149.25,308.45c-3.38,2.83-2.1-2.32-.24-3.47Z"/><path class="cls-1" d="M533.42,306.7c3.43-1.54,7.28-1.26,11-1.75l.78-.07c-1.9,1.69-3.52,2.9-2.09,5.71-2.66,4.39-1.53-1.37-3.62-3.06-1.57-1.86-2.44,1.77-2.71,2.94-1.56,2.39,1.86,3.09,2.43,5.13-2.83.2-5.84-.78-7-3.57C535.35,309.87,537.27,308.57,533.42,306.7Z"/><path class="cls-1" d="M364.88,318.75c-2.48-4-3.58-8.53-.11-12.27,1.59,3.35.86,9.23,7.26,6.29-3.23,2.32-1.17,2.69,3.58,2.31,3.1,1.16.64,4.71-.8,6.32,3.53-1.81,6.16,1,1.28,1.64,3.11,4.2-2.5,10.11,3.66,13-3.4,3.15.62,4.5-3.87,5.55-1.6,1.25-2.39,2.85-5,2.51,1.23,2.6,5.34-.88,5.4,2.48,1.95,3.19-3.05,1.4-3.64,3.89-4.61,5.22,8.47,7.87,9.84,2.82,2.59-1.25,4.68,2.9,5.51-1.28-4.23-.28-2.4-1,.52-1.89,4.25-3.87,10.78-5.26,15.46-6.56l.32-.74c2.19.68,6.52-.21,2.65-2.12a30.16,30.16,0,0,0,4.93-1.84c1,.1,2.07.21,3.11.29l2.28,1c.58,3.18-4.36,3.89-2.66.26-1.46,1.19-5.56,5-1.39,4.76-2.45.81-4.91,1.57-7.4,2.24l-2.83.58-1.29.67-3.74,2.63c-1.9.15-5.39-1.68-5.09,1.52-1.7-.49-4.88-.47-4.32,2.1-1.36,4.45,6.28-.2,8.48,2.82,6.54-1-8.88-7,3.58-4.07-1.25,3.15,1.73,1.48,3.55,1.2-.5,2-1.28,3.85-1.61,5.86l-1.29.49-2.74.13c4.71-2.23-1-4.44-.73.1l-.64,1.21L394,363c-1,.22-1.92.48-2.87.78-4.5-2.45-6.72,2.18-11.13,2,4.83,3-8,2.36-4.45,8l-.88.32c-2.56-.41.51-5.21-2.74-2.5-7.11,2.12,2.22,9.39,4.36,3.38a23.86,23.86,0,0,0,3.05,0c4.85-.2,8.81-3.33,13-5.47l.63.19c1.42.5,2.86.95,4.32,1.39-11,3.82-21.64,11-34.13,12.58L358.22,382l.57-.55c1.74-2.36,4.43-3.09,7.27-3,4.47,2.25,4.4-3.06,0-1.68-3.72.69-8.12,1.64-4.94-3.33l.94.24c3.41,2.33,3.37-3.07,5.95-3.86,1.86-.07,4.85-5.12,1.83-3.23-2.89,2.56-2.24-3.12-2.94-4.87,3.44.78,8.81,7.06,9.85.84-2.46.85-4.62,1.47-3.12-1.8-5.07-1-10.35-.4-15.33-1.9,1.67-3.78.75-8.29,4.61-11.13-5.91,1.38-1.14-2.19-2.8-5.84,2-.88,4.72-1.21,2.31-3.55-1-3.56-1.82,1.57-3.69.6l-.05-1c3.13-4.11.81-5.87,4.83-8.71,2-2.12-3.6-2-1.74-3.86C362.63,322.89,367.3,321.8,364.88,318.75Z"/><path class="cls-1" d="M513.17,309.67c-.64,3.07-5.27-1-2.32-1.85C511.64,308.4,512.41,309,513.17,309.67Z"/><path class="cls-1" d="M374.32,309.05c1.16-.62-.92,3.37,1.75,3.77C372.77,313.57,370.7,310.51,374.32,309.05Z"/><path class="cls-1" d="M524.78,311.24a3.24,3.24,0,0,1,2.14-1.86C529.26,310.11,525.89,312.47,524.78,311.24Z"/><path class="cls-1" d="M482.4,313.72l2-.86c.53,2.89-5,5.7.74,5.11-2.18,1.87.2,1.82,2,2-1.37,1.22-2.78,2.41-4.12,3.66,6,1.35,12.19-.55,18.11-1.42a33.84,33.84,0,0,0,5.13-.34l1.05,0c-1.88,2.32-4.39,4.53-2.62,7.72l-1.37,1.22c-2.06-2.38-2.34,4,0,2,3.94-1.52,1.29,2.66.24,4.33a3.18,3.18,0,0,0-3.72-2.82l-6.74.43c-2.36-2.4-4.11.44-.7,1.23a46.4,46.4,0,0,1-3.58,4.22,10.23,10.23,0,0,0-1.75.46c-2.26,1.64-2.41-.14-2.29-2.24,4.57-1.65,6-6.38,4.34-11.45-2.3,2.63-5.21-.93-7.67,2,1.73-3.82-2.07-3.93-4.87-4-2.16-5.64,6.33-5.56,3.36-11.24A1.53,1.53,0,0,0,482.4,313.72Z"/><path class="cls-1" d="M543.89,316.79c-3.13.33-3.61-4.7,0-3C543.91,314.56,543.9,316,543.89,316.79Z"/><path class="cls-1" d="M491,320.88c-1.72,3-6.16,1.21-1.69-.46Z"/><path class="cls-1" d="M525.3,327.89c0-4.05,3.77-5,6.86-6.26,1,.22,2,.42,3.08.56-2.71,2-4.61,9.24-.16,9.8-.33.24-1,.74-1.29,1-1.11-.62-2.31-2.58-3.42-.88-3.31,2.72-1.89-3.71-5.37-2.66C525.07,329.05,525.22,328.28,525.3,327.89Z"/><path class="cls-1" d="M536,322l1.91-.6C542.45,321.83,535.52,325.24,536,322Z"/><path class="cls-1" d="M589.81,324.42a24,24,0,0,1,5.05-1.47c-.45,1.32-1.34,2.86.26,3.79-.44,1.08-.88,2.16-1.33,3.24-2.16-1-4.63-3.52-7-1.39l-1.22-1.14,1.32-.76C588.5,327.48,590.64,326.31,589.81,324.42Z"/><path class="cls-1" d="M564.84,327.62c-2.52,1.72-2.41-3.62,0-1.8C564.88,326.27,564.85,327.17,564.84,327.62Z"/><path class="cls-1" d="M438.19,327.06l.86-.1c-2,3,.7,3.21,3.16,3.35-.44,3-8.2,3.74-4.36,6.38-2.77.09-5.1-.74-7,3-4.52-1.61-8.61.06-12.86,0l0-1.63c2-.3,8.52-6.37,7.34-1C428.88,332.92,432.56,328,438.19,327.06Z"/><path class="cls-1" d="M556.94,332.71c-.7-2.77,2.83-2.46,3.08-.15Z"/><path class="cls-1" d="M582.82,331.42l3.19-.49c-2.06,8.92,11.41,2.94,9,12.83a16.19,16.19,0,0,1-4.28-1.24c2.86-6.49-7.58-2.31-6.8-7.8-.28-2.32-4.22,2.89-4.19-.64l1.81-2.48Z"/><path class="cls-1" d="M391,335.05c-5.4-1,2.36-5.73.63-.3Z"/><path class="cls-1" d="M391,335.05l.63-.3C396.23,335.57,390.81,338.64,391,335.05Z"/><path class="cls-1" d="M495,336c1.23.3,2.44.66,3.68,1a27.52,27.52,0,0,0,4.23.94,40.73,40.73,0,0,0,5.19.23c-7.4,4.25,6.06,10.41,4.06,2.65l1.06,0c-2.3,4.91,3.93,3.65.79-.05l1-.07c1.53,0,3.06,0,4.6-.09l.35,1a2.39,2.39,0,0,0,3,2.06l2.76-.05,1.34,1.11-1.07.21-2.92-.29c-3.18-.48-1.45,2.95.8,2.12l1.67,0c3.25,5.12,8,1.8,12.48,1l-.16,2.84c-1.8.89-2,2.66-1,4.28-3.21-.81-9.16-1.07-9.4-5.2-1.46.81-4.36,3.73-4.25.41-5.17-3.83-13.11-1.47-20-4.65-.55-2.66-.63-5.58-3.77-6.44C497.53,344,488.54,339.51,495,336Z"/><path class="cls-1" d="M438.91,341.66c3.43-1.51,7.14-1.48,10.78-1.81,4.51,1.2,9.29,1.09,13.74,2.6.12,3.11-3.16-.28-4.77,2.71-2.49-3.14-3.73-2.58-3.61,1.35-3.07-2.66-5.82-3.25-8,.27,0-.7,0-2.11.06-2.82,1.31-1.76-1.75-2.3-3-2.19C442.39,341.7,440.65,341.65,438.91,341.66Z"/><path class="cls-1" d="M426.12,343.53c1.8-2,6.11-.73,9.29-1a12.31,12.31,0,0,1-6.27,2.39l-2.31-1.08Z"/><path class="cls-1" d="M416.69,344.37c2.25-.78,7.94-3.43,8.12,0l-.47.45c-4.49-3.55-4.34,6.05.72,4l.85,0c1.8.29,3-.32,3-2.22,1.63-.4,3.26-.84,4.89-1.29,2.82-.93.73,4.23,2.57,1.89.66-3.08,4.58-.72,4.93-4.37l2.56-.49,1.16,1.14c-2.12,1.91.13,4.33,1,6.26l-6.25.75c-4-.42-8-1.05-12-.54-3.24,0-7.7,2.29-8.89-1.82,1.53-.62,2-3.76-.34-2.85Z"/><path class="cls-1" d="M531.22,343.85l2-.36.79.35C533.79,345.92,531.27,346.1,531.22,343.85Z"/><path class="cls-1" d="M497.82,348c-.88-4.86,3.26-2,.45.62Z"/><path class="cls-1" d="M543,346.45c1.15-2.45,3.45-.45,5.26,0a9.31,9.31,0,0,1,3,1.79l-.88.31-1,.26a30.5,30.5,0,0,0-5.35-2.07Z"/><path class="cls-1" d="M79,347.79l3-.42,2,1.25C82.5,350.18,80.35,349.12,79,347.79Z"/><path class="cls-1" d="M453.93,347.86c2.12,4.05,7.05.55,9.18,3.66-4.14.85-9.35,1-12.12,4.54l-.35.69c-.68-1.15-1.27-2.35-1.92-3.5,3.51-2,10.59-1,3.93-3.51l.46-.71Z"/><path class="cls-1" d="M414.27,353.63c-.84-2.79,3-2.56,4.77-3.1-1,1.07-2.14,2.09-3.2,3.16Z"/><path class="cls-1" d="M519.29,350.92c3.36-1.18,1.28,4.08.5,5.72C515.52,357.08,518.19,352.87,519.29,350.92Z"/><path class="cls-1" d="M547.85,352.66c1.57-.39,3.28-.87,4.32.76C549.37,354.91,543.4,357.12,547.85,352.66Z"/><path class="cls-1" d="M409.33,352.64l2.55-.06C415.51,354.59,409.2,355.17,409.33,352.64Z"/><path class="cls-1" d="M389.31,354.84a2,2,0,0,1,3.12-.22Q391.17,356.89,389.31,354.84Z"/><path class="cls-1" d="M438.43,354.94a56.56,56.56,0,0,0,5.88-1.16l2.58,0c4,2-.48,2.15-2.71,2.95-1.45.42-2.92.79-4.39,1.1-8.28.74-16.32,7.43-24.33,5.94,2.34-3,8.36,0,5.52-5.8a7,7,0,0,1,4.93.87c2,1.24,3.79,1.54,2.23-1.25,1,.37,1.93,2.27,3,1.15a29.8,29.8,0,0,0,2.7-2.2c1.05-.31,2.09-.65,3.12-1Z"/><path class="cls-1" d="M556.69,361c1.55-2.12,2.91-4.38,4.31-6.6,1.81.26,2,2,2.37,3.46A8.27,8.27,0,0,1,556.69,361Z"/><path class="cls-1" d="M97.78,357.29a2.4,2.4,0,0,1,2.2-1.9l1.28,1.37-.31.68A19.8,19.8,0,0,1,97.78,357.29Z"/><path class="cls-1" d="M116.19,357.12c.73.41,2.54,2.35,4.84,1.72C119.63,363,113.69,360.13,116.19,357.12Z"/><path class="cls-1" d="M544.85,360c1.56-.12,3.13-.18,4.7-.36a33.17,33.17,0,0,1,4.58,1c0,.51-.11,1.51-.14,2l-2.13.76C549.47,362.39,547.14,361.21,544.85,360Z"/><path class="cls-1" d="M191.35,360.58c1.6,4,2.11,10.26-.59,3.22C190.9,363,191.2,361.39,191.35,360.58Z"/><path class="cls-1" d="M361.29,361.91c4.1-2,1.48,3.21.07,4.19C357.34,368.39,360.52,363.75,361.29,361.91Z"/><path class="cls-1" d="M406.86,367c-2-2.65,8.42-5.27,8-3.58C416,368.2,409.73,365.47,406.86,367Z"/><path class="cls-1" d="M559.28,366.46l.82,0,1.77.1c.46.26,1.37.78,1.82,1,1,.45,1.95.87,3,1.25a21.4,21.4,0,0,0,3.32,4C566.26,370.89,560.88,370.47,559.28,366.46Z"/><path class="cls-1" d="M398.68,370.89c1.23-1.19,2.67-3.35,4.64-2.36C402.53,370.31,400.69,371.9,398.68,370.89Z"/><path class="cls-1" d="M133.13,375c1.14-2.35,2.19-4.81,4-6.71C137.6,371.08,136.6,375.05,133.13,375Z"/><path class="cls-1" d="M551.21,372.75c6.71-1.67,13.4,1.56,19,5.34l.61.19a25.47,25.47,0,0,1,4.93,1.64c2,4.91,7.37,5.57,10.4,9.84l-.48.77c-1.48,1.11-1,3.52,1,3.35l0,.69c-1.53,1.91-.47,2,1.49,1.47-.25,2.23-2.82,1.91-4.45,2.3a47.39,47.39,0,0,0,4,4.49l-.16.81a3.86,3.86,0,0,0-1.82,3.88c-.65,2.86-2.34,1.76-3.6,0-.18-3.54,2.18-8.37-1.15-10.76-.87,2.25-.31,8-3.37,4,3.89,5.33-1,9.44,2.29,14.17-4.61.91-9.81-9.38-10.82-3-.82-4.35-1.16-9-3.3-13,4.26,1.78,0-2.57-.76-4.31.26,3.88-3.83,8.36-6.3,2.93-4.38,1.75-2,5.65-.69,8.71-6.3,1.88-11-2.89-16.95-4.34,1.13-7.1-1.79-5.45-1.5-1.18-3.21-.06-5.87-2.13-8.38-3.89.07-.54.23-1.62.31-2.16-1-2.46-2.22-4.86-3.26-7.31a14.85,14.85,0,0,0-2.15-3.9c1.73-1.7,6,2.27,8.66.08-.46-2.05-2-3.76-2-5.92,6.86,1.75,15.23,7.78,22,5.61,2.14,1.3,3,5.16,6,4.44,2-.37,4.43-3.37,2.29-5.11-3.12-2.38-5.34-7.22-9.93-6.38C551.35,376.62,551.76,373.91,551.21,372.75Z"/><path class="cls-1" d="M578.69,379.81c1.19-1.09,2.35-2.22,3.51-3.34,1.87,1.44,3.92,2.54,6.37,2.33,1.26.71,3.49.66,3.49,2.56-1.89.11-4.68,0-5.33,2.25C584.38,381.72,581.8,379.92,578.69,379.81Z"/><path class="cls-1" d="M127.08,381.89c-2.3-3.51,1.16-3.92,4-4.22-.67,1.1-1.31,2.23-1.93,3.37Z"/><path class="cls-1" d="M407.37,378.87a5,5,0,0,1,3.65-1.22l.84.73c-1.12.78-2.52,1.64-3.94,1.34Z"/><path class="cls-1" d="M123.86,383.89c-.44-1.59,1.06-4,2.66-2.34A11,11,0,0,1,123.86,383.89Z"/><path class="cls-1" d="M347.2,389c4.54,4.05,3.74-6.1,9.48-5.51-.4,2.9,1.15,3.29,3.55,2.35.5,1.14,2.31,2.64.36,3.4-3.27,1.67-3.34,5.46-4.94,8.35l-.84.45L352,396.67c-.19-1.45-2-2.91-3.05-1.3l-.43.42L348,395c-.6-.91-1.23-1.79-1.89-2.65C346.49,391.23,346.82,390.11,347.2,389Z"/><path class="cls-1" d="M361,385.47c-4.1-.64-2-2.86,1.17-1.67Z"/><path class="cls-1" d="M74.27,385.23c2.62-1.51,8.13,3.82,3.62,4.3-4.58.16,3.65,3.83-.68,4.64.17,2.25.51,7.06,1.87,8.49,4.4-1.59,8.34,9.53-.08,5.11-4.28.44-7.7-3-11.75-3.47-2.93,1-5.6-.56-8.1-1.94-3.13-6,2.62-7,6.55-7.5,1,4,6.73-2,5.71-4.9C70.37,387.43,72.08,386.06,74.27,385.23Z"/><path class="cls-1" d="M594.26,389.83a12.32,12.32,0,0,0,3.53-5.22c.07,2.12.5,4.48,1.44,1.26l.77-.27v4.09c-1.19-.73-2.32-1.21-2.12.73q-1,1.11-2,2.19C595.37,391.65,594.75,390.77,594.26,389.83Z"/><path class="cls-1" d="M340.08,386.84l.62-.39,3.15.33-1.71,1.37Z"/><path class="cls-1" d="M91.28,388.05c3.47.52-2.15,5.31-4.34,4.69A4.52,4.52,0,0,1,91.28,388.05Z"/><path class="cls-1" d="M185.43,396.16c2.26.65-1.79,5.79-3.52,7.66C181.73,400.82,183.71,398.39,185.43,396.16Z"/><path class="cls-1" d="M179.17,397.88c1.13.31,3.14,5.66,0,4.5C176.68,402.8,179.26,399.24,179.17,397.88Z"/><path class="cls-1" d="M195,410.72a36,36,0,0,1,5-12.2c.13.34.41,1,.54,1.36C200.57,403.66,198.21,409.55,195,410.72Z"/><path class="cls-1" d="M261.84,405c-1-6.52,6.56-6.64,10-3.32q-5-1.79-6.18,1.75c-.64,1.43-.71,4.24-2.73,2.49C265.57,404,262.81,401.57,261.84,405Z"/><path class="cls-1" d="M259.34,400.75l.75-.4c.44,1.32.83,2.67,1.2,4l-.86.48c0-4.39-3.7,2.55-2.42-3.1Z"/><path class="cls-1" d="M277.29,400.91c.85,0,1.7,0,2.55-.07,2.49,1.09,2.7,5.2-.86,3.84,2-2.29-1.49-2.16-3-1.74C274.6,401.75,276.36,401.41,277.29,400.91Z"/><path class="cls-1" d="M286,403.74c-6.62-.87-.06-2.14,3.24-1.17l.85.11,0,.93Z"/><path class="cls-1" d="M349.74,404.14c2.54-.77,10-4.92,7.18.44-1.68.93-3.35,1.88-4.95,2.93-2.64,1.14-5.08,2.77-7.9,3.45C345.32,408.26,346.28,404.53,349.74,404.14Z"/><path class="cls-1" d="M266.51,403.31c4-1.69,4.93-.09,3.22,3.68l-.63-.4C268.22,405.51,267.36,404.4,266.51,403.31Z"/><path class="cls-1" d="M91.13,407.46c-6.92-2.75,9.22-2.49,1.59.47Z"/><path class="cls-1" d="M223,413.41c2.06-2.36,3.52-5.49,5.07-7.75,1.88,4.16-5.33,6.21-1.54,9.39,1.3,1.2-3.38,2.77-2.6.64Z"/><path class="cls-1" d="M258,406.15l.71-.2c2.28.38,3.81,1.45,1.18,3l-.59-.16-1.88-1.16C257.52,407.23,257.81,406.51,258,406.15Z"/><path class="cls-1" d="M92.72,407.93c.44,3.56-6.24-.45-1.59-.47Z"/><path class="cls-1" d="M411.41,407.88l.67-.68c1.6,2.54-1.06,4.95-2.07,7.18l-1.35,2a62.84,62.84,0,0,0-3.15,7.12l-.69.62C403.44,418.16,409.66,413.39,411.41,407.88Z"/><path class="cls-1" d="M208.84,413.51c.69-1.25,1.15-2.69,2.28-3.61C212.21,411.7,211.49,415.85,208.84,413.51Z"/><path class="cls-1" d="M550,409.75c4.34-2.54,5.55,5.5,2.22,1.07C552.47,414.13,549.39,411.68,550,409.75Z"/><path class="cls-1" d="M587.17,409.43a19.71,19.71,0,0,0,2.75,1.28c-.06.45-.17,1.37-.23,1.82l-.73,1.3-2-.11-2.06-.09C585.69,412.24,586.43,410.83,587.17,409.43Z"/><path class="cls-1" d="M198.15,410.85c2.42,1.4-4.5,7.75-2.36,11C192.19,419.34,197,413.81,198.15,410.85Z"/><path class="cls-1" d="M178.26,413.94c1.6.71-.26,3.21-.61,4.42C176.11,417.8,176.69,414.49,178.26,413.94Z"/><path class="cls-1" d="M212.72,419.38c-.21-4.69,7.37-7,5.1-.71l-.64-.24c.32-5-2.27-.7-3.64,1.27Z"/><path class="cls-1" d="M560,414.67c1.88-.56,5.52,1,2.92,2.92C561.41,417.09,559.4,416.74,560,414.67Z"/><path class="cls-1" d="M567.59,423c-1.67-4.87,5.5-4.47,8.27-6.88,4.76,1.12-.93,6.14-3.41,6.87a11.58,11.58,0,0,1,2,5.44l-3.41.16c-1.17-4.74-3.35.67-2.14,4-5.21-2-3.66,4.07-7,3.53.7,1.24,1.47,2.43,2.19,3.66-2.67.35-5.36.25-8,.37-.06,1.41,1.65,4.13-1,3.53l0-2c1-5.39-6-.84-9.1-2.9-.52-1.39-.94-2.81-1.54-4.16a26.53,26.53,0,0,0-2-3.12c-.07-1.24-.21-2.48-.32-3.71.49-1.43-.12-3.53-2-3.18-.1-.64-.29-1.93-.39-2.57.23-1.82-2.22-6.35,1.22-5.27,2.22,1.11,4.3,2.16,6.87,1.19-3.47,5.85,6.64,6.62,3.34,1.57,2.86,1.16,1.18,4.18,1.09,6.45,2.18-1.29.92-5.07,3.61-5.44-2.49,4,.57,14.12,4.37,6.77-5.53.62-.2-4.63.26-7.47.5,3.59,2.83-2,2.72,1.75,1.85,3.34,1.42-1.44,1.13-3.05C567,418.58,565,422.64,567.59,423Z"/><path class="cls-1" d="M214.88,421.11a22.71,22.71,0,0,1,2.3-2.68l.64.24C218,420.25,216.55,422.66,214.88,421.11Z"/><path class="cls-1" d="M313.48,418.34l.77.21c.67,6.85-6.44,10-12.28,10.14l-.16-1.08a11.75,11.75,0,0,1,6-5A6.6,6.6,0,0,0,313.48,418.34Z"/><path class="cls-1" d="M447.14,419.89a25.88,25.88,0,0,1,5.64-1.48c.47,4.23-3.7,6.12-7.33,5.81-.18,2.24-1.51,2.35-3.28,1.46.92-2.12,2.56-3.84-1-2.94l-.06-.77.6-.23,2.54-1,.73,1.16C446.15,424.16,447.84,421.35,447.14,419.89Z"/><path class="cls-1" d="M437.87,424.07l2.05.55c-1.52,2.24-.12,2.34,2,1.78,3.24,2.5-6.56,2.93-2.59,4.91,3.57,2.94-2,.67-3.54,1.69-2.41-1.73-7.5,4.65-10.22-.56l.31-.74a15.77,15.77,0,0,0,7.24-5c.88-.71,1.81-1.36,2.7-2.06Z"/><path class="cls-1" d="M317.29,425c2.52.42-.8,4.34-3.32,3.76C313.39,426.53,315.71,425.81,317.29,425Z"/><path class="cls-1" d="M292.24,440.85c-1.71-7.09,4.62-9.86,9.57-13.24l.16,1.08C300.8,434.17,295.89,437.14,292.24,440.85Z"/><path class="cls-1" d="M312,428.68c.86,3.35-2.51,5-5.09,6.05C306.88,431.81,310.1,430.38,312,428.68Z"/><path class="cls-1" d="M446.43,431c5.19,1.46-5.82,5.93-7.17,8.84-4.63-.89-4,7.53.52,7.16-2.14,6.45,3.87,5.61,1.16,1.69,5.3,4.51,2.38-2.61,7.15-2.21-4-.57.88-11.62,1.39-5.31,1.77,1.74.79,5.47,4.58,4.74-1.24,1.68-3.84,1.42-5.67,2.12-1.16,2.19-1.82,6.76-5.27,5.42-3-1.44-3.16,3.09-5.07,4.46-.62-3,.48-5.3.76-8-1.36-3-6.81,2.13-4.08,4.43-4.25,0-2.73,4.13-3.26,6.73a27.46,27.46,0,0,1-3.83,7.41c-5,2.28-6.82-12.1-2.53-5.69.41-2.31-1.22-3.43-3-4.36-1.67-11.23.11-.95,3.63-2.81.34-1.9,2.79-6.23-.82-4.05.75-3.47-.33-9.24,4.85-7.93-3-5,7.13-2.44,5.29-7.92,1.32-4.05.61,6.1,1.92,2-.91-4.09,1.65-2.31,3.9-1.08C440,432.57,445.72,435.18,446.43,431Z"/><path class="cls-1" d="M595.24,440.8c4.35-1.94.26-7.83,4.76-9.7v8.13l-2,1.46a8.59,8.59,0,0,0-1.9,2C595.86,442.25,595.45,441.28,595.24,440.8Z"/><path class="cls-1" d="M237.38,433.51l.52.13C237.68,440,232.67,438.17,237.38,433.51Z"/><path class="cls-1" d="M565,441c1.12-2.93-1.07-8,3.85-7.49C569.23,436.19,568.82,445.3,565,441Z"/><path class="cls-1" d="M460.93,438.63c.81,3.26,5.3-.65,3.33,3.23C463.34,446.39,459.57,441.19,460.93,438.63Z"/><path class="cls-1" d="M457.2,443.83c3.4-2.06,5.45,2.75,3,3.82C462.34,442,453.15,449.89,457.2,443.83Z"/><path class="cls-1" d="M31,447.44c-.51-2.34,1.19-1.2,2.46-.61.38,2.05.23,5.82-2.75,4.12C31.94,450.12,32.46,448.33,31,447.44Z"/><path class="cls-1" d="M561.56,455.71c.17-3.33,1.63-7.22,4.42-9.07,4.31.71,2.06,6.59,6,8a65.94,65.94,0,0,0,2.82,6.31c.5,1.46,2,2.08,3.14,2.92,1,.69,1.92,1.41,2.92,2.08,1.45,1.43,6.55,4.08,1.79,4.31-3-.48-2-5.08-5.74-3.58,1.39,3.74,5.07,6.8,1.91,10.8,3.56-.33,6-2.09,6.36-5.81l1.59-1.05,1.77.42c1.47,1,2.55-.37,3.63-1.22l1.92-.76h.69c1.12.36,1.58-.77,2.23-1.43l3,0v11.17c-3.36.75-6.64,1.44-10,.29-1.44.2-2.86.5-4.28.75l-1.84.05-.64-.43c-2.11-2.87-2.75-.1-3.45,2.11-1.45-2.59-6.34-5.46-8.12-2-1.07,0-2.14,0-3.2,0s-2.16-.15-3.23-.19a27.77,27.77,0,0,0-3.36-.58l-.95,0-3.05.11a4.59,4.59,0,0,0-1.7-3.2c-.29-3-2-5.65-1.84-8.64,0-.33,0-1,.06-1.3-1.26-4.67-1.69-9.57-3.41-14.12C554.8,452.76,556.37,458.26,561.56,455.71Z"/><path class="cls-1" d="M74.85,454.9c-3.85-2.77,3.47-4.67.76-.17Z"/><path class="cls-1" d="M402.51,455.66a24.12,24.12,0,0,1,1.24-3.12C405.53,453.55,404.62,457.63,402.51,455.66Z"/><path class="cls-1" d="M296.42,454.14c1.58,2.06-4.95,7.13-8.59,7.5A20,20,0,0,1,296.42,454.14Z"/><path class="cls-1" d="M25.25,459.7l.68.24a3.25,3.25,0,0,1-2,3.6A3.82,3.82,0,0,1,25.25,459.7Z"/><path class="cls-1" d="M286.36,462.07c2.05,0-1.73,4.14-3.43,4.75C282.82,464.6,284.79,463.26,286.36,462.07Z"/><path class="cls-1" d="M18.9,470.61c1.22-2.26,2.34-4.67,4.38-6.33C22.87,466.85,22.2,470.6,18.9,470.61Z"/><path class="cls-1" d="M9,472.47c3,1.13,6.07-1.34,9.12-1.64-1.59,1.09-4.69,4.2-1.87,5.53,4.29-.95,8.3,1.28,12.57,1.34.56-4.21,4.86-5.47,5.6-.63,2.1-.69,2.6,1.29,3.43,2.76-2.61-.09-6.34-2.48-7,.74-3.34,3.48-4.91-1.86-8.65,0l-3.3.28a12.21,12.21,0,0,1-8-1,44.79,44.79,0,0,0-5.67-.3c-.07-.44-.21-1.32-.29-1.75.07-2.41-2.61-3.17-4.08-4.57,2.7-1.07,4.45,2.36,6.57,3.54A8.58,8.58,0,0,1,9,472.47Z"/><path class="cls-1" d="M72.76,480.34c.75-2.37,1.19-5.37,4.09-5.95-1.64,3-2.74,5.34,1,2.45-.23,2.62.37,3.06,2.06,1.07,2.89,3,6.28-2.36,9.61-2.76-2.22,3.4-4.59,7.75-9.29,5.77-3.34,4.94-7.8,8.44-14.38,6.13,2.36-7.63-8.66-5.49-8.16.57l-1.78.19c-1.64-2.94-2.84-7-7-7.25h-1l-7.17.62A1.92,1.92,0,0,1,38.54,480c1.42-1.53,2.82-3.73,4.92-1.83C52.83,477.84,63.51,477.06,72.76,480.34Z"/><path class="cls-1" d="M55.57,493.64c-3.12,3.85-9.66-4.23-3.59-1.78C53.16,492.48,54.36,493.05,55.57,493.64Z"/><path class="cls-1" d="M131,515.7c3.56,1.46,2.23,3.87.1,6l-1.25.78C129.35,520.14,129.44,517.69,131,515.7Z"/><path class="cls-1" d="M92,530.7c.74-2.49,3.26-2.23,5-1C97.13,531.77,93.41,530.29,92,530.7Z"/><path class="cls-1" d="M579.94,535.74c3-2.74,2.7,3.86,0,.74Z"/><path class="cls-1" d="M115.09,547.8c3.31-.28,6.59-1.12,9.93-.85-4,.32,2,4.5-2,3.75-.37-2.9-4.63-2.15-1.67.18-11.69.39-20.24,8.84-26.7,17.56-1,4.65-7.88,3.4-4,9.6.54,2.55,2,4.62,4.61,5.28l-.26.93c-1.89.8-3.51,2-3,4.25A3,3,0,0,0,90,591.26a4.44,4.44,0,0,0-1.82,2.5L87,595.93,86,596c.74-4,1.72-8-3.06-4.26l-1.86.27c-3.88-3-2.41-5.2.15-8.29-2.7.7-5.26,4.09-7.65,1,.34-.52,1-1.57,1.35-2.1,4.2,2.39,9.71-7.55,3.86-2.93-.7-2.87,1.73-6.57,4.82-5A2,2,0,0,0,86,575c3.72-2.06,7.85-11.79,1.55-14.77a77,77,0,0,0,8.83-5.55l.75-.14c-.5,2.94-3.08,4.61-4.45,7.06,1.51-.56,4-2.95,3.61.27-2,1-3.85,2.4-3.45,4.93,1.56-1.61,3.61-3,4.14-5.33a29.54,29.54,0,0,0,1.88-8.88c.92-1.2,2.75-.55,4.06-.86-.81,4.19,3.65,3.12.63-.14a71.86,71.86,0,0,1,8.24-2.65C112.9,550.55,114.88,549.48,115.09,547.8Z"/><path class="cls-1" d="M89.78,549.76c.17-3.64,4.46-1.94,5.58.28l-1.21.83c-1.36.25-2.73.47-4.09.71Z"/><path class="cls-1" d="M126.88,550.81a47.93,47.93,0,0,0,5.84,1.18,11.39,11.39,0,0,0,7.43,1.26,18.92,18.92,0,0,1,2.1.29c1.4,7.66-6.19,7-11.53,9.1-1.15.39-2.29.8-3.44,1.21l-.92-.29-2.56-1.15c2.85-.85,16.3-4,8.1-3.88-4.32,1,1-2.27,2.11-3.49-1.54-.17-3-.4-2.51-2.27C128.79,552.65,124.3,553.84,126.88,550.81Z"/><path class="cls-1" d="M83.69,553.65a5.12,5.12,0,0,1,2.42-1.91l1,1.22a2.61,2.61,0,0,1-3.05,1.56Z"/><path class="cls-1" d="M77.51,557.64l2.37-.85.38,1C79.31,559,78.39,559,77.51,557.64Z"/><path class="cls-1" d="M67.43,561.87c-1.1-1.47.18-4,1.84-4.38C69.84,559.15,69.33,561.36,67.43,561.87Z"/><path class="cls-1" d="M107.05,567.54c5-3.06,10.1-7,16-7.95.7,3.73-7.68,2.32-6.16,5.12l-.9,1.19c-1.06,3.56-4.92,5.13-8.51,5.1C107.36,569.83,107.22,568.68,107.05,567.54Z"/><path class="cls-1" d="M75.51,560.92l.43-.75c.88,3.16,1.82,6.8-2.92,5.64q1.16-2,2.12-4.17Z"/><path class="cls-1" d="M82.42,561c7.78-1.61-1.73,3.77-4.47,4.7C76.54,561.5,81.55,563.85,82.42,561Z"/><path class="cls-1" d="M118.72,564.59,120,564l1.23.91-.5.66c-.61.58-1.21,1.18-1.79,1.79-2.74,2.64,1.23,2.48,3.24,2.42-.06.45-.17,1.35-.23,1.8-3.36,1.08-7.31-.33-10.26,1.85.31-3.55,5.19-2.51,5.39-6.46A3.53,3.53,0,0,0,118.72,564.59Z"/><path class="cls-1" d="M139.15,566.09c.94-.53,1.89-1.05,2.85-1.54.17,2.12-1,3.53-2.81,4.47-1.87-.36-6.12,2.19-2.32,2.81,2.28,1.44-3.24,2.34-4.55,3l-.22-.83c-.12-2-.91-5,2.1-3.67.05-3.19-3.61-.52-5.37-.15.25-.69.73-2.07,1-2.75a24.34,24.34,0,0,1,5.2-1.63C133.68,569.45,138,567.67,139.15,566.09Z"/><path class="cls-1" d="M152,568.6c1.43-.6,2.86-1.19,4.31-1.76.67,3.42-3.63,1.31-2.3,4.84,3-.31,3.32-2.73,3.05-5.28l.63.57c.29,1.83,2.85,3.79,1.72,5.52-2.4-.91-4.89,0-7.31.35l-1.36-1.13C151.11,570.66,151.52,569.62,152,568.6Z"/><path class="cls-1" d="M71.38,568.58c1.9,1.87,1.32,6.8-1.92,4.16Q70.36,570.63,71.38,568.58Z"/><path class="cls-1" d="M98.82,572.67a7.39,7.39,0,0,1,3.91-1.67,7.86,7.86,0,0,0,4.75,0c-1,.91-1.9,1.83-2.81,2.8a17.94,17.94,0,0,0-2,2.58l-2.21,1.47C99.63,574.88,104.08,572.33,98.82,572.67Z"/><path class="cls-1" d="M143.09,571.67l.78.12a5.22,5.22,0,0,1-.47,3.13l-1.26-1C142.38,573.34,142.86,572.23,143.09,571.67Z"/><path class="cls-1" d="M145.16,574.71a6.8,6.8,0,0,1,4.9-2.76C149.83,574.37,147.22,575.09,145.16,574.71Z"/><path class="cls-1" d="M110,587.9c4.72-6,11.25-10.26,16.94-15.28l1.51,1.89L126.26,576c-1.84,1.37-4.55,2.34-4.51,5.09l-1.27,1.47c-2.78-.85-4.61,2-6.48,3.55C112.67,586.65,111.35,587.27,110,587.9Z"/><path class="cls-1" d="M171,575.83c0-2.4,2.2-2.17,4-2.21-.76,1.3-1.48,2.62-2.14,4-1.14,1.23-2.24,2.48-3.25,3.81l-.68.28c-.75-1.61-.91-3.87-3-4.26,0-.69,0-2,.07-2.73.9.61,1.74,1.32,2.59,2C168.69,579.8,171.23,577.84,171,575.83Z"/><path class="cls-1" d="M128.48,574.51l.61.53c0,.42.11,1.26.15,1.68-1,1.08-2,2.15-3.1,3.19l-2.13-.23c.77-1.24,1.51-2.49,2.25-3.73Z"/><path class="cls-1" d="M141.31,574.71l.68.11c0,1.46-.58,3.21-2.1,3.76,0-.69.05-2.05.07-2.74C140.3,575.56,141,575,141.31,574.71Z"/><path class="cls-1" d="M151.31,574.5c.25,1,.48,2.1.7,3.17-1.33.34-2.65.72-4,1.12C149.12,577.34,150.23,575.93,151.31,574.5Z"/><path class="cls-1" d="M104.91,577.47l2.35-.45c-1.12,2.25-1.22,5.5-3.88,6.54-1.79,2-5.51,5.29-4,.16.11-.51.31-1.53.41-2C102.74,584,103.89,579.49,104.91,577.47Z"/><path class="cls-1" d="M96.91,581.65c-3.58.1.13-5.5,2.29-3C98.17,579.39,97,580.29,96.91,581.65Z"/><path class="cls-1" d="M135.76,578.55l2.06-.55,1.28,1c1.5,1.56,3,0,4-1.23.1,2.43-1.91,3.66-3.58,5-.83-1-1.63-.92-2.39.13C137.59,581.09,137.68,579.38,135.76,578.55Z"/><path class="cls-1" d="M162.93,580c-2.13-1.53.33-3.09,2.06-2.38A20.2,20.2,0,0,1,162.93,580Z"/><path class="cls-1" d="M216.9,577.9c1.42-.7,3.48-.26,3.39,1.67A4.42,4.42,0,0,1,216.9,577.9Z"/><path class="cls-1" d="M67.06,579.56c3.1-.26,1.22,2.83-.88,2.25Z"/><path class="cls-1" d="M4.53,589.59c-3.7,4.47-3.34-9.19-.46-9.23C7.91,582.72,2.66,586,4.53,589.59Z"/><path class="cls-1" d="M122.44,583.35a7.48,7.48,0,0,1,2.24-1.84c-.12,1.71-.26,4-2.36,4.38Z"/><path class="cls-1" d="M164.29,582.87c1.29-.36,2.61-.61,3.92-.89-.54,1.93-.5,4.54-3,5-2.18-.11-2.81,2.09-2.08,3.82a23,23,0,0,0-1.66,5.73c-.5,1.1-1,2.22-1.47,3.33a2.28,2.28,0,0,0-.24,4l.4,1.72c-5.6-2.23,1.79,8.55-1.82,9.2a29.93,29.93,0,0,0-1.56-4.86c-5.33-1.32,1.12,10.32-4.63,9.83-.42-7.94-3.05-16.77.52-24.26.08.58.25,1.74.33,2.33-.09,1.58-.2,3.17-.34,4.77-.09,2.33-2,6.4,1.22,7.17,2-2.22.7-5.43,1.07-8.13.08-.38.22-1.16.3-1.55a115.87,115.87,0,0,1,6.34-12.39C162.51,586.07,163.43,584.48,164.29,582.87Z"/><path class="cls-1" d="M148.09,585.74c.3-1.45,1-2.91,2.59-3.25C151.21,584.46,150.57,586.58,148.09,585.74Z"/><path class="cls-1" d="M229,582.9c1.93-.76,4.32-.52,5.09,1.71A7.67,7.67,0,0,1,229,582.9Z"/><path class="cls-1" d="M131.63,584.48c.93,1.71,2.43.16,3-1,.41.63,1.24,1.87,1.65,2.49l-.27.71c-.86.59-1.71,1.21-2.57,1.8-.81,0-1.61,0-2.41.06C131.17,587.21,131.39,585.84,131.63,584.48Z"/><path class="cls-1" d="M155.1,587.8c-.64-1.44-.18-3.37,1.66-3.38A3.8,3.8,0,0,1,155.1,587.8Z"/><path class="cls-1" d="M235.73,584.84a3.5,3.5,0,0,1,3.26,1.91C237.52,587.2,235.65,586.66,235.73,584.84Z"/><path class="cls-1" d="M114.12,586.68l3.08-.94.17.73a24.59,24.59,0,0,0-5.49,5.57l-.71,0c.35-1,.68-1.9,1-2.85C112.82,588.33,113.47,587.5,114.12,586.68Z"/><path class="cls-1" d="M133.41,588.53c.86-.59,1.71-1.21,2.57-1.8-.81,2.59-2.16,5.13-4.75,6.31Q132.33,590.78,133.41,588.53Z"/><path class="cls-1" d="M97.14,590.84c.69-1.37.88-3.41,2.87-3.21-.65,6-.34,12-.9,18,1-.19,1.9-.39,2.84-.61-.62,4.28,1.65,1.48,3.25-.3-.45,3-2.16,5.64-3.9,8.11a5.23,5.23,0,0,0-1-3.16c-1.76-2.65-4,.73-3.53,2.75L96,613c0-1.42-.08-2.83-.13-4.22a13.92,13.92,0,0,0,.28-4c.07-1,.09-2.07.08-3.09C96.37,598,96.81,594.43,97.14,590.84Z"/><path class="cls-1" d="M143.1,587.68l1.06,0,.81.38c-.68,1.19-2,2.92-3.42,1.6Z"/><path class="cls-1" d="M241.83,587.69c2.67.35,5.51.78,7.42,2.89-1.61-.19-3.22-.37-4.83-.53C243.56,589.25,242.7,588.46,241.83,587.69Z"/><path class="cls-1" d="M104.39,596.14c2-2.45,1.88-6.43,5.23-7.63l.27.77a11,11,0,0,0-.07,3.57l.05.56a3.94,3.94,0,0,0-2.09,3.11c-3.28,1.44-4.65,4.6-5.85,7.73C99.83,601.26,102.8,598.53,104.39,596.14Z"/><path class="cls-1" d="M116,592.59a8.8,8.8,0,0,1,3.84-3.91A3.31,3.31,0,0,1,116,592.59Z"/><path class="cls-1" d="M91.74,591.69l1.2-2,.12,3-.16.86A65.56,65.56,0,0,1,88.1,598c.62-1.33,1.22-2.66,1.88-4A5,5,0,0,0,91.74,591.69Z"/><path class="cls-1" d="M258.79,592.83c1.48-.77,3.6-.13,3.32,1.85A5.73,5.73,0,0,1,258.79,592.83Z"/><path class="cls-1" d="M129.2,593.81l1,.1c-1.12,2.08-1.36,5.57-4.18,5.92a8,8,0,0,0,1.23-2.93C127.86,595.86,128.52,594.82,129.2,593.81Z"/><path class="cls-1" d="M81.74,597.63c2.12,8.06-1.25-5.34,4.27-1.64l.94-.06c-.06,1.07-.1,2.17-.09,3.26-.31,2.34-1.27,4-3.8,2.9,2.8,6.16-7.93.25-2.8-4.17Z"/><path class="cls-1" d="M108.25,597.35c1.71,1.62-.06,3.58-2,3.55A7.71,7.71,0,0,1,108.25,597.35Z"/><path class="cls-1" d="M268.84,599.16l.81-.26c2.08,1.64,4.07,3.41,6.18,5C281.75,611.65,269.79,603.56,268.84,599.16Z"/><path class="cls-1" d="M142.91,603.86c0-1.69-.4-4,2.09-3.15-1.82,2.13.82,9.94-2.07,5.73C142.93,605.8,142.91,604.51,142.91,603.86Z"/><path class="cls-1" d="M0,601.28l2.42,1.63c-1.62,5.86,3.45,11.34,1.46,17-2.34.14-3.25-1.66-3.88-3.6Z"/><path class="cls-1" d="M111.4,606.4a8.74,8.74,0,0,1,.17,7.46C111.53,612,111.45,608.26,111.4,606.4Z"/><path class="cls-1" d="M281.75,606.92a3.42,3.42,0,0,1,4.1,1.76A3.3,3.3,0,0,1,281.75,606.92Z"/><path class="cls-1" d="M118.93,608.71c3.39-3,1.64,12.08-1.32,9.86C118.21,615.32,118.59,612,118.93,608.71Z"/><path class="cls-1" d="M132.9,611.82c-1,3.8-3.24-.26-1.34-2.11C131.9,610.24,132.57,611.29,132.9,611.82Z"/><path class="cls-1" d="M96.76,612.44c1.1-.67,2.16-1.41,3.21-2.14-.38,1.47-1,3.08-.16,4.54a7.81,7.81,0,0,1-2.89,2.36c-1.13-1.09-.66-2.84-.94-4.22Z"/><path class="cls-1" d="M124.07,612.47c1.9-2.6,2.69,1.91,1.59,3.28A35.33,35.33,0,0,1,124.07,612.47Z"/><path class="cls-1" d="M294.75,611.83l.94.12,1.1.38a34,34,0,0,0,6.58,3.23c-.13.56-.38,1.7-.5,2.26A14.44,14.44,0,0,1,294.75,611.83Z"/><path class="cls-1" d="M158.19,615.43c3.29,5.57,9.22,7.71,14,11.65,8.69-5,19.85,4.4,20.93,13.75A18.47,18.47,0,0,1,189,639c1.38-2.94-4.17-5.33-6.74-5-3.59,3.37-6.54-2.17-10.37-2-6.36.9-7.38-6.93-12.5-8.23l-.32-.76C157.85,620.55,156.74,618,158.19,615.43Z"/><path class="cls-1" d="M307.13,618.71l2.12-.23,3.51.84c5.57,3-2.72,5.51-2.74,9.25a40.69,40.69,0,0,1,3.85,6.4c-3.84-2.86-6.26-7.49-10.89-9.23l-2.24-1.22C303.49,623.45,309.85,622.91,307.13,618.71Z"/><path class="cls-1" d="M152.2,622c1.49-.74.49,2.48,1.07,3.36,3.68.56-1.1,2.31-2.23,3.36C151.42,626.53,148.57,622.42,152.2,622Z"/><path class="cls-1" d="M386.77,623.41a31.9,31.9,0,0,1,12.42-1.6c-4.28,2-1.27,5,2.39,4.28a51.22,51.22,0,0,0,5.16,4.24c-2.67.57-4.05,4.22-.68,5-3.37.28-12.75-6.67-6.72-.41-2.19-.16-4.27-.94-6.41-1.31,1.07,2.55,8.9,7.84,7.22,1.41,2.24,1.31,9.31,8.33,8.21,1.18,3.8-1.24,4.81,4,8,5.22,3.32,3,9.4,8.88,5.33,13.15-9.77.32-18.47-4.16-26.17-9.48-3.54-1.71-8.29-3.69-11.44-.18-1.31,3.49,2,4.73,4.29,6.4,4.26,5,9.56,9.59,11.43,16.07,1.18,2.75,2.22,7.24-1.64,8.18-1.83-1.59-6.48-9.2-6.45-2.82-3.51-.93-5.76-2.8-2-5.38-3.56-7.24-12.7-11-14.76-18.7,5.28-1,5,7.3,10.15,7.11-2.13-6.62-9.59-10.58-12.58-17.13a39,39,0,0,1,4.71-.49c-1.63-4.81-7.42-4.43-10.67-7.42,5.54.74,10.18,4.09,15.5,5.5l2.09.57c5.48,1.7,10.44,4.22,16,5.91-2.28-4.4-8.44-6-13-7.4-.43-1.72,1.49-2.1,2.51-2.94C387.21,630.41,383.73,626.15,386.77,623.41Z"/><path class="cls-1" d="M405.06,622.84a13,13,0,0,1,5.42.71,10,10,0,0,0-2.5,3.3l-5.42-.67c2.86-.16,6-.34,2.32-2.6Z"/><path class="cls-1" d="M411.08,623.74a9.79,9.79,0,0,1,5.6,2c-2.83-.54-.94,2-.56,3.47a44.67,44.67,0,0,1-7.48-2.12A3.58,3.58,0,0,0,411.08,623.74Z"/><path class="cls-1" d="M381.94,624.71l.83-.06c4,3.58.24,2.55-3,2.77l.29-.51A14.22,14.22,0,0,0,381.94,624.71Z"/><path class="cls-1" d="M420.43,626.84l.8-.48.77.87c-1.47,2.48,2.91,3.89,4.89,3.28l.51.26c1.2.83,2.41,1.68,3.66,2.48-4.95.83-9.52-2.61-14.22-3.85C418.05,628.57,419.24,627.7,420.43,626.84Z"/><path class="cls-1" d="M358.81,628.53l2.19-1,.8,2.37A5.46,5.46,0,0,1,358.81,628.53Z"/><path class="cls-1" d="M340,629.57c.95-.21,1.92-.39,2.9-.53-.43,1.41-.61,2.89.73,3.87a10.47,10.47,0,0,0,3.28,3c1.45,1.13,3.81,1.51,4.26,3.56-2.75-.39-6.13.65-8.23-1.64-1.33-.83-2.86-3.25-4.16-1.05a6.28,6.28,0,0,0-3.59-2.25l-3.44-1.62,1.32-1,2.89-.34C337.68,632.27,339.72,631.62,340,629.57Z"/><path class="cls-1" d="M314.87,636c-.22-2.74-2.42-7.88,2.12-5.17a5.45,5.45,0,0,0,.69,4.6c.11,1,.25,2,.41,3A10.38,10.38,0,0,1,314.87,636Z"/><path class="cls-1" d="M357,634.65c-3.17-1.76-15.32-4.66-5.85-5.4a22.21,22.21,0,0,0,3.84,1.2c6.42.44,11.69,6.35,18.17,4.6-.47,1-.95,2-1.46,2.92-3-.87-5.81-2.43-8.83-3.35-.41,4,4.47,4.85,6.23,7.81-3.42-1.25-1.22,2.11.08,3.23-3.05.19-3.76-3.34-5.17-5.33-.65-1.51-2.17-3.35-3.91-3.22-.7,1.95,1.95,2.73,3.24,3.51.11,8,8.46,13,13.31,18.73-4.66,2.29,7.07,1.54,6.43,6.45-4.57-2.11-8.76-5.14-14.59-3.38-4.07-7.89-9.42-15.65-18.58-17.58-2.59-.7-9.93-5.85-9.78-1.35,5.91,3.34,12.58,7.36,14.69,14.28.9,2.07-1.51,1.82-2.8,2.34-.17,2.59,3.67,5.41-1.17,4.79,4.73.63,2.3,4-.48,5.77a23.91,23.91,0,0,0-7.09-11.32c1.09,3.26,1.18,6.71,1.32,10.13-2.53,4.36-8.31.25-12.11.63l-2.35-1.5c.13-1.72-1.5-2.49-3-2.13l-1-.78c-8.15-5.62-15.75-12.25-24.69-16.59-1.81,3.09-1.15-1.3-3.11-1.85C293,644.72,288,640.94,282.09,640c-1.41,1.23-1,3.28-1.39,4.95-2.69-2.92-9.84-10.95-.09-8.81,10,5.31,20.14,10.44,30.1,15.88,3,.84,6.78,2.68,9.74.65-.63-4.61,1.79-9.94-1.6-13.8,1.85,1,4.18,2.68,3-.71,2,.23,7.16,1.8,4.08-1.36-1.89-1.57,1.08-1.71,2.15-2.26,1.21.12,2.43.26,3.65.41a10.39,10.39,0,0,0,6.85,3c3.44,3.65,9.14,3.6,13.69,4.76H353c1.56-.44,7.12,1.37,3.94-2,.41-5.43-7.22-2.47-5.94-7C353,634.39,360.11,638.92,357,634.65Z"/><path class="cls-1" d="M317.94,631l3.2-.7,1.84,1.29C321.25,632,319.05,633.06,317.94,631Z"/><path class="cls-1" d="M408.16,631.14c1.28-.31,3.7.79,3.49,2.33C410.34,634.07,407.59,632.77,408.16,631.14Z"/><path class="cls-1" d="M433.08,632.13l3.11-.21a4.84,4.84,0,0,0,4.31-.08c5.57-.4-.59,3.07-2.78,3.81l-.57.18c.48-3.78-5.22.91-5.39-2.71Z"/><path class="cls-1" d="M0,638.53c3.61,1.44,8.17,2.27,8.7,7-.86,4.61-6.15,2.57-8.7,5.31Z"/><path class="cls-1" d="M179.91,642.66a2.4,2.4,0,0,1,3.25-1.79A2.7,2.7,0,0,1,179.91,642.66Z"/><path class="cls-1" d="M370.11,643.56a13.11,13.11,0,0,1,4.95,4.17c-2.14,1.85-3.8.38-4.57-1.88C370.39,645.28,370.21,644.13,370.11,643.56Z"/><path class="cls-1" d="M154.9,652.62a2.51,2.51,0,0,1,3.2-1.86A2.53,2.53,0,0,1,154.9,652.62Z"/><path class="cls-1" d="M198.73,653.81c7.08,1.72,12.49,7.79,20,8.15,5,2.74,7.55,10.4,14.5,8.37,4.6,1.89,9.56-.24,14,2,12.33,4.54,19.52,21.48,34.47,18.23,4.66-3,4-9.37-1.24-11.26-1.47-1.2-2.93-2.4-4.34-3.65-.41-1.32-.8-2.62-1.21-3.91,9.43,6.69,16.44,15.75,23.12,25,.21,2.2-2.19,4.55-4.36,3.34-7.86-3.21-18.54-1.5-24.16-8.84-8-2.76-12.49-11.95-20.61-13.65,2.58,5.05,7.1,9.12,10.15,14a6.92,6.92,0,0,1,2.08,5c-9.39,1.83-18.2-3.13-24.71-9.41-2.54-2.28-5.42-5.37-9.22-4.51-1.44,3.52,1.09,9-3.39,10.78-8.82,3.6-16.32,10.2-25.7,12.28-5.87,1.88-7.85,8.68-12.68,12.15,1.69,5.42-8.53,1-8.26,6.53,4,3.75-2.64,7.91-3.76,11.92-4.61,2.37-6.69-2.43-6.93-5.82l0-.74q.3-4,.49-8c1.48.34,3.43,2.34,4.62.53,11.07-10.73,22.93-20.43,34.72-30.3,3.5-2.56,12.51-4.14,9.47-10.08-2.62-4.76-2.72-13.13-9-14.75C205.37,662.09,200.91,658.6,198.73,653.81Z"/><path class="cls-1" d="M262.14,662.64c-2.43-1.83-4.48-8.07.54-6.63,4.12-.25,6.61,8,8.95,5.39,7.73,5.52,15.54,13.35,25.2,14.49,4.89,5.39,9.91,10.46,17.84,10.12.69,6.32,6.93,10.37,12.37,5.59-10-10.34-21-20-29-32,3-.26,4.08,2.56,5.82,4.36,2,2.65,7.14,3.38,6.79,7.4,4,6,9.53,10.94,15.08,15.49l.46.62c2.35,4.12,7,7.83,6.56,12.92-1,5.09-7.31,1.48-10.13-.2-7.63-2.46-13.37-8.23-20.51-11.6l-1.73-1.15c-10.26-8.75-20.36-18.86-32.53-24.66.1,3.22,3.94,4.18,5.06,7.08l-1.95-.06-1.65-1.19a14.53,14.53,0,0,0-6.2-5.07Z"/><path class="cls-1" d="M294.83,656.74q2.37-.54,2.34,1.89Q294.74,659.19,294.83,656.74Z"/><path class="cls-1" d="M309.12,660.79c2.12.32,6.06,3.37,2.24,4.35C308.72,667.26,307.51,662.19,309.12,660.79Z"/><path class="cls-1" d="M167.67,666.08c2.13-1.47,4-3.22,6.17-4.69-5.34,8.52-14.57,14-20.3,22.4a10.9,10.9,0,0,0-4.52,7.76c3.48,3.43,8.84.91,11.56-2.25,4-2.28,12.56-8.56,15.87-2.46-.82,1.3-1.75,2.53-2.64,3.79a53.2,53.2,0,0,0-9.58,20c2.77,4,10.47-6.61,8,1.39-.19.41-.59,1.23-.78,1.63-3.07,1.19-3.37,4.78-4.59,7.42-4-1.22-3.53-6.12-5.15-9.18-9.71,4.09-9.58-8.06-13.91-13-2.77-1-2.73,2.32-2.21,4.09-4.18-1.79-6.82-5.57-8.51-9.64,1.31-5.89,1-12,1.74-18,.72-3.54,1.27-7.15,2-10.67,3.63,6.94,10.76,1.27,15.31-1.95C159.93,663.86,163.69,665.37,167.67,666.08Z"/></g></g></svg>