<svg xmlns="http://www.w3.org/2000/svg" viewBox="0 0 600 637.99"><defs><style>.cls-1{fill:#979c66;}</style></defs><title>Layer 2</title><g id="Layer_2" data-name="Layer 2"><g id="Layer_2-2" data-name="Layer 2"><path class="cls-1" d="M237,.41,237.9,0c0,1.77,0,5.31,0,7.08-.63,1.94,2.23,6.16-.85,6.16Q237,6.82,237,.41Z"/><path class="cls-1" d="M238.28,31.35c1.39.28,1.39,4.1,0,4.38A4.77,4.77,0,0,1,238.28,31.35Z"/><path class="cls-1" d="M306.33,56.28c1.75,2.71,6.17-1,6.51,2.85-.42,3.36,3.54,4,4.22,7-4.55-3.3-10.84-2.45-15-6.81C303.63,58.51,305.7,58.14,306.33,56.28Z"/><path class="cls-1" d="M564.13,64.35c1.66-.17,1.42,4.07,1.93,5.69C563.13,70.73,563,66.16,564.13,64.35Z"/><path class="cls-1" d="M563.4,73.09c4-2.4,4.16-8.8,9.48-9.13.47,3.86,1.37,3.1,3.46.29,3.88.91,2.42,7,6.73,7.78,3.84,0,2.77-5.83,4.79-8.1.48,4.4.34,9.23,3.17,12.94,7.3-4.56-2.23,6,1.1,9.13,2.78,3.65,1.57,9.16,4.93,12.31-2.66,3.16,2.28,3.62.8,0l1-.21c.1,1.32.21,2.64.34,4,0,1.74,0,5.22,0,7-.08,11.09-1.86,21.72-.65,32.68l1.42.79v1.15c-3.15,1.22-2.72,9.71,0,10.58v.58c-2.4,2.93-1.73,6.43,0,9.5v.57c-3.62,3.31-.33,11.82-1.93,17,0,.48.07,1.46.1,1.94-.33-1.41-1-4.23-1.3-5.64-4.55,1.9-11.11,1.79-11.67,8-1.82,5.45-4.33-5.52-7.47-1.51-1.31,6.61-6.14,11.67-7,18.38-1.17-1.94-1.88-4.73-4.74-4.13.8,3.6,1.9,10.43-3.85,9.76-4.32-1.07-1,2.1,1.58,1.48-1.14,3-2.4,6.35-1.55,9.57,3.38,2.58-2.21,5.33-.9,8.5-.3,2.34,2,3.94,3.48,1.56.93-3.81,4.88-5.56,8.22-6.92,2.23-1.42,6.5,3.15,6.81-.82.33-5.08-4.29-7.41-6.37-11.22.64-2.34,1.38-11.37,4.14-7,1-4.46,6.52-10.1,10.58-7.94,2.89,4.71-4.3,10.32.42,14.4-.32,3.81.29,7.6.28,11.41-9.78,8.31-22,13.1-34.79,12.26,4.58,4-3.36.29-5.73,2.18-5.38.17-14.72-3.53-17,2.93,1.4-5.56-10.67-2.94-5.93.54,1.14,1.69,4.34-.61,3,2.57,2.81.34,7.52-4.62,7.61.58-5.8-.44-8.81,5.67-15,2.4-7.94,4.41-15.49-2.41-22.29-4.88,4.78-.53,9.51-1.47,14.22-2.44-1.64-6.35-11.51-4.54-14.58-10.17,4-6.68-5.76-7.5-3.66-13.42-5.15-6.53.31-16.93-6.52-22.24,5.75-7.61-7.61-1.27-7.45-7.7-1.38-5.7-.34-12.32-3.81-17.39-4.51,4.22-4.5,10.88-5.66,16.56,3.65,9.36-6.25,1.92-1.69-.41.18-10.53-5.37-2.55-8.63,0,.09-5.53,2.87-10.26,5.07-15.13.62-2.38,2.46-7.39-1.83-5.92-2,3.51-2.32,7.71-3.64,11.48a22.34,22.34,0,0,1-10.2,4.51c-2.45-4.88-2.54-9.7.6-14.12a6.46,6.46,0,0,0-7.24.9,15.31,15.31,0,0,1,2.05-5.81c-2.9-.62-7.31-1.57-8.67,2-.89,3.11-6.9,4.79-8.4,1.38,6.84-1.11-3.84-2.14-4.69-5.49,1.85,10.85-3.61.17-5.34-2.58-7.58-1.73-11.69,12.54-17.64,4.35-.09-.39-.27-1.17-.37-1.56,3.8-3.09.34-7.14-1.37-10.4-3.69-3.11,1.24-7.73-3-9.93-7.6-7.71-8.48-19.3-17.17-26-.57-4.06,7.37-6.81,2.55-9.38-4.68-3.45,6.45-5.08-.65-8.22,4.24.21,2.46-1.36.11-3,5.1,1,8-8.68,12.47-3.69,3.52-3.34,8.65-2,10.66,2.29-2.76.27-7.51-2.63-7.71,1.57-.52,4.76-5.52,6.37-9.29,8-.11,3.92,3.6,1.3,4.83-.07a14.08,14.08,0,0,1,8.89,3.47c3-4,6,2.8,9.71.86a15.28,15.28,0,0,1,10.29,0c.53,2.77,2.34,6.84-1.61,7.64-5.53,2.27,1.79,6.75,4.27,8.61-.39-2.44,6.06-7.56,1.37-6.21-5.36-.59,3.52-8.38.31-1.51,5.09-5.32,2.67,2.74,6.67,3.89-2.94-7.51,3.35.53,6.93-3.72,1.24,6,6,5.86,11.45,4.4-4.55-1-9.36-6.72-5.46-10.64-1.44-.22-3.6.07-2.79-2.08.81-3.67,5.56-1.59,8.05-2.94-2.81-1.45-3.76-3.86-1-6,2.92-3.64-5.68,3.58-3.57-.45,2-8.27,9.09,5.61,12.82.69,3.44-2.44-.83-2.89-2.45-4.58,2.23-.48,7-5.27,5.46-.49,7.24-.21,2.13-10.93,8.72-8.46,3.94.08.25,4.81.25,7.15.81,3,5.69,6.74,7.46,2.74,1.06-2.15-1.84-3-2.78-4.57,2.23-2.06,4.67-3.35,3.12.75,7.12-2.58-2.06,10.44,4.78,11.31,2.89,1.14,4.74,4.41,7.92,4.83,3.07-3.28-.09-8.06-.93-11.78,1.77-.24,4.53,1.27,5.45-.92,2.74-4.11,6.75-7.25,7.9-12.29,4.82-.45,3.65,7.68,8.63,2.68-4.48,4.18,3.3,3.22,1.53,7.37,2.86-2.4,9.61-1.9,8.81-7-1.45,1-2.86,2.08-4.4,3,.58-2.39,2.65-3.9,4.1-5.75-1.3-.41-3-.42-3.2-2.1,5.86,3.71-1.48-7,5.15-6.13.69,3.18,1.06,6.54,3.42,9,2.34-2.55-1.06-7.93,3.64-9.26-5.58,8,5.89,6.77,1.1,2,2.3-2.65,3.05,6.5,7.8,5.54-2.21,3.41-1.6,3.46-2.93,7.65,1.49-.53,6-1.12,4.33-3.31-3.4-4.79,5,2,6.48,2.46-2,6.94,6.46,4.33,3.26,10.87,2.5-3.72,9.35-6.18,10.42-.15a46.62,46.62,0,0,0,5.74-7c-1.59.78-3.1,1.71-4.75,2.35.74-3.37-.06-7.21,1.75-10.26,2.19-1.25,2.42,5,2.78,2.12-1.09-7.17,5.88,3.66,7.12-3C570.23,77.6,565.1,76.33,563.4,73.09Z"/><path class="cls-1" d="M10.31,72.61c1-3.76,4.39-5.37,7.79-6.62.89,4-4.4,3.89-5.19,6.93,6.3.37,1.42,5.27,1.07,9.26,2,0,6.09-3.85,6.21-.2,1.08,5-2.24,9.78-2.09,14.88,3.42-.41,6.87-1.74,7.31-5.61,1.75,1.48,3.77.36,5.75.2-1.05-1.73-2.61-3.18-3.2-5.15,3.24.12,5.32-1.84,7.49-3.86,2.94-2.89,5.37,2.68,8.46,2.61,3.83-1.77,6-7.21,10.89-5.15.51-4,4.37-5.09,6.17-1.23-5.4.58-4.19,5.51-.46,7.63-1.65,3.37,2.25,8-3.3,8.61-3.87-3.33-1.68.52-.13,2.8-2.3-.41-4.85-.7-4.68,2.45,1.37,2.73,6.15,2.12,7.35,5.91-.5-5.24,5.42-7.56,7.61-2.36,4.4-1.21,8.19-4.78,5.66-9.67,4.44,1.79,10.34,1.42,12.78-3.22,2.13-2.06,8-3.49,7.33,1.05,1-1.71,3.77-2.57,3.76.24,1,3.83-3.89,5.3-3,9,1.83-1.12,3.7-2.23,5.9-1.5-1.58-3.91,4.2-4.57,5.84-7.44a53.47,53.47,0,0,0,1.87,5c.58-1.91.3-5.78,3.31-5.21-.52,4.41,0,9.33,5,6.2-4.8-4.88,4.16-4.34,6.29-1.14-4.58-2.82,2.83-8,4.72-3.93,2.32,4,3.92-.68,5-3-3.32,2.71-9.56-5.5-4.35-4.6,7,.16,6.51,7,7.56,11.64,1.78-2.51,4.69-5.43,2-8.16,2.34-3.92,11.69-6.27,11.22,1a24.2,24.2,0,0,0,4-6.84c-2.1.79-4.39,2.17-6.33.27a50.46,50.46,0,0,0,8.1-3.23c1.65,1.58-.27,4.09,1.14,5.81,3.77,0,4.18-4.07,3.35-6.92,2-1.94,4.61-3.62,7.56-3.19-.07,2.58-3.76,2.29-4.1,5,2,1.4,4.7.41,6.82,1.68,1.24,2.54.52,5.43,1.3,8.07,2.74-.84,4.64.56,6.26,2.65,2.79-.75,5,.47,6.54,2.77-2.39-7.25,8.69-.8,12.07-4.78,1.43,1.62,2.83,1.38,4.22-.17,4.11,0,2.23,8.74,6.69,4.76,4.85-1.86-.93-5.27-3.78-5.21,1.54-5.78,9.36-2.54,13.45-2.46.17,4,1.11,10.06,6.2,6.48.46-4.42,3.26-7.69,6.63-10.46,5.15-2.17,8.42,8.71,13.12,4.37a31.79,31.79,0,0,1,5.64-10.6c3.39,2,5.91,8.87,10.4,5.48,1.93-2.84,9.31-1.74,4.52,1.39-.8.63-1.59,1.27-2.38,1.91-4.28-.26-7.7,2.37-11,4.76a36.92,36.92,0,0,0-5.12,4.22c-3-1.39-4.79,1.88-5.94,4.15q-1.4,1.82-2.63,3.72a4.31,4.31,0,0,0-3,3.34,6.69,6.69,0,0,0-4.4,6.31l-.81,1.68c-.57,1-1.13,2-1.62,3-.8,1.57-1.64,3.13-2.54,4.64a33.72,33.72,0,0,0-7.87,14.83l-.91,1.31L213,139c-4.87,1.89-6.14,8.39-8.1,12.91-.35,1-.68,2-1,3a7,7,0,0,0-3,3q-1.38,1.93-2.72,3.9a6.84,6.84,0,0,0-2.48,2.93c-2.41,2.13,1.12,7.45-3.56,5.55a42.42,42.42,0,0,0-2.24,10.83c-.38,1.35-.72,2.71-1,4.07-.34,1.14-.63,2.28-.9,3.44-.5,3.56-3.8,7.3-1.36,10.73l.63,2.36c-2.88-1.64-2.38,1.27-2.31,3.34,4.37-5.69.29,6.28,3.93,8.42-.06.88-.13,1.77-.19,2.65l-.88,1.92a4.94,4.94,0,0,0-1,3.31l-.47-.36c0-1.18-.62-1.66-1.73-1.46-4.4-2.67-4,.67-6.5,2.79l-.12-1c-.38-3.07-.63-6.16-1.1-9.21-3.29-1.49-2,3.33-4.4,2.72-.13-2.59-2.27-2.93-4.43-3.1l-.35-.94c-1.07-2.25-4.84-.77-6.78-2.43a16.9,16.9,0,0,0-2.47,7.37,6.56,6.56,0,0,0-7.77,5l-.63,1.6c-4,0-4.4-4.62-6.22-7.23-3-.7-2.81,3.1-2.84,5l-.06,1-1.9,1.08c0-3.45,0-6.86.18-10.3,2.62-1.59,7.78-1.5,4.84-6.79-.74-3.83.24-12.16-5.89-11.53-1.54-3.18-5.72-5.52-6.53-.49-.61-3.9-4.47-5-6.83-7.61-2,1-3.7,4.54-6.13,3.06-3.15-.8-1.41-5.69-4.86-6.2-3.1.07-6.47,3.14-8.92-.12-2.47.8-3.79,3.47-5.79,5,.32-2.43.83-4.84,1-7.28-2.46,2.43-5.45,2-8.18.26a32.35,32.35,0,0,1,3.32,9.69c-2.88-1.76-6.23-2.21-9.35-3.34,3.48.27,2.9-2.11,2-4.52-1.73,1.52-3,7-5.42,3.56-1.61-1.62-3.75,2.49-5.24.47,4.71-1.68-5.74-9-1.46.66-6.11,3.39-8.3-5.92-12.62-8.8a97,97,0,0,0-6.73-15c.63,2.15-2.69,7.85-3.06,3.32-2.07-7.16-2.16,12-5.22,4.44-1-4.36-5.51-1.09-.63.31-4,3.94-11.19,7.19-15,1.36-1,3.33-7.19,3.25-7-.69-2.12-2.54-3.84,2.64-4.73,4.45-3.36-1.49-5.57-4.86-9.31-5.65-5-2.57-4.08-8.38-4.82-13.06A54,54,0,0,0,0,149.63v-3.56c4,.19,8.71-5.79,6.41-7.75-1.21,5.22-.6-.76-3.63.25,2.92-5.24,6.4-10.21,8.42-15.89,2.12.87,2.79-2.93.56-2.31-3.45-.32-1.45,5.16-3.6,6.74-3-9.62-3.21-19.47-2.38-29.49C8.52,92.51,3,86.7,6.85,81.87,9.42,79,4.4,71.6,10.31,72.61Z"/><path class="cls-1" d="M506.91,66.06c2.16.45,3.76,1.57,3.1,4C507.53,70.57,506.6,68.08,506.91,66.06Z"/><path class="cls-1" d="M518.24,65.92c3-.51,1.45,3.34,1.71,5.1C516.32,72,519.71,67.76,518.24,65.92Z"/><path class="cls-1" d="M119.9,68.07c3.84-1.34,3.32,2.26,3,4.9C120.49,73.75,121.5,69.64,119.9,68.07Z"/><path class="cls-1" d="M129.23,69.15c3.13-.34,5.16,3.35,8.66,2.88,1.92-1.77,7.08-3.24,6.33,1,2-.39,4.84-1.5,4.94,1.65-4.53-1.19-7.28,2.94-10,5.3-.73-3.29-3.14-7.49-7.11-5.94C129.28,76.48,126.17,70.7,129.23,69.15Z"/><path class="cls-1" d="M540.1,71.41c1.39.67,4.08,2.5,3.92,4.63C544.52,81.58,536.72,73.12,540.1,71.41Z"/><path class="cls-1" d="M278.29,72.38c1.49-.46,1.37,6.93-2.29,5.71C275.65,75.81,276,73.46,278.29,72.38Z"/><path class="cls-1" d="M497.24,72.21c2-.64,3.08-.31,2,1.78,2.27,2.49,2.58-4.44,5.84-1.09C509.64,79.12,491,78.85,497.24,72.21Z"/><path class="cls-1" d="M556.25,72.24c3.59-1.25-1,3,.43,4.89C553.54,77.65,555.47,73.71,556.25,72.24Z"/><path class="cls-1" d="M124.19,73.34c2.06-.9,1.77,6.48-.53,4C122.48,76.43,122.68,73.91,124.19,73.34Z"/><path class="cls-1" d="M78.29,74.46c3.78-.22-1.54,5.62,2.72,4.65,3,.9-1.2,3.58-3,3.22-.51,2.46,4.37,3.31,2,5.63-2.8.67-1.12,7.34-3.77,3.8-1.63-5.25.57-11.34-2-16.57C75.57,74.92,76.93,74.68,78.29,74.46Z"/><path class="cls-1" d="M68.21,81.22,69.87,81c-.61,12-.31,2.35,3,3.1a54.81,54.81,0,0,1,1.06,7.12C72.33,87.62,64.18,85.41,68.21,81.22Z"/><path class="cls-1" d="M481.27,81.34c1.91-1.62,4,4.37,1.08,2.36C479.82,83.52,477.76,82.18,481.27,81.34Z"/><path class="cls-1" d="M491.4,81.47c6.54-2.59-3.53,3.71,1.23,2.14,4.7-3.11,1.33,6.93-.68,4.53-.48-3.75-4.47.65-5.63-2.31-1.64-1.19,5.31-.64,1.67-1.75C483.07,83.35,490.17,83.08,491.4,81.47Z"/><path class="cls-1" d="M447.33,82.34c4.91-.6-6.27,7.18-5.4.85Z"/><path class="cls-1" d="M556.44,84.19c2.22-1.71,4,2.79,1.93,3.5C557.77,86.56,556.11,85.56,556.44,84.19Z"/><path class="cls-1" d="M448.38,85.46c1.3-.33-1.68,4.36,1.83,4.6C442.73,91.81,443.38,86.32,448.38,85.46Z"/><path class="cls-1" d="M405,89.08c1.83-.35,3.44-.35,2.27,1.8,1.58.78,5.14,1.07,2.5,3.08C405.09,92.55,403.43,98.17,405,89.08Z"/><path class="cls-1" d="M375,98c5.48-1.52,4.69,6.48,0,6.14C375,102.61,375,99.54,375,98Z"/><path class="cls-1" d="M38.14,179.12c2-2.61,3.7,2.16,6.2,1.65,3.51.6-1.79,1.71.63,4.33-4.19,0-3.06-5.42-6.72-5.13Z"/><path class="cls-1" d="M21.34,179.31c2.24,1-2.61,4.05-3.09,2C18.8,180.12,20.16,179.64,21.34,179.31Z"/><path class="cls-1" d="M597,198.11l1.4.74c-1.13,1.32-.37,3.87,1.65,3.31V204l-2-.9c-.1,6.34-.41,12.7-.29,19.05a17.26,17.26,0,0,1-2.29-2.23C597.36,212.84,596.53,205.35,597,198.11Z"/><path class="cls-1" d="M594.17,224.06c4.63.09,4,5.63,3.87,9.07-1-1.63-2.06-2-3.87-1.17C593.6,229.34,593.22,226.64,594.17,224.06Z"/><path class="cls-1" d="M583.24,227.36c3.7-.26.09,8-2.58,5C579.05,230.65,581.3,227.81,583.24,227.36Z"/><path class="cls-1" d="M418.14,234.89c4.56.18,9.12.22,13.7.42-.38,1.26-.7,2.53-1,3.82l-.7-.3c-.85-2.15-2.63-3.38-5-2.69a55.69,55.69,0,0,1-6.19.16C418.78,236,418.35,235.25,418.14,234.89Z"/><path class="cls-1" d="M595.86,261c-3.26.25-.71-4.27,1.25-2Z"/><path class="cls-1" d="M596.21,263.27q2.81,5.73-.4,4.06A5.66,5.66,0,0,1,596.21,263.27Z"/><path class="cls-1" d="M505,378.51l1.69-1,3.33,1.09Z"/><path class="cls-1" d="M485.11,384.07l2.82-.11c3,3.35-1.29,9.28-4.53,5.68C480.32,388,484,385.81,485.11,384.07Z"/><path class="cls-1" d="M497.33,396c1.54-.28,3.09-.62,4.64-.92l.81.1c1.39.85,2.79,1.71,4.23,2.51C504.22,396.83,493.24,400.66,497.33,396Z"/><path class="cls-1" d="M505.76,402.16c1.08-4.08,7.47-1.52,10.66-3.26a4.67,4.67,0,0,1,.78,4.17c-3.34,0-6.58,0-9.88.12l-1.05,0Z"/><path class="cls-1" d="M577.13,406.13h.72c.14.43.42,1.28.55,1.71-.1,1.1-.63,1.63-1.58,1.6C576.89,408.62,577.05,407,577.13,406.13Z"/><path class="cls-1" d="M496,411.64c-1.39,1.86-7.3-.23-3-.91C493.94,411,495,411.3,496,411.64Z"/><path class="cls-1" d="M493.07,416.08l6.74-.43c-.29.67-.86,2-1.14,2.68-1.24-.33-2.45-.69-3.68-1l-1.93-.48Z"/><path class="cls-1" d="M514.09,416.38c1,0,2.07.05,3.11.06a36.52,36.52,0,0,0,4-.05c2.49-.18,5-.3,7.52-.38-2,2.64,6.58,6.12,3.24,1.94.91-.25,1.83-.48,2.77-.69l5.48-.06,6.19-.12c3.55,3.22,8.24-3.14,10.55.85.3,3.66,4.67,3.8,7.33,5l1.41,0a16.2,16.2,0,0,0,5.75-1.38c2.75,1.05.75,4.3.67,6.54q-1.38.39-2.73.81c-2.09-1.76-4.71-1.3-7.19-1.07-3.55-3.65-7.13-1-11.17-.95a3,3,0,0,0-4-1.7c1.91-1.64-.36-3.12-2.08-2.23-1.26.12-2.51.24-3.76.38-2.19-4.11-7.78,0-2.93,1-.4,2.19-2.82.64-4.25.77l-.79-.35-.13-.86c.8-5.51-7.7-3.64-7.36,1L523,425l-1.35-2.16c6.42-1.22,3.68-2.85-2-.89-1.54.06-3.07.08-4.6.09-1.24-1.24-2.38-2.9-4.37-2.5C510.81,417.55,512.41,416.85,514.09,416.38Z"/><path class="cls-1" d="M530.47,425.31c-4.25-3.71-.07-4.56,2.63-1.35l.13.86-2,.36Z"/><path class="cls-1" d="M575.78,427c1.59-3.69,7.16.79,3.42,3.29C578.08,429.17,576.94,428.08,575.78,427Z"/><path class="cls-1" d="M597,435.23c2.66-1.44,2.79,3,0,1.75C597,436.55,597,435.67,597,435.23Z"/><path class="cls-1" d="M572.18,440.45c.2-.37.59-1.12.78-1.49.47,1.39.74,4.14,2.84,2.81,2.76-2.42,5.85,1.05,8.73-.86.53,3.73,5.75,2.72,7.64.47,1,.17,2.05.33,3.08.48.78,1.67-.81,3.19-1.88,4.3.88-4.75-6.93-3.36-6.4.79l-.82-.31c.17-2.05-2.25-2.25-3.25-.86-1.95.15-3.89.25-5.83.27-2.86-4.13-9.16,0-13.2-2C565.42,441.31,571.47,444.71,572.18,440.45Z"/><path class="cls-1" d="M554,444c3.92-.55,8.89-2.12,10.3,2.74l-2.42,1.2-1.77-.1c2.32-4.18-2.93-2.17-5.33-2.08-1-.29-2-.62-2.91-1Z"/><path class="cls-1" d="M579.18,452.91l.79,0,4.08.14a9.45,9.45,0,0,1-6.06,2.2C574.14,455.24,577.74,453.83,579.18,452.91Z"/><path class="cls-1" d="M597.88,471.75c-.2-1.94.93-1.46,2.12-.73v6.45l-.83-1.44C598.75,474.59,598.32,473.17,597.88,471.75Z"/><path class="cls-1" d="M595.84,478.1c-.31-1.45,1-3.6,2.58-2.39a20.44,20.44,0,0,1-1.43,3.42Z"/><path class="cls-1" d="M597.21,633a4.9,4.9,0,0,1,.59,5l-.7,0A10.32,10.32,0,0,1,597.21,633Z"/></g></g></svg>