<svg xmlns="http://www.w3.org/2000/svg" viewBox="0 0 600 894"><defs><style>.cls-1{fill:#4f362a;}</style></defs><title>Layer 6</title><g id="Layer_2" data-name="Layer 2"><g id="Layer_6" data-name="Layer 6"><path class="cls-1" d="M138,0H141C142.06,3,136.94,3,138,0Z"/><path class="cls-1" d="M362,0h.66C370.24,1.3,358.14,4.9,362,0Z"/><path class="cls-1" d="M392.45,0h10A9.73,9.73,0,0,1,392.45,0Z"/><path class="cls-1" d="M403.1,0H407A2,2,0,0,1,403.1,0Z"/><path class="cls-1" d="M429.88,0h0Z"/><path class="cls-1" d="M546.91,0h6Q551.23,4,546.91,0Z"/><path class="cls-1" d="M553.6,0h4.26C560.65,5,555.6,2.17,553.6,0Z"/><path class="cls-1" d="M599.29,68.91l.71-.16v8.44l-.75-.14Q599.21,73,599.29,68.91Z"/><path class="cls-1" d="M599.28,81.94l.72-.16V93l-1,0C599,89.32,599.1,85.62,599.28,81.94Z"/><path class="cls-1" d="M282.11,85.16c4.86-.71,9.74-1.12,14.65-1.41,3.49.2,6.95,0,10.47,0,7,.27,13.72,1.88,20.5,3.3l1.43,1.43c-5.72.69-10.68-3.15-16.34-3.36-1.57,5.12,12.22,9.72.22,9.14-4.85,1.24-12.42-2.85-13.89,3.91-.46-1.27.73-5.39-1.61-3.56-4.65,2.25,3.51,5.39,5.06,7.41-.32,3.36,2.28,2.94,1.8-.2,8,3.77,14.11,13.91,15,22.87,8.11,3.46,7.61,13.47,14.53,18.46,5.29,4.8,2.55,14.12,9.27,17.78,7.41,13.07,1.32,29.29,7.49,42.49,1.67,19.8-9,38.66-6.84,58.64.64,9.77-4.58,18.86-3.21,28.63-.93,4.59-1.24,10.95-6.54,12.47-2.37,1.1,2,6-1.16,6.55-8,4.1-16.45,8.2-22,15.43a14,14,0,0,1,2-5.23c-4.29,1.3-10.84,2.6-7.75,8.58,3.82-1.78,10.64,6,8-3.55-.43,9.65,6.26-.15,10.56-2.36,2.76,5.17,9-10.19,6.48,2.6,1.12-1,2.18-2,3.26-3.06l.64-.23c3.84,1.25,4.89-1.69,4.31-4.93,3.6,1.25,3.76,12,9.66,9.08,8.79-3.18,9.12,10.09,12.68,15.37,2.65,2.94,3.82,6.57,2.34,10.39,3.88-1.37,6.93,2,10,3.81-3,1.44-9.51,2.62-5.36,7.62,4,.28,5,4.07,7.1,6.79-.09-2.26.83-3.6,3.22-3,1.8,4.36-2.3,6.63-3.6,9.87,1.09,1.85,0,7.42,3.43,7.2-2.05-5.65,5.16-10.3,2.83-15.39-.88-5.09,5.73-.65,8.37-1.65,2.31-2.75,5.13-3.74,7.65-.6.42,3.92-.44,7.89-.72,11.82-1.59-2.48-3.85-4.56-5.61-1,.39,1.92.27,3.38-2.12,2.8-3.12-2.72,1.18-5.68-1.42-8-6.36,1.29-1.76,8.48,1.1,12.28,3.22,7.25-13.63,5.64-.64,7.4,1.23,5.63,3.71,15.26-2.36,17.73,2.07,1,4.53,3.29,6.77,1.38a31.51,31.51,0,0,1,.3-8.51c-3.21,1-1.06-.38-.81-2-3.39-2.55,3.83-1.6.41-4.89,3.53-1.83,2-11.3,1.81-16.74,2.1-.1,1.13,4.79,2.85,2.26.56.34,1.73,3.27,1.82,1.26,3.45-8.81,1.62-18.53,5.06-27.23,5.91,4.3,5.13,14.71,5.61,21.7-4.59,8.77-6.2,20.09-8.44,30.16,2.46,5.89-10.18-4.68-4.06,6.14,1,4.38-.55,8.56-1.07,12.84,2.24,2.19,5.94-.39,8.79,1-4.68,1.3-11.21,2.69-15.46,6.56-2.92.88-4.75,1.61-.52,1.89-.83,4.18-2.92,0-5.51,1.28-1.37,5-14.45,2.4-9.84-2.82.59-2.49,5.59-.7,3.64-3.89-.06-3.36-4.17.12-5.4-2.48,2.63.34,3.42-1.26,5-2.51,4.49-1,.47-2.4,3.87-5.55-6.16-2.85-.55-8.76-3.66-13,4.88-.63,2.25-3.45-1.28-1.64,1.44-1.61,3.9-5.16.8-6.32-4.75.38-6.81,0-3.58-2.31-6.4,2.94-5.67-2.94-7.26-6.29.31-1,.62-2,.91-3.07l.17-.59.28-.8c1.28-2.36,4.51-8.23,7.12-4.34.31-3.59-3.61-4.43-5.72-6.45-2.4-5.92-3.22-12.79-7.18-17.88-6.14-4.24-2.9-16.67-11.92-16.88,2.83-6.42-9-8.93-8.93-3.6-2,0-3.78-1.08-5.54-2,.21,4.28-4,1.94-6.83,2-9.21,4.21-22.8,10-30.59.61-8.85-3.07-18.64-8.19-27.86-5.63-2.06-1.67-.79-4.33-.84-6.53-2.51-.38-3-3.34-4.48-5-.15,11.86-1.56.16-4.83-2.29,8.43,2.42,17.75,4.22,26.35,2,5.33,2.2,7-4.36,10.42-7.09,16.81,1.46,22.92-18.42,36.48-24.08-.94-5.14,2.22-9.17,3.8-13.68-1.71-18.34,6.22-35.63,9.4-53.56,1.69-6.14,2.8-12.86-.19-18.84-5.27-10.35-.2-22-3.16-32.77-1.56-6.09-10.12-7.25-11.37-13.68-1.34-5.82-5.9-9.86-6.8-16.18-6.24-4.34-10.81-10.87-17.93-14-5.55-2.79-11.72-5.34-14.44-11.39,2.23-1.8,5.06-2.91,7-5.07-3.51-1.62-7.76,1.25-10.86-1.34-4.26-3.31-12.71-4.14-11.39-11.65-.54-3.76-4.59-3.34-7-1.55-6.25,8.89-18.51,9.34-27.63,14.2,1.71,9.55-2.4,2.22-5.18.22,2-.14,3.55-.76,3.15-3.12,3.74,1.48,2.55-1.43,4.45-4.54,1.56-.93,3.11-1.89,4.57-3a58.6,58.6,0,0,0,10-6.34l3.09-.82,1.78-.5c1-.38,1.89-.87,2.83-1.33,1.88,1.45,3.51-.56,4.17-2.22a44.55,44.55,0,0,0,7.85-1.32C279.3,86.36,281.08,86.49,282.11,85.16Z"/><path class="cls-1" d="M329.25,92.22c3.45,1.9,5.2,6.17,9.09,7.36,4.18-1.84,5.15,1.86,5.78,4.4-5.47.83-10.87-1.61-14.53-5.55-2-3.15-8.92,1.57-7.66-4.53,1.82,2.52,2.33,2.12,2.18-1C325.18,96.31,327.19,93.2,329.25,92.22Z"/><path class="cls-1" d="M349.17,95l.85-.36a6.33,6.33,0,0,1,2.09,2.21C350.8,97.21,349,96.66,349.17,95Z"/><path class="cls-1" d="M354.77,98.11l2.05.94c1.08.93,2.19,1.82,3.36,2.64l-2.25.77-.81-.37C356.28,100.79,355.51,99.46,354.77,98.11Z"/><path class="cls-1" d="M367,106.91a26.57,26.57,0,0,1,3.09,2.19l-.19.68-.79.31A2.73,2.73,0,0,1,367,106.91Z"/><path class="cls-1" d="M371.22,111.27l1.88.51c.1.58.28,1.74.37,2.32l-.68.18-1.85-1.43Z"/><path class="cls-1" d="M226.83,117c4.49,2.43,6.66-8.2,9.25-3,3.41,6.11-7.7,9.64-5.73,16.16l-.34.7c-7.81,3.81-7.12,13.56-11.07,20.17-1.31,6,.25,12.55-2.88,18.32-6-1,.69-5.42.36-8.94-.18-5,4.21-17.31-4.66-13.5,1.93-1.62,2.94-2.74,2.13-6.1l.91-1.31c4.09-2.1,4.18-7.64,8.37-9.39,2.71-.85.22-3.25.32-5.12,1-1.28,5.48-5.25,1.72-5C225.7,119,226.26,118,226.83,117Z"/><path class="cls-1" d="M377,119.29l.72-.29,2.3.86v.68l-2,.58Z"/><path class="cls-1" d="M205.56,154.19a7.12,7.12,0,0,1,2.63-2.51c.14.32.4,1,.54,1.29C208.15,154.12,206.78,155.26,205.56,154.19Z"/><path class="cls-1" d="M209.53,158c0,1.3-.06,3.9-.07,5.2C207,162,208.38,159.51,209.53,158Z"/><path class="cls-1" d="M200.89,169a38.63,38.63,0,0,1,7.22-4.29c4.66,8.45-3.59,16.23-2.13,25.09-1.73-1.29-3.59-2.62-5.82-2.75-3,4.7,1.5,10.61,6.48,10.46a5.28,5.28,0,0,1,5.3.09c3.86-2.22,3.85-8,3.33-11.84.4,1.11.81,2.23,1.22,3.34l.44,1.33c-.81,7.56.19,15.16-.87,22.72-.08,2,0,4.06.1,6.1l-.27.86-1,.28a36.38,36.38,0,0,0-1.72-10.3c-1.75,2.74-4.36-.3-6.73.1-2.91,5.56-3,13-10.09,15.18-.11,1.4-.34,4.21-.45,5.62a12,12,0,0,1-6.06,2.12c1.18-2.15,8.12-5.73,2.3-5.1,3.32-3.13,2.63-13.72-3.47-9.9.06-.88.13-1.77.19-2.65.71-1,1.38-2.07,2.08-3.09,4.18.25,2.54-7.91,4.27-11.3,1.17-2.05-1.19-3-2.29-4.36,5.26-.54,6.1-5.5,4.24-9.86C196,180.41,199.45,174.94,200.89,169Z"/><path class="cls-1" d="M215.3,175a2.47,2.47,0,0,1,0,4.05A5.22,5.22,0,0,1,215.3,175Z"/><path class="cls-1" d="M215.12,183.14c-.52-1.11-1.29-2.55-.19-3.59A2.09,2.09,0,0,1,215.12,183.14Z"/><path class="cls-1" d="M422,186c-2,.05-3.34-3.24-1-3.76A22.91,22.91,0,0,1,422,186Z"/><path class="cls-1" d="M0,186.58c4.78,1.43,6.73,7.27,11.83,8.22,2.51,6.33-5.84,9.13-1.75,15.13a70.13,70.13,0,0,0,1.81,11.93c-3.74,4.94-5.18,10.73-8,16.15L3,238.7l-1.33-1.63c.7-1.62,1-3.78-.5-5L0,230.63V217.78c3.58,4.13,1.73-.35,4.57-2.28,2.85-2.74-2.4-6.68-.71-9.63,2.68-1.68,1.84-5.23,2.08-7.89-3.16-1-1.9,4.15-4.61,3.9C.86,200.42.45,199,0,197.49Z"/><path class="cls-1" d="M420.3,187.35c3.44,2.1-3.6,5-2.43,8.59C415.54,193.38,415.22,187.63,420.3,187.35Z"/><path class="cls-1" d="M406.33,187.7c.75,2.8.4,5.7.52,8.58C405.55,193.59,406.24,190.57,406.33,187.7Z"/><path class="cls-1" d="M315.35,197.37c4.79,1.14,16.41-3.22,15.51,4.43-1.62,1.13-6.54,7.58-7,3.32-6,6.6-6.76-4.17-12-6C309.37,197.58,314.24,198,315.35,197.37Z"/><path class="cls-1" d="M413.27,197.1c1.64.86,4.32,1.51,3.76,3.92-2.34-.29-6.81.17-7.18-2.81C411.38,198.6,413.35,199.59,413.27,197.1Z"/><path class="cls-1" d="M301.26,202.14l.74-.55c2.31.5,4.6,1.1,6.89,1.73C310,204.18,311,205,312,206c-2.61,1.37-6.49-1.11-7.33,2.78l-1.53.22C300,207.38,298,205,301.26,202.14Z"/><path class="cls-1" d="M239,202.79a22.61,22.61,0,0,0,4.11.29c1.67,1,5.19,1.72,3.32,4.28C245,213,234.86,208.29,239,202.79Z"/><path class="cls-1" d="M408.2,203.65a4.41,4.41,0,0,1,1.2,5.52L408.09,208C408.12,206.55,408.15,205.1,408.2,203.65Z"/><path class="cls-1" d="M417.4,209.16c3.34-.18-.88,3.24-2.44,1.9C413.05,210,416.72,209.61,417.4,209.16Z"/><path class="cls-1" d="M408.8,213.94c1.68.69,1.57,2.71,1.07,4.15A4.46,4.46,0,0,1,408.8,213.94Z"/><path class="cls-1" d="M410,221.18c.66-3.19,5.15-6,4.59-1,2.6-5.31,8.2-1.09,12.3-.21a18.46,18.46,0,0,0-3.41,6.58c-2.32.2-4.06.77-2.87,3.33-3.5-1.78-6.6.6-9.57,2.28A99.49,99.49,0,0,1,410,221.18Z"/><path class="cls-1" d="M184.54,221.5c1.11-.2,1.69.28,1.73,1.46l-1.27,1.3A2.24,2.24,0,0,1,184.54,221.5Z"/><path class="cls-1" d="M181,233.06c-1-4.08,4.87-11.94,2.27-3.81-.45,1.21-.91,2.41-1.34,3.63Z"/><path class="cls-1" d="M187.15,228.44c-2.08,0-1.78-1.91.1-2C188.77,226.8,189,228.54,187.15,228.44Z"/><path class="cls-1" d="M215.77,234.16c-1.11-1.71-2.32-3.59-.94-5.54l1,.38c0,1.35,0,2.7-.06,4.06Z"/><path class="cls-1" d="M419.25,232.14c8.8-1.83,4,1.68.8,1-.41,2.29,4.42-.51,4,2C422.77,237.58,415.46,233.91,419.25,232.14Z"/><path class="cls-1" d="M40,234.17c-2.56-1.33,3.19-2.45,2.81-.29Z"/><path class="cls-1" d="M190.69,237.4a29.48,29.48,0,0,0,5.1-4.76c1.62,2,3,3.86-.66,3.67-1.26,5,4.06,1.91,4.43-1.15.51,3.25,5.52-2.59,4.82,2.32-4.7,5.61,8.09.82,6.5,6.11-3.56-2.89-7.86,8.23-8.92,2.48.48-5-5.93-2.33-6.87,0,2.36,3.81.77,8.06,1.65,12.24-1.52-2-3.53-8.86-6.51-5.5-.2-3.56-4.73-3.18-7.26-4,1.21-1.87-.85-5.37-1.21-1.62l-1.31-1.23L179,244.42c-3.48-1.36-3.11,4.38-.25,1.47,0,.74.15,2.21.21,2.94-7.48.53,3.32,3.06,1.2,7.25-1.64-.64-.88-3.88-3.31-2.65-1.45-.06-3.24,1-2.66,2.68l.06.88c-2.16,2.83-.41,7.33,1,2.08,1.68-3.64,3.36-1.21,2.84,1.85,3.65-5.53,4,6.39.77,4.58-2.8-2.54-4.66,3.4-1,2,4.69.35,1.48,9.78,5.88,12.75,0-1.79-1.44-4.19.74-5.2,1.42,4,6.85,4.78,3.74,10.6,2.49.8,5.61,3.88,8,1.53.25,3.15-2.11,5.12-3.94,7.3-4,12,4.13-2.67,4.27,4,3.22,4.47-2.62,13.24,4.27,14.71,7.36,1.69-.15,18.4,1,3.54-7.25,6.89-2.79,16.76-6,25.33-3.81.94-1.05-3.15-3.51-4.44-.88-1.17-3.2-.66-3.23-2.47.24-1.11.67-2.31.16-3.42-.18-.44-.56-1.34-.74-1.79-.57-1.26-1.17-2.51-1.75-3.75,1.78-1.48,1.27-3.46-1.09-3.3l.53-.66c.79-1.1,2.66-1.94,2.11-3.54,1.22-7.24-2.18-6.17-1.59-1.57-.8-1.53-.34-4.38-2.74-4.19l-.77-.16c-.23-1.73-.46-3.57-2-4.67.65-2.33,3-6.52-4.18-3.17-4.89-2,7.88,1.11,4.26-3.26a31.46,31.46,0,0,0-.15-6.65,2.45,2.45,0,0,0-.12-4.14c3.32-7.29-7.16-6.07-11.33-5.27-2.79,1.93-6.8,2.75-9,3.36.31-1.47,1.36-5.31-1.18-5-.36,1.56.5,3.17.77,4.72-4.07-3-9.61-.25-14.09-2.64-1.26,2.95-10.12,3-6.37,5.6-5.84,2.08-16.13,6.58-19,.23-2.93.57-5.27,2.65-7.4,4.62a38.47,38.47,0,0,0,3.84,5.08c-3.71-1.65-1.72,2.42-1.59,4.52-10.84,4.87,2.24-10.41-8.25-4.74-4.87.58.24,2.54,2.41,2.89-.93,3.33-5.24,11.13,2.28,7.8-3.73-1.58-.09-3.63,2.06-4.32l.54.48c1.3,2.36,5.71,5.91,5.69.92,2.27-1.08,1.43,1,1.17,2.43-1.49,2.6,5.42-.47,2.49,2.36-2.41,2.66,3.57.45,2.42-2.13,2.5,2.62-1.91,5.54,1.7,7.83-2.49-1.7-7.24,4-4.2,5.55-4.84,1.25-3.24-6.18-7.43-3.94-1.17,4.08-6.08,4.2-9.48,5.65-1.71-1.12-5-6.29-4.38-1.61,1.54,4.87-4.37,1.71-2-1.49-4.48,5.36-5.82-4.75-10.48-1.79,2.42-3.52-.19-8.48-3.72-10.54-5,6-6.72-3.87-6.36-8.18,2.1-.29,4.43-.54,4.69-3.08a54.79,54.79,0,0,0-6.88-4c1.29-.54,3.52.19,4.18-1.28,2.13-2.89-3.6-2.5-4.27-5.08,3,.09,5.21,2.23,7.83,3.32-1.61-3.71,2.34-1.4,4.29-1-1.1,2.26-2.28,5-6.19,3.11,2.8,1.82,6.67.89,10,.87-1.72,4,1,2,3,.32-5.36-4.5,5.82-4.45,7.92-6,2.58-1.08,6.34,2.09,7.59-1.52-5.75.2-11.47.8-17.23.78,1-3.54,4.87-2.79,7.78-3.5,4.57-.18,7-4,11.13-5.28-1,3.83,2.87,2.76.21,7a11.63,11.63,0,0,0,9.06-7.63c7.34,1.45,14.12-1.85,21.42-1.48-1.16,3.63,3.62,1.05,5.59,1.42,1.08,4-10-.57-6.78,2.56,3.22.77,6.85,1.57,10-.05-.55-2.95,5.77-6.55-3.28-3.87l.08-.92c11.23.62-.52-2.1-3.25-3.69,4.5.59,1.86-3.17,1.31-5.65,3.77,1.79,5.64,7.25,10.88,5.29.69-2.83-1.9-3.09-3.9-3.84l.73-.23c5.24-3.86,3.58,1.85,5.8,5-2.11-.19-3.17.27-1.57,2.17-2.2.54-4.86.92-4.27,3.86a36.09,36.09,0,0,0,6.12-4c1-1.94,6.77-1.53,4-3.89-2.76-1.48-6.77-6.62-2.64-8.59-.43-5.7,6.59.88,3.63-5.67l-.1-.68c3.7,2,3.53-1.82,6.38-1.65-.82-3.81-5-1.55-7.55-1.6-.39-3-2.14-6.31-5.34-6.89-.44,1.7-.53,3.54-1.5,5.06-2.93-.15-3.35-4.15-6.17-4.83-2.53-2.08-4.21,1.93-6.78,1.88,2.15-2.56,2.65-8.82,6.64-8.92.43,6.23,5.87.45,9.66,3.46,2.76,0,9.36-3.52,9.48,0-3.56-.87-6.67,5.23-1.58,3.65,1-.32,3.39.35,3.41-1.09-2-4.2,4.44-4.51,4.07-8.26a29.18,29.18,0,0,1,3.31,1c-1.7,4.79,2,3.11,1.16-.82C184.13,236.48,187.8,236.32,190.69,237.4Z"/><path class="cls-1" d="M411.08,233.06a37.05,37.05,0,0,1,4.27,2.45l-2.16.64-2.28.86C411,235.69,411,234.37,411.08,233.06Z"/><path class="cls-1" d="M137.11,236.32c7.5,1.86-5.3,8.56-5.23,2.89C134.69,241,135.85,238.5,137.11,236.32Z"/><path class="cls-1" d="M1.1,237l.56.06L3,238.7l1.76.79c1.66,3.09-2.53.88-1.6,3.45-1-.8-2.08-1.58-3.15-2.32v-1.31C.27,238.73.82,237.59,1.1,237Z"/><path class="cls-1" d="M145.21,238.11c3-1,4.21,4.4,2.76,6.07C146.29,242.78,142.11,240.27,145.21,238.11Z"/><path class="cls-1" d="M21.13,243.94c-4.38,5.91-1.57-7.16,2.42-4.41,2.69,2.23,5-2.68,8.14.62,2.19,5.72.78,11.48.31,17.15l-2.31-.11c-3.92-.48-.79,5.18,1.23,6.31,1,6,2.67-1.88,3.24-4.1.43-1.41.79-2.84,1.23-4.24,3.56-1.24,2.06,3.94,3.85,5.79-1.73-1.18-5-5.31-2.24,2.41,6-.89,4.47,5.34,6.13,9.23-2.57-1-2.28,1.19-2.16,3.09-1.2.4-2.9.26-3.28,1.78,0,.48,0,1.43,0,1.91-.35,2.23.77,4.31,3.1,2.68-1.24,4-5.26,1.6-7.87.76,1.25,2.43,7.26,6.75-1.92,4.41-1.41,4.76,8.5,5.68-.25,6.11,3.32.79,2.71,3,3.66,5.8-.07-4,4-2.85,6.34-4.38,1.45-2.92-2.49-.74-4-.89.22-3.61,6.45-9.11,7.32-3-5.09-2.4-2.54,3.2-.16,5l-2,1.76c-.67,0-1.33.08-2,.14-1.65-1.52-2.89.43-2.2,2.09-.73,2.55-2.09,7.34,2,7.19,0-2.46.22-4.81,3.13-3.36-1.42-2.75.93-4.76,2.46-6.79l.62.61c-3.57,5.72,8.43-1.23,6.42,3.67-6.89-.28,4.62,6.2,2,.58,4.22.52,3.08,5.13,6.52,5.7-.15,3.24-1.66,6.23-2,9.46,2,2.26,4.61,4.9,7.88,4.38,1.63,6.9-6.31,6.9-8.23,11.8l-.58-.36c.47-4.92-1.14-.65-2.5,1.33-.29-3-4.1-2.67-4-6.1-3.37,3.87-.18,9.32,4.46,10.2A37.55,37.55,0,0,0,59.83,343c1.73-1.53,3.58-3.08,6-2.59,2.83-3.58-4.22-3.29-5.52-6.12a6.34,6.34,0,0,1,6.5-4.32c.68,2.09-1.65,6.42,1.43,6.62,3.82.65.06,4.74.27,7.16-2.26-.14-4.5-.48-6.77-.54,2.66,2.87,8.87,1.08,3.28,4.32-1.13.54-2.26,1.06-3.4,1.58-6.5.29-12,6.38-18.85,3l1-1.29a2.64,2.64,0,0,0,2.72.44c4.49-.27,9.87-6.57,3.26-8.52,1.08-2.44,7.65-2.73,3.1-4.62-2.39-2.38-2.78,2.6-4.22,3.9-2.32-.54.08,3.32-2.41,1.78.08-4.26.34-8.52-.71-12.69a3,3,0,0,0,2-2c1.75-5.14-8.63-10.18-9-2.49-2.59,6.15-5.53,13.46,0,18.84-6.51-1.48,1.91,4.86-2.83,6.07-3.2.32-8.84-.33-7,4.63-3.14-3-10.54-.83-10.86-3.37-.07-.46-.2-1.37-.26-1.82,3.17,2.65,6.46,1,6.3-3a11.69,11.69,0,0,1-6.61,2.3c4-1.13,1.22-4.24.35-6.76,3.18-3.37-4.21-2.77-2,1.25-8.06,2.23-2.05-6.4,2.64-5.87,2.77.93,5.68,2.29,4,5.59,4.3,3.46,9.83-2.48,5.72-6.28-5.4,5-.86-6.35-6.61-6.71-1,2.6-3.83,6.67-4.25,1.59,5.16.86,3.68-9.66-.56-5.58-4.72,2.42-1.38-4.95-1.36-7.4,1.46.7,4.18,4.77,3.82,1,1.26-3.63.57,4.36,2.35,1.14,3.67-8.84-5.85-13-6.7-20.85-1.78-2.44-5.73-2.23-6.55-5.55a28.54,28.54,0,0,1-.83,8.57l-.94-.24c4.2-8-4.37-12.72-4.32-20,1.39-2.22,4-7.45,6.52-3.48,5-4,7.6-9.54,6.29-15.91-.26-2.32,1-2.77,3-2.22.57-4.19,2.77-8.22,1.16-12.49C22.68,255.22,20.32,245.52,21.13,243.94Z"/><path class="cls-1" d="M125.22,239.11c1.87-1.45,8.56,2.53,3.93,1.63C126.47,239.2,121.74,243.93,125.22,239.11Z"/><path class="cls-1" d="M411.81,241c1.52-1.07,6.94-3.79,3.77-.37-2.14,2.33,2.19.18,3.36.23-.55,2.3-.06,6-5,3.37.7,1.66,3.4.52,4.92,1,.73,2,2.5,1.74,3.07-.2l1.19,3.15c-.06.64-.17,1.92-.23,2.56-3.3,2.28-.11,2.61,2.36,3.11l-.25.72a33.37,33.37,0,0,0-1.08,3.66l-.63-.31c.65-4.24-1.56-3.91-4.27-1.73l-1.52.93c-1.68-2.54-1.39-3.57,1.7-2.31.36-4.31-2.32-7.37-6.17-8.75C412.57,244.31,412.15,242.64,411.81,241Z"/><path class="cls-1" d="M170.4,240.34c2.26,1.68-3.8,2.92-4.06,1C167.58,240.65,169.07,240.77,170.4,240.34Z"/><path class="cls-1" d="M0,240.62c1.07.74,2.12,1.52,3.15,2.32.76,3.47-1,7-3.15,9.62Z"/><path class="cls-1" d="M16.21,242.35c2.31.43,1.66,5.92,1.79,8.66C11.58,251.08,16,245.33,16.21,242.35Z"/><path class="cls-1" d="M122,241.94c3.07,2.66,10.2,3.78,6.29,7.77C121.23,251.61,121.44,246.73,122,241.94Z"/><path class="cls-1" d="M218,246.94c-1.48-.43-2.67-2.5-.88-3.41A4.08,4.08,0,0,1,218,246.94Z"/><path class="cls-1" d="M434.07,244.09a33,33,0,0,0,3.95,1c-3.54,2.75-1.29,2.72,2.08,1.92-1.7,1.33-5.49,5.72-.87,4.42,10.42-3-.59,5.43-4.28,4.92,2.21,1,4.65,2,3.53,4.93,1.91-1.7,4.64-3.32,3.88-6.3,3.95-.66,3.63,5.26,7.33,5.29-.24-1.39-.54-2.78-.76-4.17,1.85.75,4.11,3.71,5.9,1.37,2.79,3.12,7.1,4.66,9,8.6-1.88-5.71,7.51,1.26,5.8-4.7-1.17-3.11,2.24-.41,3.31.44-.14-7.49,7.82,3.52,1.86,4.49-3.3,0-.35,3.89-1.84,5.75-2.79,3.58,3.15-.09,5,0-.84,2.07,1.16,7.7-2.23,6.93-1.09-6.26-9.26,1.16-9.75-5.78,2.45-1.47,8.48-8.05,2.27-6.67-2.09,2.21-13.1,5.14-6.6,1.13-3.57-.75-2.62-8.65-4.78-3.7-2.28,4.61-6.69-.07-9.11-1.12-1.31.14-4.46.93-2.86,2.73l.43.72V267a9.4,9.4,0,0,1-5.25,1.15c.41-1.6,2.36-5.58-.63-5.18-.18,1.66-.28,3.33-.35,5-1.11-.5-2.15-1.1-3.2-1.69l1.25-2.41c2.18-2.51-2.88-1.25-2.14-4,0-3.51-1.37-.77-2.12.8-1.57.13-3.14.22-4.71.28l-1.28-.83c-.18-.51-.53-1.52-.7-2,2.5-.13.68-2.85.39-4.19,1.57-.8,3.43-1.17,4.67-2.51,3.54,1.12,4.95-1,1.76-3.23l-1-.37C434.3,247.45,435.16,246.21,434.07,244.09Z"/><path class="cls-1" d="M54.2,246.07c1.93-2.45,2.43.93,2.72,2.6-5.28,1.23,4.45,7.17-1.14,9-3.14-.61-.59-6.33-1.89-8.92C54,248.11,54.13,246.75,54.2,246.07Z"/><path class="cls-1" d="M180.45,245.9l1.31,1.23c.14.44.41,1.31.55,1.74a2.08,2.08,0,0,1-2.78.06Z"/><path class="cls-1" d="M364.05,245.72l.56.61c1.63,1.85,1.49,4.38,1.45,6.68C364,252,364.67,248,364.05,245.72Z"/><path class="cls-1" d="M374.4,246.12c.24.83.46,1.67.66,2.51C373.51,254.7,371.58,248.54,374.4,246.12Z"/><path class="cls-1" d="M425.93,247.81c.64-2.57,4.6-1.95,1.73.3l-1.06.12Z"/><path class="cls-1" d="M218.18,247.63c.7,2.23,2,4.57.94,6.92C216.46,252.94,216.7,250,218.18,247.63Z"/><path class="cls-1" d="M200.24,249.19c3.75-.61,4.75,9.64-.17,8.81C196.11,257.33,197.21,250.77,200.24,249.19Z"/><path class="cls-1" d="M423.68,250.91c.12-2.89,2.53-.95,3.47.32A3,3,0,0,1,423.68,250.91Z"/><path class="cls-1" d="M0,260.43c1.81-3.08,2.55-8.38,6.83-8.65-4.95,6.21,1.18,11.65-.94,18,2.31-.65,4.58-1.4,6.87-2.1-1.85,2.66-8.47,10.11-9.36,3.45A2.35,2.35,0,0,0,4.33,267c-1.57-1.43-2.72,2.2-4.33,2.61Z"/><path class="cls-1" d="M191.11,255c3.55,3.5-3.41,15.14-7.07,9.88-1.69-4,4.61,1.33,3.55-2.14,1.06-1.69-.21-6.17,2.66-4.16C191.81,259.25,190.61,255.94,191.11,255Z"/><path class="cls-1" d="M211.34,256.36c1.23.72,1.42,4.7-.15,5.38C209.35,260.57,211.16,258,211.34,256.36Z"/><path class="cls-1" d="M141.31,257.34c4.75-2.14-1.22,4.15,1.63,7.41-4-.59-12-4.24-1.89-3.82C139.72,259.32,138.1,257.52,141.31,257.34Z"/><path class="cls-1" d="M269.26,258.1c5.55-2.91,6.14,3.21,10.75.85.76,6-8.56,3.19-10.42,8C266.17,265.43,267.93,260.67,269.26,258.1Z"/><path class="cls-1" d="M423.26,257.84l.63.31C423.89,262,419.05,259.27,423.26,257.84Z"/><path class="cls-1" d="M150.31,260.28a4.71,4.71,0,0,1,4.38,0C154.41,261.67,150.59,261.67,150.31,260.28Z"/><path class="cls-1" d="M148.16,262.43c1.29-.31,3.7.8,3.49,2.33C150.35,265.36,147.59,264.07,148.16,262.43Z"/><path class="cls-1" d="M152,261.9c4-1.51,6.42-.09,7,3.28C156.92,263.51,153.23,263.62,152,261.9Z"/><path class="cls-1" d="M196.15,262.11c3.52-.88,1.78,7.83-1.14,9C195.23,268.11,195.67,265.08,196.15,262.11Z"/><path class="cls-1" d="M433.78,264.16c-3.93.35-4.2-4.07-.15-1.79C433.66,262.82,433.74,263.72,433.78,264.16Z"/><path class="cls-1" d="M422.74,267.46c-3.44-1.57,1.87-2.35,3.13-3.62l.6.19c.49,2.74,3.55.65,5.36.82a16.62,16.62,0,0,0-2.2,3.95c-2.26,2.77,2.18,5,.66,1,2.38,3.14,14-2.1,10.25,4.62-1.52,3.84,5.69-2.47,6.5,1.31-3.32.47-10.64,4.09-10.93-1.15-1-2.11-5.85,2.11-3.06,3.36,1.71,1.89-4.52,6.71.06,6-2.43,2.09-7.31,12.32-5.77,6.13,1.91-4-2.67-.1-4.54.14l-.36,4.71c.42,6.95,6.33,13.38,1.37,19.6-3.36-2.2,1.77-7.41-1.49-9-3.89,1.09-3.2-4.09-2.48-6.42-5.84,2.34-1.07-6.46-2.67-9.79,4.29,1.92,1.89-2.13,1.23-4.57l.63,0c1,1.44,1.87,2.91,2.88,4.33-.08-2.62-1.36-5.78,1-7.77a28.2,28.2,0,0,0,4.11-5.49l-.89-1.15c-1.35-2-3.93-3.88-6.25-2.13l-1,2.33L418,275a30.82,30.82,0,0,1-.2-4.07l1.29-.87C420.31,269.2,421.56,268.38,422.74,267.46Z"/><path class="cls-1" d="M95.25,265.29c2-.1.62,5.21-2.4,4.68C93.34,268.29,93.79,266.4,95.25,265.29Z"/><path class="cls-1" d="M148.2,265.39c.67,1,2.55,1.9,4.94.63C152.08,269.51,144.51,269.26,148.2,265.39Z"/><path class="cls-1" d="M221.25,265a5.38,5.38,0,0,1,1.55,6C221.51,269.24,220.59,267.14,221.25,265Z"/><path class="cls-1" d="M575.38,267c-1.2-2.35,3.42-2.31,2.19,0Z"/><path class="cls-1" d="M448,266.08c4.37-.05,4.22,3.57,8.44,3,3.48.94-1.6,6.93,2.84,7.64,5.27,1.24-6.53,4-1.84,1-3.13-2-.68-8.36-4.47-3.74.15-2.52.37-4.94-2-2.2-3.49-2.43-10,.55-3.77-3.78Z"/><path class="cls-1" d="M482.37,269.15c3.74-1.39,4.72,8.25,2.27,2.85-1.41,1.81-1.5,5-4.66,4-1.46-2.68,4.57-4.34-.05-4.09C477.11,270.49,482.68,271.11,482.37,269.15Z"/><path class="cls-1" d="M578.17,269.13c.17,2.67,5.26,2.16.87,4.93C573.8,277,578.69,272.09,578.17,269.13Z"/><path class="cls-1" d="M87.33,272.35c3.84-1.18-.67,1.47-1.09,2.83C84.8,280.14,83.67,271.56,87.33,272.35Z"/><path class="cls-1" d="M110.36,272.27a4.68,4.68,0,0,1,4.28,0C115,274.67,110.74,273.51,110.36,272.27Z"/><path class="cls-1" d="M223.13,271.68c1.79,3.07,2.46,6.68,4.61,9.55l.37.64c.5,3.73,4.46,6.34,4.17,10.14C226.12,287,224,279.23,223.13,271.68Z"/><path class="cls-1" d="M133.14,273.36c1.79,4.59,6.5-3,8,2.29C138.27,275.4,130.13,277.35,133.14,273.36Z"/><path class="cls-1" d="M203.23,274.1c5.48-2.79,11.72,5,3.8,4.92-1.26,2.45-3.22,16-9,9.8-.64-5.09,8.31-8.1,4.34-12.22C201.82,275.62,202.09,274.78,203.23,274.1Z"/><path class="cls-1" d="M418.92,274.92a4.93,4.93,0,0,0,3-.76c.13.48.38,1.44.5,1.92-1.28.58-3.48,0-3.59,1.9l-.58.17c-.06-.8-.17-2.38-.23-3.18Z"/><path class="cls-1" d="M562.25,274.2c5-1.19-2.77,11.33-3.82,4.66C559,277.15,561.14,275.81,562.25,274.2Z"/><path class="cls-1" d="M74.05,275c8.57-4.61,5.19,6.53,1.23,1.16C74.34,279.31,73.46,277.22,74.05,275Z"/><path class="cls-1" d="M193.28,277.35c2.29-.17,2.6,4.56,1.06,5.29C194,280.93,193,279.07,193.28,277.35Z"/><path class="cls-1" d="M418.21,278.15l.58-.17.24,6.82-.63,0a15.85,15.85,0,0,1-.72-3.86c0-.49.14-1.47.19-2Z"/><path class="cls-1" d="M434.86,278.06c2,.41,7-1.63,6.13,1.92C438.76,280,435.78,280.75,434.86,278.06Z"/><path class="cls-1" d="M117.19,280.4c1.7-.88,4.25,2.42,2.21,3.23C118.72,282.58,116.64,281.89,117.19,280.4Z"/><path class="cls-1" d="M217.3,280.32c1.35.66,1.35,4.69,0,5.36A6.92,6.92,0,0,1,217.3,280.32Z"/><path class="cls-1" d="M71.52,281.3c8.4-3.21,2.74,2.32,1.18,4.42-1.63-1.53-3.77-1.35-5.81-1C66.54,281.57,70.78,283.64,71.52,281.3Z"/><path class="cls-1" d="M405.2,282h.62a6.22,6.22,0,0,1-.13,4l-.6-.21A6.63,6.63,0,0,1,405.2,282Z"/><path class="cls-1" d="M433.11,284c-1.27-3.25,7.91-2.42,5.16,1l-1.22,1-2-1.3Z"/><path class="cls-1" d="M48.34,287.3c1.86.5.31,3.51-1.39,2.91C43.52,290.14,47.1,287.88,48.34,287.3Z"/><path class="cls-1" d="M52,288c3.45-.1,10.53,1.93,5,5.17C60.64,287.43,51.24,293,52,288Z"/><path class="cls-1" d="M465.34,288.27c1.25-.79,5-1,4.55,1.23C468.54,289.48,465.94,289.52,465.34,288.27Z"/><path class="cls-1" d="M437.08,290.33c2.59-2.36,5.33,1.8,4,5.68,5.18-3.09,4,2.9.65,4.76-2.62,1.87,4,3.87-.63,3.06-3.73,1-2.45-3.56-6-3-.06-1.75,4.17.05,2.83-2.95a2.18,2.18,0,0,0-1.7-2.24c-1.27-.76-1.59-2.26-2.05-3.55A3.62,3.62,0,0,0,437.08,290.33Z"/><path class="cls-1" d="M161.15,290.9c2.91.8,3.49,5.17,0,5.13A18.37,18.37,0,0,0,161.15,290.9Z"/><path class="cls-1" d="M532.33,291.29c3.65-.64-2.29,5.08-4.34,5.73C523.25,295.78,528.7,288.85,532.33,291.29Z"/><path class="cls-1" d="M51.62,291.9c9,.74-1.78,5.14-5.66,5.59l-.62-.61-.63-.7C44.68,291.37,52.64,298,51.62,291.9Z"/><path class="cls-1" d="M430.19,292.33c-.27,1.82,6.36,3.14,2.73,6.35-4.32-1.48-4.26.13-.8,2.37-4.07,1.64-6.23-5.39-1.14-4.18C430.09,295.53,427.71,293.42,430.19,292.33Z"/><path class="cls-1" d="M66.25,293.13c.47.24,12.86-1.24,6.74,1.26.28,2.12,5.67,1.06,3,2.6-1.81.57.09,4.05-1.87,3.95.11-2.23-.44-4.11-1.42-1C70.28,296.75,61.17,299,66.25,293.13Z"/><path class="cls-1" d="M58.06,294.31c1.69.56,7,.23,3.64,2.41C60.12,299,55.89,296,58.06,294.31Z"/><path class="cls-1" d="M513.31,295.28a4.71,4.71,0,0,1,4.38,0C517.4,296.67,513.58,296.67,513.31,295.28Z"/><path class="cls-1" d="M411.91,296.22c1.54.22,3.54,7.61.08,6.73Z"/><path class="cls-1" d="M54.16,297.19c.9-.72,4.47-.68,3.27,1.08C56.31,298.93,51.46,299.39,54.16,297.19Z"/><path class="cls-1" d="M237.79,298c4.51-1.72,5.94,6,10.47,6.89l1,.89c.6,1.41,1.15,2.85,1.61,4.32C244.85,308.37,241.75,302.43,237.79,298Z"/><path class="cls-1" d="M517.88,297c2.66-2.11,13.83,2.11,2.1,1-.52,1.8,5.23.42,2,2C519.21,301.8,518.22,299.57,517.88,297Z"/><path class="cls-1" d="M143,298h11C153.83,299.27,143.24,300.62,143,298Z"/><path class="cls-1" d="M231.43,299.25c2.43-.63.22,4,.25,5.41C230.23,303.84,230.61,300.66,231.43,299.25Z"/><path class="cls-1" d="M213.12,300.07c1.12.83,2.72,11.87-1.9,11.84C207.78,306.74,214.88,305.67,213.12,300.07Z"/><path class="cls-1" d="M345.2,303c1.2-3.09,3.53,2.6,1.08,2.85A7.15,7.15,0,0,0,345.2,303Z"/><path class="cls-1" d="M207.15,306.08c3.88,1.26-1.72,2.82-.34,6C204.43,310.56,205.54,307.75,207.15,306.08Z"/><path class="cls-1" d="M140.43,307.31c2.73-1.13,2.21,3,2.44,4.63-.58,4.37-7.27,1.6-9-1,2.27-.31,3.89,1.42,5.82,2.24C140.26,310,136.74,309.54,140.43,307.31Z"/><path class="cls-1" d="M223.16,308.46c4.91,1.09.85,6.4-2.49,3.85C218.71,310.29,220.74,308.22,223.16,308.46Z"/><path class="cls-1" d="M505.32,309.3a6.92,6.92,0,0,1,5.36,0C510,310.65,506,310.65,505.32,309.3Z"/><path class="cls-1" d="M154.35,311.33c1.89.9-1,3.48-2.47,2.84C148.09,313.55,153.45,312.44,154.35,311.33Z"/><path class="cls-1" d="M251.16,310.83c1.25.64,2.5,1.3,3.74,2l1.29,1.05c.06.57.16,1.71.22,2.28C253.91,316.26,252.12,312.9,251.16,310.83Z"/><path class="cls-1" d="M443.87,313.1c3.18-.12,9.57,5,3.27,2.8C449.54,320.57,442.82,315.74,443.87,313.1Z"/><path class="cls-1" d="M529.13,314.7c-5.44,2.25-3.48-4.86,0-.58Z"/><path class="cls-1" d="M424.84,316.2a30.93,30.93,0,0,1,4.09-2.48c-2.19,2.19-2.16,6.16-5,7.53A41,41,0,0,1,424.84,316.2Z"/><path class="cls-1" d="M138.23,316.7c-7.25-.09-.47-4.2.67-.08Z"/><path class="cls-1" d="M148,316.62c0-3.71,8.35-.65,1.92-.08Z"/><path class="cls-1" d="M133.86,322.06c0-2.71,1-6,4.37-5.36l.67-.08c1.12,2.2-3.41.4-2.5,2.16C138.18,321.83,134.79,319.48,133.86,322.06Z"/><path class="cls-1" d="M431,317.06c2.86.11,6.37-.33,5,3.72C433.72,320.11,429.84,320.63,431,317.06Z"/><path class="cls-1" d="M501.4,323.59c1.84-2.72,7.17-10.95,7.9-3.63l-.14.54c-3-1.33-2.55,2.53.1,2.41l.7.19c1.05,3.5-2.45.16-4.07,0-4.66-1.95,2.68,6.5-1.53,4.61C504,322.57,497.26,334.88,501.4,323.59Z"/><path class="cls-1" d="M142.36,318.11c3.28-.32-.68,3.39-2.2,2.46C139.51,319.19,141.43,318.54,142.36,318.11Z"/><path class="cls-1" d="M443.21,318.44l1.62-.54,1.08,1.33-.4.66-.68.58a6,6,0,0,1-4.4-.5C441.35,319.45,442.27,318.93,443.21,318.44Z"/><path class="cls-1" d="M471.3,317.91c3.64,0,1.35,5.62-1.34,6.21C469.33,321.71,472.2,320.26,471.3,317.91Z"/><path class="cls-1" d="M482.2,318.13c6.25-2.07,2.12,4.79-.16,7C484.61,321.58,480.21,320.09,482.2,318.13Z"/><path class="cls-1" d="M490.31,318.13c3.61-1.14.79,5.8-1.15,5.68C486.19,321.87,490.59,320.53,490.31,318.13Z"/><path class="cls-1" d="M518.17,322.92c1.94-.3,7.26-9.05,9.63-1.82,1.22-6.33.93-.47,4.46.7,1.12,2.89.65,5.39,1.55,9.21-5.15.12-12-4.6-15.93.72a11.2,11.2,0,0,0,10-.89c-.2,5.37-6.13,5.48-8.15,9.93-3,1.62.52-2.66-2.76-2.09,1.56-1.46,3.76-2.16,1.91-4.62-1.39,1.05-1.89,3-3.46,3.85-1.33-3.27-5.23-4.3-8.43-4.71-.5,2.17,0,3.2,2.13,1.94.61,2.67-2.35,1.73-4,1.92,1.4-2.11-.22-2.27-2.13-2.24-.29-3.93,8-1.68,7.35-6.15-1.26-2.29,1.34-1.73,2.81-1.82l.77.24A3,3,0,0,0,518.17,322.92Z"/><path class="cls-1" d="M68.94,323c-1.13,3.61-1.83-5-.09-3.85l1.82.77C74.42,321.47,67.71,320.07,68.94,323Z"/><path class="cls-1" d="M333.4,322.1c-4.77-1.5,1.8-4.83.64-.23Z"/><path class="cls-1" d="M448.09,320.5c2.79.41,5.6,3.14,7,5.67-2.6-.52-4.48-2.48-6.46-4.07Z"/><path class="cls-1" d="M491,327.12c-1.58-1.12,3.21-7.06,6.08-7.2a50.89,50.89,0,0,1-5,6.08Z"/><path class="cls-1" d="M511.24,321.92c4.31-1,5.58,2.29,2.71,5.17l-.77-.24a16,16,0,0,1-2.33-4.15Z"/><path class="cls-1" d="M84.18,323.36c1-.65.83,2.32,2.68,1C91.08,329,78.7,326.92,84.18,323.36Z"/><path class="cls-1" d="M134.07,325.92c-3.46-4.31,5.47-4,2,.12Z"/><path class="cls-1" d="M428.1,323.08c1.28.39,2.56.81,3.85,1.23C430.46,326.44,427.6,326.07,428.1,323.08Z"/><path class="cls-1" d="M600,329.58c-4,5.21-8-4.75-.69-5.43-1.23,1-1.6,3.57.69,2.71Z"/><path class="cls-1" d="M438.85,326.16c1.34,1.14,2.32-.35,3.33-1.12l.5-.41c-1.54,3.88,5.71,1.05,6.58,4.95-4.35.09-8.69-.11-13-.39-3.32,2.61,4.41,6.26,3.45,9.54-1.89,4.94-7.62-4.43-6.6,2.35-3.24-.2-1.75,5.88-4.88,5.65-3.36-2.94-5.71-12.85-.6-14-1.07,4.18,4.61,4.27,4.51.4-1.26-.06-3.81,1.41-3.05-1,.61-1.54,1.09-3.14,1.8-4.63,2.44,3.08,4.1,1.68,5.25-1.47Z"/><path class="cls-1" d="M481.79,328.8c1.79-8,9.42,5.25,12.2-.81,1-2.35-4.05,1.73-3-.87l1.11-1.12c3.86-1.06,3.86,2.5,2.79,5.08,1.7-2.68,5.33-1.23,8-2.2-.95,2.81-3.26,9-3.34,2.8-3.72-4.7-.6,8.91-3.77,3.66-2.71,1.3-6.3-1.42-7,2.67-5.78,3.26,0-4.37,2.85-4.7.84,2.47,6.32.7,3-1C489.71,332.07,486.75,326.14,481.79,328.8Z"/><path class="cls-1" d="M589.06,329c4.2-1.1,3.9,6.72,1.76,2.33C588.62,332.56,588.73,330.79,589.06,329Z"/><path class="cls-1" d="M448.46,332.39c3.47-1.31-1.18,3.79-2.54,4.7C445.59,335,446.94,333.55,448.46,332.39Z"/><path class="cls-1" d="M542.31,333.19c4.89-1.26,4.08,4.42-.42,3.63C537,338.28,540.73,335.06,542.31,333.19Z"/><path class="cls-1" d="M77.33,335.38c4.13,2.23-8.38,6.13-6.3.75A9.24,9.24,0,0,0,77.33,335.38Z"/><path class="cls-1" d="M99.41,336.39c1.38-1-.55,4.91-2.28,4.46C94.88,339.09,98.46,337.8,99.41,336.39Z"/><path class="cls-1" d="M101.11,336.5a10.47,10.47,0,0,1,4.55.83C105.24,338.83,100.51,338.66,101.11,336.5Z"/><path class="cls-1" d="M269.25,336.73l1.48,5.5c.43,2.26.95,4.52,1.34,6.8-.28,1.41-.48,3.24,1,4.11.07.36.19,1.07.26,1.43a35.42,35.42,0,0,1-17.89,13.65c-2.13-2-2.05,2.68-3.2,3.89l-1.11,1.05c1.66-7.52-1.82-1.92-2.87,2-1.23.71-2.62,1.26-3.46,2.46-3.63,1.93-8.24,3.17-9.9,7.31l-1.08.9c-6.43,1.29-6.46,5.38-7.09,10.5-.31,2.91-3.54,5.91-6.08,3.23-3.34-.82-3.07,3.4-1.46,5.23,2.32,3.51-5,12.49-6,4.85,2,6-.25,6.07-3.83,5.61-4.59,5.8-9.63,11.18-11.54,18.57-9,7.19-.36,17.43-2.55,26.63-2.94,1.85-2.39,5.49-1.8,8.52-.17.46-.51,1.36-.69,1.82C186.1,472,188.63,480.9,189,484c-4.48.13-2.65,3.49,0,5.1,2.07-4.21,7.87-2.77,8.6-8,.74-3.8,4.36-9.26,7.71-4.54-1.66,3,2.73,8.54-2.41,4.45-1.6,7.25,6.59,2,9.25-.42.5-4.33,10.79,2.36,4.58,2.37a8,8,0,0,0-3,1c-3.68,1.38-4,7.89-8.38,7.38.78,4.91-7.24,5.59-6.06,11.11-2.77,4.21-6.35,8.12-7.53,13.18-2.56-2.91-4.78-1.31-3.9,2.37l-1.08-1.43c-.71-2.87-.88-5.81.63-8.46-.34-7.07-8.81.55-7.14,5.06,1.54,7-5,10.64-6.65,15.89-1-2.15-.72-5.87-4.15-5.22-.3,2.36.51,5.71-1.52,7.29-.6-5.5,1.56-11.11.25-16.48-1.64-3.3.76-7,3.18-9.16-.81-4.33-3.19-8.8-1.07-13.17,1.36-8.91,4-19.11,11.76-24.43-1.13,2.29-2.63,4.66-1,7.13a28.17,28.17,0,0,0,4.39-4.41c-1-2.64-2.72-5.6,1.5-3.74-3.39-5.31,2.26-10.36,2-15.91q-1.81-7.22,1.76-3.91c2.7,7,2.19.74.59-3.22,2.81-11.34,5.23-24,14.56-32,5.15-7.93,11.29-15.3,17.27-22.67,0-7.24,12.2-10.07,13.51-18.44,5.58-.24,12.87-3.39,12.56-9.85.76,4.19,6.87,5.4,7.52-.08,1.4-3.85,6-5.26,6.47-9.58.79,1.58,2.23,1.35,3.55.52C269.34,346.34,263.88,341,269.25,336.73Z"/><path class="cls-1" d="M463,337c1.9.15,5.5.29,5,3C465.42,340.14,461.67,340.82,463,337Z"/><path class="cls-1" d="M488.85,338a42.45,42.45,0,0,0,6.23-1C494.1,341.39,489,341,488.85,338Z"/><path class="cls-1" d="M474.44,338.36c2.16-.76,2.72,3,3.76,4.35C474.68,343.36,469.72,341.58,474.44,338.36Z"/><path class="cls-1" d="M74.3,340.19c13.47-.25-5.24.82,2.37,4.16,5.38.32-2.11,6.54-3.21,2C64.13,347.9,72.49,342.42,74.3,340.19Z"/><path class="cls-1" d="M209.69,344.19c.06-4.13,3.8-5.52,6-1.83C215.69,345.83,212,345.33,209.69,344.19Z"/><path class="cls-1" d="M432.78,345.37c1-1.21,2-2.42,3-3.54-.42,3.71-2.17,9.83,3.21,9.1C439.15,357.86,429.51,349.83,432.78,345.37Z"/><path class="cls-1" d="M88.16,346.87c-1.61-2.36,3.16-1.91,2.59.05Z"/><path class="cls-1" d="M218.28,348.31c1.39.28,1.39,4.1,0,4.38A4.77,4.77,0,0,1,218.28,348.31Z"/><path class="cls-1" d="M260.24,348.37c1.18.49,1.8,3,1.49,4.3C259.75,352.89,259.35,349.67,260.24,348.37Z"/><path class="cls-1" d="M200.19,349.88c5-.35.26,15.55.38,3.68C197.38,351.86,202,352.39,200.19,349.88Z"/><path class="cls-1" d="M446.78,353.58c.44-1.18.42-3.5,2.06-3.53,2.36,8.6,16-1,19.56,5.28,3.86-.42,12.43,3.54,6.8,6.7l-1,1C468.11,352.35,454.57,361.06,446.78,353.58Z"/><path class="cls-1" d="M11.73,359.78c-3.73-2.57.47-6.92,3.28-8.25l2.33,1.57c.31,3.38-4.74,2.13-4.45,5.7,8.47-1.1-1.78,6.47-.49,10.85.77,3-4,8.13,1.52,7.49.79,5.92,12.16,2.63,13.31,10.62-3.19.73-8.08,4.39-8.07-1.11-5.72-.57-11.95.57-17-2.76Q2,388,1.71,392.06l-.84.06-.87.05v-3C1.8,387,2.85,383.32,0,382v-16.6C3.85,363.41,7.5,360.88,11.73,359.78Z"/><path class="cls-1" d="M256.31,352.33c1.49,1.16.92,4.53.38,6.34C255.19,357.51,255.77,354.13,256.31,352.33Z"/><path class="cls-1" d="M178,362.36c6.07,2.45,2.15-8.28,7-9.44,3.81,1.33,3.74,6.28,6.52,8.89,2.16-.94,3-3.28,4.34-5.06-.09,2-.38,4-.6,6a37,37,0,0,0-.21,4.47c0,.41,0,1.23,0,1.65,0,1.27,0,2.54.07,3.82-2.81-1.31-3.47,1.09-4.26,3.3-5.74-3.16-9.2-9.36-14.69-13a41.62,41.62,0,0,0-3.46,5l-1.76.16-.58,0c-.56-1.47-1.14-2.94-1.68-4.41l1.56-2.35c3.14,3.17,2.59,8.81,2.85-1.3l2,.66A16.8,16.8,0,0,0,178,362.36Z"/><path class="cls-1" d="M114.2,354.62c1.28,1.43,5.94-2,6.68,1.49-1.12,11.37,2.11-.23,6.26.7l1,.06a19.69,19.69,0,0,0,1.77,6c1.36,1.92,1.27,5.9,4.3,5.71-3.34,8.87-3.24,21.23,1.9,29.28.41-3.24,6.46-7,7.49-11.67l.48-1.32c1.69.75,6.89.86,5,3.37-1.86,1.15-3.14,6.3.24,3.47,2.85,3.26,3.05,7.85,4.1,11.84,2.32.1,3.87.74,2.93,3.28,5.35,3.62,5.07-5,6.42-8.24-.16,2.78-.43,5.72-.6,8.55,6.16-8.57,3.47-19.37,2.68-29-4.26.5-9-.39-11.91-3.81l.83-.44c1.82,2.74,6.1,1.19,2-.81a44.35,44.35,0,0,0,2.28-4.31c-1.89.8-4.25,1.67-4.89,3.85-1.76-1-2.83.43-1.1,1.67.64,3.43-4.75,5.16-3.43,1.14,2.28-2.57-1.35-3.9-3-5.48.4-3.54,4.44.23,6.43-1.53.4-2.23.93-3,3.73-2.05,2.68,3.25,6.55.11,4.08-3.35-.14-.55-.43-1.63-.57-2.17l.64,0c2.17,1.83,5.44,1.82,7.14,4.22,0,2,1.36,3.54,2.62,5-.1,1.75.61,5.35,1.82,1.89l.75,0c1.1,3.87,3.09,7.38,7.79,6.54a42,42,0,0,1-2.72,8.74c-.5-1.06.09-6.16-1.41-3.28-3.64,3.22-.77,7.64.77,11.15-.57-9,5,9,3.6-5.44a26.88,26.88,0,0,1,2.51,11.69c-5.08,1.12-2.34,7.88-4.94,11.45l-2,1.12c-2.13-1.85-4.94.59-2.61,2.63l-1,1.07a31.07,31.07,0,0,0-7.91,1.72c-.71,1.89-.4,4.59-2.88,5.13-7.64,5.63-12.87,14-19.33,20.74-1.5-7.24,7.08-10.73,9.08-17-4.79,1.62,1.31-3.88.73-6.61,1-4.69-2.66-10-7.66-9.82,2.68-6.85-9-.34-2.26-.49-.43,5.77-4.35,9.86-9.15,12.7.4-3.75,3.65-5.86,5.36-8.89-3.07.29-8.36,5.46-8.77-.38-3.87.84-4.41,6.31-8.54,7.27-1.45-8,8.55-7.82,9.17-15-3.62.1-7.22.69-10.83.54.6-3.54-1.41-10.14,3.68-10.73,0,2.46-1,5.15.71,7.3,1.24-3.89,1.74-9.13-2.34-11.53,2-4.09,3.4-8.53,6.6-11.89-1.36-6.22-5-12.7-1-18.78a21.63,21.63,0,0,1-8.8,1.24C115.55,370.62,120.89,380,115,386c-1.95,2-2.37-.51-2.92-2.17,0-.46-.13-1.38-.18-1.83.94-3.87-2.25-8.17-.91-11.81,3.11,4.25,6.31-2.76,2.38-3.42,1.59,4.75-5.81-.22-7.49,3-1.45,3.79-3.87,7.39-3.85,11.58,4.39-.14,4.27,4.94.66,6.32-2.73,4.35-8-.77-11.63,2.07,1.19-4.42-4.17-10.91,2-5.82-2.54-6.31,3.7-11,9.18-11.24-8.57-1.94,6.82-8.27.89-14.14-.24-2.88,5.8-2,3.42,1.1-2.77,3.4,4.22,5.79,4.53,2.52q2.26.06,2.1-2.25C114,357.67,111.37,356,114.2,354.62Z"/><path class="cls-1" d="M172.05,356.11l.83-2.31,2.79-.09c2.81,3.15-.76,1.68-2.91,2.23Z"/><path class="cls-1" d="M254.28,354.31c1.39.28,1.39,4.1,0,4.38A4.71,4.71,0,0,1,254.28,354.31Z"/><path class="cls-1" d="M396,357.81c-2.08.14-1.36-3.31.32-3.56A22.43,22.43,0,0,1,396,357.81Z"/><path class="cls-1" d="M88.83,357.47c2.78-4.42,8.77-2.6,8.33,2.53.56,6.62-3.28-3.18-5.31.1C91.42,358.5,90.78,357,88.83,357.47Z"/><path class="cls-1" d="M99.79,360c.38-1.24,1.85-2.31,2.83-.91A1.62,1.62,0,0,1,99.79,360Z"/><path class="cls-1" d="M176,359.22a5.11,5.11,0,0,1,4.09.24l-.22.59a12.58,12.58,0,0,1-3.92-.22Z"/><path class="cls-1" d="M485.41,365.33c2.42-1.18,1.77-4.37,2.45-6.63l.78,0c-1.81,3.9,2.5,2.16,3.93.3l.7.33c-2.24,2.94-7.62,11.57-.92,10.39,2.9,1-.27-3,2.27-3.1,3.51-2-1.74,5.73,2.28,5.26,3.15-2.08,4.09-7.28,4.3-10.84,1.87,1.25,5.42,3,4.37,5.63-1.65,2.8,2.57,1.22,2.4,4.28-4.84,1-8.79,3.86-13.7,4.35l-1.93-.57c-5-4.11-9.91,2.85-14.69.19C482.05,373.51,483.57,369.14,485.41,365.33Z"/><path class="cls-1" d="M497,359.2c1.13-.77,5-.8,3.06,1.25A7.78,7.78,0,0,1,497,359.2Z"/><path class="cls-1" d="M151.72,361.11a2.33,2.33,0,0,1,3.43.26C154.06,362.47,151.76,363.64,151.72,361.11Z"/><path class="cls-1" d="M454.44,362.2c3.06,1,11.52-3.26,10.69,2.53,3.24-1.82,4.31,6.25.8,6.28-2.68.68-4.38-3-7.07-1.23-3.12,1.84-2.86-3.56-5.56-2.63-.95,1.47-.92,4.18-3.24,4a8.07,8.07,0,0,0,.81-7.91C452.37,363.62,454.2,364.5,454.44,362.2Z"/><path class="cls-1" d="M133.73,363.09l.74.13c5.11-.87,7.15,3.37,10.5,6.25-1.31.71-3.26,2.17-2.23,3.84,1.74,3.67.06,7.78,1.29,11.59l-.48,1.32c-3.31-4.65-8.55-10.22-5.25-16.86C139.88,365.47,134.24,366.19,133.73,363.09Z"/><path class="cls-1" d="M208.46,363.45c1.16-.93,1,4.6-1.3,4.53C205.81,366.05,206.55,364.52,208.46,363.45Z"/><path class="cls-1" d="M95.31,364.28a4.71,4.71,0,0,1,4.38,0C99.41,365.67,95.59,365.67,95.31,364.28Z"/><path class="cls-1" d="M461.84,376.73c6.47-1.46,7.88-7.84,11.68-12.06,1.61,1.67,3.31,3.33,5.65,3.88a12.61,12.61,0,0,0-2.39,6c-2.72.57-7.3,2.09-4.89,5.49-1.08.2-2.14.41-3.2.63l-1.82-.48a8.28,8.28,0,0,0-3.8-.17c-1.81,0-3.62-.07-5.42-.09C458.11,377.85,459.91,377.08,461.84,376.73Z"/><path class="cls-1" d="M428.92,370.56c-1.3-4,2.69-3.69.85,0Z"/><path class="cls-1" d="M197.5,371c.39-.39,1.16-1.19,1.54-1.58l.12,2.82-1.23.41C197.83,372.28,197.61,371.45,197.5,371Z"/><path class="cls-1" d="M219.05,369.34c2.93.2-.2,6-.35,1.49C218.79,370.45,219,369.71,219.05,369.34Z"/><path class="cls-1" d="M200.39,369.59c1.85-.26,2.86,3.18.68,3.15A20.35,20.35,0,0,1,200.39,369.59Z"/><path class="cls-1" d="M203.44,372.24c2.7-.59-.08,3.44-.8,4.4C201,375.93,202.45,373.17,203.44,372.24Z"/><path class="cls-1" d="M441.91,377.49c.75-1.39,1-4.55,3-2.58.79,3.55,5.52,1.46,8,.5,2.16,1.7,4.62,4.28,0,3.79-.23.48-.69,1.46-.93,1.94-1.66.56-4.28.55-3.47,3-2-1.37-4-2.83-6.07-4C442.31,379.44,442,378.14,441.91,377.49Z"/><path class="cls-1" d="M51.38,374.92c3-.13,5.73,3.18,5.67,6.05C50.7,383.8,50.92,378.45,51.38,374.92Z"/><path class="cls-1" d="M47.18,380.83c-2.33-2,.08-6.19.47-2,5.75,5.13,7.64,13.05,6.49,20.51-.07,1.75-.23,5.25-.3,7-1.52-1.17.15-5-2.61-4.22,1.07,5-3.82,2.78-6.88,3.57,0-4.5-4.26-6.35-6.24-9.78C40.6,399.77,33,405,31,401c1.23-1.64,2.89-3.93,4.24-1,1.4-4.51-5.76-1.44-3.78-5.66,1.33-3-3.32-2.75-3.45-5.44,6,2.69,12.52-.4,18.86.56,4.77-1.14-.76-3.06-3-1.66C43.62,384.7,49,383.74,47.18,380.83Z"/><path class="cls-1" d="M66,378.19l.79-1.29,1.54,0c.13.52.41,1.55.55,2.07a11.13,11.13,0,0,0-2,2.44l-.46-.37C66.34,380.11,66.2,379.14,66,378.19Z"/><path class="cls-1" d="M122.14,380.08c3.78,1.3-1.43,2.09.83,5C119.06,385.35,120.37,381.93,122.14,380.08Z"/><path class="cls-1" d="M61.8,385.19c0-5.14,1-4.24,2.07,0A4.61,4.61,0,0,1,62,387C58.55,385,60.13,379.35,61.8,385.19Z"/><path class="cls-1" d="M454,382.31l3.07-.61c2.92-.17,2.85,3.57,5.66,3.57l2.51.52c5-2.75,5.41,7.54,7.21,3.3,1.45,1.61,1.27,4.13,2.23,6.07-.3-3.44,1.88-3.24,4.35-2.15l1.92,1.17.29.53-1.3,2.32c3,5.68-5.52,5.6-3.36,11.24,2.8.08,6.6.19,4.87,4,2.46-2.95,5.37.61,7.67-2,1.62,5.07.23,9.8-4.34,11.45l-.54.33c-.69-2.77-2.71-2.64-1.6.34-5.39-5.48-10.9-11.56-16.24-16.55-.31-6.37-6.8-9.39-10.48-13.76-1.73-2-5.68,1-5.67-2.82A7.17,7.17,0,0,0,454,382.31Z"/><path class="cls-1" d="M197.37,390.79c1.73,1.44.77,5.6-1.57,3A9,9,0,0,1,197.37,390.79Z"/><path class="cls-1" d="M435.17,397.16c1.51,0,.6,5.21,2.2.86,2.38,1,2.65,5.88-.7,4.7C433,403.39,434.92,399.12,435.17,397.16Z"/><path class="cls-1" d="M0,398.75l.92.05.89.06c3.8,13.19-.35,27.27,1.81,40.47l5.06,1.05c4,8.84-2.31,19.49,3.51,27.37,4.64-.08,3,5.69,3.29,8.85,2.43,1.51,7.28,3.3,5.09,6.93-3.43,2.4-1.51,5.82.58,8.39-3.73-1.16-8.71-6.35-10.68-.58-1.7-5.52,5.8-12.31-1.23-15.46-2.75,4.79.26,11.78-4,15.06,3.65,2.61-3,2.91-4.48,4.81l-.73.46Z"/><path class="cls-1" d="M600,404a2.08,2.08,0,0,1,0-3.93Z"/><path class="cls-1" d="M115.26,402.32c2.66.23,5.23,9.84.91,8.59C115.29,408.25,110.4,403.37,115.26,402.32Z"/><path class="cls-1" d="M367.93,401.91c3.93,1.87,7.41,4.67,4,8.87,6.43-.34.38,5.68.21,8.81,6.23,2.27-8.17,2.77-2.37-3.24C361.19,414.3,373.77,405.48,367.93,401.91Z"/><path class="cls-1" d="M431.58,406.65c2.41-2.67,8.48-4.4,7.91.93,1.52,2.44-4.64.74-1.3,2.77-5.63.94-9.31,5.86-12.81,10,1.18-5.33-5.34.74-7.34,1a4.76,4.76,0,0,0-3.08,1c-1-.08-2.08-.19-3.11-.29C419.49,418.41,425.85,412.83,431.58,406.65Z"/><path class="cls-1" d="M20.28,407.35c1.74-.43.94,4.24-1.35,1.78,1.2,2.55,1.92,7.38-1.69,8.05.71-2.59,1.09-10.45-.27-5.19.24,4.24-5.67,2.67-5-1a3.28,3.28,0,0,1,3.89,2.13C15.25,409.78,17.39,408.18,20.28,407.35Z"/><path class="cls-1" d="M36.05,407c3.47-.88,1.53,4,1.9,6C34.48,413.87,36.42,409,36.05,407Z"/><path class="cls-1" d="M52.21,407.15c3.41-1.41,2.13,6.13-1.2,4.9C51.08,410.37,50.43,408.16,52.21,407.15Z"/><path class="cls-1" d="M439.05,410.25c5.63-1.8,13.28-2.28,17,2.76,1.23,5.46-5.78,5.84-6.36,10.13-3.64.33-7.35.3-10.78,1.81-1.17.32-2.33.64-3.5.9-3.18.24-7.49-1-9.29,1l-1.31.8c-.18-3.39-5.87-.74-8.12,0l-3.5.73c-4.17.25-.07-3.57,1.39-4.76-1.7,3.63,3.24,2.92,2.66-.26L418,423c4.25.05,8.34-1.62,12.86,0,1.89-3.78,4.22-2.95,7-3-3.84-2.64,3.92-3.36,4.36-6.38C439.75,413.46,437.07,413.21,439.05,410.25Z"/><path class="cls-1" d="M197.28,409.31c1.39.28,1.39,4.09,0,4.38A4.77,4.77,0,0,1,197.28,409.31Z"/><path class="cls-1" d="M58.27,410.33c2-.4,2.72,3.84,1.08,4.32C58.83,413.32,57.78,411.76,58.27,410.33Z"/><path class="cls-1" d="M599.25,410l.75.21v2.73l-1.61.27A7.06,7.06,0,0,1,599.25,410Z"/><path class="cls-1" d="M50.21,413.1c7.28-.71,3.77,11.33,8.86,15,.07-2.62-2.5-8.27,2-8.14,4.77-1.51-2.23,7.72,2.88,5.29,3,7.64-6.13,7.73-10,12.65-4.94-1.41-10.32.67-14.6-3,2.24-4.33-4.38-6.92-6.41-2.1-6.93,7.22,1.38-4.69-3.53-2.64-1,3.88-4.39.15-2.47-2.24-1.86-3.59-5.21,4.52-8.81,3-1.23-2.86,4.8-.68.06-3.25,2.19-2.55,4.41-4.77,7.55-3.9.12-4.77,6.47-3.93,6.63-8.68,4.89-1.54,0,8.67,1.23,10.49,0,4.32,7,3.39,10.33,3.27C48.87,425.52,47.42,417.89,50.21,413.1Z"/><path class="cls-1" d="M492.37,419.27l.69-.45,1.93.48c-6.45,3.5,2.54,8,4.45,3,3.14.86,3.22,3.78,3.77,6.44,6.92,3.18,14.86.82,20,4.65-.11,3.32,2.79.4,4.25-.41.24,4.13,6.19,4.39,9.4,5.2,2.43,1.61,6.85-3,6.38,1.44-.48,3.57,3.76,2.57,6.28,3.31-1.57.18-3.14.24-4.7.36,2.29,1.22,4.62,2.4,7,3.43.94.38,1.92.71,2.91,1a47.93,47.93,0,0,1,4.51,2c1.6,4,7,4.43,10.69,6.42q3.42,1.89,6.78,3.95c.3,1.26,0,3.21,1.94,3,3.11.11,5.69,1.91,8,3.8.76,1.14,1.53,2.29,2.23,3.48a33.29,33.29,0,0,0-2.77,2.67c-3-4.27-8.39-4.93-10.4-9.84a25.47,25.47,0,0,0-4.93-1.64c4.39-1.1.26-4.18-.61-.19-5.64-3.78-12.33-7-19-5.34.55,1.16.14,3.87,2,3.46,4.59-.84,6.81,4,9.93,6.38,2.14,1.74-.25,4.74-2.29,5.11-2.94.72-3.84-3.14-6-4.44-6.76,2.17-15.13-3.86-22-5.61,0,2.16,1.53,3.87,2,5.92-2.65,2.19-6.93-1.78-8.66-.08l-.52,2.31c-3.46-3.57-2.6-12.51-8.71-12.36-1.95-3.38-2.88-10.47-8.58-11.83l-.43-.74c1.13-3.82-1.34-7.47-4-3.09,0-.45-.1-1.37-.13-1.83,3.08-3.83-2.41-7.42-5.58-5.05l-1-1.21c.25-.27.73-.8,1-1.06,2.81-2.62-1.33-5.48-.45-.62-3.19-2.39-6.77-4.44-9-7.81A46.4,46.4,0,0,0,492.37,419.27Z"/><path class="cls-1" d="M429.45,420.21c3.26-.13-1.08,3.09-2.58,2C423.05,421.38,428.24,420.68,429.45,420.21Z"/><path class="cls-1" d="M512.15,424.11c2,7.76-11.46,1.6-4.06-2.65.38,1.07,0,3,1.77,2.52Z"/><path class="cls-1" d="M404.27,426.07a2.58,2.58,0,0,1,2.65-2.12C410.79,425.86,406.46,426.75,404.27,426.07Z"/><path class="cls-1" d="M513.21,424.09l.79,0C517.14,427.74,510.91,429,513.21,424.09Z"/><path class="cls-1" d="M127.32,425.42c4.29-1.05,8.19,1.21,10.81,4.5-3.76-2.66-7.71,5.47-10-.12C125.46,427.38,122.51,427.78,127.32,425.42Z"/><path class="cls-1" d="M74.08,432.65c-1.34-2.28.83-9.12,2.94-4.51v2.05c-.45,2.89.35,3.07,2,.89,1.33,1.33,3.48,2.39,5.08.83L86.92,433c-1.54,2,.26,2.18,2.11,2.23-3.74,1.28-3.71,8.21-4.16.77.77,7.43-6.23,8.33-11.44,11-.68-2.56-2-4.94-2.39-7.55C75.05,439.55,73.57,435.29,74.08,432.65Z"/><path class="cls-1" d="M455.05,429.8c-.12-3.93,1.12-4.49,3.61-1.35,1.61-3,4.89.4,4.77-2.71,1.46.57,4.62-.61,4.6,1.65-3.24.38-6.09,2-9,3.29.65,2.65,6.83.65,5.8,4A15.49,15.49,0,0,1,451,439.35c2.77-3.59,8-3.69,12.12-4.54-2.13-3.11-7.06.39-9.18-3.66-1.9-2.81-4.19.32-.82,1.17l-.46.71L446,433c-.86-1.93-3.11-4.35-1-6.26l2.07.5c0,.71-.05,2.12-.06,2.82C449.23,426.55,452,427.14,455.05,429.8Z"/><path class="cls-1" d="M446.89,437l1.83-.48c.65,1.15,1.24,2.35,1.92,3.5a6.34,6.34,0,0,0,6.24,2.28c1.21,4.19-6.39-1.57-5,3.45-2.35-2.75-6,.18-9,.17-2.68,4.06-10.42-1.49-9.19,5.06L432,451c-3.08-.68-5.85,1.87-8.83,1-5.59-2.11-10.34,2.55-15.92,1.56-9,5.49-20,9.05-29,13.67.66,4.82-2.69-.73-4.76,2.19a61.32,61.32,0,0,1-17.81,11.5c1.6-2.89,1.67-6.68,4.94-8.35,2-.76.14-2.26-.36-3.4l.76-.38,1.17-1.67,1-.08c12.49-1.55,23.1-8.76,34.13-12.58l1.41-.25c2,1,3.85-.58,4.64-2.36,1.17-.55,2.34-1.09,3.54-1.57,2.87-1.49,9.1,1.24,8-3.58l.64.34c8,1.49,16.05-5.2,24.33-5.94-.29,4.39,5.65,1.68,4.39-1.1C446.41,439.17,450.92,439.06,446.89,437Z"/><path class="cls-1" d="M98.29,443.09c-2.11,1.68-3-1.81-1.55-3.08l.45.51Z"/><path class="cls-1" d="M54.92,444.88c1.18.91,2.87,4.87,3.34,1.49.16.58,4.51,4.08.76,4.6C56.1,450.52,54.73,447.61,54.92,444.88Z"/><path class="cls-1" d="M455.89,448.67c-1.1-3.35,2-4.48,1.28-.4Z"/><path class="cls-1" d="M465.84,446.91c.72-.72,1.24-.41,1.54.92C467.39,452.22,465.05,450,465.84,446.91Z"/><path class="cls-1" d="M137.12,450.91c1.31-1,2.62-2,3.91-3-2.24,6.31-4.85,14.19-11.88,16.38.62-1.14,1.26-2.27,1.93-3.37l2-2.69c3.47.07,4.47-3.9,4-6.71Z"/><path class="cls-1" d="M423.31,457.28a4.71,4.71,0,0,1,4.38,0C427.4,458.67,423.59,458.67,423.31,457.28Z"/><path class="cls-1" d="M411,460.94c-.22-3.39,6-.06,8.12-2.86-.07,3.29-4.74,4-7.28,3.59Z"/><path class="cls-1" d="M40.36,461.33c1.72.18-2.33,3.77-2.49,5.65C34,465.88,37.38,461,40.36,461.33Z"/><path class="cls-1" d="M403.73,462.36c.67,4.52,2.12-3.9,3.64-.2l.55.85c-2.75,3.44-8.5,3.61-11.39,6.56-2.48-.34-6.6,5.28-6.44.59C394.46,467.18,402.48,465.88,403.73,462.36Z"/><path class="cls-1" d="M126.52,464.84l.56.34c.37,2-1.64,3.69-3.22,2A11,11,0,0,0,126.52,464.84Z"/><path class="cls-1" d="M565.86,466c2.87,1.24,6.92,2.88,3.36,5.86C569.59,468.94,565.79,468.74,565.86,466Z"/><path class="cls-1" d="M120.2,470.19A3.08,3.08,0,0,1,123,468C123.53,469.78,121.63,470.57,120.2,470.19Z"/><path class="cls-1" d="M193.49,469l1.66-.8.6,1.71c2.2,4.45-4.79,5.1-2.95.91C193,470.38,193.32,469.48,193.49,469Z"/><path class="cls-1" d="M572.35,468.33c1.64.55.31,4.21-1.13,4.29C570.41,471.17,571.35,469.41,572.35,468.33Z"/><path class="cls-1" d="M537.19,468.9c4.1,2-1.4,8-2.35,2.26C537.06,472.6,537.24,470.93,537.19,468.9Z"/><path class="cls-1" d="M218.1,470.89c.71-3,4.72,1.94,1.12,1.11Z"/><path class="cls-1" d="M589.63,470.54c1.89.06,3.23,1.48,4.63,2.58.49.94,1.11,1.82,1.61,2.78-.67,1.31-1.6,3.07,0,4.16l1.15,1c-.15,3.52,1.22,10.46-3.08,11.19-3.1-1.29-2.5-5.58-6-6.16a47.39,47.39,0,0,1-4-4.49c1.63-.39,4.2-.07,4.45-2.3-2,.56-3,.44-1.49-1.47l1.37-.81,1.84-.61C593.35,475,592.28,472.16,589.63,470.54Z"/><path class="cls-1" d="M528.4,470.68c1,2.45,2.22,4.85,3.26,7.31-4.85-3.2-2.49,3.82-6.47,4.32a49.65,49.65,0,0,0,2.12-5.25c-1.19,3-4.84.19-3.55-2,3.08,2.14,3.66-.82,4.31-3.39Z"/><path class="cls-1" d="M559.33,472.32c1.46-1.08,0,4.11-1.42,3.64C554.26,477.14,557.36,472.4,559.33,472.32Z"/><path class="cls-1" d="M562,473c3.75,0,3.09,4.24,1.18,6C562.88,477,562.46,475,562,473Z"/><path class="cls-1" d="M588.17,477.05c-1.19-3.85,2.64-5,1.84-.61Z"/><path class="cls-1" d="M113.48,479.94c.34-2.8,2.43-4.7,4.85-5.84C116.93,475.88,116.21,482,113.48,479.94Z"/><path class="cls-1" d="M189.31,473.89c5.31-.51,2.71,6.74-.19,8.25A43.76,43.76,0,0,0,189.31,473.89Z"/><path class="cls-1" d="M219.25,474.2l.91,2-.4.74-.86.32C216.34,477.08,218.58,475.21,219.25,474.2Z"/><path class="cls-1" d="M586.75,477.17c-2.08.17-2.52-2.24-1-3.35A8.25,8.25,0,0,1,586.75,477.17Z"/><path class="cls-1" d="M567,475c1.5,1.58,1.89,4.84,2.23-.14C574.21,478.87,564.4,481.28,567,475Z"/><path class="cls-1" d="M345.06,476.85l1.08-1.21c.66.86,1.29,1.74,1.89,2.65-1,.58-2,1.15-3,1.71Z"/><path class="cls-1" d="M414.25,475.85c-.35,6.74.89,3.43,4.14,4.35l1.5-.33c.14,3.83-3.43,5-4.31,8.16l-.7-.09c-.26-3-.79-6.06-1.16-9C413.86,478.14,414.12,476.61,414.25,475.85Z"/><path class="cls-1" d="M422.28,477.31c1.39.27,1.39,4.09,0,4.38A4.71,4.71,0,0,1,422.28,477.31Z"/><path class="cls-1" d="M565.17,477.92c.77,1.74,5,6.09.76,4.31,2.14,4,2.48,8.64,3.3,13,1-6.42,6.21,3.87,10.82,3,1.82,1.18,3.34-.37,4.87-1.26L587,497c-1.2,2.55,3,2.78,2,.11l.73-1.3c3.36,4.31,10.21,11.11,5.55,16.36-.09-7.94-2.74-.71-1.5,3-1.18-3.84-5.21-4.55-7.39-7.28,2.84-2.76.91-8.46-2.52-4-.07-.5-.2-1.5-.27-2,.37-4.89-3,1.14-5.45,1.24.64,4.38,6.59,8.81,4,1.62l.69.05c6.06-1,1,7.29,1.67,10.46A13.4,13.4,0,0,0,579,522.1c4,.57,2.2-4.76,5.92-1,.13-7.35,3-6.83,6-1.93-1.92-5.33,3-2.66.27,1.08l-2,1.14c-1.67-4.36-3.53.17-.55,1.69.86,5.17,1.9-.34,2.67-2.4,2.5,1.45-.91,7.42-3.54,9l-1.69.2c2.15-11.68-3-5.26-1.9.2-1.3.4-3.28,2.45-3.53,0-.56-1.49-1.87-3.66-3.68-2.35-.46-.62-.9-1.24-1.33-1.86l-.29-1c.36-2.35.63-4.7.79-7-1.92,1.41-1.7,4.25-1.55,6.4,0,1.22-.08,3.67-.1,4.89.91,2.57,2.37,3.49,4,.87l1.62.36c.88,1.67-.87,7.36,2.1,4.82,5-3,.37,5.57,3.88,6.81,4.36,5.45-7.06-5.6-2.18,4.6-4.39,1.47-2.84-3.29-.71-5.21-3.14,1.48-1.39-2.41-3-3.57.41,3.34,0,6.82-2.26,9.39-1.17-.84-2.64-1.46-3.14-2.92.3-2.8.93-6.12-2.82-6.31-3.9-1.43-1.65-7.31-6-8-2.79,1.85-4.25,5.74-4.42,9.07-5.19,2.55-6.76-3-10.54-4.16,1.72,4.55,2.15,9.45,3.41,14.12l-1.5-.16c-1.12-4.32-1.94-8.85-4.4-12.66-1.92,3.25-1.75.49-1.55-1.82,4,1.39,4.28-6.24,8.07-7.38,2.64.6.93-2.12,1-3.53,2.67-.12,5.36,0,8-.37l.94,1.25c3.81,4.3,4.22-4.81,3.85-7.49l0-.95c-1.21-3.33,1-8.74,2.14-4-.23,1.63-.69,4.88-.91,6.5.46-2.11,2.57-8.24,4-3.48,1.63,3.12.61-2,.28-3.18a11.58,11.58,0,0,0-2-5.44c2.48-.73,8.17-5.75,3.41-6.87-2.77,2.41-9.94,2-8.27,6.88-2.55-.33-.6-4.39-3.28-4.44.29,1.61.72,6.39-1.13,3.05.11-3.78-2.22,1.84-2.72-1.75-.46,2.84-5.79,8.09-.26,7.47-3.8,7.35-6.86-2.78-4.37-6.77-2.69.37-1.43,4.15-3.61,5.44.09-2.27,1.77-5.29-1.09-6.45,3.3,5.05-6.81,4.28-3.34-1.57-2.57,1-4.65-.08-6.87-1.19-3.44-1.08-1,3.45-1.22,5.27-2.37-2.05-2.92-12.78-3-6.17-1.32-.88-3.33-1.27-3.71-3a3.26,3.26,0,0,0,.9-3.21c2.11-5.89-8.24-7.41-4.53-12.75,1,1.28,1.93,2.39,2,0,2.51,1.76,5.17,3.83,8.38,3.89-.29-4.27,2.63-5.92,1.5,1.18,6,1.45,10.65,6.22,16.95,4.34-1.33-3.06-3.69-7,.69-8.71C561.34,486.28,565.43,481.8,565.17,477.92Z"/><path class="cls-1" d="M351.34,480.28l.7-.32,2.77,1.38c.82,7.25,14.09-6.72,15.26,1.14-5.92-1.1-7.69,5.93-13.15,5.39,2.85-5.36-4.64-1.21-7.18-.44-3.46.39-4.42,4.12-5.67,6.82,2.82-.68,5.26-2.31,7.9-3.45-4.06,5.8-9.81,5.52-14.14,11.07,1.16.05,4.7-1.55,2.79.68-6.79,1.43-12.28,5.88-18.57,8.54-4.18,2.66-9.48,5.09-10.63,10.35-5,10.56,3.51-.86,3.4,4.5-.79,1.61-1.1,5.88-3.61,4.14.1-2.1-.66-3.47-2.92-3.14-.11-1.66-.84-2.29-2.21-1.91-3.33,1.8-1.23,6-.47,8.89-.23,1-.48,2-.74,2.94-4.24-5.05.56,11.46-2.38,10.58-1.31-2.55-2.8,2.44-2.55-1.34-1.34-4.15-.56,5.84-1.93,1.9-.34-7.48-1.73,4.46-5.21,4.27-5.59-.53-5.86,6-8.38,9.37,6.24,1.61-1.47,8.84-1,2.17-5.5,1.83.61,5.49,3.78,3.5,5.11-2.16.92,8.72-1.65,4.09-6.93,2-10.76,9.54-16,12.44.55,1.69,2.57,11.69.64,7,.75-7.37-6.06,5.56.41,2.34-.75,7.11,3.67.64,1.61-4,3.24-1.53-.66,3.77,1.9,4.78a15,15,0,0,0,4.49-5.14c0-2.42-2.58-5.52.12-7.17,2-1.94,3.93,1.54,6.12,1.49-.51-2.86-2-6.82,2.22-7.18-1.54,4.52-1.18,7.15,4,5-5.63,7-11,14.6-19.08,19-2.83.91-.92,5.82-4.66,4.33,0,4.93-5.38,6.54-8.22,9.72-2.56,3.27-8.68,1.36-9.52,6.3-3.08-1.53-6.79,3-8.79,0s4.67-1.77,4.73-4.68c.5-4,8.69-3.94,6.6-8.61-1-10,11.27-15.67,11.91-25.07-3.48-.76-3.53,9.95-2.6-1.49.43-5.38,6.18-9,5.57-14.5-3.71-.94-1.87,4.86-5.24,5-2.14,1.47-3.85,9-6.94,5.08-3.73.74.91,4,2.37,5.24,4.83.69-2.61,2.93-4.15,1a97.46,97.46,0,0,0-2.31,10.83c-2-2.64-5.06-6.07-1.23-8.6-.1-5.55,2.16-10.39,6.85-13.15-5,1.42-1.23-4.69.67-6.32.73-6.28,11.28-10.11,7-17.12,1.09-3.24,2.45-6.5,1.56-10-3.58-2.07-2.49,7.51-3.6,2-.92-6.06-1.73,4.85-2.08,7-1.93-2.42-2.13-6.18-3.36-9.1-1.1,1.58-1.82,3.38-2.79,5-7.69-2.94-11.42,6.88-14.95,12.1-9.61-6.21-.69-17.6-1-26.27-3.72,0-1.07,5-2.53,5.75C231,535.8,223.4,538.59,226,545c2.8,11.91-7.32-3.49-2.13-6.28,1.67-4.45-.62-8.92-1.89-11.23,3.9,1.54,3-10.83.21-5.66.44-3.74-3.1-3.41-2.26.24.1,3.39-2-4.65-1.82-1.22-.28,10.06-4.71-13.57-.09-6.95,1.3-4.79,4.4-9,5.08-13.94-5.4-2.37-5,12.58-9.45,5.92.12-.5.35-1.48.47-2l.78.45c1.67,1.55,3.14-.86,2.94-2.44,2.27-6.27-5.31-4-5.1.71a6.54,6.54,0,0,0-.37,2.41c-.61,5.34-1.81,10.59-2.36,15.94,2.67,1,3.06-8.75,4-3.11,2.7,7.53-4.65,3.78-7.88,6.06l-1-1.2c-.27-4-2.43-7.62-2.53-11.53,2.82-4.34,2.34-11.14,6.23-14.44,2.65,2.34,3.37-1.81,2.28-3.61l.64-.62c1.69.91,1.91,2.47,1.55,4.19,2.89-.74,5.49-.18,7.17,2.45.07-3.61,2.51-5-2.75-4.54,3.66-1.63,8.6-1.17,8.74-6.47,3.18-1.11,4.35-2.33.28-3.14a46.41,46.41,0,0,1,8.36,1.2c-.77,2.75-5.79-.67-3,2.63l-1.24,1.9c-1.42,2.27-2.53,7.17,1.36,5.59-.64,4-3,7.47-3.45,11.52a3.43,3.43,0,0,1,5.16-.68c.07,4.15-3.87,7.28-3.21,11.68,2-1.28,4.17-3.43,6.66-2.1-4.71,4.66.3,6.48.52.13,1.62-.7,3.16-1.55,3.31-3.49.19-.31.57-.93.77-1.23,4.59-3.77.48,4.8.69,7.3-1.2,11.28-.61-1.87,4.43-.38,0,1.67-.14,5-.19,6.7A29.25,29.25,0,0,0,244,537.18a14.14,14.14,0,0,0,3.21-9c.26-1.47.79-4.42,1.05-5.89,2.05-1.17,2-5.13,4.42-5,1.66,3,3,6.21,5.07,8.94-1.1-6.48,2.75-12.16,4.68-18.06a1.71,1.71,0,0,1,1.94,1.32A15.93,15.93,0,0,0,263,514c-.38,2.71-.86,5.42-1,8.17,3.34-.41,5.3-3.8,5.14-7,2.24,3.72,3.79-1.76,4.86-3.74-1.35-.51-3.45-.42-3.06-2.43a3.41,3.41,0,0,0,3.12.78c3.47-1.54,3.24,3,5.56,4.34-.19-2.32,2.67-8.89,4.94-5.82-1,6.23,9.71,2.25,8.5-2.39.07-.82.2-2.46.27-3.28,2.92.54-.72,4.52,2.28,4.79,5.77,2.72,1.25-9,7.23-8.4,1.67,3.29-.51,6.27-1.77,9.22,4.47-1.77,7.6-6.62,12.93-7-1.41,1.56-2.79,3.14-4.2,4.69a11.75,11.75,0,0,0-6,5c-4.95,3.38-11.28,6.15-9.57,13.24,3.65-3.71,8.56-6.68,9.73-12.16,5.84-.12,12.95-3.29,12.28-10.14l.52.25c3.82,4.74,7.65-2.35,11.26-4-2.9.09-3.6-.54-.92-2l2.08-1.34c.24-.37.73-1.12,1-1.49a41.87,41.87,0,0,0,5.94-3.28,45,45,0,0,0,6.29-4.88l.84-.37C344.62,483.27,348.09,482,351.34,480.28Z"/><path class="cls-1" d="M108.26,491.06c2-2.49,2.89-5.61,4.38-8.41-4.87,8,6.41,14.39,2.93,21.11-1.63-3.75-7.68-1.38-4.11,1.7-1.7,3.09-1.44,6.69-2.9,9.8,6.6,2.88-4.66,14.28-.26,19.5,3.78,2.28.63-3.21,3.7-1.59.35,7.31-11.68,8.06-9.4,15.08-3-4-6.49,2.3-6.91-1.22l.37-.7c2.6-4.14,4.8-8.59,8.68-11.68,2.13-5.94-9.52-.66-9.45-4.36,1.43-3.39,3.83-6.52,7.48-7.58,2-.18,4-5.48,4.76-1.74,2.63-2.63-.76-4.28-2-6.47A11.83,11.83,0,0,0,106.87,504c2.31,4.47,5.52-5.68,2.25-6.94C114.69,497.69,109.42,493.37,108.26,491.06Z"/><path class="cls-1" d="M218,483.8c5.18,1.71,1.68,12.69-3.14,8.49a2.88,2.88,0,0,0,.53-3.41c.3-1.14.61-2.28.93-3.4Z"/><path class="cls-1" d="M149.49,485.19c1.58-.54,2.87,2.16,2.28,3.42C149.7,489.15,148.75,486.79,149.49,485.19Z"/><path class="cls-1" d="M424.05,484.81c2.86.28,4.14,7.79,1.67,3.45C423.83,489.15,422.07,495.57,424.05,484.81Z"/><path class="cls-1" d="M399,485.89c1.94,3.95,2.81-2.15,3.93,3C400.21,491.67,397.86,489.19,399,485.89Z"/><path class="cls-1" d="M405.82,488.41c-1.36-4.61,8.26-2.33,5.59,2.76-1.75,5.51-8,10.28-6.59,16.27a52.28,52.28,0,0,0-4.59,8.81c2.95-6.61-.73-4.65-3.22-4.74-1.15-2.23.95-4.41.53-6.74,2.6.87,2.42,10.58,2.14-.11-1-.53-4.61-2.55-1.48-2.17C402,499.39,400,489.79,405.82,488.41Z"/><path class="cls-1" d="M585.88,490.81a3.86,3.86,0,0,1,1.82-3.88c0,1.55.11,3.12.22,4.68l-.66.3Z"/><path class="cls-1" d="M412.08,490.49c-.45-2.14.82-2.78,2.8-2.55l.7.09c1.12.18,2.26.19,3.39.26-3.71,3.59-5.18,8.57-6.12,13.51l-1.76.17,0-1a3.38,3.38,0,0,0-1.1-3.35C411,495.44,413.68,493,412.08,490.49Z"/><path class="cls-1" d="M423,490.79c2,1.67,5,9.86.87,5.26a25.61,25.61,0,0,1-1.44,17.58c.89,1,1.83,1.85,2.77,2.78l-.79,1.67c-2.11-2.8-4.57-.59-7.12,0,1.63-5.29-1.89-6.07-5.37-6.41a11.36,11.36,0,0,0-.21-5.5c2.55,2.76,2.65.57,2.32-2.25,1.37,8,1.29,4.23,2.79.87,3.07,13.43-.8-3.53,4.95-4.56C422.79,497.18,421.89,493.83,423,490.79Z"/><path class="cls-1" d="M587.26,491.91l.66-.3c1.5.2,2.16,1,2,2.39a19.71,19.71,0,0,1-2.75-1.28Z"/><path class="cls-1" d="M246,495.77c-4.29,4.2-3.27-.94-.17-3C245.84,493.49,245.92,495,246,495.77Z"/><path class="cls-1" d="M591.27,493.33c2.21-.72,2.73,4.35.26,3.55C591.36,495.76,590.84,494.44,591.27,493.33Z"/><path class="cls-1" d="M24,494c1.93-.26,2.85,1.53,2.81,3.21C25.07,497.08,24.33,495.48,24,494Z"/><path class="cls-1" d="M250.64,498.12c.23-1.28.9-2.67,2.36-2.78l.27.63c-.41,1.37-1,2.68-1.49,4l-.56-.16C251.08,499.42,250.79,498.55,250.64,498.12Z"/><path class="cls-1" d="M392.09,494.87c4.05,1.14-1.36,10.62,3,5,2,3.92-5.05,11.79-3,4.26-3.07,3.36-2.68-5.38-1.07-2.14C393.65,506,391.4,496.69,392.09,494.87Z"/><path class="cls-1" d="M600,495.59c-2.48,4.67-4.7-.73,0-.57Z"/><path class="cls-1" d="M0,496.21l.73-.46c2.31.66,5.9-.16,6.71,2.87,3.08,5.25-6.64,5-6.49,9.46,3.21-.35,5.36-3.43,8.77-3.43-2-7.29,8,3.69.19,2.69,1.45,3.19,4,.46,5.11-1.4,3.52,3.4-1.9,7.24,2.25,9.82,3.86,3.34-4,5.65-6.89,5.94-.91,4.74-5.78.36-8.25-.75-1.46,1.54-1,3.77-1.21,5.7l-.92.42Z"/><path class="cls-1" d="M492.2,496.75c1.21,1,.67,2.57-.39,3.44C490.53,499.19,491.16,497.61,492.2,496.75Z"/><path class="cls-1" d="M259.06,499c1.29-2.58,3.3,1.13,1,1.77Z"/><path class="cls-1" d="M470,500c-.57-1.66,1.29-2.24,2.23-1C472.39,500.51,471,501.15,470,500Z"/><path class="cls-1" d="M15.18,499.11c3.05-1.52,2.21,4.21-.26,3.85C11.4,504.08,14.31,500.44,15.18,499.11Z"/><path class="cls-1" d="M27.31,498.67c7.32,0,5.26,13.27,11.51,8.74,4.57,4.3-1.57,4.75-4.92,2.93C26.48,511.57,29.51,503.26,27.31,498.67Z"/><path class="cls-1" d="M295.24,500.3c1.68-.89.43,3.47.71,4.69C292.55,506,294.29,501.84,295.24,500.3Z"/><path class="cls-1" d="M405.51,506.82a62.84,62.84,0,0,1,3.15-7.12l2.45,1.32,0,1C409.73,506.5,408.61,505.45,405.51,506.82Z"/><path class="cls-1" d="M440.27,500.15c1.3,1.05,1,3.32,1.45,4.88l-.6.23c-.39-.65-1.19-1.95-1.59-2.6C439.72,502,440.09,500.78,440.27,500.15Z"/><path class="cls-1" d="M467.7,502c.08-1.62,1-1.83,2.26-1.16,0,.79.07,2.36.09,3.15-.48,1.58,1.16,1.9,2.31,2.07-1.2,1.66-2.48,3.54-1.89,5.7.68,3.78,8.14,4,5.31,8.11-7,3.66-5.76-6.53-10.84-5.91-.32,2,1.21,3.2,2.61,4.29a5,5,0,0,0,.5,5.75,8.15,8.15,0,0,0-1.14,8.06l-.6,1.09c-12.59,2.55-17.64,16.62-30,18.38,1,5.26-4.69,8.43-9,7-1.08,3.7-5.9,3.92-8.92,5.54.93-3.39-3.08-5.14-2.4-8.65,3.88,1.42.67-3.62.7-5.54-3,2.7.51,9.75-2.55,10.92-6.59-5.26-9.34,9.67-16,5-.25-5.67,8.62-13.61,1.3-17.43-1.93,2.58-1.71,4.15,1.75,2.74-2.81,2.93-4.24,7.93-8.9,8.24,3.24-4.44,3.38-9.24,5.76-14.26,3.68,4.79,1.49-4.21,4.53-6.12,2.11,2,3-2.11,1.24-3.12,2.08-6.26,5.25-13,6.31-19,5.11-3.27,4.26,2.86,2.19,6,6.44.64-3.48,3-3.77,6.59-1.85,5.53,1.77-1.48,4.34-.39,2.59,3.82-3.63,6-2.91,10,5.82,0,3.44-7.22,6.92-10.22-3.95.75-3.44-3.87.16-3.89,4.65-.3,1.77-6.43,5.65-7.31-1.11,3,.85,3,1.81.41l.79-1.67.33-.68c2.72,5.21,7.81-1.17,10.22.56,1.53-1,7.11,1.25,3.54-1.69-4-2,5.83-2.41,2.59-4.91l.25-.72c1.77.89,3.1.78,3.28-1.46,3.63.31,7.8-1.58,7.33-5.81,1.44-.28,2.9-.37,4.36-.56-.62,2.44-6.31,6-2.24,7.08,2.58,4,5.77-2.37,5.8-5,1.4-3.05,2.62,2.39,3.69,3.54C466.87,507.44,466.74,503.55,467.7,502Z"/><path class="cls-1" d="M286.78,508.56c-5.94.33.1-8.71,3.46-6.61a8.66,8.66,0,0,0,.21,4.11C289.8,507.72,288.74,509.31,286.78,508.56Z"/><path class="cls-1" d="M476.2,503.66c-1.88.26-4.57-2.71-1.36-2.8A4.85,4.85,0,0,1,476.2,503.66Z"/><path class="cls-1" d="M250.18,508c-1.15,7-2.6-7.4.83-6C250.86,504,250.52,506,250.18,508Z"/><path class="cls-1" d="M435.82,507.89c.17-1.48.52-4.43.69-5.9a21.39,21.39,0,0,1,1.36,5.37Z"/><path class="cls-1" d="M445,505.2a3.86,3.86,0,0,1,2.15-2C447.84,504.64,446.15,507.45,445,505.2Z"/><path class="cls-1" d="M598.33,506.88c-3-3.54,2-4.91.77-.18Z"/><path class="cls-1" d="M242.86,504.62a4.7,4.7,0,0,1,2,.35c0,.46,0,1.39,0,1.85-1,3.16-2.55,1.09-2.23-1.29Z"/><path class="cls-1" d="M477.42,506.3c-2.94,4.49-5.24-3.58-.16-.76Z"/><path class="cls-1" d="M234.79,510.35c3.93,1.36-.39-5,5-4.65a56.15,56.15,0,0,0-1,6.34C236.69,514.67,234.75,513.57,234.79,510.35Z"/><path class="cls-1" d="M598.33,506.88l.77-.18.9.53v2.83A2.17,2.17,0,0,1,598.33,506.88Z"/><path class="cls-1" d="M425.88,515c.92-2.31,7.05-8.79,7.24-5A15.77,15.77,0,0,1,425.88,515Z"/><path class="cls-1" d="M540.09,507.89c1.86-.35,2.47,1.75,2,3.18C540.12,511.57,539.37,509.35,540.09,507.89Z"/><path class="cls-1" d="M40.25,516.38c-.07-5.41,3.59,1.53,6,1.2-2.54,4.07-9.06,3.4-12.61,3.39-2.4-1.17-.22-3.37.33-5.06C35.91,517.1,40.87,521.06,40.25,516.38Z"/><path class="cls-1" d="M542.39,514.78a26.53,26.53,0,0,1,2,3.12C541.3,522.12,542,517.79,542.39,514.78Z"/><path class="cls-1" d="M185.1,528.07c-2.87-3.85-.62-8,1.72-11.46L187.9,518c3.67,4.24-3.61,6.21-2.45,10.79Z"/><path class="cls-1" d="M594.2,517.23c1.57.51,1.08,3.18.55,4.4C593.12,521.36,592.23,518,594.2,517.23Z"/><path class="cls-1" d="M361.15,519c1.71.73,2.43,3.79-.31,2.72C360.92,521.05,361.08,519.69,361.15,519Z"/><path class="cls-1" d="M318.41,522.16c1.18-4.68,2.38,1.06,2.75,3.07,0,.38,0,1.15,0,1.53C320.05,530.06,319.68,523.27,318.41,522.16Z"/><path class="cls-1" d="M545.91,522.06c3.06,2.06,10.11-2.49,9.1,2.9C551.87,525.66,546.94,526,545.91,522.06Z"/><path class="cls-1" d="M28.8,534.12c-3.38-5,2.14-8.36,5.24-11.6.6,1.82,0,3.74-.11,5.61-.11.5-.34,1.49-.45,2-1.27-.59-3-1.73-2.46.61-.86,1-1.29,2.43-.29,3.51-1,1.89-1.82,3.87-2.67,5.84-1.82-.35-2.93,1.25-2.81,2.91a3.82,3.82,0,0,0-1.3,3.84l-.67.74c-2,1.66-3.16,4.07-4.38,6.33l-.83.22c-3.05.3-6.12,2.77-9.12,1.64-1-5.56-5.52-4.21-8.95-1.63v-3c4.64-.42,3.18-5.89,7.23-5.66C6,542.82,2.32,543.16,0,544V527.07l.92-.42c1.39,7.47,9.66-5.69,12,3.32,0-5.4,2.75-4,6.58-2.86a43.81,43.81,0,0,0,1.8,15c1.67-2.5,3.22-5.22-.15-7A5.17,5.17,0,0,1,28.8,534.12Z"/><path class="cls-1" d="M592.19,528.47c4.33.48-1.23-8.32,3-4.38.21.48.62,1.45.82,1.93l.82,1.83c-.46,2.38-1,4.92-.33,7.34,1,2.16-.25,3.56-2.34,4.13,2.34-2.69-.8-5,.14-8C593.42,530.51,588.92,528.43,592.19,528.47Z"/><path class="cls-1" d="M598,524l2-1.46V532c-3.39,1-2.66-2-2.38-4.18C598.44,526.67,599,525.2,598,524Z"/><path class="cls-1" d="M202.19,531.05c-1.06-2.9-.64-5,1.28-6.26l1.36.7c3.8-1,.34,6.22-1.28,7.81Z"/><path class="cls-1" d="M133.22,531.77c-3.56,1.24-4.43-6.58-.29-2.31C133,530,133.15,531.19,133.22,531.77Z"/><path class="cls-1" d="M185.45,528.83c2.39,6.21-5.19-.8-.35-.76Z"/><path class="cls-1" d="M307.25,531.83c-.62-1.38-2.48-2.53-1.55-4.19l2,.13c0,1.76.5,3.25,2.48,3.14C309.1,535.14,308,537.43,307.25,531.83Z"/><path class="cls-1" d="M585,530l1-.12,1.69-.2C587.91,534.25,583.88,535.39,585,530Z"/><path class="cls-1" d="M314.77,533.07c.92-5.55,2.62,4.69.09,1.86C314.83,534.47,314.79,533.53,314.77,533.07Z"/><path class="cls-1" d="M590.26,531.3c1.7-.52.36,3.49.74,4.76C589.08,534.84,586.34,531.81,590.26,531.3Z"/><path class="cls-1" d="M598,534l2-1.42v14.85C597.29,543.41,597,538.71,598,534Z"/><path class="cls-1" d="M201.16,535.88l.67.09c2.43,3.67.62,8.15,0,12.15C197.73,544.87,199.78,540.08,201.16,535.88Z"/><path class="cls-1" d="M307.8,540.84c-5.8,5.32-.53-9.24.42-1.64C308.11,539.61,307.91,540.43,307.8,540.84Z"/><path class="cls-1" d="M308.22,539.2c2.87,1.53-.9,7.56-.42,1.64C307.91,540.43,308.11,539.61,308.22,539.2Z"/><path class="cls-1" d="M371.94,539.19l.81-.33,1.23.79c-.45,1.11-.88,2.23-1.31,3.36A6.78,6.78,0,0,1,371.94,539.19Z"/><path class="cls-1" d="M519.86,539.27c4.42-1.07,6.44,3,4,6.66C521.31,544.79,517.59,543.35,519.86,539.27Z"/><path class="cls-1" d="M513.37,540.91c2.65.08,2.47,4.26,1.49,6.1C512,546.24,513.62,543,513.37,540.91Z"/><path class="cls-1" d="M539.21,540.86c2.24-.15,3.61,4.43,1.1,5.13,0-1.91-1.09-1.81-2.48-1.19C538,542.93,540.62,543,539.21,540.86Z"/><path class="cls-1" d="M590.73,548.92c4.22-.33,1.48-5.82,4-8.16a25.3,25.3,0,0,1,0,11.61h-.69c-.77-3.71-5-2-1.92.76-1.08.85-2.16,2.18-3.63,1.22C589.21,552.57,589.25,550.22,590.73,548.92Z"/><path class="cls-1" d="M231.3,542.32c1.35.66,1.35,4.69,0,5.36A6.92,6.92,0,0,1,231.3,542.32Z"/><path class="cls-1" d="M387.17,548.36c-3.31-4.6,4.06-7.43.87-1.33Z"/><path class="cls-1" d="M563.14,549.84c-1.71-2.47,1.2-5.22,2-1.39A1.73,1.73,0,0,1,563.14,549.84Z"/><path class="cls-1" d="M580.82,549.26c2-1,4-2.32,6-3.3,2.75,2.35-.52,5.21-.14,8L585.14,555a8.27,8.27,0,0,1-2.53-1.41C587.37,553.34,582.27,550.69,580.82,549.26Z"/><path class="cls-1" d="M388,549.37c2.33-4.4,4.82.37.35.65Z"/><path class="cls-1" d="M523.35,547.29c6-1.85,3.75,12,10.74,7.74-2.25,2.48-6.5,13.18-5.22,1.76-2.87,1,.17,8.25-3.61,5-2-3.24-3.43-.2-3.58,2.36A76.42,76.42,0,0,1,516,550.2C519.42,551.57,521.23,549,523.35,547.29Z"/><path class="cls-1" d="M165.18,548.16a9.54,9.54,0,0,0,4.89.09C172.51,552.7,161.42,550.35,165.18,548.16Z"/><path class="cls-1" d="M597,550.94c-.12-1.77,1.83-2,3-2.68v2.63Z"/><path class="cls-1" d="M89.56,558.44c2.14-3.05,3-6.83,5.25-9.81.91,4.75-2.1,9.43-4.08,13.68-1.77,4.28-9.1,4.19-7.08,10.38-3.14,2.17,1-3.47-2-2.33-4-.8-4.66,4-7.23,5.87-.57-1.93-4.2-1.29-3.17.75,2.49,2.53,1.2,5.43-2.08,6.28-1.39-.85-3.7-.37-3.36,1.65-3.56,2.52-6.86,5.52-11.07,6.89-.7,1.71-.91,4.28-2.27,1.41a10.72,10.72,0,0,0-3.71,4.5q-1.93,1.9-4,3.65c-5.1.18-2.95,6.22-2.89,9.41-1.7,3.69-3.38-4.09-4.93-.68-1-3.64-3.59-.32-.81,1.23A96.75,96.75,0,0,0,25.9,630.8c-1.87-.74-3.85-3.37-5.84-1.55-3.42,1.66-1.06,5.71-.74,8.43,1.78,4.22-2.62,8.13-.39,12.18.17,1.33,2.88-.19,1.82,1.82-.33,7.14-6.87,11.41-9.72,17.41-1.07,1.64,1.05,5.42-2.11,4.4-1.28,12.94-.23,26-.27,38.86.21,2.51,5.85,3.56,2.5,5.79-2.64,2,.39,4.32,1.57,6.15.61,6.81-7.07,8.8-10.47,13.53A9.7,9.7,0,0,0,0,736v-1.86c2.55-2.74,7.84-.7,8.7-5.31-.53-4.72-5.09-5.55-8.7-7V718.5c3.65-2.47-1-8.07,3.41-10.1,2.8-1.22-.77-3.1.47-5.2,2-5.66-3.08-11.14-1.46-17-2.55-4.74,5.49-7.63,2.11-13.32-1.87-3.63,3.38-6.87-.46-9.23-4.14-3.28.76-9.27.35-13.4,4.73-10.14-.33-21.42,2.83-32,.78-1.59,2.6-.47,3.92-.54-7.19-4.17-7.48-14.54-3.43-21,3-11.13-3.43-23.18,3.12-33.52a12.21,12.21,0,0,0,8,1c-.93,4,4.48,3.61,3.3-.28,3.74-1.9,5.31,3.44,8.65,0,.65-3.22,4.38-.83,7-.74l.74.16a1.92,1.92,0,0,0,2.22,1.18c1,2.3,5.58.72,4.1,4.25-2.63,3.86-.83-3.87-4-.8-3.24,4.51,5.91,4,8.9,3.45,3.21,1.22-1.65,2.87-3.14,2.07-5.11-.72-1.85,10.45,2.34,5,2.3,2.68,10.88,1.64,6.59-1.47-1.21-.59-2.41-1.16-3.59-1.78,1.55-3.41,4.41-2.37,7.19-1.15-1.05-1-2.16-1.92-3.22-2.9l1.78-.19a60.27,60.27,0,0,1,8.16-.57c6.58,2.31,11-1.19,14.38-6.13C85,566.19,87.34,561.84,89.56,558.44Z"/><path class="cls-1" d="M554.37,550.26c-1.76,2.57-3.69.44-1.44-1.46l1.5.16C554.42,549.28,554.39,549.93,554.37,550.26Z"/><path class="cls-1" d="M156.31,550.22c2.06-1.26,2.79,3.34.91,3.6A2.4,2.4,0,0,1,156.31,550.22Z"/><path class="cls-1" d="M223.26,550.32c1.61-.59.43,4.27.7,5.81C222.3,555,220.82,551.37,223.26,550.32Z"/><path class="cls-1" d="M299.06,552c2.52-.56,3.05,2.44,4,4.12C301,554.34,298.06,555.5,299.06,552Z"/><path class="cls-1" d="M237.2,557.11c3.54-.44,2.49,4.1.15,5.25C236.9,574.38,234.06,559.57,237.2,557.11Z"/><path class="cls-1" d="M251.31,557.33c1.49,1.16.92,4.53.38,6.34C250.19,562.5,250.77,559.13,251.31,557.33Z"/><path class="cls-1" d="M127.33,559.05c3.56-2.52,2.4,7.37,7.42,5-1.83,3.28.4,6.72,5,5.15a14.29,14.29,0,0,1,2.56,11.33c2,1.28,11.21,6.85,5.51,5.58.14,2,2.67,6.15-1,4,.72,2.48,4,4.55,6.52,3.3,2.79-1.14,2.68,3.74,2.68,5.57-3.62.53-6.52-2.1-9.89-2.86-2.84,2.29-1.17,6.52.85,8.8-2.09.9-4.6,1.16-4.19,4.1-.71-1.45-2-2.82-2-.21-3.16-3.49-4.27,2.06-5.61-1.92.17-2.42-2.62-1.12-4-1.89,2.13-2.17,3.46-4.58-.1-6-1.57,2-1.66,4.44-1.15,6.82-2.23,4.54-10.64-.89-10,5.15-2.5-8.06-11.51,2-16.77-.1C99.8,608.11,100.15,616,97,613c-1.78-1.24-4.3-1.5-5,1-5.87,7-15.25-13.06-5.26-7.84-2.46,3.05,4.55,7.81,1.51-.9,4.28-4.7,11-.15,13.82-6-1.16-.12-5.37-.93-3.32-2.47,4.5-.76-1.51-10.13,3.94-4.57.1.38.31,1.14.42,1.51-3.31,4.78,10.74,6.69,5.84.39,3.54,2,2-2.17-1-1.29,3.79-4.89,5,4.22,9.15,1.19,2.21-2.47-6.37-2.79-5.11-6.91,2.52-4.59,8.52-3.78,12.64-6,.53,3.6,5.07,1.46,7.41.73-3-6.21-10,.4-14.81-.93-2.06-2.58-1-5.34,1.63-6.91-.7,5.31,6.78,1.67,7,1.09-1.68-3.88-3.46-7.8-3.94-12C125,564.94,129.13,562.7,127.33,559.05Z"/><path class="cls-1" d="M556.21,558.9a4.59,4.59,0,0,1,1.7,3.2C555.93,562.51,555.42,560.28,556.21,558.9Z"/><path class="cls-1" d="M571.7,562.81c1.78-3.44,6.67-.57,8.12,2,.7-2.21,1.34-5,3.45-2.11-1.82.24-3.63,3.25-1.37,4.13,1.89,1.14,2.84-1.57,2.12-3l-.11-.74,1.84,0c.53,2,1.35,6.91,3.21,2.88-.15,1.8,1.59,4.59-.73,5.48-1.3,1.14-2.52,1-3.45-.46a75,75,0,0,0,1.55,7.38c-1.34,3-7.33,9.91-.59,6.76.33.28,1,.84,1.34,1.13,2.24,1.35,1.76,1.9-.79,1.82,1.45,2.06,1,4.51.63,6.84,1.47-2.85,4.29,1.26,6.38-.71,2-1.56-1.34-1.64-2.41-1.82a50.38,50.38,0,0,1,4-7.33,68.77,68.77,0,0,1-7.43-1.33l-1.32-.43c2-2.17,9.65-4.84,6.06-8.55.22-2.25,2.39-4.53.47-6.57-2.67,3.7-2.94-1.27.26-1.92-2.6.23-2.73-1.94-2.87-3.92,3.33,1.15,6.61.46,10-.29v45.83c-3.56-1.71-6,7-2.36,9-.22.94-.43,1.9-.62,2.86a1.79,1.79,0,0,0,.9,3.27c-.07.44-.22,1.31-.29,1.75-1.55,3.23-1.3,6.71-.42,10.17a10.32,10.32,0,0,0-.11,5l.16,7.21a25.67,25.67,0,0,1-.32,4.71c-.62.79-1.23,1.6-1.84,2.41-.72-1.72-1.21-6.17-2.41-2.33l-.26-.55c-.3-2.35-2.88-1.89-4.57-2.48-1-1-1.88-2-2.78-2.95,1.3-5.06.11-5.83-2-.85-1.17-3.85-4.22,1.09-6.85-.12-2.77-3.54-.2-7.18-1.25-10.9-3.43,4.79-2.84-3.52-.11-5.38-1,7.55,2.09-2.94,4.33,2.12,1,5.73,2.75-11.09-.06-5.67-.46,3.92-3.7-2.67-6.43-1a10.66,10.66,0,0,1-.08-6.25c5.7-8.86,3.69,12.17,7.27,1.9,2.72,3.12,3-3.48,0-.74a20.8,20.8,0,0,1-3-3.92c1.64-.5,5.2-3.51,5.23-.22,1.24,3.37,1.64-3.23-.33-3.5a18.08,18.08,0,0,0-9.6,2.53,34.67,34.67,0,0,0-5-.94c-.78-.57-1.57-1.12-2.36-1.65-2-2.09-1.43-4.78-.77-7.27l.85-.48a25.18,25.18,0,0,0,1,3.46c3.25,5.34,2.88-5.43,6.54-3.53,2,.68-.28-2.19-1.3-1.86-4-.3-3.39-6,0-1.75,2.94-3.9-2.61-5.93-4-8.95-.42,1.55.66,4.85-2,4,.71-3.11-1.68-8.48,2.81-9.24-1.24,2-2.74,4.16.86,3.15.83,1.54,4.48,1.57,3.11-.74-.59-1-3-2.51-.51-2.62,6.3.16,3.78-8.2,8.67-10.12a1.88,1.88,0,0,0,1.15-3.46c-1.26-1.65-2.59-3.65-4.09-1.1,1.07-4.64-4.23-3.81-7.27-4.67C570.45,565,571.09,563.93,571.7,562.81Z"/><path class="cls-1" d="M561,562l.95,0c.09,2-.2,5.91,1.28,2.14,1.32-3.09.61,1.52.72,2.68-1.12,4.89-2.53,1.32-3.83-1.42C560.37,564.26,560.65,563.12,561,562Z"/><path class="cls-1" d="M565.27,562.59c1.07,0,2.15.11,3.23.19.55,2.05-1.57,2.67-2.81,3.77l-.64.49C565.09,565.55,565.17,564.06,565.27,562.59Z"/><path class="cls-1" d="M118.27,563.58c5.11-1.82.61,3.72.46,6.33C114.51,569.28,113.73,564.45,118.27,563.58Z"/><path class="cls-1" d="M47.93,563.84h1a33.67,33.67,0,0,1,2.35,4C48.61,567.49,45.87,566.88,47.93,563.84Z"/><path class="cls-1" d="M68.24,566.18c2.92-2.26,3.61,3.94.83,2.78C67.36,569.06,66.24,566.84,68.24,566.18Z"/><path class="cls-1" d="M543.53,566.12c2.47-.81,2,4.26-.26,3.55C542.84,568.54,543.36,567.23,543.53,566.12Z"/><path class="cls-1" d="M195.35,570.33c1.64.55.31,4.21-1.13,4.29C193.41,573.17,194.36,571.41,195.35,570.33Z"/><path class="cls-1" d="M299.25,570.23c5.52-2-2.31,6.3-5.37,5.81A34.84,34.84,0,0,1,299.25,570.23Z"/><path class="cls-1" d="M575.36,571.28c1.62,1.73-.63,9.26-5.1,9.75,1.52,2.65-.54,3.62-2.94,4.11.08-2.62,0-5.21,0-7.81C570.36,575.68,575.22,575.9,575.36,571.28Z"/><path class="cls-1" d="M307.35,575q3.57-1.92,1.22,4.07A7.84,7.84,0,0,1,307.35,575Z"/><path class="cls-1" d="M388.09,574c1.77.42,1.66,3.43-.19,3.68A15.06,15.06,0,0,1,388.09,574Z"/><path class="cls-1" d="M588.13,573.83c4,.09,2.13,7.94,0,3.08C588.1,576.14,588.12,574.6,588.13,573.83Z"/><path class="cls-1" d="M562.09,577.12c4.35.25,2.83,4.38.06,5.88C562.22,581.07,560.53,578.7,562.09,577.12Z"/><path class="cls-1" d="M514.26,583.75c2.51.62,1.38,3.24-.9,2.39C513.59,585.54,514,584.35,514.26,583.75Z"/><path class="cls-1" d="M87.3,587.31c4-1.82,2.86,2.8-.39,2.59C83.77,591.12,84.93,587.14,87.3,587.31Z"/><path class="cls-1" d="M109.26,587.26c1.77.49-.22,4.26-1.77,3.55C107,589.32,107.31,587.39,109.26,587.26Z"/><path class="cls-1" d="M81.8,597.05c-5,3.43-4.4-7-.78-1.09Z"/><path class="cls-1" d="M84,598.05c.21-.58.62-1.74.82-2.32,2.49.53.65,4.74-.85,5.71l-.88-.32C83.34,600.08,83.65,599.05,84,598.05Z"/><path class="cls-1" d="M76.42,597.41c3.21,1.62-.52,5.11-3.46,5.69A27.29,27.29,0,0,1,76.42,597.41Z"/><path class="cls-1" d="M83.85,603.94c-4.94,2.46-5.2-8.36-.78-2.82l.88.32.16.87C84.05,602.72,83.91,603.53,83.85,603.94Z"/><path class="cls-1" d="M564.05,604.06c-.66-1.76.83-7.21,2.59-3.74,1.82,2.35-3.08-.1-1.74,3.26Z"/><path class="cls-1" d="M55.23,601.17c3.2-1.3,1,2.34.6,3.85C53.89,604.59,53.27,602.06,55.23,601.17Z"/><path class="cls-1" d="M149.14,604.25c3.47,2.83,9.93-2.25,9.14,3.93,2.82-.39,4.4-8,2.69,2.89-4.07.12-3.83-7.44-9-2.24C145.42,613.4,148.8,606.76,149.14,604.25Z"/><path class="cls-1" d="M70.13,606.22l.53-.08,1.15,1.78c.12,1.43-2.65,1.67-2.73.23Z"/><path class="cls-1" d="M58,607c3.51-.73-1.42,8.24,3.17,5.12C60.33,620.14,56.25,611.39,58,607Z"/><path class="cls-1" d="M74.1,607.05c1.67.44,4.39,2,1,2.26,2.47,3.11-2.9,11.05-2.89,5.48-4.73-2,.16-4,1.82-.71A14.3,14.3,0,0,1,74.1,607.05Z"/><path class="cls-1" d="M197.28,607.31c1.39.27,1.39,4.09,0,4.38A4.77,4.77,0,0,1,197.28,607.31Z"/><path class="cls-1" d="M80.63,608.91c1.18,3.46-5.21,1.71-1.5-.16Z"/><path class="cls-1" d="M145.29,609.26c3.44-2.46.23,8-.54,3C142.22,615.93,141.59,610.7,145.29,609.26Z"/><path class="cls-1" d="M241,613.67c-1.93.13-1.93-4.49,0-4.34Z"/><path class="cls-1" d="M48.25,612.33c2.31-.62,2.22,4.08-.31,3.63C44.75,617.21,45.58,612.05,48.25,612.33Z"/><path class="cls-1" d="M106.15,614.44c1.37-.33,5.48,2.85,1.9,2.77A1.82,1.82,0,0,1,106.15,614.44Z"/><path class="cls-1" d="M123.21,614.46c3.21-.89,14.26,2.11,2.78,1.62C121.35,617.16,112,615.88,123.21,614.46Z"/><path class="cls-1" d="M267.35,616.35c1.63.47.9,4.71-1.08,4.32C265.77,619.22,266.83,617.66,267.35,616.35Z"/><path class="cls-1" d="M38.13,619c6.13,1.61,3.1,8-2,8.21C37.12,624.56,38.48,621.88,38.13,619Z"/><path class="cls-1" d="M86.33,621.33c1.76-.16-1.38,5.58-3.67,5.12C76.49,627.57,84.07,622.31,86.33,621.33Z"/><path class="cls-1" d="M48.09,628c-1-6.11,7.84-2.78,11.69-3.83,3.52,4.53-5.15,7.54-8.66,4.73Q49.61,628.38,48.09,628Z"/><path class="cls-1" d="M108,625l1.87-.07C117.52,623.8,107.43,630.43,108,625Z"/><path class="cls-1" d="M75.33,629.42c3.14-.09,3.74-6.44,3.8-.41a40.2,40.2,0,0,0-3.41,2.85c-4.72,3.46,3.5.42,2.28,4.14C71.19,640.29,71.28,630.8,75.33,629.42Z"/><path class="cls-1" d="M101.34,627.3l2.46-1.61c7.65.83-4.72,4-6.79,6.55l-.23-.89C95.1,624.68,99.9,630.11,101.34,627.3Z"/><path class="cls-1" d="M92.69,628.2c1.39,1.47,2.2-.31,3.09-1.28.26,1.48.59,3,1,4.43l.23.89-1.65,1.09c-1.12-2.22-5.41-3.92-5.58-.28a11.36,11.36,0,0,0-3.67,2c.58-7.85-4.76,4.53-5-1.82C84.55,630.7,88.8,629.72,92.69,628.2Z"/><path class="cls-1" d="M461,630c-5.82-2.25,6.68-5,3.3-.76A11.47,11.47,0,0,1,461,630Z"/><path class="cls-1" d="M47.4,628.7c.06,1.13.06,2.26.05,3.4-1.58,3.23,4.86,3.9,1.47,6.6-2.79-1.72-1.06,2.08-2.88,2.35C47.82,637,42.87,631.68,47.4,628.7Z"/><path class="cls-1" d="M125,630.24c4.86,1.11,12.69-2.81,15.26,2.55-4.09-1.31-10.64-3-13.4,1.31-2.58,3,1.91,1.84,4.62,2-.51,1.87,1,2.1,2.51,2.27-1.13,1.22-6.43,4.47-2.11,3.49,8.2-.1-5.25,3-8.1,3.88-1.31.47-2.57,1-3.83,1.62l-1.25.56-1.83.12c-1.52-2.8,6.86-1.39,6.16-5.12-5.9,1-11,4.89-16,8a22.18,22.18,0,0,1-4.32,3.46A7.39,7.39,0,0,0,98.82,656a24,24,0,0,1-8.14,5.37c-3.89-6.2,3-5,4-9.6,6.46-8.72,15-17.17,26.7-17.56L123,634C127.06,634.74,121,630.56,125,630.24Z"/><path class="cls-1" d="M111.8,632.19a4.37,4.37,0,0,1,3.29-1.1C114.88,632.77,112.9,633.84,111.8,632.19Z"/><path class="cls-1" d="M90.06,634.87c1.36-.24,2.73-.46,4.09-.71-1.63,1.88-7.49,3.37-5.2,6.12-1.44,1-4.14,1.94-1.39,3.2,6.3,3,2.17,12.71-1.55,14.77.68-2.51-1.92-2.46-2.39-.35-3.09-1.53-5.52,2.17-4.82,5,5.85-4.62.34,5.32-3.86,2.93.33-2.3,0-4.57-2.55-5.2,1.86,4.53-2.5,7.63-4.65,11.14-4.73,2-2.25-4-1.56-6.71,2.1.58,4-2.51.88-2.25.79-2.28,1.4-4.62,2.4-6.82,3.24,2.64,3.82-2.29,1.92-4.16A27.26,27.26,0,0,1,73,649.1c4.74,1.16,3.8-2.48,2.92-5.64a23.27,23.27,0,0,1,1.57-2.53c.88,1.31,1.8,1.34,2.75.11,1.28-1.06,2.57-2.12,3.81-3.23a2.61,2.61,0,0,0,3.05-1.56A8.81,8.81,0,0,0,90.06,634.87Z"/><path class="cls-1" d="M69.27,640.78c-.91-2.24,1.19-4,2.32-5.64,6,6.48-4.21,14.54-7.6,20,.34-3.44.2-7.88,3.44-10C69.33,644.65,69.84,642.44,69.27,640.78Z"/><path class="cls-1" d="M132.72,635.28a10.64,10.64,0,0,1,7.43,1.26A11.39,11.39,0,0,1,132.72,635.28Z"/><path class="cls-1" d="M142.25,636.83a15.23,15.23,0,0,1,8.75,4.68c-2.57-.12-4,4.35-5.94,2-4.41-1.6-12.36,6.85-14.34,2.46C136.06,643.84,143.65,644.49,142.25,636.83Z"/><path class="cls-1" d="M75.14,644.93c-3.86-.45-.24-4.91.37-.72Z"/><path class="cls-1" d="M580.2,646.08c3.34-1.61,5.27,9,2.39,4.28C581.55,647.28,576.8,649.66,580.2,646.08Z"/><path class="cls-1" d="M121.2,648.23c1.71-.48,3.42-1,5.16-1.38l.92.29c-2,1.25-4.17,3.82-6.58,1.75Z"/><path class="cls-1" d="M142,647.84c3.25.23,8.83-.35,7.2,4.95l-.62.23c-2.3-2-4.44-.38-5.49,1.94-.23.56-.71,1.67-1,2.23l-.15.92-.68-.11-.87-1.25c-1.35-2.43-8.56,3.45-7.56,7-2.63-1.4-1.84,1.9-1.12,3.28l-.13.74c-.24,1.36-.46,2.73-.63,4.11-.5,1.15-1,2.3-1.59,3.43,2.61-8.24-11.16-2-5.87,2.05,1,.83,2,1.62,3,2.47a2.89,2.89,0,0,0-1.22,3.46l-1.31,1.5a1.11,1.11,0,1,0-2.1-.73c-1.77,1.62-3,4.16-5.72,4.21,1.06-2.8,4.89-12.24.55-7.47-6.11,6.59-.89,16.88-3.92,24.12-3.24-.89-.71-5.3-1.29-7.77a8.74,8.74,0,0,0-.17-7.46c-.51-1.32-.66-3.23-2.22-3.73-3.39,4.31-3.45,10.86-8.27,14-1.31,1-3,2.87-4,.53a7.81,7.81,0,0,0,2.89-2.36l1.49-2c1.74-2.47,3.45-5.06,3.9-8.11.36-1.29.7-2.57,1.06-3.84,1.93,0,3.7-1.93,2-3.55l-.47-.83a7.47,7.47,0,0,0,3.34-1.13l1-.54c1.22.7,2.11.71,1.94-1l2-1.26a3.31,3.31,0,0,0,3.84-3.91c.81-1,1.64-1.87,2.47-2.79,2.1-.38,2.24-2.67,2.36-4.38l1.46-1.6c1.06-1,2.09-2.11,3.1-3.19a10.83,10.83,0,0,0,3.08-1.89c1.31-.66,6.83-1.56,4.55-3a8.16,8.16,0,0,0,2.32-2.81C141,651.37,142.17,650,142,647.84Z"/><path class="cls-1" d="M156.27,650.13l.75-.44c.27,2.55-.09,5-3.05,5.28C152.64,651.44,156.94,653.55,156.27,650.13Z"/><path class="cls-1" d="M157.65,650.26l1,0c1.14.32,4.13-.66,3,1.47-1.87,3.88,5.49-3.39,2.61.53-1.84,3.92-10.41,9.1-6.08,12.9q-.7,1.26-1.38,2.58c-1.84,0-2.3,1.94-1.66,3.38-.81,2.55-1.65,5.08-2.43,7.65-3.57,7.49-.94,16.32-.52,24.26,5.75.49-.7-11.15,4.63-9.83a29.93,29.93,0,0,1,1.56,4.86l-.15.69c-1.45,2.58-.34,5.12.86,7.53-4.87-6.18-1.64,5.41.32.76,5.12,1.3,6.14,9.13,12.5,8.23,3.83-.12,6.78,5.42,10.37,2,2.57-.29,8.12,2.1,6.74,5a25.39,25.39,0,0,1-5.82,1.83,2.4,2.4,0,0,0-3.25,1.79q-2.58,1.42-5.1,3c-1.59.44-3.19.88-4.78,1.3.29-4.49,5.92-4.41,8.81-6.5,1.62-4-4.22-4.38-5.93-1.83-5.17,5-15.31,4.82-18-2.72-1.42-3.84-.6,4.73-1.71.64-2.47-4.26-5.69-7.91-7.14-12.83-.92-2.4-3-5.31-5.88-5-1.69,3.24-1.16,10-6.41,8.81-5.71,1.49,1.9-6.51-2.7-6.92-2.52-.5-4.38-2.62-5.42-4.86,1.1-1.37.31-5.88-1.59-3.28-2.7,3.15-2.69,7.11-3.28,11-4,2.73-5.26.13-3.18-4.86,3,2.22,4.71-12.85,1.32-9.86-1.12-4,3.87-2.59,3.33-6l1.79-1.16,1.31-1.5.61-.17c2.82-.35,3.06-3.84,4.18-5.92l1.08-.87c2.59-1.18,3.94-3.72,4.75-6.31l.27-.71,1-1.28a8.52,8.52,0,0,0,2.22-2c1.67-1.35,3.68-2.58,3.58-5l.19-.86c.62-.73,1.25-1.45,1.89-2.15,2.06.38,4.67-.34,4.9-2.76l.64-.24,1.36,1.13c-.18.42-.56,1.25-.75,1.66-1.08,1.43-2.19,2.84-3.26,4.29-.79.95-1.57,1.91-2.38,2.85a11.43,11.43,0,0,0-2.89,3.86l-.89,2.07c-.8.7-1.59,1.42-2.38,2.15-2.83-2.66-4.59,2-4.36,4.34-.07,3-7.51,8.09-1.33,7.34l-.59,1.29c-2.78.7-2.42,3.39-1.41,5.47-.07.39-.19,1.16-.26,1.55-1.9,1.85.33,5.91,1.34,2.11,1.35-4.63,2.68-9.28,4-13.91a3.81,3.81,0,0,0,1.48-3.1l1.38-1.45c2.15,2.82,3.35-.93.56-1.58a13.28,13.28,0,0,1,1.25-2.09c1.44,1.32,2.74-.41,3.42-1.6,1.06-.77,2.09-1.56,3.12-2.35,2.48.84,3.12-1.28,2.59-3.25L152,664l.55-.65a51.66,51.66,0,0,0,6.87-7.53C160.5,654.05,157.94,652.09,157.65,650.26Z"/><path class="cls-1" d="M553.86,653.62c-4.32-1.85,9.19-5.09,2.1-1.32A4.19,4.19,0,0,0,553.86,653.62Z"/><path class="cls-1" d="M122.15,653.1c-2,.06-6,.22-3.24-2.42a8.58,8.58,0,0,1,5.28,2Z"/><path class="cls-1" d="M586.39,651.91a4.06,4.06,0,0,1,2.79.65l1.71.86-.16,2.77C588.58,655.73,587.15,653.85,586.39,651.91Z"/><path class="cls-1" d="M128.83,653.47c1.76-.37,5.42-3,5.37.15-3-1.34-2.22,1.63-2.1,3.67a5.52,5.52,0,0,0-3,1l-.61-.53L127,655.91c-5.69,5-12.22,9.28-16.94,15.28l-.41.61c-3.35,1.2-3.25,5.18-5.23,7.63-1.59,2.39-4.56,5.12-2.46,8.11l0,.79c-.94.22-1.89.42-2.84.61.56-6,.25-12,.9-18-2-.2-2.18,1.84-2.87,3.21-1.36.6-2.73,1.21-4.08,1.85l-.12-3,0-.75A10.33,10.33,0,0,0,95,667.54l.26-.93c1.41-.33,2.92-.74,4.11.4-1.53,5.13,2.19,1.88,4-.16,2.66-1,2.76-4.29,3.88-6.54.82-.71,1.62-1.43,2.41-2.16l2-1.4c3-2.18,6.9-.77,10.26-1.85,1.36-.15,2.73-.26,4.1-.33A4.45,4.45,0,0,0,128.83,653.47Z"/><path class="cls-1" d="M600,657.2v0Z"/><path class="cls-1" d="M530.18,654l.8.13.28.72a2,2,0,0,1-3.19,1.42A14.17,14.17,0,0,1,530.18,654Z"/><path class="cls-1" d="M175,656.91c2.46-.34,6-1.91,5.16,2.12-1.66.73-3.3,1.49-4.95,2.25l-2.35-.4C173.55,659.53,174.27,658.21,175,656.91Z"/><path class="cls-1" d="M593,656.83l1.84-1,2.94,1.38,2.2,1.08V668l-1.54,1.88c-.18,1.74-4.41,5.58-.68,4.54.08,1.81.5,3,2.22,1.52V687.3c-.26-.3-.77-.92-1-1.23,1.29-7.81-1.16-11-1.82-1.92l-.61-.26a3,3,0,0,0-2.36-2.08c-5.18-1.91-1-2.45.08-4.84a5.34,5.34,0,0,0-.51-5.19c0-2.7.92-5.43-2.14-6.34C595.22,663.9,594,659.82,593,656.83Z"/><path class="cls-1" d="M159.1,664.13c1.62-2.75,3.71-5.29,6.93-6.15,0,.68-.05,2-.07,2.73l-1,.2c-1.73-.71-4.19.85-2.06,2.38C162.13,664.9,160.53,664.41,159.1,664.13Z"/><path class="cls-1" d="M121.75,664.33c0-2.75,2.67-3.72,4.51-5.09-.74,1.24-1.48,2.49-2.25,3.73Z"/><path class="cls-1" d="M137.82,661.29a9.75,9.75,0,0,1,2.14-2.16c0,.69-.05,2-.07,2.74l-.79.37Z"/><path class="cls-1" d="M84.88,661.91c-3.77-.13.34-4.13.9-.72Z"/><path class="cls-1" d="M133.87,665.13a4.92,4.92,0,0,1,1-3.28h.91c1.92.83,1.83,2.54,1.35,4.31l-.13,1-2.34-1-.72-.26Z"/><path class="cls-1" d="M222,663.09a4.73,4.73,0,0,1,4.83,1.69l-.79.4-1.93-.1C223.4,664.42,222.69,663.76,222,663.09Z"/><path class="cls-1" d="M114,669.35c1.87-1.52,3.7-4.4,6.48-3.55l-1.84,2.4-1.44.83-3.08.94Z"/><path class="cls-1" d="M73.59,668c2.39,3.12,5-.27,7.65-1-2.56,3.09-4,5.27-.15,8.29-.2,2-.53,3.94-.83,5.92-5.13,4.42,5.6,10.33,2.8,4.17,2.53,1.11,3.49-.56,3.8-2.9l1.24-1.16a65.56,65.56,0,0,0,4.8-4.48C92.05,680.51,91,685,96.21,685c0,1,0,2-.08,3.09a2.22,2.22,0,0,0-.28,4c.05,1.39.09,2.8.13,4.22-2.65-1.82-4.46-4.43-6.35-7-4.17.45-8,2.61-12.29,3-4.53,2.74-8.94-4.9-5.7-8.35-1.22-3.44-2.2-8.91,2.61-9.86C77.17,672.36,72.34,669.81,73.59,668Z"/><path class="cls-1" d="M598.46,669.9,600,668V672C599.62,671.45,598.85,670.41,598.46,669.9Z"/><path class="cls-1" d="M109.89,672.57l2.26-.14c-.3,1-.63,1.9-1,2.85l-1.35.86A11,11,0,0,1,109.89,672.57Z"/><path class="cls-1" d="M83,675c4.78-3.76,3.8.21,3.06,4.26-5.52-3.7-2.15,9.7-4.27,1.64C82.08,678.93,82.49,677,83,675Z"/><path class="cls-1" d="M266.89,680.16c1.37-.51,3.25.31,2.76,2l-.81.26A10.91,10.91,0,0,1,266.89,680.16Z"/><path class="cls-1" d="M596.55,683.89l.61.26,1,1.81c.19,3.09-1.54,8.78-3.24,2.95a25.45,25.45,0,0,1,0-2.9Z"/><path class="cls-1" d="M599.18,695q-2.28-3.36.82-7.06v6.9Z"/><path class="cls-1" d="M96.76,695.73c-.43-2,1.77-5.4,3.53-2.75l-.32.61C98.92,694.32,97.86,695.06,96.76,695.73Z"/><path class="cls-1" d="M289.94,693.14c1.69-.69,3.69-.13,4.08,1.84A4.7,4.7,0,0,1,289.94,693.14Z"/><path class="cls-1" d="M594.63,693.7c3.57-1.61,3.85.5,2.8,3.55L595,696l-1.09-2.12Z"/><path class="cls-1" d="M542.94,694.82c3-2.45,6,3.67,1.13,1.24Z"/><path class="cls-1" d="M303.37,698.85c2,.87,4,1.86,5.88,2.92l-2.12.23a23.71,23.71,0,0,1-4.26-.89C303,700.55,303.24,699.41,303.37,698.85Z"/><path class="cls-1" d="M596.15,704.66c-4.16-1.94-2.44-7.15,1.81-4.73a39.35,39.35,0,0,1-.24,6.32l-.58-.55Z"/><path class="cls-1" d="M312.76,702.61c3.49-.59,8.94.65,8.26,5.19-4.95-2.17-6,7.34-.75,4.27l.9.92,0,.64-3.2.7-.95-.25c-4.54-2.71-2.34,2.43-2.12,5.17l-1-1a40.69,40.69,0,0,0-3.85-6.4C310,708.12,318.33,705.65,312.76,702.61Z"/><path class="cls-1" d="M551,704.78c-2.52,1.91-4.66-3.77-1.11-2.84A10.76,10.76,0,0,1,551,704.78Z"/><path class="cls-1" d="M99.27,705.23c2.89-1.51.59,2.26.49,3.64C97.09,710.19,97.5,705.87,99.27,705.23Z"/><path class="cls-1" d="M400,705.07c1.75-.35,3.72-.37,5,1.06l-.18.74A6.9,6.9,0,0,1,400,705.07Z"/><path class="cls-1" d="M427.23,709c-.22-7.18,5.86-.85,9.9-1.43,3.33-.16,3.22,2.34,6.92,4.23.75,5.5,4,10.11,5.86,15.22-.56,2.14-3.37,2.88-4.9,4.35,6.58,4,13.63,9.61,15.06,17.54-6.47,2.65-.91-6.46-6.31-7.15-3.35,2.21-6-4-9.8-3.87-1.06,3.37,4.5,2.08,4.07,5.15.07,5.6-7.88,2.62-11.09,1.16-3.48,1.34-7.71,3.67-8.28,7.71-7-6.31-14.48-15-24.75-13.9,4,7.43,14.27,11.58,17,20.13-7.51,1.66-9.12-8.76-15.87-9.3-1.1,5,3.73,14-3.75,15.53-7,4.77-15.24-4.4-14.35-9.36-3.69-.56-6.77-3.28-10.61-3.11,2,4.53-4.66,3.85.41,6.46a13,13,0,0,1-4.78,9.87c-4.22-2.05-3.22-7.39-4.21-11.25-2.3,4.82-7.43,6.51-9.33.33-10.18-.91-6.83,13.58-12.22,19,1.85-7.85-2.19-8.89-2.58-2.35-5.8-1.33-11.13-4.86-12.89-10.76-4.41-4.26-5.78,3.23-5.07,6.92-5.55-4.55-11.08-9.48-15.08-15.49.35-4-4.8-4.75-6.79-7.4-1.74-1.8-2.85-4.62-5.82-4.36l-.84-1q0-2.43-2.34-1.89c-4.77-3.89-9.57-7.73-14.13-11.84.34-1.67,0-3.72,1.39-5,6,1,10.92,4.77,16.27,7.31,2,.55,1.3,4.94,3.11,1.85,8.94,4.34,16.54,11,24.69,16.59-4.08,1.4.82,4.76,2.32,6.55,5.23,2.5,9.76,10.54,16.2,7.09,4.23-2.75,5.75-9.5,1.48-13,5.13,11.12-9.46,9-13.63,3.73,3.8-.38,9.58,3.73,12.11-.63-.14-3.42-.23-6.87-1.32-10.13A23.91,23.91,0,0,1,350.41,754c2.78-1.78,5.21-5.14.48-5.77,4.84.62,1-2.2,1.17-4.79,1.29-.52,3.7-.27,2.8-2.34-2.11-6.92-8.78-10.94-14.69-14.28-.15-4.5,7.19.65,9.78,1.35,9.16,1.93,14.51,9.69,18.58,17.58,5.83-1.76,10,1.27,14.59,3.38.64-4.91-11.09-4.16-6.43-6.45-4.85-5.75-13.2-10.71-13.31-18.73l.67-.29c1.41,2,2.12,5.52,5.17,5.33l1.27.19c.77,2.26,2.43,3.73,4.57,1.88a13.11,13.11,0,0,0-4.95-4.17l-1-1.13c-1.76-3-6.64-3.76-6.23-7.81,3,.92,5.79,2.48,8.83,3.35l.77.69c3,6.55,10.45,10.51,12.58,17.13-5.15.19-4.87-8.13-10.15-7.11,2.06,7.66,11.2,11.46,14.76,18.7-3.76,2.58-1.51,4.45,2,5.38,0-6.38,4.62,1.23,6.45,2.82,3.86-.94,2.82-5.43,1.64-8.18-1.87-6.48-7.17-11.1-11.43-16.07-2.25-1.67-5.6-2.91-4.29-6.4,3.15-3.51,7.9-1.53,11.44.18,7.7,5.32,16.4,9.8,26.17,9.48,4.07-4.27-2-10.11-5.33-13.15-3.18-1.17-4.19-6.46-8-5.22-.77-.31-1.54-.6-2.3-.87-3.37-.8-2-4.45.68-5a51.22,51.22,0,0,1-5.16-4.24l1,.09,5.42.67.66.24a44.67,44.67,0,0,0,7.48,2.12l.72.19c4.7,1.24,9.27,4.68,14.22,3.85l.7-.13c.17,3.62,5.87-1.07,5.39,2.71-2.94,3-6.93-2.87-9,.08.22,5,8.48,4.49,9.45,8.75,2.78-.93,6.44-1.49,7.63-4.59-3.61.61-6.68-1.1-7.48-4.42,2.19-.74,8.35-4.21,2.78-3.81C439.67,708.85,431.83,710.19,427.23,709Z"/><path class="cls-1" d="M498.9,711.12c-2.51-3.1,4.36-.42,2-6.36q.11,4.1.39,8.25C500,714.69,499.65,711.91,498.9,711.12Z"/><path class="cls-1" d="M382.77,707.94c1.33-.43,2.66-.86,4-1.24-3,2.74.44,7,2.85,9-1,.84-2.94,1.22-2.51,2.94,4.59,1.4,10.75,3,13,7.4-5.56-1.69-10.52-4.21-16-5.91,2.62-2.79-5.19-4.65-2.09-.57-5.32-1.41-10-4.76-15.5-5.5l-.95-.24c2-2.71,5.8.87,6.53-1.51,2.61,1.06,4.66.84,4.16-2.57l.6.13a3.3,3.3,0,0,0,2.85.86C383,710.49,386.77,711.52,382.77,707.94Z"/><path class="cls-1" d="M592.09,708.83c-3-4.12,5.08-1,3,2.48l-.53-.55-1.68-1.47Z"/><path class="cls-1" d="M379,708.09l2.91-.09a14.22,14.22,0,0,1-1.91,2.2Z"/><path class="cls-1" d="M361,710.79c2.14-1.39,2.93,1.58,3.88,2.93a15.92,15.92,0,0,1-3.08-.56Z"/><path class="cls-1" d="M427.16,712.36c1.64-1.57,3.22-.8,3.77,1.22a29.66,29.66,0,0,0-3.53.48l-.51-.26C427,713.44,427.09,712.72,427.16,712.36Z"/><path class="cls-1" d="M431.55,714.09c-.35-2.89,4.63-.77,4.64,1.12l-3.11.21Z"/><path class="cls-1" d="M503.51,714c.21-2.06,2.07-2,3.69-2l.19,1.14C508.05,716.23,504,717.2,503.51,714Z"/><path class="cls-1" d="M595.22,712.77c1.5-1.39,3.3.3,2.68,2.06l-.92.32-1-.26C595.79,714.36,595.41,713.3,595.22,712.77Z"/><path class="cls-1" d="M335.93,714.89a5.38,5.38,0,0,1,4-2C339.72,714.91,337.68,715.56,335.93,714.89Z"/><path class="cls-1" d="M326.56,714.79l2.43-1,.93,2.16-3.27-.44Z"/><path class="cls-1" d="M392.93,716.92c2.14.37,4.22,1.15,6.41,1.31l.81.1C401.83,724.76,394,719.47,392.93,716.92Z"/><path class="cls-1" d="M318.09,721.71c-.16-1-.3-2-.41-3,1.37.91,2.75,1.83,4.16,2.72,1.19,3.39-1.14,1.68-3,.71Z"/><path class="cls-1" d="M592,731.07c0-2.43,2.22-3.81,3.84-5.23-1.63,3.68,1.11,4.18,1.47.33l.68-.57c.28,1.17.55,2.44,2,2.68v.46c-3.33.57-1.66,4.65-2.25,7.15L596,736c-1.48-.09-2.18.6-2.12,2.07l-.05.95c-.93-.37-1.86-.74-2.77-1.12,5.2,1-6.37-8.72.79-5,1.92,6.55,6.89-3.62.82-2.08Z"/><path class="cls-1" d="M402.93,727c2.87-.76,4.35,3.38,1.24,4.06A25,25,0,0,1,402.93,727Z"/><path class="cls-1" d="M592,731.07l.61-.24c1.77,1.21,1.45,4.22-.82,2.08C591.88,732.45,592,731.53,592,731.07Z"/><path class="cls-1" d="M584.86,741.06c-4.27-3.68,3.71-4.09,6.18-3.13-4.32.39,1,8,4.26,3.18-1.34,2,1.46,10.63,1.86,4.22,1-.8,1.91-1.62,2.84-2.47V757c-3.17-.72-2.68,3.8,0,3.93v6.53c-2.37,2.63-3.63,5.6,0,7.83v4.39c-2,1.85-5,3.26-4.86,6.44s-1.66.5-2.64-.66c3.24-3.26-2.37-7.89-.75-11.74.26,4.38-5.47,6.45-4.09,1.2-7,3-3.94-8.18-5.61-12.06-.28-.85-.58-1.67-.91-2.48,3.68-1.52,3.43-5.95.55-8.11-1.42-3.59,4.93-7,1.51-10.39C581.63,740.05,586.46,742.89,584.86,741.06Z"/><path class="cls-1" d="M267.82,746.05c12.17,5.8,22.27,15.91,32.53,24.66-5.2,2.56.77,4.79,3.8,5.36a19.15,19.15,0,0,0-2.07-4.21c7.14,3.37,12.88,9.14,20.51,11.6,2.82,1.68,9.13,5.29,10.13.2.43-5.09-4.21-8.8-6.56-12.92,4.46,2.9,9.88,9.49,7.72,15.1-2.84,5.89-8.5,2.3-13.13,1.25l-.73-.26c-5.66-2.33-8.31-10.22-14.9-10,.85,4.89,10.82,12.53,2,14.38-10.43,1.11-19.25-6.21-29.11-8.4,3,3.45,2.67,6.49-1.15,9,5.79-.36,11.12,1.75,16.14,4.34-.17,4.58-7.76,3.17-10.66,5.15-12.75,4.66-25.17-4.64-38,.11-8.05-.08-17.85-4.71-24.51,1.86-4.43-1.62-9.11,2.4-12.12-3-5.07.6-1.85,5.31-4.19,7.64-2.92-3.09-3.69-7.8-7.51-10-8,3-10.17,11.06-11.47,18.53-5.19.91-6.18,5.92-6.74,10.32-7,5-14.4-6.44-11.34-12.84.24,3.39,2.32,8.19,6.93,5.82,1.12-4,7.72-8.17,3.76-11.92-.27-5.48,9.95-1.11,8.26-6.53,4.83-3.47,6.81-10.27,12.68-12.15,9.38-2.08,16.88-8.68,25.7-12.28,4.48-1.78,2-7.26,3.39-10.78,3.8-.86,6.68,2.23,9.22,4.51,6.51,6.28,15.32,11.24,24.71,9.41a6.92,6.92,0,0,0-2.08-5c-3-4.91-7.57-9-10.15-14,8.12,1.7,12.61,10.89,20.61,13.65,5.62,7.34,16.3,5.63,24.16,8.84,2.17,1.21,4.57-1.14,4.36-3.34-6.68-9.28-13.69-18.34-23.12-25l-2-1.93C271.76,750.23,267.92,749.27,267.82,746.05Z"/><path class="cls-1" d="M0,749.44c2.21,1.52,3.94,8.89,0,5.47Z"/><path class="cls-1" d="M327.21,749.77c1.47-.36,3.1.41,3,2.13A2.89,2.89,0,0,1,327.21,749.77Z"/><path class="cls-1" d="M149.2,797.77c-5-5.22-14.28-13.16-12.14-21.15,1.69,4.07,4.33,7.85,8.51,9.64-.52-1.77-.56-5.08,2.21-4.09,4.33,4.94,4.2,17.09,13.91,13,1.62,3.06,1.16,8,5.15,9.18l.14.8q-.19,4-.49,8c-1.32-2.5,0-8.66-4.12-6.7C155.47,809.17,155.56,798.4,149.2,797.77Z"/><path class="cls-1" d="M572.51,791.13c.85-3.93,2.48.1,2.26,2A4.59,4.59,0,0,1,572.51,791.13Z"/><path class="cls-1" d="M569.09,794c-.8-1.85,1.15-3.17,2.59-3.82l.28.7,0,1C571,792.55,570.11,793.32,569.09,794Z"/><path class="cls-1" d="M592.21,795.86c3.37-.11,1.27,4.87,1.77,7.11C592,802.26,593.5,797.93,592.21,795.86Z"/><path class="cls-1" d="M592.28,811.31c1.38.27,1.38,4.09,0,4.38A4.71,4.71,0,0,1,592.28,811.31Z"/><path class="cls-1" d="M591.28,824.31c1.38.27,1.38,4.09,0,4.38A4.71,4.71,0,0,1,591.28,824.31Z"/><path class="cls-1" d="M390,888.29c4.26-2.07,4.26,2.48,0,.42Z"/><path class="cls-1" d="M69.08,894c0-2.9,4.59-2.33,1.7,0Z"/></g></g></svg>