<svg xmlns="http://www.w3.org/2000/svg" viewBox="0 0 493.18 641.28"><defs><style>.cls-1{fill:#c39946;}</style></defs><title>Layer 9</title><g id="Layer_2" data-name="Layer 2"><g id="Layer_9" data-name="Layer 9"><path class="cls-1" d="M161.86,2c3.19.48,8.55,2.73,9.15-2-.36,4.23,1.68,5.16,1.28.44,2.13,1.43,4.66,1.44,7.11,1l.63,0c2.16,4.26,8.17,3.05,11.84,5a61,61,0,0,0,5.91,7.12c9.88-.93,13.54,12.12,14.16,19.3-5.6,5.65-3,13-1.37,19.53,2.34-2.8-.6-7.21,3.27-2.26,2-6,.92-.43,3.67,1.5.94,2.67-1.68,7.11,2.39,7.73,0-2.46-.41-4.9-.62-7.35,2.9,2,4.93,5.2,8.77,5.43,3.31,7.17-4.31,2.63-6.72,5.85-6.16,9.76-19,1.28-27.82,2.12-4.17,2.39-12.41,1.54-13.25,7.61l-.2.6c-9.25,7.44-5.81,20.56-6.14,31,1.92,3.6-1.94,14.15,3.41,14-.94,4.52-3.26,8.69-3.66,13.25A62.51,62.51,0,0,1,163,139.35l-.72-.23c-1-3.16-8.15-10.17-7.17-3.82l.44.7c.2,1,.42,2.06.63,3.09-2.67.43-8.37-1.43-4.65,4.73,2.88,3.51,4.89,8.19,8.94,10.43L159,155.36l-1.15.84-1.37-.39-1-1.35c-4-2.94-7.67-6.12-9.74-10.79C134,138.12,128.91,125,127.28,112.82c1.48-.44,5.95-.87,2.17-1.82-4.13,0-7.88-9.81-1.93-7.17,4.27-.14-1,3.32,4.5,2.92-2.6,4.4,2.73,3.54,4.47,6-3.35-1.4-1.2,3-3.2,4.44-2.77,6.44,4,11.12,7.58,15.36,2.88,2.17,4.44-2.42,7.19-2.65,4.71-.89,4.38-7.53,7.37-9.69,8.82-.9,1.19,21.55,5,8,6.31-.66-5.78,11.44,4.35,6.67,2.38,0,4.29-1.58,5.87-3.17-.89-2.22-2.83-10.2.58-5.56-2.52-13.08,2.29-26.16.22-39.16-.6-3.33-3.66-4.56-6.38-2.53-1.85-.91-2.71-2.87-3.75-4.52A29.9,29.9,0,0,0,159.56,77c-1.38-2.23-2.93-4.34-4.4-6.51,2-5.78,1.88-.76,3.32,2.37,2.31.74,7.59,4.07,6.86-.53,3.79,5.41,10,.56,13.38-2.75,4.84-5.34,12.53-5.51,18.09-9.7,2.13,1.18,7.42,4.12,7.31-.34a8.92,8.92,0,0,1-6-3.33c2.77-.87,6.31-.7,7.21-4-2.64.22-11.64,3.25-6.95-1.76-3.86.41-6-3.06-1-1.42-3.21-1.94-3.74-6.15.35-8.37,3.57-3.08,6.61-7.54,7.48-12.16-4.73-.08-9.55-2.81-8.26-8.2-4.92,2.72-4-.53-1.62-4.25-4.74-1.3-3.29,13.28-4.08.12.28-2.11-2.87-3.1-4-1.21,1.47-5.49-5.09-3.6-8.08-2.1,1.85-4.83-2.12-5.45-5.05-6.47-.17,1.93-.43,4.23,2.18,3.18,1,4.91-6.41-.95-5.95,4.77-.09-.84-.25-2.52-.34-3.37A41.64,41.64,0,0,0,168,4.4c-2.83,3.26-8.5,1.12-9.34,6,.49-4.83-4-2.38-1.07.49,2,2.6,3.86-2.39,4.54,1.28-.3.51-.89,1.53-1.19,2-1.72-1.67-2.93,2.79-2.83-.93-2.58-3.76-6.19,3.42-10,2.45l-.64,0c-6.75.44,1.53-14.13,1.85-6.65,2.77-2.34,6.41-3.3,9-5.8C159.52,2.8,160.68,2.4,161.86,2Z"/><path class="cls-1" d="M135.16,33.69c-2.09-6.27.48-16.89,8.28-16.67-.06,1.52,0,3.32-2,2.65.8,4.19-2.36,7.69-2,11.84-5.62.21-.28,4.25,1.41,6.45-2.86.31.16,1.53,1,2.47-.51,4-2.47,7.62-3.87,11.37,2-.31,11.37-1.63,7.1.3-8.08-3-4.16,2.39-3.28,5.14,2.61-1.93,4.76-.11,7.51-2.09a52.14,52.14,0,0,0-6.69,7.4c1.05-1.77-.86-6.45-1.69-2.56-1.71,5.07-1.46-2.34-4.76-2l1.1-1.63c2.94-3.33-3.2-2-4.44-.28l-1.4-.1c.59-5.79,1.46-11.53,1.08-17.39C131.86,36.25,136.53,35.82,135.16,33.69Z"/><path class="cls-1" d="M146.34,17.94l.6.21a37,37,0,0,0,.67,4.06c-1.51,2.63-3,1.16-4.29-.77C145.62,21.48,146.57,20.18,146.34,17.94Z"/><path class="cls-1" d="M152.54,24.08l.6,0c2.57,1.19.38,3.26-.28,5h-.54A28.33,28.33,0,0,1,152.54,24.08Z"/><path class="cls-1" d="M159.26,25.2c2.15.87.52,5.58.9,8C158,32.28,159.64,27.58,159.26,25.2Z"/><path class="cls-1" d="M162.38,35.25H163a49.79,49.79,0,0,1,.78,5.16l-1.36-.28A11.31,11.31,0,0,1,162.38,35.25Z"/><path class="cls-1" d="M171.12,42.82c-1.85.45-1.66-3.94.22-3.36C171.32,40.58,171.24,41.7,171.12,42.82Z"/><path class="cls-1" d="M150.51,42.54c2.37-.36,1.21,3.9,0,4.28A4.68,4.68,0,0,1,150.51,42.54Z"/><path class="cls-1" d="M166.14,42.18c1.85.48,1.09,3.67,2.14,5.19q-.19,2-.27,4C165.61,48.92,166.27,45.34,166.14,42.18Z"/><path class="cls-1" d="M148.49,45.49c1.39.28,1.39,4.1,0,4.38A4.71,4.71,0,0,1,148.49,45.49Z"/><path class="cls-1" d="M168.8,47.33c1.35-2.69,2.71,2.74.72,2.67Z"/><path class="cls-1" d="M151.36,50.11c1.27.49,1,2.21,1.58,3.28.09.68.26,2,.35,2.72,2.29,5.28-5.13,1.35-2.37.38,2.34,1.22,1.61-3.11-.42-2.26-3.11-.07-6.18.07-9.27-.09C142.17,49.35,152.71,56.76,151.36,50.11Z"/><path class="cls-1" d="M163.3,51.39l.71-.07A4.07,4.07,0,0,1,164,55l-.69-.08A12.21,12.21,0,0,1,163.3,51.39Z"/><path class="cls-1" d="M154.18,55.83l1.87-.5.36.78c0,.4-.1,1.21-.14,1.61C155.08,57.84,154.38,57.21,154.18,55.83Z"/><path class="cls-1" d="M192.49,56.49c1.39.28,1.39,4.1,0,4.38A4.71,4.71,0,0,1,192.49,56.49Z"/><path class="cls-1" d="M131.61,65c-3.64-1.35-1.46-8.66,3.77-6.9,1.07,2.42,1.09,4.63-2.21,4.42.74,2,2.45,6.17,4.87,3.48,2.13-2.12,6.69,2,6.52-2.55,2.79,3.37,9.65,1.29,10,6.48-8.27-1.1-16.08,2.69-24.08,4a5.16,5.16,0,0,1-2.22-5.61C137.45,70.66,131.35,67.81,131.61,65Z"/><path class="cls-1" d="M203.33,77.61c1.25-.13,2.51-.25,3.76-.36.71.94,1.43,1.88,2.13,2.83l-1,0-5.87.74-3.09.95q-.61-1.69-1.11-3.42l2.28-.52C201.4,77.77,202.37,77.71,203.33,77.61Z"/><path class="cls-1" d="M144.4,78.29l1.74-.08c.8.84,1.59,1.68,2.36,2.54l-3.24.64c-1.34-.6-3.28-.72-3.94.89L138.94,82C140.16,80.06,142.5,79.39,144.4,78.29Z"/><path class="cls-1" d="M194.36,87.27c2.34-.76,4.71-1.38,7-2.13l.71.23a4,4,0,0,0,.93,3.25c1.07,1.33,2.24,3.44,4.28,2.94l3.12-.19c.07,7.7-14.55,2-11.17,9-1.3,2.34-3.46,3-6,2.32a15.36,15.36,0,0,0-1.45,9.79c1.41,6.37,2.94-11.54,1.53,1.87-3.19,3.17.66,8.42,3.64,4a7.26,7.26,0,0,0,3.27,5.71c-4.95-2.18-5,1.77.14,1.48-2.5,1.85-7,.08-7.69,4-1,1.77.18-2.93-1.54-2.52-.13,1.41-.21,2.82-.26,4.24-1.79-4.71-.42-11.75-7.46-10.94a6.61,6.61,0,0,0-.3-4.87c4.79-2.81,4.65-8.65,5.08-13.3C193.15,98.33,188.72,90.47,194.36,87.27Z"/><path class="cls-1" d="M130.12,97.22c5.81.91,4.59-8.62,10.95-9.06,2,2.27,3.91,5.17,7.38,3.59l2.9-.41c-1.88,1.45-3.78,2.87-5.57,4.42l-.8.2c-2.66-.1-5.14,3.55-7.37.84-1.93-1.65-2.7.32-2.7,2.14-2.46,1.61-4.7,4.29-8,3.67-2.78-.65-1.73-4-.54-5.6l1.88.33C125.5,99.64,130.22,100,130.12,97.22Z"/><path class="cls-1" d="M228,89.3c1.62-.13,3.24-.2,4.87-.31,2.12.76,4.38,1.21,6.34,2.37.8,7.83-4.95,13.91-8.61,20.17-3.06,6-5.32,12.45-8.78,18.27-2.81,2-6.38,4.21-6.09,8.22-6.88,4.61-15.2,10.88-24.05,8.06a26.38,26.38,0,0,0-.16-9.25c-.08-1.25-.14-2.49-.19-3.73l0-1c3.64,3.52,1.72,12.44,9.81,9.12,3.87-4.66,10.54-8.8,8.66-15.78a9.14,9.14,0,0,1,7-2.69c.91-2.36,1.2-4.39-1.52-5.58,1.82-1.68,3.63,1.62,5.74.9,3.84-4.25,3.47-10.45,5.16-15.62-3.06-2-6.73-2-10.27-2l1.35-1c3.26-1.59,14.43-3.3,10.12-7.2C230.87,92.84,229.68,91.18,228,89.3Z"/><path class="cls-1" d="M164.27,92.57c-1.38-.95-.28-2.36,1-2.62C166.25,91,165.9,92.57,164.27,92.57Z"/><path class="cls-1" d="M125.25,92.32l1.51-.64c.38.63,1.16,1.87,1.55,2.49l-.64.21C126.83,93.73,126,93,125.25,92.32Z"/><path class="cls-1" d="M153.34,99.35c4.16.57,6.64-5.14,10.95-6.29-.85,3.76,3.33,6.64,1.14,10.25-1.9,5.6,1.11-3.79-2.13-3,1,5.4-3.16,9.57-8.19,10,2.36-1.13,3.43-3.47,4.2-5.83-3.54,1.67-1-2.48-1-4.32-2.58.44-3.8,2.47-4.12,4.88-3.68-3.73-1.17,1.22-.16,3.45-2.77-.5-3.31-3.33-2.92-6-5.07,2.66-10.13-2.27-15.27-3.17,5.58-.2,11.17,2.79,16.61.16Z"/><path class="cls-1" d="M167.48,96.52c1.25.6,1.21,3.21,1.23,4.55C166.52,101.5,166.69,97.77,167.48,96.52Z"/><path class="cls-1" d="M202.72,101.35a2.08,2.08,0,0,1,3.63-.3C205.22,101.59,203.86,102.26,202.72,101.35Z"/><path class="cls-1" d="M203.15,114.32c-3-1.25-3.35-6-.67-7.45l.49.58A43.81,43.81,0,0,0,203.15,114.32Z"/><path class="cls-1" d="M205.44,107.11l.66.24c0,.68,0,2,0,2.72q-2.38.59-1.75-2Z"/><path class="cls-1" d="M158.43,111.34c5.8-1.44-1.6,2.66-.3,5.81C156.57,121.29,155.94,112.22,158.43,111.34Z"/><path class="cls-1" d="M213.11,112.06c1.26-1.37,1.45,3.07,3.68,2.52-.69,1.74-4.55.57-3.9-1.66Z"/><path class="cls-1" d="M162.44,116.3c5.57,3.44-2.24,6.53-4.34,3C160.47,119.35,162.87,119.35,162.44,116.3Z"/><path class="cls-1" d="M146.52,118.42c1.85.89-1.08,2.51-1.71,3.39C143,121.09,144.9,118.28,146.52,118.42Z"/><path class="cls-1" d="M204.61,118.59c1.69.57.74,4.49-1.48,3.79C199.25,121.78,205.09,120.85,204.61,118.59Z"/><path class="cls-1" d="M167.77,124.15c2.94,7.4-9.14-3.69-.86-3A20.82,20.82,0,0,0,167.77,124.15Z"/><path class="cls-1" d="M163.1,126.91c-4.54-2.36,1.65-7.33.26-.56Z"/><path class="cls-1" d="M199.56,127.67c.63.84,3.9,2.14,6.75,1.62-1.93,3.24-6.48-1-8.39,2.62-1.82,2.68-2.55-1.5-3.7-2.75C196.49,130.08,198.74,130.53,199.56,127.67Z"/><path class="cls-1" d="M156.81,139.64l2.53.18c2.14,2.25,4.6,4.15,6.83,6.31A6.33,6.33,0,0,0,170,153.5c-.09,4.42-6.26,1.36-8.83.48C168.85,151.43,161.74,142,156.81,139.64Z"/><path class="cls-1" d="M207.5,157.43c5-1.38,5.27,4.63,1.49,6.56-2.27-.57-6.76.45-6.92-2.62C205.61,163.66,204.37,157.7,207.5,157.43Z"/><path class="cls-1" d="M152.34,160.38c1.41-.33,2.79-.79,4.18-1.2a31.61,31.61,0,0,0,5.24.06l.63,0c.16.44.47,1.34.63,1.79.52,3.71,5,3.68,5.49-.06l1,0a27.1,27.1,0,0,0,6.79.35c.76,7.2-8.44,4.06-13,5.92-.3,5.12,4.51,6.62,8.23,8.53-3.52.08-7.26-.59-10.5,1.1-.87,6.32,5.21,12.17,12.48,10.8,7.95-.48,8.59-11.62.53-12a23.78,23.78,0,0,1,12.1,1.73c-1.12,2.79-4.54,4.57-1,7.64-2.88-1.64-3.41,1.13-4.3,3.29a93.09,93.09,0,0,1-10.72,4.27c-9.59-3.24-13.17-13.38-17.58-21.59-2.42-3.64-6.55-6.32-7.39-10.89C147.5,160.23,150,161.12,152.34,160.38Z"/><path class="cls-1" d="M195.36,238.12c6.19-1.37,5.91,8.8,12.37,7.73,5.19.4,10,3.43,15.22,2.43-.54,6.41,2.23,2.35,1.68-2.5,3-1.66,7.45,7.57,10,2.68l.45-.69c1.21.85,3.49,1.8,3.14-.66,2.6-.8,5.25-1.59,7.92-2.19-1.29,1.32-3.54,5.16.1,4.28,3.54,1-.14-3.63,3-4.1,2.47-2.68,7.69,3.68,1.95,2.26,3.89-.09,4.85,6.78,8,4.8l1.63-.94a31.21,31.21,0,0,0,2.44,6c2.21,1.87,5,2.54,2.78,6-1.83-4.68-4.75-1-.77,1.06-.93.62-1.89,1.28-1.06,2.42-2.55.06-1.29,2.21.36,2.63a13.8,13.8,0,0,0-.76,2.44c.67,4.08,1.09,7.94-3.51,9,2.74-.14,2.8,2.27,3,4.34,0,.4.13,1.19.18,1.58-1.63,2.14-5.22,5.47-.07,4.65l-.11.81c-1.75-.08-3.14,2.19-1.05,3l1,.79c.24,4.25-10.72,11.2-2.09,10.7.29,3.18-1.91,7,.94,9.45-1.82,0-3.43.21-2.26,2.28.17.61.5,1.84.67,2.46-1.22,0-5.57-1.89-3.17.36,2.58,2.37-4.1,9.84,1.81,8.92,1.95-.33,2.35.27,1.06,1.66-2.16,2.1-6.61,5-5,8.37l.91,2.05a4.37,4.37,0,0,0-3.92.57c-1.79,1.78-1.81,5.12-5.18,6.15l-.62.39c-1.9-2.69-6.18,2.92-2,2.17-1.09,1-2.15,2-3.18,3l-2-1.4c-1-7.42,7-7.66,10.61-12.16-1.66-2.24.93-3.68-1.4-5.74,1.76,3,11.31-1.62,5.47-2.69-5.49-1.07-1-7.38.5-10.42-2.88.17-5.84,2.87-7.91-.24,1.78-2.93,4.13-5.89,7.47-7.07-.29-2.07-4.91-6.61-.46-4.88-3.32-2.16,1.64-4.55-3-3.73,3.53-2.67-.93-4.6-2.21-6.78,4.81,2,3.66-3.13,4.26-5.92-2-2.5-3.82-5.21-6.3-7.31,2.14-.21,7.56,3.62,7,.06,2,1,3.95,2.1,6.24,2.08-1.63-2.44-4-3.78-7.11-2.53-2.19-1.06-.76-6-4.09-5.08,4.41-4.13-2-7-3.85-10.65-.13-2.63,3-8.22-1.78-6,.08-2.34.48-4.65.67-7-2.49.45-2.81,5-5.77,4.45-1.83-3.29-11.37-4.18-3.58-4.5-.27-5.83,2.68,5.13,5.86,1.73,6.84-6.1-10-6.14-12.59-3.77-1.58,5.12-4.95-1.05-3.92,5-2.92-2.11-5.86-1.58-8.6.46,2.28-6-6.25-1.85-6.26,2.09,2.78.32,4,3.34,5.18,5.51-3.31-1.24-6.08-3.48-9.16-5.15-.09-2.24,3.06-2,4.16-3.58-3.3-.38-6.89,2.87-9.63-.07.19,3.75-7.91,7.32-5.71,2,2.07,5,6.84-7.92,2.72-3.7-1.24,1.09-.16-2.79-2-2.45a53.48,53.48,0,0,1-3.42,8.3c-.7-9.91-1-3.52-3.86-1.12-.05-3.06-1.62-10.28-5.43-6.22,2.87-6.21-1.72-.12-3.5-4.48-1.4,2.35-2-1.54-3.25,1.53a2.79,2.79,0,0,0-3.4,4.27c-3.23-1.6-2.79,1.87.12,1.71.73,7.27-4.15,2.12-8.8,4,5.75,5.19-9.69,2.78-3.26,8.11-3.24-.11-14.66,1.32-10.08,6.47,2.16,4.2-4.32-1.52-5.31-3.42-.67,2-2.24,3.24-3.83,4.46l-.71.55c1.05-2.83-2.1-5.95,1.94-5.35,2.6.11,1.95-3.06,2.31-4.73.91-.55,1.82-1.09,2.75-1.61a13.86,13.86,0,0,0,6.28,1.29c-.36-1.58-5.71-3.51-1.6-3.38,4,1.61,4.56-6.74,7.65-2.68,1.82,2.09,1.91.56,1.66-1.51.26-.28.8-.82,1.07-1.1,6.52-1.05,8.66-10.53,16-11.09,7.32,1.32,13.12-3.95,19.19-5.69-2.77,1-4.13-1.09-5.22-3.26C193.92,241,197.16,242.23,195.36,238.12Z"/><path class="cls-1" d="M234.58,248.46c-2.72-4.41.1-5.3,3-1.85-1.07-.23-2.3-.08-2.59,1.16Z"/><path class="cls-1" d="M171.76,257.16c.43-1.23.68-2.66,2-3.22,4.38-.42,3.84,5.08-.34,2.24C174.51,259.23,173.94,259.65,171.76,257.16Z"/><path class="cls-1" d="M177.32,263.14c-.3-3.2,2.24-4.15,4.94-3.9-1,1.14-5.15,4.51-1.29,3.65l-1.35,2.74-.86-.46Z"/><path class="cls-1" d="M174.8,265.56c-1.45-2.32.79-2.35,2.38-1.42C177.54,265.77,176,266.15,174.8,265.56Z"/><path class="cls-1" d="M223.94,270.3c-1.52,5.62-3.85-4.26-.74-4.12C224.8,267.71,224.6,268.75,223.94,270.3Z"/><path class="cls-1" d="M212,273c-.07-3.15,3.8-.51,1.56,1.05Z"/><path class="cls-1" d="M176.26,272.43c2.66,1,.32,5.73-.43,1.74C175.94,273.74,176.15,272.87,176.26,272.43Z"/><path class="cls-1" d="M214.37,275.32l.95.83-1.1,1.25c-1,.13-2.91.11-2.37-1.42Z"/><path class="cls-1" d="M230.21,282.62c-3.52.78,1.87-6.59,2.56-4.25A8.51,8.51,0,0,1,230.21,282.62Z"/><path class="cls-1" d="M139.85,278.77c3.15-.85,8,5.34,2.1,2.7,4.52,3.7-1.28,3.21-5,3.75.12-.37.36-1.11.47-1.48.63-1.45,1.22-2.92,1.71-4.42Z"/><path class="cls-1" d="M237.69,283.34c1.18-.06,2.37-.11,3.57-.14,3.7-.9.69,2-.68,3a2.31,2.31,0,0,0-2.23-2.17C241,289.52,229.32,283.57,237.69,283.34Z"/><path class="cls-1" d="M137.27,286.14c2.87.06,3.41,3.31.08,1.81Z"/><path class="cls-1" d="M143.09,294.26l1.52.62a10.81,10.81,0,0,1-.08,4.24l-.91,1.14-.26-1c-.28-1.08-.61-2.13-1-3.16Z"/><path class="cls-1" d="M135,295.42h2.39c-.73,1.85-1.25,3.93-2.95,5.17A40.5,40.5,0,0,1,135,295.42Z"/><path class="cls-1" d="M235.31,296.93c1.38-2.9,3.66,2.91,1,2.88A4.35,4.35,0,0,0,235.31,296.93Z"/><path class="cls-1" d="M129.54,303.43c1.4-2.19,2.74-7.4,4.93-2.85-.88,1.81-2.33,4.32.83,2.84-1.18,2.66-2.4,5.26-5,6.88l-.26-.89A18.56,18.56,0,0,1,129.54,303.43Z"/><path class="cls-1" d="M463.21,299.07c3.18-1.5,7.35,1.87,7.33,5C467.88,302.87,463.51,302.73,463.21,299.07Z"/><path class="cls-1" d="M238.12,299.09c2.95,1.86,8.93,2.73,6.37,7.26.1,5.13-9.16-5.35-3.06-2.34C240.9,302,239.19,300.75,238.12,299.09Z"/><path class="cls-1" d="M262.55,302.18c-.26-1.21.33-2,1.77-2.35l.57.6.05,1A7,7,0,0,1,262.55,302.18Z"/><path class="cls-1" d="M472,304.13c.25-3.11,4.29-4.3,5.75-1.38A16.2,16.2,0,0,1,472,304.13Z"/><path class="cls-1" d="M123.36,310.34c1.7-.41,3.29-1.51,5.08-1.39-1.23.87-1,2.74.74,2.5-2.1.6-4.45,1-4.2,3.74l-2.68.45C116.62,311.64,125.21,313.84,123.36,310.34Z"/><path class="cls-1" d="M115.29,315c1.06-1.14,2.25-2.45,2.22.1-3.06,2.47,2,4.26.69.26a12.07,12.07,0,0,0,4.1.3l2.68-.45,1.87-.06c.09.42.26,1.26.34,1.69a7.34,7.34,0,0,0-5,6.46q.81,1.43,3.06,1.17l0,.74c-1.44,0-2.88.05-4.31.1-1.9-.61-5.14-2.06-2.74.9,2.67,3.87-1.58.1-3.15-.92a8.56,8.56,0,0,0-6.64-1.11,36.18,36.18,0,0,1,4.73-7C113.85,316.44,114.57,315.7,115.29,315Z"/><path class="cls-1" d="M126.85,315.13c1.25-4.4,5.34,2.55.34,1.69C127.11,316.39,126.94,315.55,126.85,315.13Z"/><path class="cls-1" d="M133,316.41c.34-.67,1-2,1.37-2.69h.74c1.33,1.28-.54,2.94-1.76,3.31Z"/><path class="cls-1" d="M245,314.31c3.8,4.48-5.17,2.63-.7-.19Z"/><path class="cls-1" d="M338.23,316.26c1-.48,3.26-1.63,2.86.49l-2,1.2-.78-.18C338.3,317.39,338.25,316.64,338.23,316.26Z"/><path class="cls-1" d="M322.16,318.08l.83-.27c1.81,0,3.15.76,3.35,2.64-3.27,1.22-6.35,3.83-10,3.07-4.1-2-4.73,2.1-.25.55a2,2,0,0,1-1.7,1.61,32.43,32.43,0,0,0-10.62.57c.88,2.69-2.05,1.91-3.78,2.1,1.42-1.14,2.89-2.33.28-2.86l3.1-.44c1.53.5,3.62.44,4.11-1.44l1.29-.49.87-.29C313.75,320.58,321.72,324.32,322.16,318.08Z"/><path class="cls-1" d="M476,328.88c1.55-1.84,3.95-1.77,6.15-1.65,2.94.31,8.24,5.19,9.43.75l.81-.2.82.31c.1,4.23-4.71,3.26-7,6l-.79,0c-2.77-1.05-6.72,1.5-8.24-1.9l.89-.08c5.22.82,3.53-6.17-1.11-3Z"/><path class="cls-1" d="M108.34,328.77a5.3,5.3,0,0,1,4.6,1.64c1.43,5.11,6,8.16,8.26,12.62l-.92.1-2.17-.39c2.09-1.87-1.6-2.79-3-2.34l-1-1c2.69-3.52-1.2-3.62-4-4l-.55-.37C110.21,332.83,108.87,330.82,108.34,328.77Z"/><path class="cls-1" d="M468.08,329.07l2.42-1.2,1.49.5V329l-2.09,1.12C469.45,329.85,468.54,329.33,468.08,329.07Z"/><path class="cls-1" d="M295.25,330.85c-1.08.69-5.07,1-3.39-1.13A9,9,0,0,1,295.25,330.85Z"/><path class="cls-1" d="M133.32,338.75c-5.43-.84.51-6.07.14-.52Z"/><path class="cls-1" d="M257.25,339c-3.73-4.15,8-2.3,1.79.57Z"/><path class="cls-1" d="M255.1,340.15l2.15-1.18,1.79.57,0,.69-.65.37Z"/><path class="cls-1" d="M121.86,343c1.71-.39,4.68-2.06,3.93,1,4.77,1.38,6.12,3.55,11.52,3.62l.83.12c2.86,2,7.65,5.29,10,1.41,2.14-4,6-3,7.74.72-3.33.78.91,3.85,2.75,2.58,0,3.64,6.08,2,6.71,5.59-2.74,1.4-5.2-.67-7.7-1.59-1.26-1.48-2.5-3.76-4.71-2.36-1.61-.28-3.64,0-4.39-1.83,5.72-2.09.88-5.33-.5-.33l-1.89,1.42c-1.92-.17-3.84-.4-5.73-.72-.34-1.23-.91-4-2.67-2.56l-2.44.2h-.79c-2.63-1.65-5.54-2.75-8.26-4.22C124.78,345,123.3,344,121.86,343Z"/><path class="cls-1" d="M5.45,344.21a16.46,16.46,0,0,1,4.09,0l-.47,1.51a20.2,20.2,0,0,1-3.62-.73Z"/><path class="cls-1" d="M137.21,346.76c-1.27-.34-1.59-1-1-2C138.18,344.47,140,346.11,137.21,346.76Z"/><path class="cls-1" d="M232.92,356a56.39,56.39,0,0,1,2.21-5.33c.61.87,1.23,1.75,1.84,2.64.44,1.22.88,2.46,1.33,3.69-1.39,0-3.27-.85-3.41,1.23C234.22,357.49,233.56,356.74,232.92,356Z"/><path class="cls-1" d="M166,358c3.34-.36,6.73-.39,10.08-.67.93.29,1.87.55,2.81.85.07.45.22,1.35.29,1.79l.11,1C174.8,360.31,170.21,359.82,166,358Z"/><path class="cls-1" d="M181.07,357.2l.75-.07c1.91,1.34,4.39,1.69,6.2,3.15-2.54,1.05-5-.07-7.43-.89Z"/><path class="cls-1" d="M221.26,362.82a35.77,35.77,0,0,1,1.54-4.73c.89,1.31,1.83,1.34,2.84.09l1.72-.06.94.06a37.28,37.28,0,0,0-3.43,5.73l-2.38.46C222.19,364,221.57,363.21,221.26,362.82Z"/><path class="cls-1" d="M229.21,358.24l1.89.88C230.05,362.23,227.17,361,229.21,358.24Z"/><path class="cls-1" d="M188.46,360.69c3.34-.56,6.7.09,10.06-.07a20.66,20.66,0,0,0,3.13-.34c.93,2.2,5.65,2.77,6.09-.06l.64.44,2,2.47a22.15,22.15,0,0,1-9.1.22c-1.66-.15-3.33-.21-5-.3a16.64,16.64,0,0,0-6.58-1.11l-2.55.17Z"/><path class="cls-1" d="M213.7,363.26c.86-2.69,4.82-1.9,6.73-.66l-1.17,2.54-.73-.18C216.92,364.39,215.3,363.85,213.7,363.26Z"/><path class="cls-1" d="M210.39,363.13l2.68.1a11.86,11.86,0,0,1-1.89,2L210,363.87Z"/><path class="cls-1" d="M0,373.29q4-.19,8.07-.19h3.37c.7.8,1.33,2-.06,2.51C7.72,374.4,2.41,377,0,373.29Z"/><path class="cls-1" d="M96.21,536.27l.78,0c11.74,3.59,20.12,14.61,32.89,15.3,4.42,4.21,7,11.5,14.05,12,2-.43,3.11,1.39,4.38,2.64a7.12,7.12,0,0,0,4.39-5.66c2.3,1.44,10-2.41,9.45,2.59-1.57,3.14-.73,9.79-5.06,9.57-.54,3.24,3,3.37,5,2,4.5,4.63,13.68,9.46,18.83,3.17,4.53-2.43,8.37,1.75,10.05,5.51,6.95-.55,12.1,4.15,18,7l.35.68c1.19,2.66,2.44,5.93,5.67,6.54-2.87,5.09-9,5.26-13.69,2.54-8.36-2.87-12.44-13.26-22.27-12.56-4.42,1-5.26,6.31-9,8.3-7.13,1.09-12.11-6.59-19.07-4.94-4.56,3-11.13,1.19-13.56,7.26-.65-3.42-.85-12.07-5.37-6.62-6.13-4.86-13.91-10.72-22.41-11.85-.39-1.23-.62-2.5-1.06-3.69-5.77-1-11.68-4.26-17.36-1.17-5.8-.78-12.67-.5-16.21-6C70.27,572,68.72,563,67.68,559a23,23,0,0,1,1.66-5.73,5.85,5.85,0,0,0,2.08-3.82c2.5-.42,2.46-3,3-5l.75-.3.68-.28a19.39,19.39,0,0,0,5.6-3.41c1.65-.76,3.29-1.52,5-2.25,2.19-.26,4.37-.62,6.56-.94C94,539,96,538,96.21,536.27Z"/><path class="cls-1" d="M6.7,540.32l2.21-1.47,2.21,1.09-1.55.76-2.79.15Z"/><path class="cls-1" d="M5.41,541.16l.76.27.2.8c-.09.48-.26,1.44-.35,1.93l-2.9,0C3.24,542.76,4.38,541.86,5.41,541.16Z"/><path class="cls-1" d="M49,548c3.75-2.61,3.5-.86,1.38,2.21l-1.06,0L48.1,550Z"/><path class="cls-1" d="M166.2,602.17c2.81-.87,4.21,1.57,4.9,3.87C169.29,608.36,165,604.86,166.2,602.17Z"/><path class="cls-1" d="M182.34,611.36c3.83.16,8.22,4.23,4.75,7.78C183.83,617.72,179.15,615.42,182.34,611.36Z"/><path class="cls-1" d="M88.41,615.24c11.74-2.83,1.37,11.27-4.2,8C86,620.81,86.57,617.67,88.41,615.24Z"/><path class="cls-1" d="M96.51,629.39c9.88.54.49,16.32-6.17,10.67C92.49,636.5,92.94,632.09,96.51,629.39Z"/></g></g></svg>